M48
; DRILL file {KiCad 9.0.7} date 2026-09-21T22:13:06-0700
; FORMAT={-:-/ absolute / inch / decimal}
; #@! TF.CreationDate,2026-09-21T22:13:06-07:00
; #@! TF.GenerationSoftware,Kicad,Pcbnew,9.0.7
; #@! TF.FileFunction,Plated,1,2,PTH
FMAT,2
INCH
; #@! TA.AperFunction,Plated,PTH,ComponentDrill
T1C0.0079
; #@! TA.AperFunction,Plated,PTH,ViaDrill
T2C0.0118
; #@! TA.AperFunction,Plated,PTH,ComponentDrill
T3C0.0394
; #@! TA.AperFunction,Plated,PTH,ComponentDrill
T4C0.0433
; #@! TA.AperFunction,Plated,PTH,ComponentDrill
T5C0.0472
; #@! TA.AperFunction,Plated,PTH,ComponentDrill
T6C0.0512
; #@! TA.AperFunction,Plated,PTH,ComponentDrill
T7C0.0630
%
G90
G05
T1
X2.6717Y-1.8445
X2.6717Y-1.8878
X2.6933Y-1.8228
X2.6933Y-1.8661
X2.6933Y-1.9094
X2.715Y-1.8445
X2.715Y-1.8878
X2.7366Y-1.8228
X2.7366Y-1.8661
X2.7366Y-1.9094
X2.7583Y-1.8445
X2.7583Y-1.8878
T2
X2.1105Y-3.1607
X2.1806Y-1.6437
X2.2031Y-2.8989
X2.2171Y-1.7858
X2.2181Y-1.828
X2.2252Y-3.2682
X2.2956Y-2.1689
X2.3066Y-2.7368
X2.3407Y-2.747
X2.348Y-2.4168
X2.3784Y-3.6328
X2.3787Y-1.6516
X2.3825Y-1.7402
X2.385Y-3.3735
X2.4181Y-3.1988
X2.4541Y-2.8939
X2.466Y-2.9255
X2.476Y-3.5328
X2.484Y-1.9265
X2.484Y-2.0966
X2.4848Y-3.1717
X2.5083Y-3.374
X2.6876Y-3.0379
X2.7739Y-2.939
X2.7953Y-3.1693
X2.9547Y-2.4652
X3.0393Y-2.4652
X3.0624Y-2.7718
X3.0709Y-1.9822
X3.0713Y-2.093
X3.074Y-1.6811
X3.0769Y-1.8583
X3.0837Y-1.7992
X3.0962Y-2.7752
X3.0964Y-2.0354
X3.1004Y-2.8445
X3.1115Y-1.9175
X3.1856Y-1.9972
X3.2185Y-1.6634
X3.343Y-2.602
X3.3834Y-1.9972
T3
X3.1182Y-3.3468
X3.1182Y-3.4468
X3.1182Y-3.5468
X3.1182Y-3.6468
X3.288Y-1.7472
X3.288Y-1.8472
X3.288Y-1.9472
X3.288Y-2.0472
X3.288Y-2.1472
X3.288Y-2.2472
X3.288Y-2.3472
X3.288Y-2.4472
X3.288Y-2.5472
X3.288Y-2.6472
X3.288Y-2.7472
X3.288Y-2.8472
X3.288Y-2.9472
X3.288Y-3.0472
X3.288Y-3.1472
X3.288Y-3.2472
X3.288Y-3.3472
X3.288Y-3.4472
X3.288Y-3.5472
X3.288Y-3.6472
T4
X2.4508Y-2.2638
X2.4508Y-2.4409
X2.7067Y-2.2638
X2.7067Y-2.4409
X2.8642Y-2.2638
X2.8642Y-2.4409
X3.1201Y-2.2638
X3.1201Y-2.4409
T5
X1.9587Y-2.5295
X2.1555Y-2.5295
T6
X1.5551Y-1.7323
X1.5551Y-1.9291
X1.5551Y-2.185
X1.5551Y-2.3819
X1.5551Y-2.5787
X1.5551Y-2.8346
X1.5551Y-3.0315
X1.5551Y-3.2283
X1.5551Y-3.4252
X1.5551Y-3.622
T7
X1.8701Y-1.7437
X1.8701Y-2.1343
X2.0039Y-1.7437
X2.0039Y-2.1343
M30
