%TF.GenerationSoftware,KiCad,Pcbnew,9.0.7*%
%TF.CreationDate,2026-09-21T22:13:03-07:00*%
%TF.ProjectId,ESPLEDDriver,4553504c-4544-4447-9269-7665722e6b69,rev?*%
%TF.SameCoordinates,Original*%
%TF.FileFunction,Paste,Bot*%
%TF.FilePolarity,Positive*%
%FSLAX46Y46*%
G04 Gerber Fmt 4.6, Leading zero omitted, Abs format (unit mm)*
G04 Created by KiCad (PCBNEW 9.0.7) date 2026-09-21 22:13:03*
%MOMM*%
%LPD*%
G01*
G04 APERTURE LIST*
G04 Aperture macros list*
%AMRoundRect*
0 Rectangle with rounded corners*
0 $1 Rounding radius*
0 $2 $3 $4 $5 $6 $7 $8 $9 X,Y pos of 4 corners*
0 Add a 4 corners polygon primitive as box body*
4,1,4,$2,$3,$4,$5,$6,$7,$8,$9,$2,$3,0*
0 Add four circle primitives for the rounded corners*
1,1,$1+$1,$2,$3*
1,1,$1+$1,$4,$5*
1,1,$1+$1,$6,$7*
1,1,$1+$1,$8,$9*
0 Add four rect primitives between the rounded corners*
20,1,$1+$1,$2,$3,$4,$5,0*
20,1,$1+$1,$4,$5,$6,$7,0*
20,1,$1+$1,$6,$7,$8,$9,0*
20,1,$1+$1,$8,$9,$2,$3,0*%
G04 Aperture macros list end*
%ADD10RoundRect,0.237500X-0.250000X-0.237500X0.250000X-0.237500X0.250000X0.237500X-0.250000X0.237500X0*%
%ADD11RoundRect,0.250000X1.275000X1.125000X-1.275000X1.125000X-1.275000X-1.125000X1.275000X-1.125000X0*%
%ADD12RoundRect,0.250000X0.850000X0.350000X-0.850000X0.350000X-0.850000X-0.350000X0.850000X-0.350000X0*%
%ADD13RoundRect,0.237500X-0.300000X-0.237500X0.300000X-0.237500X0.300000X0.237500X-0.300000X0.237500X0*%
G04 APERTURE END LIST*
D10*
%TO.C,R6*%
X58587500Y-76750000D03*
X60412500Y-76750000D03*
%TD*%
%TO.C,R11*%
X58587500Y-87250000D03*
X60412500Y-87250000D03*
%TD*%
%TO.C,R9*%
X58587500Y-75000000D03*
X60412500Y-75000000D03*
%TD*%
D11*
%TO.C,Q4*%
X50925000Y-92725000D03*
X50925000Y-89675000D03*
X47575000Y-92725000D03*
X47575000Y-89675000D03*
D12*
X55550000Y-88920000D03*
X55550000Y-93480000D03*
%TD*%
D10*
%TO.C,R5*%
X57837500Y-70750000D03*
X59662500Y-70750000D03*
%TD*%
D11*
%TO.C,Q3*%
X50925000Y-85595000D03*
X50925000Y-82545000D03*
X47575000Y-85595000D03*
X47575000Y-82545000D03*
D12*
X55550000Y-81790000D03*
X55550000Y-86350000D03*
%TD*%
D10*
%TO.C,R12*%
X58587500Y-93500000D03*
X60412500Y-93500000D03*
%TD*%
D13*
%TO.C,C2*%
X55387500Y-41750000D03*
X57112500Y-41750000D03*
%TD*%
D10*
%TO.C,R10*%
X58587500Y-81250000D03*
X60412500Y-81250000D03*
%TD*%
D11*
%TO.C,Q1*%
X50925000Y-71495000D03*
X50925000Y-68445000D03*
X47575000Y-71495000D03*
X47575000Y-68445000D03*
D12*
X55550000Y-67690000D03*
X55550000Y-72250000D03*
%TD*%
D11*
%TO.C,Q2*%
X50925000Y-78545000D03*
X50925000Y-75495000D03*
X47575000Y-78545000D03*
X47575000Y-75495000D03*
D12*
X55550000Y-74740000D03*
X55550000Y-79300000D03*
%TD*%
D10*
%TO.C,R7*%
X58587500Y-83000000D03*
X60412500Y-83000000D03*
%TD*%
%TO.C,R8*%
X58587500Y-89000000D03*
X60412500Y-89000000D03*
%TD*%
D13*
%TO.C,C1*%
X69387500Y-79500000D03*
X71112500Y-79500000D03*
%TD*%
M02*
