%TF.GenerationSoftware,KiCad,Pcbnew,9.0.7*%
%TF.CreationDate,2026-09-21T22:13:03-07:00*%
%TF.ProjectId,ESPLEDDriver,4553504c-4544-4447-9269-7665722e6b69,rev?*%
%TF.SameCoordinates,Original*%
%TF.FileFunction,Legend,Bot*%
%TF.FilePolarity,Positive*%
%FSLAX46Y46*%
G04 Gerber Fmt 4.6, Leading zero omitted, Abs format (unit mm)*
G04 Created by KiCad (PCBNEW 9.0.7) date 2026-09-21 22:13:03*
%MOMM*%
%LPD*%
G01*
G04 APERTURE LIST*
%ADD10C,0.187500*%
%ADD11C,0.250000*%
%ADD12C,0.150000*%
%ADD13C,0.120000*%
G04 APERTURE END LIST*
D10*
X37286211Y-54948678D02*
X36786211Y-56448678D01*
X36786211Y-56448678D02*
X36286211Y-54948678D01*
X34929069Y-56305821D02*
X35000497Y-56377250D01*
X35000497Y-56377250D02*
X35214783Y-56448678D01*
X35214783Y-56448678D02*
X35357640Y-56448678D01*
X35357640Y-56448678D02*
X35571926Y-56377250D01*
X35571926Y-56377250D02*
X35714783Y-56234392D01*
X35714783Y-56234392D02*
X35786212Y-56091535D01*
X35786212Y-56091535D02*
X35857640Y-55805821D01*
X35857640Y-55805821D02*
X35857640Y-55591535D01*
X35857640Y-55591535D02*
X35786212Y-55305821D01*
X35786212Y-55305821D02*
X35714783Y-55162964D01*
X35714783Y-55162964D02*
X35571926Y-55020107D01*
X35571926Y-55020107D02*
X35357640Y-54948678D01*
X35357640Y-54948678D02*
X35214783Y-54948678D01*
X35214783Y-54948678D02*
X35000497Y-55020107D01*
X35000497Y-55020107D02*
X34929069Y-55091535D01*
X33429069Y-56305821D02*
X33500497Y-56377250D01*
X33500497Y-56377250D02*
X33714783Y-56448678D01*
X33714783Y-56448678D02*
X33857640Y-56448678D01*
X33857640Y-56448678D02*
X34071926Y-56377250D01*
X34071926Y-56377250D02*
X34214783Y-56234392D01*
X34214783Y-56234392D02*
X34286212Y-56091535D01*
X34286212Y-56091535D02*
X34357640Y-55805821D01*
X34357640Y-55805821D02*
X34357640Y-55591535D01*
X34357640Y-55591535D02*
X34286212Y-55305821D01*
X34286212Y-55305821D02*
X34214783Y-55162964D01*
X34214783Y-55162964D02*
X34071926Y-55020107D01*
X34071926Y-55020107D02*
X33857640Y-54948678D01*
X33857640Y-54948678D02*
X33714783Y-54948678D01*
X33714783Y-54948678D02*
X33500497Y-55020107D01*
X33500497Y-55020107D02*
X33429069Y-55091535D01*
D11*
X51406955Y-46772350D02*
X52359336Y-46772350D01*
X52359336Y-46772350D02*
X52454574Y-47724731D01*
X52454574Y-47724731D02*
X52359336Y-47629492D01*
X52359336Y-47629492D02*
X52168860Y-47534254D01*
X52168860Y-47534254D02*
X51692669Y-47534254D01*
X51692669Y-47534254D02*
X51502193Y-47629492D01*
X51502193Y-47629492D02*
X51406955Y-47724731D01*
X51406955Y-47724731D02*
X51311717Y-47915207D01*
X51311717Y-47915207D02*
X51311717Y-48391397D01*
X51311717Y-48391397D02*
X51406955Y-48581873D01*
X51406955Y-48581873D02*
X51502193Y-48677112D01*
X51502193Y-48677112D02*
X51692669Y-48772350D01*
X51692669Y-48772350D02*
X52168860Y-48772350D01*
X52168860Y-48772350D02*
X52359336Y-48677112D01*
X52359336Y-48677112D02*
X52454574Y-48581873D01*
X50454574Y-48010445D02*
X48930765Y-48010445D01*
X48168860Y-46772350D02*
X46930765Y-46772350D01*
X46930765Y-46772350D02*
X47597432Y-47534254D01*
X47597432Y-47534254D02*
X47311717Y-47534254D01*
X47311717Y-47534254D02*
X47121241Y-47629492D01*
X47121241Y-47629492D02*
X47026003Y-47724731D01*
X47026003Y-47724731D02*
X46930765Y-47915207D01*
X46930765Y-47915207D02*
X46930765Y-48391397D01*
X46930765Y-48391397D02*
X47026003Y-48581873D01*
X47026003Y-48581873D02*
X47121241Y-48677112D01*
X47121241Y-48677112D02*
X47311717Y-48772350D01*
X47311717Y-48772350D02*
X47883146Y-48772350D01*
X47883146Y-48772350D02*
X48073622Y-48677112D01*
X48073622Y-48677112D02*
X48168860Y-48581873D01*
X45692670Y-46772350D02*
X45502193Y-46772350D01*
X45502193Y-46772350D02*
X45311717Y-46867588D01*
X45311717Y-46867588D02*
X45216479Y-46962826D01*
X45216479Y-46962826D02*
X45121241Y-47153302D01*
X45121241Y-47153302D02*
X45026003Y-47534254D01*
X45026003Y-47534254D02*
X45026003Y-48010445D01*
X45026003Y-48010445D02*
X45121241Y-48391397D01*
X45121241Y-48391397D02*
X45216479Y-48581873D01*
X45216479Y-48581873D02*
X45311717Y-48677112D01*
X45311717Y-48677112D02*
X45502193Y-48772350D01*
X45502193Y-48772350D02*
X45692670Y-48772350D01*
X45692670Y-48772350D02*
X45883146Y-48677112D01*
X45883146Y-48677112D02*
X45978384Y-48581873D01*
X45978384Y-48581873D02*
X46073622Y-48391397D01*
X46073622Y-48391397D02*
X46168860Y-48010445D01*
X46168860Y-48010445D02*
X46168860Y-47534254D01*
X46168860Y-47534254D02*
X46073622Y-47153302D01*
X46073622Y-47153302D02*
X45978384Y-46962826D01*
X45978384Y-46962826D02*
X45883146Y-46867588D01*
X45883146Y-46867588D02*
X45692670Y-46772350D01*
X44454574Y-46772350D02*
X43787908Y-48772350D01*
X43787908Y-48772350D02*
X43121241Y-46772350D01*
X51406955Y-49992238D02*
X52359336Y-49992238D01*
X52359336Y-49992238D02*
X52454574Y-50944619D01*
X52454574Y-50944619D02*
X52359336Y-50849380D01*
X52359336Y-50849380D02*
X52168860Y-50754142D01*
X52168860Y-50754142D02*
X51692669Y-50754142D01*
X51692669Y-50754142D02*
X51502193Y-50849380D01*
X51502193Y-50849380D02*
X51406955Y-50944619D01*
X51406955Y-50944619D02*
X51311717Y-51135095D01*
X51311717Y-51135095D02*
X51311717Y-51611285D01*
X51311717Y-51611285D02*
X51406955Y-51801761D01*
X51406955Y-51801761D02*
X51502193Y-51897000D01*
X51502193Y-51897000D02*
X51692669Y-51992238D01*
X51692669Y-51992238D02*
X52168860Y-51992238D01*
X52168860Y-51992238D02*
X52359336Y-51897000D01*
X52359336Y-51897000D02*
X52454574Y-51801761D01*
X50549812Y-51420809D02*
X49597431Y-51420809D01*
X50740288Y-51992238D02*
X50073622Y-49992238D01*
X50073622Y-49992238D02*
X49406955Y-51992238D01*
X47216478Y-51992238D02*
X47216478Y-49992238D01*
X47216478Y-49992238D02*
X46549811Y-51420809D01*
X46549811Y-51420809D02*
X45883145Y-49992238D01*
X45883145Y-49992238D02*
X45883145Y-51992238D01*
X45026002Y-51420809D02*
X44073621Y-51420809D01*
X45216478Y-51992238D02*
X44549812Y-49992238D01*
X44549812Y-49992238D02*
X43883145Y-51992238D01*
X43406954Y-49992238D02*
X42073621Y-51992238D01*
X42073621Y-49992238D02*
X43406954Y-51992238D01*
D10*
X37286211Y-71204678D02*
X36786211Y-72704678D01*
X36786211Y-72704678D02*
X36286211Y-71204678D01*
X34929069Y-72561821D02*
X35000497Y-72633250D01*
X35000497Y-72633250D02*
X35214783Y-72704678D01*
X35214783Y-72704678D02*
X35357640Y-72704678D01*
X35357640Y-72704678D02*
X35571926Y-72633250D01*
X35571926Y-72633250D02*
X35714783Y-72490392D01*
X35714783Y-72490392D02*
X35786212Y-72347535D01*
X35786212Y-72347535D02*
X35857640Y-72061821D01*
X35857640Y-72061821D02*
X35857640Y-71847535D01*
X35857640Y-71847535D02*
X35786212Y-71561821D01*
X35786212Y-71561821D02*
X35714783Y-71418964D01*
X35714783Y-71418964D02*
X35571926Y-71276107D01*
X35571926Y-71276107D02*
X35357640Y-71204678D01*
X35357640Y-71204678D02*
X35214783Y-71204678D01*
X35214783Y-71204678D02*
X35000497Y-71276107D01*
X35000497Y-71276107D02*
X34929069Y-71347535D01*
X33429069Y-72561821D02*
X33500497Y-72633250D01*
X33500497Y-72633250D02*
X33714783Y-72704678D01*
X33714783Y-72704678D02*
X33857640Y-72704678D01*
X33857640Y-72704678D02*
X34071926Y-72633250D01*
X34071926Y-72633250D02*
X34214783Y-72490392D01*
X34214783Y-72490392D02*
X34286212Y-72347535D01*
X34286212Y-72347535D02*
X34357640Y-72061821D01*
X34357640Y-72061821D02*
X34357640Y-71847535D01*
X34357640Y-71847535D02*
X34286212Y-71561821D01*
X34286212Y-71561821D02*
X34214783Y-71418964D01*
X34214783Y-71418964D02*
X34071926Y-71276107D01*
X34071926Y-71276107D02*
X33857640Y-71204678D01*
X33857640Y-71204678D02*
X33714783Y-71204678D01*
X33714783Y-71204678D02*
X33500497Y-71276107D01*
X33500497Y-71276107D02*
X33429069Y-71347535D01*
X45390498Y-77784678D02*
X45390498Y-76284678D01*
X44390497Y-76284678D02*
X44104783Y-76284678D01*
X44104783Y-76284678D02*
X43961926Y-76356107D01*
X43961926Y-76356107D02*
X43819069Y-76498964D01*
X43819069Y-76498964D02*
X43747640Y-76784678D01*
X43747640Y-76784678D02*
X43747640Y-77284678D01*
X43747640Y-77284678D02*
X43819069Y-77570392D01*
X43819069Y-77570392D02*
X43961926Y-77713250D01*
X43961926Y-77713250D02*
X44104783Y-77784678D01*
X44104783Y-77784678D02*
X44390497Y-77784678D01*
X44390497Y-77784678D02*
X44533355Y-77713250D01*
X44533355Y-77713250D02*
X44676212Y-77570392D01*
X44676212Y-77570392D02*
X44747640Y-77284678D01*
X44747640Y-77284678D02*
X44747640Y-76784678D01*
X44747640Y-76784678D02*
X44676212Y-76498964D01*
X44676212Y-76498964D02*
X44533355Y-76356107D01*
X44533355Y-76356107D02*
X44390497Y-76284678D01*
X42461926Y-76784678D02*
X42461926Y-77784678D01*
X42819068Y-76213250D02*
X43176211Y-77284678D01*
X43176211Y-77284678D02*
X42247640Y-77284678D01*
X36571926Y-64926107D02*
X36714784Y-64854678D01*
X36714784Y-64854678D02*
X36929069Y-64854678D01*
X36929069Y-64854678D02*
X37143355Y-64926107D01*
X37143355Y-64926107D02*
X37286212Y-65068964D01*
X37286212Y-65068964D02*
X37357641Y-65211821D01*
X37357641Y-65211821D02*
X37429069Y-65497535D01*
X37429069Y-65497535D02*
X37429069Y-65711821D01*
X37429069Y-65711821D02*
X37357641Y-65997535D01*
X37357641Y-65997535D02*
X37286212Y-66140392D01*
X37286212Y-66140392D02*
X37143355Y-66283250D01*
X37143355Y-66283250D02*
X36929069Y-66354678D01*
X36929069Y-66354678D02*
X36786212Y-66354678D01*
X36786212Y-66354678D02*
X36571926Y-66283250D01*
X36571926Y-66283250D02*
X36500498Y-66211821D01*
X36500498Y-66211821D02*
X36500498Y-65711821D01*
X36500498Y-65711821D02*
X36786212Y-65711821D01*
X35857641Y-66354678D02*
X35857641Y-64854678D01*
X35857641Y-64854678D02*
X35000498Y-66354678D01*
X35000498Y-66354678D02*
X35000498Y-64854678D01*
X34286212Y-66354678D02*
X34286212Y-64854678D01*
X34286212Y-64854678D02*
X33929069Y-64854678D01*
X33929069Y-64854678D02*
X33714783Y-64926107D01*
X33714783Y-64926107D02*
X33571926Y-65068964D01*
X33571926Y-65068964D02*
X33500497Y-65211821D01*
X33500497Y-65211821D02*
X33429069Y-65497535D01*
X33429069Y-65497535D02*
X33429069Y-65711821D01*
X33429069Y-65711821D02*
X33500497Y-65997535D01*
X33500497Y-65997535D02*
X33571926Y-66140392D01*
X33571926Y-66140392D02*
X33714783Y-66283250D01*
X33714783Y-66283250D02*
X33929069Y-66354678D01*
X33929069Y-66354678D02*
X34286212Y-66354678D01*
X36571926Y-48416107D02*
X36714784Y-48344678D01*
X36714784Y-48344678D02*
X36929069Y-48344678D01*
X36929069Y-48344678D02*
X37143355Y-48416107D01*
X37143355Y-48416107D02*
X37286212Y-48558964D01*
X37286212Y-48558964D02*
X37357641Y-48701821D01*
X37357641Y-48701821D02*
X37429069Y-48987535D01*
X37429069Y-48987535D02*
X37429069Y-49201821D01*
X37429069Y-49201821D02*
X37357641Y-49487535D01*
X37357641Y-49487535D02*
X37286212Y-49630392D01*
X37286212Y-49630392D02*
X37143355Y-49773250D01*
X37143355Y-49773250D02*
X36929069Y-49844678D01*
X36929069Y-49844678D02*
X36786212Y-49844678D01*
X36786212Y-49844678D02*
X36571926Y-49773250D01*
X36571926Y-49773250D02*
X36500498Y-49701821D01*
X36500498Y-49701821D02*
X36500498Y-49201821D01*
X36500498Y-49201821D02*
X36786212Y-49201821D01*
X35857641Y-49844678D02*
X35857641Y-48344678D01*
X35857641Y-48344678D02*
X35000498Y-49844678D01*
X35000498Y-49844678D02*
X35000498Y-48344678D01*
X34286212Y-49844678D02*
X34286212Y-48344678D01*
X34286212Y-48344678D02*
X33929069Y-48344678D01*
X33929069Y-48344678D02*
X33714783Y-48416107D01*
X33714783Y-48416107D02*
X33571926Y-48558964D01*
X33571926Y-48558964D02*
X33500497Y-48701821D01*
X33500497Y-48701821D02*
X33429069Y-48987535D01*
X33429069Y-48987535D02*
X33429069Y-49201821D01*
X33429069Y-49201821D02*
X33500497Y-49487535D01*
X33500497Y-49487535D02*
X33571926Y-49630392D01*
X33571926Y-49630392D02*
X33714783Y-49773250D01*
X33714783Y-49773250D02*
X33929069Y-49844678D01*
X33929069Y-49844678D02*
X34286212Y-49844678D01*
X36500497Y-77784678D02*
X37357640Y-77784678D01*
X36929069Y-77784678D02*
X36929069Y-76284678D01*
X36929069Y-76284678D02*
X37071926Y-76498964D01*
X37071926Y-76498964D02*
X37214783Y-76641821D01*
X37214783Y-76641821D02*
X37357640Y-76713250D01*
X34786212Y-76213250D02*
X36071926Y-78141821D01*
X33429069Y-77784678D02*
X33929069Y-77070392D01*
X34286212Y-77784678D02*
X34286212Y-76284678D01*
X34286212Y-76284678D02*
X33714783Y-76284678D01*
X33714783Y-76284678D02*
X33571926Y-76356107D01*
X33571926Y-76356107D02*
X33500497Y-76427535D01*
X33500497Y-76427535D02*
X33429069Y-76570392D01*
X33429069Y-76570392D02*
X33429069Y-76784678D01*
X33429069Y-76784678D02*
X33500497Y-76927535D01*
X33500497Y-76927535D02*
X33571926Y-76998964D01*
X33571926Y-76998964D02*
X33714783Y-77070392D01*
X33714783Y-77070392D02*
X34286212Y-77070392D01*
X45390498Y-92770678D02*
X45390498Y-91270678D01*
X44390497Y-91270678D02*
X44104783Y-91270678D01*
X44104783Y-91270678D02*
X43961926Y-91342107D01*
X43961926Y-91342107D02*
X43819069Y-91484964D01*
X43819069Y-91484964D02*
X43747640Y-91770678D01*
X43747640Y-91770678D02*
X43747640Y-92270678D01*
X43747640Y-92270678D02*
X43819069Y-92556392D01*
X43819069Y-92556392D02*
X43961926Y-92699250D01*
X43961926Y-92699250D02*
X44104783Y-92770678D01*
X44104783Y-92770678D02*
X44390497Y-92770678D01*
X44390497Y-92770678D02*
X44533355Y-92699250D01*
X44533355Y-92699250D02*
X44676212Y-92556392D01*
X44676212Y-92556392D02*
X44747640Y-92270678D01*
X44747640Y-92270678D02*
X44747640Y-91770678D01*
X44747640Y-91770678D02*
X44676212Y-91484964D01*
X44676212Y-91484964D02*
X44533355Y-91342107D01*
X44533355Y-91342107D02*
X44390497Y-91270678D01*
X43247640Y-91270678D02*
X42247640Y-91270678D01*
X42247640Y-91270678D02*
X42890497Y-92770678D01*
X45390498Y-82864678D02*
X45390498Y-81364678D01*
X44390497Y-81364678D02*
X44104783Y-81364678D01*
X44104783Y-81364678D02*
X43961926Y-81436107D01*
X43961926Y-81436107D02*
X43819069Y-81578964D01*
X43819069Y-81578964D02*
X43747640Y-81864678D01*
X43747640Y-81864678D02*
X43747640Y-82364678D01*
X43747640Y-82364678D02*
X43819069Y-82650392D01*
X43819069Y-82650392D02*
X43961926Y-82793250D01*
X43961926Y-82793250D02*
X44104783Y-82864678D01*
X44104783Y-82864678D02*
X44390497Y-82864678D01*
X44390497Y-82864678D02*
X44533355Y-82793250D01*
X44533355Y-82793250D02*
X44676212Y-82650392D01*
X44676212Y-82650392D02*
X44747640Y-82364678D01*
X44747640Y-82364678D02*
X44747640Y-81864678D01*
X44747640Y-81864678D02*
X44676212Y-81578964D01*
X44676212Y-81578964D02*
X44533355Y-81436107D01*
X44533355Y-81436107D02*
X44390497Y-81364678D01*
X42390497Y-81364678D02*
X43104783Y-81364678D01*
X43104783Y-81364678D02*
X43176211Y-82078964D01*
X43176211Y-82078964D02*
X43104783Y-82007535D01*
X43104783Y-82007535D02*
X42961926Y-81936107D01*
X42961926Y-81936107D02*
X42604783Y-81936107D01*
X42604783Y-81936107D02*
X42461926Y-82007535D01*
X42461926Y-82007535D02*
X42390497Y-82078964D01*
X42390497Y-82078964D02*
X42319068Y-82221821D01*
X42319068Y-82221821D02*
X42319068Y-82578964D01*
X42319068Y-82578964D02*
X42390497Y-82721821D01*
X42390497Y-82721821D02*
X42461926Y-82793250D01*
X42461926Y-82793250D02*
X42604783Y-82864678D01*
X42604783Y-82864678D02*
X42961926Y-82864678D01*
X42961926Y-82864678D02*
X43104783Y-82793250D01*
X43104783Y-82793250D02*
X43176211Y-82721821D01*
X45390498Y-87690678D02*
X45390498Y-86190678D01*
X44390497Y-86190678D02*
X44104783Y-86190678D01*
X44104783Y-86190678D02*
X43961926Y-86262107D01*
X43961926Y-86262107D02*
X43819069Y-86404964D01*
X43819069Y-86404964D02*
X43747640Y-86690678D01*
X43747640Y-86690678D02*
X43747640Y-87190678D01*
X43747640Y-87190678D02*
X43819069Y-87476392D01*
X43819069Y-87476392D02*
X43961926Y-87619250D01*
X43961926Y-87619250D02*
X44104783Y-87690678D01*
X44104783Y-87690678D02*
X44390497Y-87690678D01*
X44390497Y-87690678D02*
X44533355Y-87619250D01*
X44533355Y-87619250D02*
X44676212Y-87476392D01*
X44676212Y-87476392D02*
X44747640Y-87190678D01*
X44747640Y-87190678D02*
X44747640Y-86690678D01*
X44747640Y-86690678D02*
X44676212Y-86404964D01*
X44676212Y-86404964D02*
X44533355Y-86262107D01*
X44533355Y-86262107D02*
X44390497Y-86190678D01*
X42461926Y-86190678D02*
X42747640Y-86190678D01*
X42747640Y-86190678D02*
X42890497Y-86262107D01*
X42890497Y-86262107D02*
X42961926Y-86333535D01*
X42961926Y-86333535D02*
X43104783Y-86547821D01*
X43104783Y-86547821D02*
X43176211Y-86833535D01*
X43176211Y-86833535D02*
X43176211Y-87404964D01*
X43176211Y-87404964D02*
X43104783Y-87547821D01*
X43104783Y-87547821D02*
X43033354Y-87619250D01*
X43033354Y-87619250D02*
X42890497Y-87690678D01*
X42890497Y-87690678D02*
X42604783Y-87690678D01*
X42604783Y-87690678D02*
X42461926Y-87619250D01*
X42461926Y-87619250D02*
X42390497Y-87547821D01*
X42390497Y-87547821D02*
X42319068Y-87404964D01*
X42319068Y-87404964D02*
X42319068Y-87047821D01*
X42319068Y-87047821D02*
X42390497Y-86904964D01*
X42390497Y-86904964D02*
X42461926Y-86833535D01*
X42461926Y-86833535D02*
X42604783Y-86762107D01*
X42604783Y-86762107D02*
X42890497Y-86762107D01*
X42890497Y-86762107D02*
X43033354Y-86833535D01*
X43033354Y-86833535D02*
X43104783Y-86904964D01*
X43104783Y-86904964D02*
X43176211Y-87047821D01*
X38000497Y-61274678D02*
X38000497Y-59774678D01*
X38000497Y-59774678D02*
X37643354Y-59774678D01*
X37643354Y-59774678D02*
X37429068Y-59846107D01*
X37429068Y-59846107D02*
X37286211Y-59988964D01*
X37286211Y-59988964D02*
X37214782Y-60131821D01*
X37214782Y-60131821D02*
X37143354Y-60417535D01*
X37143354Y-60417535D02*
X37143354Y-60631821D01*
X37143354Y-60631821D02*
X37214782Y-60917535D01*
X37214782Y-60917535D02*
X37286211Y-61060392D01*
X37286211Y-61060392D02*
X37429068Y-61203250D01*
X37429068Y-61203250D02*
X37643354Y-61274678D01*
X37643354Y-61274678D02*
X38000497Y-61274678D01*
X36571925Y-60846107D02*
X35857640Y-60846107D01*
X36714782Y-61274678D02*
X36214782Y-59774678D01*
X36214782Y-59774678D02*
X35714782Y-61274678D01*
X35429068Y-59774678D02*
X34571926Y-59774678D01*
X35000497Y-61274678D02*
X35000497Y-59774678D01*
X34143354Y-60846107D02*
X33429069Y-60846107D01*
X34286211Y-61274678D02*
X33786211Y-59774678D01*
X33786211Y-59774678D02*
X33286211Y-61274678D01*
X36857641Y-92024678D02*
X36857641Y-93024678D01*
X37214783Y-91453250D02*
X37571926Y-92524678D01*
X37571926Y-92524678D02*
X36643355Y-92524678D01*
X35000498Y-91453250D02*
X36286212Y-93381821D01*
X34643355Y-91524678D02*
X34286212Y-93024678D01*
X34286212Y-93024678D02*
X34000498Y-91953250D01*
X34000498Y-91953250D02*
X33714783Y-93024678D01*
X33714783Y-93024678D02*
X33357641Y-91524678D01*
X37357640Y-81507535D02*
X37286212Y-81436107D01*
X37286212Y-81436107D02*
X37143355Y-81364678D01*
X37143355Y-81364678D02*
X36786212Y-81364678D01*
X36786212Y-81364678D02*
X36643355Y-81436107D01*
X36643355Y-81436107D02*
X36571926Y-81507535D01*
X36571926Y-81507535D02*
X36500497Y-81650392D01*
X36500497Y-81650392D02*
X36500497Y-81793250D01*
X36500497Y-81793250D02*
X36571926Y-82007535D01*
X36571926Y-82007535D02*
X37429069Y-82864678D01*
X37429069Y-82864678D02*
X36500497Y-82864678D01*
X34786212Y-81293250D02*
X36071926Y-83221821D01*
X33500497Y-81436107D02*
X33643355Y-81364678D01*
X33643355Y-81364678D02*
X33857640Y-81364678D01*
X33857640Y-81364678D02*
X34071926Y-81436107D01*
X34071926Y-81436107D02*
X34214783Y-81578964D01*
X34214783Y-81578964D02*
X34286212Y-81721821D01*
X34286212Y-81721821D02*
X34357640Y-82007535D01*
X34357640Y-82007535D02*
X34357640Y-82221821D01*
X34357640Y-82221821D02*
X34286212Y-82507535D01*
X34286212Y-82507535D02*
X34214783Y-82650392D01*
X34214783Y-82650392D02*
X34071926Y-82793250D01*
X34071926Y-82793250D02*
X33857640Y-82864678D01*
X33857640Y-82864678D02*
X33714783Y-82864678D01*
X33714783Y-82864678D02*
X33500497Y-82793250D01*
X33500497Y-82793250D02*
X33429069Y-82721821D01*
X33429069Y-82721821D02*
X33429069Y-82221821D01*
X33429069Y-82221821D02*
X33714783Y-82221821D01*
X45390498Y-61274678D02*
X45390498Y-59774678D01*
X44390497Y-59774678D02*
X44104783Y-59774678D01*
X44104783Y-59774678D02*
X43961926Y-59846107D01*
X43961926Y-59846107D02*
X43819069Y-59988964D01*
X43819069Y-59988964D02*
X43747640Y-60274678D01*
X43747640Y-60274678D02*
X43747640Y-60774678D01*
X43747640Y-60774678D02*
X43819069Y-61060392D01*
X43819069Y-61060392D02*
X43961926Y-61203250D01*
X43961926Y-61203250D02*
X44104783Y-61274678D01*
X44104783Y-61274678D02*
X44390497Y-61274678D01*
X44390497Y-61274678D02*
X44533355Y-61203250D01*
X44533355Y-61203250D02*
X44676212Y-61060392D01*
X44676212Y-61060392D02*
X44747640Y-60774678D01*
X44747640Y-60774678D02*
X44747640Y-60274678D01*
X44747640Y-60274678D02*
X44676212Y-59988964D01*
X44676212Y-59988964D02*
X44533355Y-59846107D01*
X44533355Y-59846107D02*
X44390497Y-59774678D01*
X42819068Y-59774678D02*
X42676211Y-59774678D01*
X42676211Y-59774678D02*
X42533354Y-59846107D01*
X42533354Y-59846107D02*
X42461926Y-59917535D01*
X42461926Y-59917535D02*
X42390497Y-60060392D01*
X42390497Y-60060392D02*
X42319068Y-60346107D01*
X42319068Y-60346107D02*
X42319068Y-60703250D01*
X42319068Y-60703250D02*
X42390497Y-60988964D01*
X42390497Y-60988964D02*
X42461926Y-61131821D01*
X42461926Y-61131821D02*
X42533354Y-61203250D01*
X42533354Y-61203250D02*
X42676211Y-61274678D01*
X42676211Y-61274678D02*
X42819068Y-61274678D01*
X42819068Y-61274678D02*
X42961926Y-61203250D01*
X42961926Y-61203250D02*
X43033354Y-61131821D01*
X43033354Y-61131821D02*
X43104783Y-60988964D01*
X43104783Y-60988964D02*
X43176211Y-60703250D01*
X43176211Y-60703250D02*
X43176211Y-60346107D01*
X43176211Y-60346107D02*
X43104783Y-60060392D01*
X43104783Y-60060392D02*
X43033354Y-59917535D01*
X43033354Y-59917535D02*
X42961926Y-59846107D01*
X42961926Y-59846107D02*
X42819068Y-59774678D01*
X37286211Y-43264678D02*
X36786211Y-44764678D01*
X36786211Y-44764678D02*
X36286211Y-43264678D01*
X34929069Y-44621821D02*
X35000497Y-44693250D01*
X35000497Y-44693250D02*
X35214783Y-44764678D01*
X35214783Y-44764678D02*
X35357640Y-44764678D01*
X35357640Y-44764678D02*
X35571926Y-44693250D01*
X35571926Y-44693250D02*
X35714783Y-44550392D01*
X35714783Y-44550392D02*
X35786212Y-44407535D01*
X35786212Y-44407535D02*
X35857640Y-44121821D01*
X35857640Y-44121821D02*
X35857640Y-43907535D01*
X35857640Y-43907535D02*
X35786212Y-43621821D01*
X35786212Y-43621821D02*
X35714783Y-43478964D01*
X35714783Y-43478964D02*
X35571926Y-43336107D01*
X35571926Y-43336107D02*
X35357640Y-43264678D01*
X35357640Y-43264678D02*
X35214783Y-43264678D01*
X35214783Y-43264678D02*
X35000497Y-43336107D01*
X35000497Y-43336107D02*
X34929069Y-43407535D01*
X33429069Y-44621821D02*
X33500497Y-44693250D01*
X33500497Y-44693250D02*
X33714783Y-44764678D01*
X33714783Y-44764678D02*
X33857640Y-44764678D01*
X33857640Y-44764678D02*
X34071926Y-44693250D01*
X34071926Y-44693250D02*
X34214783Y-44550392D01*
X34214783Y-44550392D02*
X34286212Y-44407535D01*
X34286212Y-44407535D02*
X34357640Y-44121821D01*
X34357640Y-44121821D02*
X34357640Y-43907535D01*
X34357640Y-43907535D02*
X34286212Y-43621821D01*
X34286212Y-43621821D02*
X34214783Y-43478964D01*
X34214783Y-43478964D02*
X34071926Y-43336107D01*
X34071926Y-43336107D02*
X33857640Y-43264678D01*
X33857640Y-43264678D02*
X33714783Y-43264678D01*
X33714783Y-43264678D02*
X33500497Y-43336107D01*
X33500497Y-43336107D02*
X33429069Y-43407535D01*
X37429069Y-86190678D02*
X36500497Y-86190678D01*
X36500497Y-86190678D02*
X37000497Y-86762107D01*
X37000497Y-86762107D02*
X36786212Y-86762107D01*
X36786212Y-86762107D02*
X36643355Y-86833535D01*
X36643355Y-86833535D02*
X36571926Y-86904964D01*
X36571926Y-86904964D02*
X36500497Y-87047821D01*
X36500497Y-87047821D02*
X36500497Y-87404964D01*
X36500497Y-87404964D02*
X36571926Y-87547821D01*
X36571926Y-87547821D02*
X36643355Y-87619250D01*
X36643355Y-87619250D02*
X36786212Y-87690678D01*
X36786212Y-87690678D02*
X37214783Y-87690678D01*
X37214783Y-87690678D02*
X37357640Y-87619250D01*
X37357640Y-87619250D02*
X37429069Y-87547821D01*
X34786212Y-86119250D02*
X36071926Y-88047821D01*
X33786212Y-86904964D02*
X33571926Y-86976392D01*
X33571926Y-86976392D02*
X33500497Y-87047821D01*
X33500497Y-87047821D02*
X33429069Y-87190678D01*
X33429069Y-87190678D02*
X33429069Y-87404964D01*
X33429069Y-87404964D02*
X33500497Y-87547821D01*
X33500497Y-87547821D02*
X33571926Y-87619250D01*
X33571926Y-87619250D02*
X33714783Y-87690678D01*
X33714783Y-87690678D02*
X34286212Y-87690678D01*
X34286212Y-87690678D02*
X34286212Y-86190678D01*
X34286212Y-86190678D02*
X33786212Y-86190678D01*
X33786212Y-86190678D02*
X33643355Y-86262107D01*
X33643355Y-86262107D02*
X33571926Y-86333535D01*
X33571926Y-86333535D02*
X33500497Y-86476392D01*
X33500497Y-86476392D02*
X33500497Y-86619250D01*
X33500497Y-86619250D02*
X33571926Y-86762107D01*
X33571926Y-86762107D02*
X33643355Y-86833535D01*
X33643355Y-86833535D02*
X33786212Y-86904964D01*
X33786212Y-86904964D02*
X34286212Y-86904964D01*
D12*
X62166666Y-77204819D02*
X62499999Y-76728628D01*
X62738094Y-77204819D02*
X62738094Y-76204819D01*
X62738094Y-76204819D02*
X62357142Y-76204819D01*
X62357142Y-76204819D02*
X62261904Y-76252438D01*
X62261904Y-76252438D02*
X62214285Y-76300057D01*
X62214285Y-76300057D02*
X62166666Y-76395295D01*
X62166666Y-76395295D02*
X62166666Y-76538152D01*
X62166666Y-76538152D02*
X62214285Y-76633390D01*
X62214285Y-76633390D02*
X62261904Y-76681009D01*
X62261904Y-76681009D02*
X62357142Y-76728628D01*
X62357142Y-76728628D02*
X62738094Y-76728628D01*
X61309523Y-76204819D02*
X61499999Y-76204819D01*
X61499999Y-76204819D02*
X61595237Y-76252438D01*
X61595237Y-76252438D02*
X61642856Y-76300057D01*
X61642856Y-76300057D02*
X61738094Y-76442914D01*
X61738094Y-76442914D02*
X61785713Y-76633390D01*
X61785713Y-76633390D02*
X61785713Y-77014342D01*
X61785713Y-77014342D02*
X61738094Y-77109580D01*
X61738094Y-77109580D02*
X61690475Y-77157200D01*
X61690475Y-77157200D02*
X61595237Y-77204819D01*
X61595237Y-77204819D02*
X61404761Y-77204819D01*
X61404761Y-77204819D02*
X61309523Y-77157200D01*
X61309523Y-77157200D02*
X61261904Y-77109580D01*
X61261904Y-77109580D02*
X61214285Y-77014342D01*
X61214285Y-77014342D02*
X61214285Y-76776247D01*
X61214285Y-76776247D02*
X61261904Y-76681009D01*
X61261904Y-76681009D02*
X61309523Y-76633390D01*
X61309523Y-76633390D02*
X61404761Y-76585771D01*
X61404761Y-76585771D02*
X61595237Y-76585771D01*
X61595237Y-76585771D02*
X61690475Y-76633390D01*
X61690475Y-76633390D02*
X61738094Y-76681009D01*
X61738094Y-76681009D02*
X61785713Y-76776247D01*
X63142857Y-87704819D02*
X63476190Y-87228628D01*
X63714285Y-87704819D02*
X63714285Y-86704819D01*
X63714285Y-86704819D02*
X63333333Y-86704819D01*
X63333333Y-86704819D02*
X63238095Y-86752438D01*
X63238095Y-86752438D02*
X63190476Y-86800057D01*
X63190476Y-86800057D02*
X63142857Y-86895295D01*
X63142857Y-86895295D02*
X63142857Y-87038152D01*
X63142857Y-87038152D02*
X63190476Y-87133390D01*
X63190476Y-87133390D02*
X63238095Y-87181009D01*
X63238095Y-87181009D02*
X63333333Y-87228628D01*
X63333333Y-87228628D02*
X63714285Y-87228628D01*
X62190476Y-87704819D02*
X62761904Y-87704819D01*
X62476190Y-87704819D02*
X62476190Y-86704819D01*
X62476190Y-86704819D02*
X62571428Y-86847676D01*
X62571428Y-86847676D02*
X62666666Y-86942914D01*
X62666666Y-86942914D02*
X62761904Y-86990533D01*
X61238095Y-87704819D02*
X61809523Y-87704819D01*
X61523809Y-87704819D02*
X61523809Y-86704819D01*
X61523809Y-86704819D02*
X61619047Y-86847676D01*
X61619047Y-86847676D02*
X61714285Y-86942914D01*
X61714285Y-86942914D02*
X61809523Y-86990533D01*
X62166666Y-75454819D02*
X62499999Y-74978628D01*
X62738094Y-75454819D02*
X62738094Y-74454819D01*
X62738094Y-74454819D02*
X62357142Y-74454819D01*
X62357142Y-74454819D02*
X62261904Y-74502438D01*
X62261904Y-74502438D02*
X62214285Y-74550057D01*
X62214285Y-74550057D02*
X62166666Y-74645295D01*
X62166666Y-74645295D02*
X62166666Y-74788152D01*
X62166666Y-74788152D02*
X62214285Y-74883390D01*
X62214285Y-74883390D02*
X62261904Y-74931009D01*
X62261904Y-74931009D02*
X62357142Y-74978628D01*
X62357142Y-74978628D02*
X62738094Y-74978628D01*
X61690475Y-75454819D02*
X61499999Y-75454819D01*
X61499999Y-75454819D02*
X61404761Y-75407200D01*
X61404761Y-75407200D02*
X61357142Y-75359580D01*
X61357142Y-75359580D02*
X61261904Y-75216723D01*
X61261904Y-75216723D02*
X61214285Y-75026247D01*
X61214285Y-75026247D02*
X61214285Y-74645295D01*
X61214285Y-74645295D02*
X61261904Y-74550057D01*
X61261904Y-74550057D02*
X61309523Y-74502438D01*
X61309523Y-74502438D02*
X61404761Y-74454819D01*
X61404761Y-74454819D02*
X61595237Y-74454819D01*
X61595237Y-74454819D02*
X61690475Y-74502438D01*
X61690475Y-74502438D02*
X61738094Y-74550057D01*
X61738094Y-74550057D02*
X61785713Y-74645295D01*
X61785713Y-74645295D02*
X61785713Y-74883390D01*
X61785713Y-74883390D02*
X61738094Y-74978628D01*
X61738094Y-74978628D02*
X61690475Y-75026247D01*
X61690475Y-75026247D02*
X61595237Y-75073866D01*
X61595237Y-75073866D02*
X61404761Y-75073866D01*
X61404761Y-75073866D02*
X61309523Y-75026247D01*
X61309523Y-75026247D02*
X61261904Y-74978628D01*
X61261904Y-74978628D02*
X61214285Y-74883390D01*
X55605238Y-91750057D02*
X55700476Y-91702438D01*
X55700476Y-91702438D02*
X55795714Y-91607200D01*
X55795714Y-91607200D02*
X55938571Y-91464342D01*
X55938571Y-91464342D02*
X56033809Y-91416723D01*
X56033809Y-91416723D02*
X56129047Y-91416723D01*
X56081428Y-91654819D02*
X56176666Y-91607200D01*
X56176666Y-91607200D02*
X56271904Y-91511961D01*
X56271904Y-91511961D02*
X56319523Y-91321485D01*
X56319523Y-91321485D02*
X56319523Y-90988152D01*
X56319523Y-90988152D02*
X56271904Y-90797676D01*
X56271904Y-90797676D02*
X56176666Y-90702438D01*
X56176666Y-90702438D02*
X56081428Y-90654819D01*
X56081428Y-90654819D02*
X55890952Y-90654819D01*
X55890952Y-90654819D02*
X55795714Y-90702438D01*
X55795714Y-90702438D02*
X55700476Y-90797676D01*
X55700476Y-90797676D02*
X55652857Y-90988152D01*
X55652857Y-90988152D02*
X55652857Y-91321485D01*
X55652857Y-91321485D02*
X55700476Y-91511961D01*
X55700476Y-91511961D02*
X55795714Y-91607200D01*
X55795714Y-91607200D02*
X55890952Y-91654819D01*
X55890952Y-91654819D02*
X56081428Y-91654819D01*
X54795714Y-90988152D02*
X54795714Y-91654819D01*
X55033809Y-90607200D02*
X55271904Y-91321485D01*
X55271904Y-91321485D02*
X54652857Y-91321485D01*
X61416666Y-71204819D02*
X61749999Y-70728628D01*
X61988094Y-71204819D02*
X61988094Y-70204819D01*
X61988094Y-70204819D02*
X61607142Y-70204819D01*
X61607142Y-70204819D02*
X61511904Y-70252438D01*
X61511904Y-70252438D02*
X61464285Y-70300057D01*
X61464285Y-70300057D02*
X61416666Y-70395295D01*
X61416666Y-70395295D02*
X61416666Y-70538152D01*
X61416666Y-70538152D02*
X61464285Y-70633390D01*
X61464285Y-70633390D02*
X61511904Y-70681009D01*
X61511904Y-70681009D02*
X61607142Y-70728628D01*
X61607142Y-70728628D02*
X61988094Y-70728628D01*
X60511904Y-70204819D02*
X60988094Y-70204819D01*
X60988094Y-70204819D02*
X61035713Y-70681009D01*
X61035713Y-70681009D02*
X60988094Y-70633390D01*
X60988094Y-70633390D02*
X60892856Y-70585771D01*
X60892856Y-70585771D02*
X60654761Y-70585771D01*
X60654761Y-70585771D02*
X60559523Y-70633390D01*
X60559523Y-70633390D02*
X60511904Y-70681009D01*
X60511904Y-70681009D02*
X60464285Y-70776247D01*
X60464285Y-70776247D02*
X60464285Y-71014342D01*
X60464285Y-71014342D02*
X60511904Y-71109580D01*
X60511904Y-71109580D02*
X60559523Y-71157200D01*
X60559523Y-71157200D02*
X60654761Y-71204819D01*
X60654761Y-71204819D02*
X60892856Y-71204819D01*
X60892856Y-71204819D02*
X60988094Y-71157200D01*
X60988094Y-71157200D02*
X61035713Y-71109580D01*
X55605238Y-84620057D02*
X55700476Y-84572438D01*
X55700476Y-84572438D02*
X55795714Y-84477200D01*
X55795714Y-84477200D02*
X55938571Y-84334342D01*
X55938571Y-84334342D02*
X56033809Y-84286723D01*
X56033809Y-84286723D02*
X56129047Y-84286723D01*
X56081428Y-84524819D02*
X56176666Y-84477200D01*
X56176666Y-84477200D02*
X56271904Y-84381961D01*
X56271904Y-84381961D02*
X56319523Y-84191485D01*
X56319523Y-84191485D02*
X56319523Y-83858152D01*
X56319523Y-83858152D02*
X56271904Y-83667676D01*
X56271904Y-83667676D02*
X56176666Y-83572438D01*
X56176666Y-83572438D02*
X56081428Y-83524819D01*
X56081428Y-83524819D02*
X55890952Y-83524819D01*
X55890952Y-83524819D02*
X55795714Y-83572438D01*
X55795714Y-83572438D02*
X55700476Y-83667676D01*
X55700476Y-83667676D02*
X55652857Y-83858152D01*
X55652857Y-83858152D02*
X55652857Y-84191485D01*
X55652857Y-84191485D02*
X55700476Y-84381961D01*
X55700476Y-84381961D02*
X55795714Y-84477200D01*
X55795714Y-84477200D02*
X55890952Y-84524819D01*
X55890952Y-84524819D02*
X56081428Y-84524819D01*
X55319523Y-83524819D02*
X54700476Y-83524819D01*
X54700476Y-83524819D02*
X55033809Y-83905771D01*
X55033809Y-83905771D02*
X54890952Y-83905771D01*
X54890952Y-83905771D02*
X54795714Y-83953390D01*
X54795714Y-83953390D02*
X54748095Y-84001009D01*
X54748095Y-84001009D02*
X54700476Y-84096247D01*
X54700476Y-84096247D02*
X54700476Y-84334342D01*
X54700476Y-84334342D02*
X54748095Y-84429580D01*
X54748095Y-84429580D02*
X54795714Y-84477200D01*
X54795714Y-84477200D02*
X54890952Y-84524819D01*
X54890952Y-84524819D02*
X55176666Y-84524819D01*
X55176666Y-84524819D02*
X55271904Y-84477200D01*
X55271904Y-84477200D02*
X55319523Y-84429580D01*
X60142857Y-92454819D02*
X60476190Y-91978628D01*
X60714285Y-92454819D02*
X60714285Y-91454819D01*
X60714285Y-91454819D02*
X60333333Y-91454819D01*
X60333333Y-91454819D02*
X60238095Y-91502438D01*
X60238095Y-91502438D02*
X60190476Y-91550057D01*
X60190476Y-91550057D02*
X60142857Y-91645295D01*
X60142857Y-91645295D02*
X60142857Y-91788152D01*
X60142857Y-91788152D02*
X60190476Y-91883390D01*
X60190476Y-91883390D02*
X60238095Y-91931009D01*
X60238095Y-91931009D02*
X60333333Y-91978628D01*
X60333333Y-91978628D02*
X60714285Y-91978628D01*
X59190476Y-92454819D02*
X59761904Y-92454819D01*
X59476190Y-92454819D02*
X59476190Y-91454819D01*
X59476190Y-91454819D02*
X59571428Y-91597676D01*
X59571428Y-91597676D02*
X59666666Y-91692914D01*
X59666666Y-91692914D02*
X59761904Y-91740533D01*
X58809523Y-91550057D02*
X58761904Y-91502438D01*
X58761904Y-91502438D02*
X58666666Y-91454819D01*
X58666666Y-91454819D02*
X58428571Y-91454819D01*
X58428571Y-91454819D02*
X58333333Y-91502438D01*
X58333333Y-91502438D02*
X58285714Y-91550057D01*
X58285714Y-91550057D02*
X58238095Y-91645295D01*
X58238095Y-91645295D02*
X58238095Y-91740533D01*
X58238095Y-91740533D02*
X58285714Y-91883390D01*
X58285714Y-91883390D02*
X58857142Y-92454819D01*
X58857142Y-92454819D02*
X58238095Y-92454819D01*
X56416666Y-43609580D02*
X56464285Y-43657200D01*
X56464285Y-43657200D02*
X56607142Y-43704819D01*
X56607142Y-43704819D02*
X56702380Y-43704819D01*
X56702380Y-43704819D02*
X56845237Y-43657200D01*
X56845237Y-43657200D02*
X56940475Y-43561961D01*
X56940475Y-43561961D02*
X56988094Y-43466723D01*
X56988094Y-43466723D02*
X57035713Y-43276247D01*
X57035713Y-43276247D02*
X57035713Y-43133390D01*
X57035713Y-43133390D02*
X56988094Y-42942914D01*
X56988094Y-42942914D02*
X56940475Y-42847676D01*
X56940475Y-42847676D02*
X56845237Y-42752438D01*
X56845237Y-42752438D02*
X56702380Y-42704819D01*
X56702380Y-42704819D02*
X56607142Y-42704819D01*
X56607142Y-42704819D02*
X56464285Y-42752438D01*
X56464285Y-42752438D02*
X56416666Y-42800057D01*
X56035713Y-42800057D02*
X55988094Y-42752438D01*
X55988094Y-42752438D02*
X55892856Y-42704819D01*
X55892856Y-42704819D02*
X55654761Y-42704819D01*
X55654761Y-42704819D02*
X55559523Y-42752438D01*
X55559523Y-42752438D02*
X55511904Y-42800057D01*
X55511904Y-42800057D02*
X55464285Y-42895295D01*
X55464285Y-42895295D02*
X55464285Y-42990533D01*
X55464285Y-42990533D02*
X55511904Y-43133390D01*
X55511904Y-43133390D02*
X56083332Y-43704819D01*
X56083332Y-43704819D02*
X55464285Y-43704819D01*
X63142857Y-81704819D02*
X63476190Y-81228628D01*
X63714285Y-81704819D02*
X63714285Y-80704819D01*
X63714285Y-80704819D02*
X63333333Y-80704819D01*
X63333333Y-80704819D02*
X63238095Y-80752438D01*
X63238095Y-80752438D02*
X63190476Y-80800057D01*
X63190476Y-80800057D02*
X63142857Y-80895295D01*
X63142857Y-80895295D02*
X63142857Y-81038152D01*
X63142857Y-81038152D02*
X63190476Y-81133390D01*
X63190476Y-81133390D02*
X63238095Y-81181009D01*
X63238095Y-81181009D02*
X63333333Y-81228628D01*
X63333333Y-81228628D02*
X63714285Y-81228628D01*
X62190476Y-81704819D02*
X62761904Y-81704819D01*
X62476190Y-81704819D02*
X62476190Y-80704819D01*
X62476190Y-80704819D02*
X62571428Y-80847676D01*
X62571428Y-80847676D02*
X62666666Y-80942914D01*
X62666666Y-80942914D02*
X62761904Y-80990533D01*
X61571428Y-80704819D02*
X61476190Y-80704819D01*
X61476190Y-80704819D02*
X61380952Y-80752438D01*
X61380952Y-80752438D02*
X61333333Y-80800057D01*
X61333333Y-80800057D02*
X61285714Y-80895295D01*
X61285714Y-80895295D02*
X61238095Y-81085771D01*
X61238095Y-81085771D02*
X61238095Y-81323866D01*
X61238095Y-81323866D02*
X61285714Y-81514342D01*
X61285714Y-81514342D02*
X61333333Y-81609580D01*
X61333333Y-81609580D02*
X61380952Y-81657200D01*
X61380952Y-81657200D02*
X61476190Y-81704819D01*
X61476190Y-81704819D02*
X61571428Y-81704819D01*
X61571428Y-81704819D02*
X61666666Y-81657200D01*
X61666666Y-81657200D02*
X61714285Y-81609580D01*
X61714285Y-81609580D02*
X61761904Y-81514342D01*
X61761904Y-81514342D02*
X61809523Y-81323866D01*
X61809523Y-81323866D02*
X61809523Y-81085771D01*
X61809523Y-81085771D02*
X61761904Y-80895295D01*
X61761904Y-80895295D02*
X61714285Y-80800057D01*
X61714285Y-80800057D02*
X61666666Y-80752438D01*
X61666666Y-80752438D02*
X61571428Y-80704819D01*
X55605238Y-70520057D02*
X55700476Y-70472438D01*
X55700476Y-70472438D02*
X55795714Y-70377200D01*
X55795714Y-70377200D02*
X55938571Y-70234342D01*
X55938571Y-70234342D02*
X56033809Y-70186723D01*
X56033809Y-70186723D02*
X56129047Y-70186723D01*
X56081428Y-70424819D02*
X56176666Y-70377200D01*
X56176666Y-70377200D02*
X56271904Y-70281961D01*
X56271904Y-70281961D02*
X56319523Y-70091485D01*
X56319523Y-70091485D02*
X56319523Y-69758152D01*
X56319523Y-69758152D02*
X56271904Y-69567676D01*
X56271904Y-69567676D02*
X56176666Y-69472438D01*
X56176666Y-69472438D02*
X56081428Y-69424819D01*
X56081428Y-69424819D02*
X55890952Y-69424819D01*
X55890952Y-69424819D02*
X55795714Y-69472438D01*
X55795714Y-69472438D02*
X55700476Y-69567676D01*
X55700476Y-69567676D02*
X55652857Y-69758152D01*
X55652857Y-69758152D02*
X55652857Y-70091485D01*
X55652857Y-70091485D02*
X55700476Y-70281961D01*
X55700476Y-70281961D02*
X55795714Y-70377200D01*
X55795714Y-70377200D02*
X55890952Y-70424819D01*
X55890952Y-70424819D02*
X56081428Y-70424819D01*
X54700476Y-70424819D02*
X55271904Y-70424819D01*
X54986190Y-70424819D02*
X54986190Y-69424819D01*
X54986190Y-69424819D02*
X55081428Y-69567676D01*
X55081428Y-69567676D02*
X55176666Y-69662914D01*
X55176666Y-69662914D02*
X55271904Y-69710533D01*
X55605238Y-77570057D02*
X55700476Y-77522438D01*
X55700476Y-77522438D02*
X55795714Y-77427200D01*
X55795714Y-77427200D02*
X55938571Y-77284342D01*
X55938571Y-77284342D02*
X56033809Y-77236723D01*
X56033809Y-77236723D02*
X56129047Y-77236723D01*
X56081428Y-77474819D02*
X56176666Y-77427200D01*
X56176666Y-77427200D02*
X56271904Y-77331961D01*
X56271904Y-77331961D02*
X56319523Y-77141485D01*
X56319523Y-77141485D02*
X56319523Y-76808152D01*
X56319523Y-76808152D02*
X56271904Y-76617676D01*
X56271904Y-76617676D02*
X56176666Y-76522438D01*
X56176666Y-76522438D02*
X56081428Y-76474819D01*
X56081428Y-76474819D02*
X55890952Y-76474819D01*
X55890952Y-76474819D02*
X55795714Y-76522438D01*
X55795714Y-76522438D02*
X55700476Y-76617676D01*
X55700476Y-76617676D02*
X55652857Y-76808152D01*
X55652857Y-76808152D02*
X55652857Y-77141485D01*
X55652857Y-77141485D02*
X55700476Y-77331961D01*
X55700476Y-77331961D02*
X55795714Y-77427200D01*
X55795714Y-77427200D02*
X55890952Y-77474819D01*
X55890952Y-77474819D02*
X56081428Y-77474819D01*
X55271904Y-76570057D02*
X55224285Y-76522438D01*
X55224285Y-76522438D02*
X55129047Y-76474819D01*
X55129047Y-76474819D02*
X54890952Y-76474819D01*
X54890952Y-76474819D02*
X54795714Y-76522438D01*
X54795714Y-76522438D02*
X54748095Y-76570057D01*
X54748095Y-76570057D02*
X54700476Y-76665295D01*
X54700476Y-76665295D02*
X54700476Y-76760533D01*
X54700476Y-76760533D02*
X54748095Y-76903390D01*
X54748095Y-76903390D02*
X55319523Y-77474819D01*
X55319523Y-77474819D02*
X54700476Y-77474819D01*
X62166666Y-83454819D02*
X62499999Y-82978628D01*
X62738094Y-83454819D02*
X62738094Y-82454819D01*
X62738094Y-82454819D02*
X62357142Y-82454819D01*
X62357142Y-82454819D02*
X62261904Y-82502438D01*
X62261904Y-82502438D02*
X62214285Y-82550057D01*
X62214285Y-82550057D02*
X62166666Y-82645295D01*
X62166666Y-82645295D02*
X62166666Y-82788152D01*
X62166666Y-82788152D02*
X62214285Y-82883390D01*
X62214285Y-82883390D02*
X62261904Y-82931009D01*
X62261904Y-82931009D02*
X62357142Y-82978628D01*
X62357142Y-82978628D02*
X62738094Y-82978628D01*
X61833332Y-82454819D02*
X61166666Y-82454819D01*
X61166666Y-82454819D02*
X61595237Y-83454819D01*
X62166666Y-89454819D02*
X62499999Y-88978628D01*
X62738094Y-89454819D02*
X62738094Y-88454819D01*
X62738094Y-88454819D02*
X62357142Y-88454819D01*
X62357142Y-88454819D02*
X62261904Y-88502438D01*
X62261904Y-88502438D02*
X62214285Y-88550057D01*
X62214285Y-88550057D02*
X62166666Y-88645295D01*
X62166666Y-88645295D02*
X62166666Y-88788152D01*
X62166666Y-88788152D02*
X62214285Y-88883390D01*
X62214285Y-88883390D02*
X62261904Y-88931009D01*
X62261904Y-88931009D02*
X62357142Y-88978628D01*
X62357142Y-88978628D02*
X62738094Y-88978628D01*
X61595237Y-88883390D02*
X61690475Y-88835771D01*
X61690475Y-88835771D02*
X61738094Y-88788152D01*
X61738094Y-88788152D02*
X61785713Y-88692914D01*
X61785713Y-88692914D02*
X61785713Y-88645295D01*
X61785713Y-88645295D02*
X61738094Y-88550057D01*
X61738094Y-88550057D02*
X61690475Y-88502438D01*
X61690475Y-88502438D02*
X61595237Y-88454819D01*
X61595237Y-88454819D02*
X61404761Y-88454819D01*
X61404761Y-88454819D02*
X61309523Y-88502438D01*
X61309523Y-88502438D02*
X61261904Y-88550057D01*
X61261904Y-88550057D02*
X61214285Y-88645295D01*
X61214285Y-88645295D02*
X61214285Y-88692914D01*
X61214285Y-88692914D02*
X61261904Y-88788152D01*
X61261904Y-88788152D02*
X61309523Y-88835771D01*
X61309523Y-88835771D02*
X61404761Y-88883390D01*
X61404761Y-88883390D02*
X61595237Y-88883390D01*
X61595237Y-88883390D02*
X61690475Y-88931009D01*
X61690475Y-88931009D02*
X61738094Y-88978628D01*
X61738094Y-88978628D02*
X61785713Y-89073866D01*
X61785713Y-89073866D02*
X61785713Y-89264342D01*
X61785713Y-89264342D02*
X61738094Y-89359580D01*
X61738094Y-89359580D02*
X61690475Y-89407200D01*
X61690475Y-89407200D02*
X61595237Y-89454819D01*
X61595237Y-89454819D02*
X61404761Y-89454819D01*
X61404761Y-89454819D02*
X61309523Y-89407200D01*
X61309523Y-89407200D02*
X61261904Y-89359580D01*
X61261904Y-89359580D02*
X61214285Y-89264342D01*
X61214285Y-89264342D02*
X61214285Y-89073866D01*
X61214285Y-89073866D02*
X61261904Y-88978628D01*
X61261904Y-88978628D02*
X61309523Y-88931009D01*
X61309523Y-88931009D02*
X61404761Y-88883390D01*
X67764666Y-79819580D02*
X67812285Y-79867200D01*
X67812285Y-79867200D02*
X67955142Y-79914819D01*
X67955142Y-79914819D02*
X68050380Y-79914819D01*
X68050380Y-79914819D02*
X68193237Y-79867200D01*
X68193237Y-79867200D02*
X68288475Y-79771961D01*
X68288475Y-79771961D02*
X68336094Y-79676723D01*
X68336094Y-79676723D02*
X68383713Y-79486247D01*
X68383713Y-79486247D02*
X68383713Y-79343390D01*
X68383713Y-79343390D02*
X68336094Y-79152914D01*
X68336094Y-79152914D02*
X68288475Y-79057676D01*
X68288475Y-79057676D02*
X68193237Y-78962438D01*
X68193237Y-78962438D02*
X68050380Y-78914819D01*
X68050380Y-78914819D02*
X67955142Y-78914819D01*
X67955142Y-78914819D02*
X67812285Y-78962438D01*
X67812285Y-78962438D02*
X67764666Y-79010057D01*
X66812285Y-79914819D02*
X67383713Y-79914819D01*
X67097999Y-79914819D02*
X67097999Y-78914819D01*
X67097999Y-78914819D02*
X67193237Y-79057676D01*
X67193237Y-79057676D02*
X67288475Y-79152914D01*
X67288475Y-79152914D02*
X67383713Y-79200533D01*
D13*
%TO.C,R6*%
X59245276Y-76227500D02*
X59754724Y-76227500D01*
X59245276Y-77272500D02*
X59754724Y-77272500D01*
%TO.C,R11*%
X59245276Y-86727500D02*
X59754724Y-86727500D01*
X59245276Y-87772500D02*
X59754724Y-87772500D01*
%TO.C,R9*%
X59245276Y-74477500D02*
X59754724Y-74477500D01*
X59245276Y-75522500D02*
X59754724Y-75522500D01*
%TO.C,Q4*%
X47400000Y-87750000D02*
X53820000Y-87750000D01*
X47400000Y-94650000D02*
X53820000Y-94650000D01*
X53820000Y-87750000D02*
X53820000Y-88020000D01*
X53820000Y-94650000D02*
X53820000Y-94380000D01*
X55550000Y-88060000D02*
X55210000Y-87590000D01*
X55890000Y-87590000D01*
X55550000Y-88060000D01*
G36*
X55550000Y-88060000D02*
G01*
X55210000Y-87590000D01*
X55890000Y-87590000D01*
X55550000Y-88060000D01*
G37*
%TO.C,R5*%
X58495276Y-70227500D02*
X59004724Y-70227500D01*
X58495276Y-71272500D02*
X59004724Y-71272500D01*
%TO.C,Q3*%
X47400000Y-80620000D02*
X53820000Y-80620000D01*
X47400000Y-87520000D02*
X53820000Y-87520000D01*
X53820000Y-80620000D02*
X53820000Y-80890000D01*
X53820000Y-87520000D02*
X53820000Y-87250000D01*
X55550000Y-80930000D02*
X55210000Y-80460000D01*
X55890000Y-80460000D01*
X55550000Y-80930000D01*
G36*
X55550000Y-80930000D02*
G01*
X55210000Y-80460000D01*
X55890000Y-80460000D01*
X55550000Y-80930000D01*
G37*
%TO.C,R12*%
X59245276Y-92977500D02*
X59754724Y-92977500D01*
X59245276Y-94022500D02*
X59754724Y-94022500D01*
%TO.C,C2*%
X56103733Y-41240000D02*
X56396267Y-41240000D01*
X56103733Y-42260000D02*
X56396267Y-42260000D01*
%TO.C,R10*%
X59245276Y-80727500D02*
X59754724Y-80727500D01*
X59245276Y-81772500D02*
X59754724Y-81772500D01*
%TO.C,Q1*%
X47400000Y-66520000D02*
X53820000Y-66520000D01*
X47400000Y-73420000D02*
X53820000Y-73420000D01*
X53820000Y-66520000D02*
X53820000Y-66790000D01*
X53820000Y-73420000D02*
X53820000Y-73150000D01*
X55550000Y-66830000D02*
X55210000Y-66360000D01*
X55890000Y-66360000D01*
X55550000Y-66830000D01*
G36*
X55550000Y-66830000D02*
G01*
X55210000Y-66360000D01*
X55890000Y-66360000D01*
X55550000Y-66830000D01*
G37*
%TO.C,Q2*%
X47400000Y-73570000D02*
X53820000Y-73570000D01*
X47400000Y-80470000D02*
X53820000Y-80470000D01*
X53820000Y-73570000D02*
X53820000Y-73840000D01*
X53820000Y-80470000D02*
X53820000Y-80200000D01*
X55550000Y-73880000D02*
X55210000Y-73410000D01*
X55890000Y-73410000D01*
X55550000Y-73880000D01*
G36*
X55550000Y-73880000D02*
G01*
X55210000Y-73410000D01*
X55890000Y-73410000D01*
X55550000Y-73880000D01*
G37*
%TO.C,R7*%
X59245276Y-82477500D02*
X59754724Y-82477500D01*
X59245276Y-83522500D02*
X59754724Y-83522500D01*
%TO.C,R8*%
X59245276Y-88477500D02*
X59754724Y-88477500D01*
X59245276Y-89522500D02*
X59754724Y-89522500D01*
%TO.C,C1*%
X70103733Y-78990000D02*
X70396267Y-78990000D01*
X70103733Y-80010000D02*
X70396267Y-80010000D01*
%TD*%
M02*
