%TF.GenerationSoftware,KiCad,Pcbnew,9.0.7*%
%TF.CreationDate,2026-09-21T22:13:03-07:00*%
%TF.ProjectId,ESPLEDDriver,4553504c-4544-4447-9269-7665722e6b69,rev?*%
%TF.SameCoordinates,Original*%
%TF.FileFunction,Copper,L2,Bot*%
%TF.FilePolarity,Positive*%
%FSLAX46Y46*%
G04 Gerber Fmt 4.6, Leading zero omitted, Abs format (unit mm)*
G04 Created by KiCad (PCBNEW 9.0.7) date 2026-09-21 22:13:03*
%MOMM*%
%LPD*%
G01*
G04 APERTURE LIST*
G04 Aperture macros list*
%AMRoundRect*
0 Rectangle with rounded corners*
0 $1 Rounding radius*
0 $2 $3 $4 $5 $6 $7 $8 $9 X,Y pos of 4 corners*
0 Add a 4 corners polygon primitive as box body*
4,1,4,$2,$3,$4,$5,$6,$7,$8,$9,$2,$3,0*
0 Add four circle primitives for the rounded corners*
1,1,$1+$1,$2,$3*
1,1,$1+$1,$4,$5*
1,1,$1+$1,$6,$7*
1,1,$1+$1,$8,$9*
0 Add four rect primitives between the rounded corners*
20,1,$1+$1,$2,$3,$4,$5,0*
20,1,$1+$1,$4,$5,$6,$7,0*
20,1,$1+$1,$6,$7,$8,$9,0*
20,1,$1+$1,$8,$9,$2,$3,0*%
G04 Aperture macros list end*
%TA.AperFunction,ComponentPad*%
%ADD10R,1.700000X1.700000*%
%TD*%
%TA.AperFunction,ComponentPad*%
%ADD11C,1.700000*%
%TD*%
%TA.AperFunction,ComponentPad*%
%ADD12RoundRect,0.250001X-0.949999X-0.949999X0.949999X-0.949999X0.949999X0.949999X-0.949999X0.949999X0*%
%TD*%
%TA.AperFunction,ComponentPad*%
%ADD13C,2.400000*%
%TD*%
%TA.AperFunction,HeatsinkPad*%
%ADD14C,0.600000*%
%TD*%
%TA.AperFunction,ComponentPad*%
%ADD15RoundRect,0.250000X-1.050000X1.050000X-1.050000X-1.050000X1.050000X-1.050000X1.050000X1.050000X0*%
%TD*%
%TA.AperFunction,ComponentPad*%
%ADD16C,2.600000*%
%TD*%
%TA.AperFunction,ComponentPad*%
%ADD17C,2.000000*%
%TD*%
%TA.AperFunction,SMDPad,CuDef*%
%ADD18RoundRect,0.237500X-0.250000X-0.237500X0.250000X-0.237500X0.250000X0.237500X-0.250000X0.237500X0*%
%TD*%
%TA.AperFunction,SMDPad,CuDef*%
%ADD19RoundRect,0.250000X0.850000X0.350000X-0.850000X0.350000X-0.850000X-0.350000X0.850000X-0.350000X0*%
%TD*%
%TA.AperFunction,SMDPad,CuDef*%
%ADD20RoundRect,0.249997X2.950003X2.650003X-2.950003X2.650003X-2.950003X-2.650003X2.950003X-2.650003X0*%
%TD*%
%TA.AperFunction,SMDPad,CuDef*%
%ADD21RoundRect,0.237500X-0.300000X-0.237500X0.300000X-0.237500X0.300000X0.237500X-0.300000X0.237500X0*%
%TD*%
%TA.AperFunction,ViaPad*%
%ADD22C,0.600000*%
%TD*%
%TA.AperFunction,ViaPad*%
%ADD23C,0.800000*%
%TD*%
%TA.AperFunction,Conductor*%
%ADD24C,0.200000*%
%TD*%
%TA.AperFunction,Conductor*%
%ADD25C,1.500000*%
%TD*%
%TA.AperFunction,Conductor*%
%ADD26C,3.500000*%
%TD*%
G04 APERTURE END LIST*
D10*
%TO.P,J5,1,Pin_1*%
%TO.N,+3V3*%
X83514000Y-44380000D03*
D11*
%TO.P,J5,2,Pin_2*%
%TO.N,GND*%
X83514000Y-46920000D03*
%TO.P,J5,3,Pin_3*%
%TO.N,GPIO0*%
X83514000Y-49460000D03*
%TO.P,J5,4,Pin_4*%
%TO.N,GPIO1*%
X83514000Y-52000000D03*
%TO.P,J5,5,Pin_5*%
%TO.N,GPIO2*%
X83514000Y-54540000D03*
%TO.P,J5,6,Pin_6*%
%TO.N,GPIO3*%
X83514000Y-57080000D03*
%TO.P,J5,7,Pin_7*%
%TO.N,GND*%
X83514000Y-59620000D03*
%TO.P,J5,8,Pin_8*%
%TO.N,GPIO4*%
X83514000Y-62160000D03*
%TO.P,J5,9,Pin_9*%
%TO.N,GPIO5*%
X83514000Y-64700000D03*
%TO.P,J5,10,Pin_10*%
%TO.N,GPIO6*%
X83514000Y-67240000D03*
%TO.P,J5,11,Pin_11*%
%TO.N,GPIO7*%
X83514000Y-69780000D03*
%TO.P,J5,12,Pin_12*%
%TO.N,GPIO8*%
X83514000Y-72320000D03*
%TO.P,J5,13,Pin_13*%
%TO.N,+3V3*%
X83514000Y-74860000D03*
%TO.P,J5,14,Pin_14*%
%TO.N,GPIO9*%
X83514000Y-77400000D03*
%TO.P,J5,15,Pin_15*%
%TO.N,GPIO10*%
X83514000Y-79940000D03*
%TO.P,J5,16,Pin_16*%
%TO.N,GPIO18*%
X83514000Y-82480000D03*
%TO.P,J5,17,Pin_17*%
%TO.N,GPIO19*%
X83514000Y-85020000D03*
%TO.P,J5,18,Pin_18*%
%TO.N,RX*%
X83514000Y-87560000D03*
%TO.P,J5,19,Pin_19*%
%TO.N,TX*%
X83514000Y-90100000D03*
%TO.P,J5,20,Pin_20*%
%TO.N,GND*%
X83514000Y-92640000D03*
%TD*%
D12*
%TO.P,C7,1*%
%TO.N,VCC*%
X49750000Y-64250000D03*
D13*
%TO.P,C7,2*%
%TO.N,GND*%
X54750000Y-64250000D03*
%TD*%
D14*
%TO.P,U1,19,GND*%
%TO.N,GND*%
X67860000Y-46850000D03*
X67860000Y-47950000D03*
X68410000Y-46300000D03*
X68410000Y-47400000D03*
X68410000Y-48500000D03*
X68960000Y-46850000D03*
X68960000Y-47950000D03*
X69510000Y-46300000D03*
X69510000Y-47400000D03*
X69510000Y-48500000D03*
X70060000Y-46850000D03*
X70060000Y-47950000D03*
%TD*%
D13*
%TO.P,F1,1*%
%TO.N,VCC*%
X47500000Y-54210000D03*
%TO.P,F1,2*%
%TO.N,Net-(J2-Pin_1)*%
X47500000Y-44290000D03*
%TO.P,F1,3*%
%TO.N,VCC*%
X50900000Y-54210000D03*
%TO.P,F1,4*%
%TO.N,Net-(J2-Pin_1)*%
X50900000Y-44290000D03*
%TD*%
D15*
%TO.P,J3,1,Pin_1*%
%TO.N,VCC*%
X39500000Y-72000000D03*
D16*
%TO.P,J3,2,Pin_2*%
%TO.N,R*%
X39500000Y-77000000D03*
%TO.P,J3,3,Pin_3*%
%TO.N,G*%
X39500000Y-82000000D03*
%TO.P,J3,4,Pin_4*%
%TO.N,B*%
X39500000Y-87000000D03*
%TO.P,J3,5,Pin_5*%
%TO.N,WHITE*%
X39500000Y-92000000D03*
%TD*%
D15*
%TO.P,J4,1,Pin_1*%
%TO.N,VCC*%
X39500000Y-55500000D03*
D16*
%TO.P,J4,2,Pin_2*%
%TO.N,Net-(J4-Pin_2)*%
X39500000Y-60500000D03*
%TO.P,J4,3,Pin_3*%
%TO.N,GND*%
X39500000Y-65500000D03*
%TD*%
D17*
%TO.P,RESET1,1,1*%
%TO.N,GND*%
X68750000Y-62000000D03*
X62250000Y-62000000D03*
%TO.P,RESET1,2,2*%
%TO.N,Net-(U1-EN)*%
X68750000Y-57500000D03*
X62250000Y-57500000D03*
%TD*%
D10*
%TO.P,J1,1,Pin_1*%
%TO.N,GND*%
X79202800Y-85008000D03*
D11*
%TO.P,J1,2,Pin_2*%
%TO.N,RX*%
X79202800Y-87548000D03*
%TO.P,J1,3,Pin_3*%
%TO.N,TX*%
X79202800Y-90088000D03*
%TO.P,J1,4,Pin_4*%
%TO.N,+3V3*%
X79202800Y-92628000D03*
%TD*%
D15*
%TO.P,J2,1,Pin_1*%
%TO.N,Net-(J2-Pin_1)*%
X39500000Y-44000000D03*
D16*
%TO.P,J2,2,Pin_2*%
%TO.N,GND*%
X39500000Y-49000000D03*
%TD*%
D17*
%TO.P,BOOT1,1,1*%
%TO.N,GND*%
X79250000Y-62000000D03*
X72750000Y-62000000D03*
%TO.P,BOOT1,2,2*%
%TO.N,GPIO9*%
X79250000Y-57500000D03*
X72750000Y-57500000D03*
%TD*%
D18*
%TO.P,R6,1*%
%TO.N,Net-(Q2-G)*%
X58587500Y-76750000D03*
%TO.P,R6,2*%
%TO.N,GPIO5*%
X60412500Y-76750000D03*
%TD*%
%TO.P,R11,1*%
%TO.N,GND*%
X58587500Y-87250000D03*
%TO.P,R11,2*%
%TO.N,Net-(Q3-G)*%
X60412500Y-87250000D03*
%TD*%
%TO.P,R9,1*%
%TO.N,GND*%
X58587500Y-75000000D03*
%TO.P,R9,2*%
%TO.N,Net-(Q1-G)*%
X60412500Y-75000000D03*
%TD*%
D19*
%TO.P,Q4,1,G*%
%TO.N,Net-(Q4-G)*%
X55550000Y-88920000D03*
D20*
%TO.P,Q4,2,D*%
%TO.N,WHITE*%
X49250000Y-91200000D03*
D19*
%TO.P,Q4,3,S*%
%TO.N,GND*%
X55550000Y-93480000D03*
%TD*%
D18*
%TO.P,R5,1*%
%TO.N,Net-(Q1-G)*%
X57837500Y-70750000D03*
%TO.P,R5,2*%
%TO.N,GPIO4*%
X59662500Y-70750000D03*
%TD*%
D19*
%TO.P,Q3,1,G*%
%TO.N,Net-(Q3-G)*%
X55550000Y-81790000D03*
D20*
%TO.P,Q3,2,D*%
%TO.N,B*%
X49250000Y-84070000D03*
D19*
%TO.P,Q3,3,S*%
%TO.N,GND*%
X55550000Y-86350000D03*
%TD*%
D18*
%TO.P,R12,1*%
%TO.N,GND*%
X58587500Y-93500000D03*
%TO.P,R12,2*%
%TO.N,Net-(Q4-G)*%
X60412500Y-93500000D03*
%TD*%
D21*
%TO.P,C2,1*%
%TO.N,GND*%
X55387500Y-41750000D03*
%TO.P,C2,2*%
%TO.N,+3V3*%
X57112500Y-41750000D03*
%TD*%
D18*
%TO.P,R10,1*%
%TO.N,GND*%
X58587500Y-81250000D03*
%TO.P,R10,2*%
%TO.N,Net-(Q2-G)*%
X60412500Y-81250000D03*
%TD*%
D19*
%TO.P,Q1,1,G*%
%TO.N,Net-(Q1-G)*%
X55550000Y-67690000D03*
D20*
%TO.P,Q1,2,D*%
%TO.N,R*%
X49250000Y-69970000D03*
D19*
%TO.P,Q1,3,S*%
%TO.N,GND*%
X55550000Y-72250000D03*
%TD*%
%TO.P,Q2,1,G*%
%TO.N,Net-(Q2-G)*%
X55550000Y-74740000D03*
D20*
%TO.P,Q2,2,D*%
%TO.N,G*%
X49250000Y-77020000D03*
D19*
%TO.P,Q2,3,S*%
%TO.N,GND*%
X55550000Y-79300000D03*
%TD*%
D18*
%TO.P,R7,1*%
%TO.N,Net-(Q3-G)*%
X58587500Y-83000000D03*
%TO.P,R7,2*%
%TO.N,GPIO6*%
X60412500Y-83000000D03*
%TD*%
%TO.P,R8,1*%
%TO.N,Net-(Q4-G)*%
X58587500Y-89000000D03*
%TO.P,R8,2*%
%TO.N,GPIO7*%
X60412500Y-89000000D03*
%TD*%
D21*
%TO.P,C1,1*%
%TO.N,VCC*%
X69387500Y-79500000D03*
%TO.P,C1,2*%
%TO.N,GND*%
X71112500Y-79500000D03*
%TD*%
D22*
%TO.N,VCC*%
X55958000Y-73632000D03*
X68265900Y-77162200D03*
D23*
%TO.N,GND*%
X71000000Y-80500000D03*
X55387500Y-41750000D03*
D22*
X78750000Y-72250000D03*
X56339000Y-46431900D03*
%TO.N,+3V3*%
X60418200Y-41949800D03*
X70457300Y-74650900D03*
%TO.N,Net-(U1-EN)*%
X56313500Y-45359300D03*
X58307900Y-55090700D03*
%TO.N,TX*%
X78002000Y-50347300D03*
%TO.N,RX*%
X78649500Y-51700000D03*
D23*
%TO.N,Net-(J4-Pin_2)*%
X81750000Y-42250000D03*
D22*
%TO.N,GPIO7*%
X63093600Y-53254600D03*
X63093600Y-48934300D03*
X75049000Y-62614900D03*
X63711400Y-85699300D03*
X77786100Y-70402600D03*
%TO.N,GPIO1*%
X78080600Y-42700000D03*
%TO.N,GPIO8*%
X77199000Y-62614900D03*
X78643900Y-70489100D03*
%TO.N,GPIO4*%
X59639700Y-61386500D03*
X60516600Y-44200000D03*
X59453476Y-69774447D03*
%TO.N,GPIO5*%
X62635200Y-74308900D03*
X84911000Y-66090300D03*
%TO.N,GPIO10*%
X78010000Y-53161500D03*
%TO.N,GPIO19*%
X85937600Y-50730000D03*
X78154400Y-47200000D03*
X80915300Y-50730000D03*
%TO.N,GPIO6*%
X63114400Y-80561300D03*
%TO.N,GPIO3*%
X78324800Y-45700000D03*
%TO.N,GPIO18*%
X79031300Y-48704300D03*
%TO.N,Net-(Q1-G)*%
X58587500Y-69515400D03*
X62335200Y-73504700D03*
%TO.N,Net-(Q2-G)*%
X53605700Y-80281900D03*
X61420300Y-81250000D03*
%TO.N,Net-(Q3-G)*%
X60578700Y-85686300D03*
X56519700Y-83011100D03*
%TO.N,Net-(Q4-G)*%
X62891000Y-89732800D03*
X60412500Y-92272400D03*
%TD*%
D24*
%TO.N,VCC*%
X49940300Y-64250000D02*
X54147300Y-68457000D01*
X54147300Y-72845500D02*
X54933800Y-73632000D01*
X69387500Y-78283800D02*
X68265900Y-77162200D01*
X54933800Y-73632000D02*
X55958000Y-73632000D01*
X49750000Y-64250000D02*
X49940300Y-64250000D01*
X69387500Y-79500000D02*
X69387500Y-78283800D01*
X54147300Y-68457000D02*
X54147300Y-72845500D01*
%TO.N,GND*%
X68750000Y-62000000D02*
X62250000Y-62000000D01*
D25*
X58587500Y-75000000D02*
X58587500Y-72412500D01*
D26*
X60709595Y-63500000D02*
X63750000Y-63500000D01*
D24*
X71000000Y-79612500D02*
X71112500Y-79500000D01*
X68410000Y-48500000D02*
X68410000Y-47950000D01*
D25*
X55550000Y-72250000D02*
X58750000Y-72250000D01*
D24*
X82170400Y-91296400D02*
X83514000Y-92640000D01*
D26*
X54750000Y-64250000D02*
X55500000Y-63500000D01*
D25*
X59500000Y-84426000D02*
X65926000Y-84426000D01*
D24*
X68410000Y-46850000D02*
X68410000Y-46300000D01*
D26*
X53296100Y-61099000D02*
X54750000Y-62552900D01*
D24*
X71000000Y-80500000D02*
X71000000Y-79612500D01*
X72750000Y-62000000D02*
X68750000Y-62000000D01*
D26*
X58569805Y-63500000D02*
X58707305Y-63637500D01*
D24*
X67422400Y-49487600D02*
X67422400Y-60672400D01*
D26*
X66000000Y-78000000D02*
X66000000Y-84500000D01*
D25*
X58587500Y-87250000D02*
X58587500Y-85338500D01*
D26*
X66014900Y-77985100D02*
X66000000Y-78000000D01*
D25*
X58587500Y-91912500D02*
X59500000Y-91000000D01*
D24*
X79202800Y-72702800D02*
X78750000Y-72250000D01*
D25*
X58587500Y-93500000D02*
X58587500Y-91912500D01*
D24*
X84715700Y-58418300D02*
X83514000Y-59620000D01*
X79202800Y-86159700D02*
X79490700Y-86159700D01*
D26*
X43901000Y-61099000D02*
X53296100Y-61099000D01*
X66000000Y-84500000D02*
X66000000Y-91000000D01*
D25*
X64700000Y-79300000D02*
X66000000Y-78000000D01*
D26*
X60572095Y-63637500D02*
X60709595Y-63500000D01*
D25*
X58587500Y-81250000D02*
X58587500Y-79712500D01*
D26*
X66250000Y-75994705D02*
X66014900Y-76229805D01*
D25*
X59000000Y-79300000D02*
X64700000Y-79300000D01*
D24*
X55387500Y-45480400D02*
X56339000Y-46431900D01*
D25*
X58587500Y-72412500D02*
X58750000Y-72250000D01*
D24*
X84715700Y-48121700D02*
X84715700Y-58418300D01*
X79250000Y-62000000D02*
X72750000Y-62000000D01*
D25*
X65926000Y-84426000D02*
X66000000Y-84500000D01*
X58587500Y-85338500D02*
X59500000Y-84426000D01*
D26*
X66014900Y-76229805D02*
X66014900Y-77985100D01*
D25*
X58030000Y-91000000D02*
X59500000Y-91000000D01*
X57474000Y-84426000D02*
X59500000Y-84426000D01*
D26*
X39500000Y-65500000D02*
X43901000Y-61099000D01*
X58707305Y-63637500D02*
X60572095Y-63637500D01*
D24*
X55302900Y-62000000D02*
X54750000Y-62552900D01*
X68410000Y-47400000D02*
X68410000Y-46850000D01*
X55387500Y-41750000D02*
X55387500Y-45480400D01*
X79202800Y-85008000D02*
X79202800Y-72702800D01*
D25*
X55550000Y-79300000D02*
X59000000Y-79300000D01*
X58587500Y-79712500D02*
X59000000Y-79300000D01*
D24*
X79490700Y-86159700D02*
X82170400Y-88839400D01*
X68410000Y-47950000D02*
X68410000Y-47400000D01*
D25*
X55550000Y-93480000D02*
X58030000Y-91000000D01*
D26*
X54750000Y-62552900D02*
X54750000Y-64250000D01*
D24*
X62250000Y-62000000D02*
X55302900Y-62000000D01*
X68410000Y-46850000D02*
X67860000Y-46850000D01*
X78750000Y-72250000D02*
X79250000Y-71750000D01*
X83514000Y-46920000D02*
X84715700Y-48121700D01*
D26*
X66250000Y-66000000D02*
X66250000Y-75994705D01*
X63750000Y-63500000D02*
X66250000Y-66000000D01*
D24*
X79202800Y-85008000D02*
X79202800Y-86159700D01*
X79250000Y-71750000D02*
X79250000Y-62000000D01*
X67422400Y-60672400D02*
X68750000Y-62000000D01*
D25*
X59500000Y-91000000D02*
X66000000Y-91000000D01*
D24*
X68960000Y-46850000D02*
X68410000Y-46850000D01*
X82170400Y-88839400D02*
X82170400Y-91296400D01*
D25*
X58750000Y-72250000D02*
X65500000Y-72250000D01*
X55550000Y-86350000D02*
X57474000Y-84426000D01*
D24*
X67860000Y-47950000D02*
X68410000Y-47950000D01*
D26*
X55500000Y-63500000D02*
X58569805Y-63500000D01*
D24*
X68410000Y-48500000D02*
X67422400Y-49487600D01*
%TO.N,+3V3*%
X85156500Y-65483400D02*
X85514300Y-65841200D01*
X60418200Y-41949800D02*
X79932100Y-41949800D01*
X85514300Y-72859700D02*
X83514000Y-74860000D01*
X71966600Y-85391800D02*
X71966600Y-76160200D01*
X83801900Y-45531700D02*
X85156500Y-46886300D01*
X83514000Y-44380000D02*
X82362300Y-44380000D01*
X83514000Y-44380000D02*
X83514000Y-45531700D01*
X79202800Y-92628000D02*
X71966600Y-85391800D01*
X85156500Y-46886300D02*
X85156500Y-65483400D01*
X71966600Y-76160200D02*
X70457300Y-74650900D01*
X83514000Y-45531700D02*
X83801900Y-45531700D01*
X57312300Y-41949800D02*
X60418200Y-41949800D01*
X85514300Y-65841200D02*
X85514300Y-72859700D01*
X57112500Y-41750000D02*
X57312300Y-41949800D01*
X79932100Y-41949800D02*
X82362300Y-44380000D01*
%TO.N,Net-(U1-EN)*%
X56313500Y-45359300D02*
X58307900Y-47353700D01*
X58307900Y-47353700D02*
X58307900Y-55090700D01*
%TO.N,TX*%
X79416600Y-60325600D02*
X80576300Y-61485300D01*
X80576300Y-86664200D02*
X83514000Y-89601900D01*
X78990600Y-60325600D02*
X79416600Y-60325600D01*
X77091900Y-51257400D02*
X77091900Y-58426900D01*
X83514000Y-89601900D02*
X83514000Y-90100000D01*
X77091900Y-58426900D02*
X78990600Y-60325600D01*
X80576300Y-61485300D02*
X80576300Y-86664200D01*
X78002000Y-50347300D02*
X77091900Y-51257400D01*
%TO.N,RX*%
X77493600Y-56214900D02*
X78649500Y-55059000D01*
X77493600Y-58189600D02*
X77493600Y-56214900D01*
X83514000Y-87560000D02*
X80978000Y-85024000D01*
X79390500Y-59731500D02*
X79035500Y-59731500D01*
X80978000Y-61319000D02*
X79390500Y-59731500D01*
X80978000Y-85024000D02*
X80978000Y-61319000D01*
X78649500Y-55059000D02*
X78649500Y-51700000D01*
X79035500Y-59731500D02*
X77493600Y-58189600D01*
D26*
%TO.N,B*%
X39500000Y-87000000D02*
X40799000Y-85701000D01*
X47619000Y-85701000D02*
X49250000Y-84070000D01*
X40799000Y-85701000D02*
X47619000Y-85701000D01*
%TO.N,WHITE*%
X49250000Y-91200000D02*
X48700000Y-91750000D01*
X48700000Y-91750000D02*
X39750000Y-91750000D01*
X39750000Y-91750000D02*
X39500000Y-92000000D01*
%TO.N,R*%
X47580400Y-69970000D02*
X49250000Y-69970000D01*
X40550400Y-77000000D02*
X47580400Y-69970000D01*
X39500000Y-77000000D02*
X40550400Y-77000000D01*
%TO.N,G*%
X49250000Y-77020000D02*
X46050000Y-77020000D01*
X46050000Y-77020000D02*
X41070000Y-82000000D01*
X41070000Y-82000000D02*
X39500000Y-82000000D01*
D24*
%TO.N,Net-(J4-Pin_2)*%
X41101000Y-58899000D02*
X39500000Y-60500000D01*
X39500000Y-59500000D02*
X39500000Y-60500000D01*
X81750000Y-42250000D02*
X80474000Y-40974000D01*
X48526000Y-40974000D02*
X41101000Y-48399000D01*
X80474000Y-40974000D02*
X48526000Y-40974000D01*
X41101000Y-48399000D02*
X41101000Y-58899000D01*
%TO.N,GPIO7*%
X63711400Y-85701100D02*
X63711400Y-85699300D01*
X75049000Y-67665500D02*
X77786100Y-70402600D01*
X63093600Y-53254600D02*
X63093600Y-48934300D01*
X75049000Y-62614900D02*
X75049000Y-67665500D01*
X60412500Y-89000000D02*
X63711400Y-85701100D01*
%TO.N,GPIO1*%
X82124200Y-50610200D02*
X82124200Y-46743600D01*
X82124200Y-46743600D02*
X78080600Y-42700000D01*
X83514000Y-52000000D02*
X82124200Y-50610200D01*
%TO.N,GPIO8*%
X78643900Y-64059800D02*
X78643900Y-70489100D01*
X77199000Y-62614900D02*
X78643900Y-64059800D01*
%TO.N,GPIO4*%
X59639700Y-61386500D02*
X59639700Y-45076900D01*
X59639700Y-45076900D02*
X60516600Y-44200000D01*
X59453476Y-69774447D02*
X59639700Y-69960671D01*
X59639700Y-69960671D02*
X59639700Y-70727200D01*
X59639700Y-70727200D02*
X59662500Y-70750000D01*
%TO.N,GPIO5*%
X60412500Y-76750000D02*
X62635200Y-74527300D01*
X62635200Y-74527300D02*
X62635200Y-74308900D01*
X83520700Y-64700000D02*
X84911000Y-66090300D01*
X83514000Y-64700000D02*
X83520700Y-64700000D01*
%TO.N,GPIO10*%
X78010000Y-53161500D02*
X78010000Y-51426800D01*
X79121500Y-59215000D02*
X79520500Y-59215000D01*
X79520500Y-59215000D02*
X81427400Y-61121900D01*
X79316000Y-51459200D02*
X79316000Y-55084600D01*
X78365700Y-51071100D02*
X78927900Y-51071100D01*
X79316000Y-55084600D02*
X77895300Y-56505300D01*
X78927900Y-51071100D02*
X79316000Y-51459200D01*
X78010000Y-51426800D02*
X78365700Y-51071100D01*
X77895300Y-57988800D02*
X79121500Y-59215000D01*
X81427400Y-61121900D02*
X81427400Y-77853400D01*
X81427400Y-77853400D02*
X83514000Y-79940000D01*
X77895300Y-56505300D02*
X77895300Y-57988800D01*
%TO.N,GPIO19*%
X78154400Y-47200000D02*
X78427500Y-47200000D01*
X83514000Y-85020000D02*
X85937600Y-82596400D01*
X80915300Y-49687800D02*
X80915300Y-50730000D01*
X85937600Y-82596400D02*
X85937600Y-50730000D01*
X78427500Y-47200000D02*
X80915300Y-49687800D01*
%TO.N,GPIO6*%
X60675700Y-83000000D02*
X63114400Y-80561300D01*
X60412500Y-83000000D02*
X60675700Y-83000000D01*
%TO.N,GPIO3*%
X83514000Y-57080000D02*
X81528100Y-55094100D01*
X81528100Y-55094100D02*
X81528100Y-48903300D01*
X81528100Y-48903300D02*
X78324800Y-45700000D01*
%TO.N,GPIO9*%
X81888700Y-60138700D02*
X79250000Y-57500000D01*
X81888700Y-75774700D02*
X81888700Y-60138700D01*
X83514000Y-77400000D02*
X81888700Y-75774700D01*
%TO.N,GPIO18*%
X80217600Y-49890600D02*
X80217600Y-56583100D01*
X80217600Y-56583100D02*
X82362300Y-58727800D01*
X84666900Y-76887200D02*
X84666900Y-81327100D01*
X83909700Y-76130000D02*
X84666900Y-76887200D01*
X84666900Y-81327100D02*
X83514000Y-82480000D01*
X82362300Y-58727800D02*
X82362300Y-75337000D01*
X79031300Y-48704300D02*
X80217600Y-49890600D01*
X83155300Y-76130000D02*
X83909700Y-76130000D01*
X82362300Y-75337000D02*
X83155300Y-76130000D01*
%TO.N,Net-(Q1-G)*%
X56762100Y-67690000D02*
X58587500Y-69515400D01*
X58587500Y-69515400D02*
X58587500Y-70000000D01*
X55550000Y-67690000D02*
X56762100Y-67690000D01*
X58587500Y-70000000D02*
X57837500Y-70750000D01*
X60839900Y-75000000D02*
X62335200Y-73504700D01*
X60412500Y-75000000D02*
X60839900Y-75000000D01*
%TO.N,Net-(Q2-G)*%
X53605700Y-80281900D02*
X53605700Y-76684300D01*
X60412500Y-81250000D02*
X61420300Y-81250000D01*
X57560000Y-76750000D02*
X55550000Y-74740000D01*
X53605700Y-76684300D02*
X55550000Y-74740000D01*
X58587500Y-76750000D02*
X57560000Y-76750000D01*
%TO.N,Net-(Q3-G)*%
X58587500Y-83000000D02*
X56519700Y-83000000D01*
X56519700Y-83000000D02*
X56519700Y-83011100D01*
X56519700Y-82759700D02*
X56519700Y-83000000D01*
X60412500Y-87250000D02*
X60578700Y-87083800D01*
X55550000Y-81790000D02*
X56519700Y-82759700D01*
X60578700Y-87083800D02*
X60578700Y-85686300D01*
%TO.N,Net-(Q4-G)*%
X60412500Y-93500000D02*
X60500000Y-93500000D01*
X59385300Y-89797800D02*
X62826000Y-89797800D01*
X62826000Y-89797800D02*
X62891000Y-89732800D01*
X60412500Y-93500000D02*
X60412500Y-92272400D01*
X58587500Y-89000000D02*
X55630000Y-89000000D01*
X58587500Y-89000000D02*
X59385300Y-89797800D01*
X55630000Y-89000000D02*
X55550000Y-88920000D01*
%TD*%
M02*
