%TF.GenerationSoftware,KiCad,Pcbnew,9.0.7*%
%TF.CreationDate,2026-09-21T22:13:03-07:00*%
%TF.ProjectId,ESPLEDDriver,4553504c-4544-4447-9269-7665722e6b69,rev?*%
%TF.SameCoordinates,Original*%
%TF.FileFunction,Soldermask,Top*%
%TF.FilePolarity,Negative*%
%FSLAX46Y46*%
G04 Gerber Fmt 4.6, Leading zero omitted, Abs format (unit mm)*
G04 Created by KiCad (PCBNEW 9.0.7) date 2026-09-21 22:13:03*
%MOMM*%
%LPD*%
G01*
G04 APERTURE LIST*
G04 Aperture macros list*
%AMRoundRect*
0 Rectangle with rounded corners*
0 $1 Rounding radius*
0 $2 $3 $4 $5 $6 $7 $8 $9 X,Y pos of 4 corners*
0 Add a 4 corners polygon primitive as box body*
4,1,4,$2,$3,$4,$5,$6,$7,$8,$9,$2,$3,0*
0 Add four circle primitives for the rounded corners*
1,1,$1+$1,$2,$3*
1,1,$1+$1,$4,$5*
1,1,$1+$1,$6,$7*
1,1,$1+$1,$8,$9*
0 Add four rect primitives between the rounded corners*
20,1,$1+$1,$2,$3,$4,$5,0*
20,1,$1+$1,$4,$5,$6,$7,0*
20,1,$1+$1,$6,$7,$8,$9,0*
20,1,$1+$1,$8,$9,$2,$3,0*%
G04 Aperture macros list end*
%ADD10R,1.700000X1.700000*%
%ADD11C,1.700000*%
%ADD12RoundRect,0.250001X-0.949999X-0.949999X0.949999X-0.949999X0.949999X0.949999X-0.949999X0.949999X0*%
%ADD13C,2.400000*%
%ADD14R,2.800000X5.300000*%
%ADD15RoundRect,0.250000X-1.000000X-0.900000X1.000000X-0.900000X1.000000X0.900000X-1.000000X0.900000X0*%
%ADD16R,1.500000X0.900000*%
%ADD17C,0.600000*%
%ADD18R,2.900000X2.900000*%
%ADD19RoundRect,0.237500X-0.237500X0.250000X-0.237500X-0.250000X0.237500X-0.250000X0.237500X0.250000X0*%
%ADD20C,2.604000*%
%ADD21RoundRect,0.150000X-0.825000X-0.150000X0.825000X-0.150000X0.825000X0.150000X-0.825000X0.150000X0*%
%ADD22RoundRect,0.250000X-1.750000X-1.000000X1.750000X-1.000000X1.750000X1.000000X-1.750000X1.000000X0*%
%ADD23RoundRect,0.250000X-1.500000X-0.650000X1.500000X-0.650000X1.500000X0.650000X-1.500000X0.650000X0*%
%ADD24RoundRect,0.250000X1.500000X0.550000X-1.500000X0.550000X-1.500000X-0.550000X1.500000X-0.550000X0*%
%ADD25RoundRect,0.250000X-1.050000X1.050000X-1.050000X-1.050000X1.050000X-1.050000X1.050000X1.050000X0*%
%ADD26C,2.600000*%
%ADD27RoundRect,0.237500X-0.300000X-0.237500X0.300000X-0.237500X0.300000X0.237500X-0.300000X0.237500X0*%
%ADD28RoundRect,0.237500X-0.250000X-0.237500X0.250000X-0.237500X0.250000X0.237500X-0.250000X0.237500X0*%
%ADD29C,2.000000*%
G04 APERTURE END LIST*
D10*
%TO.C,J5*%
X83514000Y-44380000D03*
D11*
X83514000Y-46920000D03*
X83514000Y-49460000D03*
X83514000Y-52000000D03*
X83514000Y-54540000D03*
X83514000Y-57080000D03*
X83514000Y-59620000D03*
X83514000Y-62160000D03*
X83514000Y-64700000D03*
X83514000Y-67240000D03*
X83514000Y-69780000D03*
X83514000Y-72320000D03*
X83514000Y-74860000D03*
X83514000Y-77400000D03*
X83514000Y-79940000D03*
X83514000Y-82480000D03*
X83514000Y-85020000D03*
X83514000Y-87560000D03*
X83514000Y-90100000D03*
X83514000Y-92640000D03*
%TD*%
D12*
%TO.C,C7*%
X49750000Y-64250000D03*
D13*
X54750000Y-64250000D03*
%TD*%
D14*
%TO.C,L1*%
X47900000Y-88000000D03*
X58000000Y-88000000D03*
%TD*%
D15*
%TO.C,D2*%
X48350000Y-73750000D03*
X52650000Y-73750000D03*
%TD*%
D16*
%TO.C,U1*%
X59250000Y-41200000D03*
X59250000Y-42700000D03*
X59250000Y-44200000D03*
X59250000Y-45700000D03*
X59250000Y-47200000D03*
X59250000Y-48700000D03*
X59250000Y-50200000D03*
X59250000Y-51700000D03*
X59250000Y-53200000D03*
X76750000Y-53200000D03*
X76750000Y-51700000D03*
X76750000Y-50200000D03*
X76750000Y-48700000D03*
X76750000Y-47200000D03*
X76750000Y-45700000D03*
X76750000Y-44200000D03*
X76750000Y-42700000D03*
X76750000Y-41200000D03*
D17*
X67860000Y-46850000D03*
X67860000Y-47950000D03*
X68410000Y-46300000D03*
X68410000Y-47400000D03*
X68410000Y-48500000D03*
X68960000Y-46850000D03*
D18*
X68960000Y-47400000D03*
D17*
X68960000Y-47950000D03*
X69510000Y-46300000D03*
X69510000Y-47400000D03*
X69510000Y-48500000D03*
X70060000Y-46850000D03*
X70060000Y-47950000D03*
%TD*%
D19*
%TO.C,R3*%
X79560000Y-45387500D03*
X79560000Y-47212500D03*
%TD*%
D20*
%TO.C,F1*%
X47500000Y-54210000D03*
X47500000Y-44290000D03*
X50900000Y-54210000D03*
X50900000Y-44290000D03*
%TD*%
D21*
%TO.C,U2*%
X67750000Y-79440000D03*
X67750000Y-80710000D03*
X67750000Y-81980000D03*
X67750000Y-83250000D03*
X72700000Y-83250000D03*
X72700000Y-81980000D03*
X72700000Y-80710000D03*
X72700000Y-79440000D03*
%TD*%
D22*
%TO.C,C5*%
X70750000Y-72250000D03*
X78750000Y-72250000D03*
%TD*%
D23*
%TO.C,D1*%
X48750000Y-78000000D03*
X53750000Y-78000000D03*
%TD*%
D24*
%TO.C,C6*%
X65918000Y-74750000D03*
X60318000Y-74750000D03*
%TD*%
D25*
%TO.C,J3*%
X39500000Y-72000000D03*
D26*
X39500000Y-77000000D03*
X39500000Y-82000000D03*
X39500000Y-87000000D03*
X39500000Y-92000000D03*
%TD*%
D25*
%TO.C,J4*%
X39500000Y-55500000D03*
D26*
X39500000Y-60500000D03*
X39500000Y-65500000D03*
%TD*%
D27*
%TO.C,C3*%
X55397500Y-47250000D03*
X57122500Y-47250000D03*
%TD*%
D19*
%TO.C,R4*%
X79560000Y-41387500D03*
X79560000Y-43212500D03*
%TD*%
D28*
%TO.C,R1*%
X55347500Y-44500000D03*
X57172500Y-44500000D03*
%TD*%
%TO.C,R2*%
X55347500Y-50250000D03*
X57172500Y-50250000D03*
%TD*%
D27*
%TO.C,C4*%
X55397500Y-41750000D03*
X57122500Y-41750000D03*
%TD*%
D29*
%TO.C,RESET1*%
X68750000Y-62000000D03*
X62250000Y-62000000D03*
X68750000Y-57500000D03*
X62250000Y-57500000D03*
%TD*%
D10*
%TO.C,J1*%
X79202800Y-85008000D03*
D11*
X79202800Y-87548000D03*
X79202800Y-90088000D03*
X79202800Y-92628000D03*
%TD*%
D25*
%TO.C,J2*%
X39500000Y-44000000D03*
D26*
X39500000Y-49000000D03*
%TD*%
D29*
%TO.C,BOOT1*%
X79250000Y-62000000D03*
X72750000Y-62000000D03*
X79250000Y-57500000D03*
X72750000Y-57500000D03*
%TD*%
M02*
