%TF.GenerationSoftware,KiCad,Pcbnew,9.0.7*%
%TF.CreationDate,2026-09-21T22:13:03-07:00*%
%TF.ProjectId,ESPLEDDriver,4553504c-4544-4447-9269-7665722e6b69,rev?*%
%TF.SameCoordinates,Original*%
%TF.FileFunction,Legend,Top*%
%TF.FilePolarity,Positive*%
%FSLAX46Y46*%
G04 Gerber Fmt 4.6, Leading zero omitted, Abs format (unit mm)*
G04 Created by KiCad (PCBNEW 9.0.7) date 2026-09-21 22:13:03*
%MOMM*%
%LPD*%
G01*
G04 APERTURE LIST*
%ADD10C,0.100000*%
%ADD11C,0.150000*%
%ADD12C,0.200000*%
%ADD13C,0.120000*%
%ADD14C,0.127000*%
%ADD15C,0.000000*%
G04 APERTURE END LIST*
D10*
X85756265Y-89645657D02*
X85803884Y-89598038D01*
X85803884Y-89598038D02*
X85899122Y-89550419D01*
X85899122Y-89550419D02*
X86137217Y-89550419D01*
X86137217Y-89550419D02*
X86232455Y-89598038D01*
X86232455Y-89598038D02*
X86280074Y-89645657D01*
X86280074Y-89645657D02*
X86327693Y-89740895D01*
X86327693Y-89740895D02*
X86327693Y-89836133D01*
X86327693Y-89836133D02*
X86280074Y-89978990D01*
X86280074Y-89978990D02*
X85708646Y-90550419D01*
X85708646Y-90550419D02*
X86327693Y-90550419D01*
X87280074Y-90550419D02*
X86708646Y-90550419D01*
X86994360Y-90550419D02*
X86994360Y-89550419D01*
X86994360Y-89550419D02*
X86899122Y-89693276D01*
X86899122Y-89693276D02*
X86803884Y-89788514D01*
X86803884Y-89788514D02*
X86708646Y-89836133D01*
X32958646Y-91622419D02*
X33196741Y-92622419D01*
X33196741Y-92622419D02*
X33387217Y-91908133D01*
X33387217Y-91908133D02*
X33577693Y-92622419D01*
X33577693Y-92622419D02*
X33815789Y-91622419D01*
X86327693Y-46418038D02*
X86232455Y-46370419D01*
X86232455Y-46370419D02*
X86089598Y-46370419D01*
X86089598Y-46370419D02*
X85946741Y-46418038D01*
X85946741Y-46418038D02*
X85851503Y-46513276D01*
X85851503Y-46513276D02*
X85803884Y-46608514D01*
X85803884Y-46608514D02*
X85756265Y-46798990D01*
X85756265Y-46798990D02*
X85756265Y-46941847D01*
X85756265Y-46941847D02*
X85803884Y-47132323D01*
X85803884Y-47132323D02*
X85851503Y-47227561D01*
X85851503Y-47227561D02*
X85946741Y-47322800D01*
X85946741Y-47322800D02*
X86089598Y-47370419D01*
X86089598Y-47370419D02*
X86184836Y-47370419D01*
X86184836Y-47370419D02*
X86327693Y-47322800D01*
X86327693Y-47322800D02*
X86375312Y-47275180D01*
X86375312Y-47275180D02*
X86375312Y-46941847D01*
X86375312Y-46941847D02*
X86184836Y-46941847D01*
D11*
X74642857Y-63931009D02*
X74785714Y-63978628D01*
X74785714Y-63978628D02*
X74833333Y-64026247D01*
X74833333Y-64026247D02*
X74880952Y-64121485D01*
X74880952Y-64121485D02*
X74880952Y-64264342D01*
X74880952Y-64264342D02*
X74833333Y-64359580D01*
X74833333Y-64359580D02*
X74785714Y-64407200D01*
X74785714Y-64407200D02*
X74690476Y-64454819D01*
X74690476Y-64454819D02*
X74309524Y-64454819D01*
X74309524Y-64454819D02*
X74309524Y-63454819D01*
X74309524Y-63454819D02*
X74642857Y-63454819D01*
X74642857Y-63454819D02*
X74738095Y-63502438D01*
X74738095Y-63502438D02*
X74785714Y-63550057D01*
X74785714Y-63550057D02*
X74833333Y-63645295D01*
X74833333Y-63645295D02*
X74833333Y-63740533D01*
X74833333Y-63740533D02*
X74785714Y-63835771D01*
X74785714Y-63835771D02*
X74738095Y-63883390D01*
X74738095Y-63883390D02*
X74642857Y-63931009D01*
X74642857Y-63931009D02*
X74309524Y-63931009D01*
X75500000Y-63454819D02*
X75690476Y-63454819D01*
X75690476Y-63454819D02*
X75785714Y-63502438D01*
X75785714Y-63502438D02*
X75880952Y-63597676D01*
X75880952Y-63597676D02*
X75928571Y-63788152D01*
X75928571Y-63788152D02*
X75928571Y-64121485D01*
X75928571Y-64121485D02*
X75880952Y-64311961D01*
X75880952Y-64311961D02*
X75785714Y-64407200D01*
X75785714Y-64407200D02*
X75690476Y-64454819D01*
X75690476Y-64454819D02*
X75500000Y-64454819D01*
X75500000Y-64454819D02*
X75404762Y-64407200D01*
X75404762Y-64407200D02*
X75309524Y-64311961D01*
X75309524Y-64311961D02*
X75261905Y-64121485D01*
X75261905Y-64121485D02*
X75261905Y-63788152D01*
X75261905Y-63788152D02*
X75309524Y-63597676D01*
X75309524Y-63597676D02*
X75404762Y-63502438D01*
X75404762Y-63502438D02*
X75500000Y-63454819D01*
X76547619Y-63454819D02*
X76738095Y-63454819D01*
X76738095Y-63454819D02*
X76833333Y-63502438D01*
X76833333Y-63502438D02*
X76928571Y-63597676D01*
X76928571Y-63597676D02*
X76976190Y-63788152D01*
X76976190Y-63788152D02*
X76976190Y-64121485D01*
X76976190Y-64121485D02*
X76928571Y-64311961D01*
X76928571Y-64311961D02*
X76833333Y-64407200D01*
X76833333Y-64407200D02*
X76738095Y-64454819D01*
X76738095Y-64454819D02*
X76547619Y-64454819D01*
X76547619Y-64454819D02*
X76452381Y-64407200D01*
X76452381Y-64407200D02*
X76357143Y-64311961D01*
X76357143Y-64311961D02*
X76309524Y-64121485D01*
X76309524Y-64121485D02*
X76309524Y-63788152D01*
X76309524Y-63788152D02*
X76357143Y-63597676D01*
X76357143Y-63597676D02*
X76452381Y-63502438D01*
X76452381Y-63502438D02*
X76547619Y-63454819D01*
X77261905Y-63454819D02*
X77833333Y-63454819D01*
X77547619Y-64454819D02*
X77547619Y-63454819D01*
D10*
X33577693Y-81670038D02*
X33482455Y-81622419D01*
X33482455Y-81622419D02*
X33339598Y-81622419D01*
X33339598Y-81622419D02*
X33196741Y-81670038D01*
X33196741Y-81670038D02*
X33101503Y-81765276D01*
X33101503Y-81765276D02*
X33053884Y-81860514D01*
X33053884Y-81860514D02*
X33006265Y-82050990D01*
X33006265Y-82050990D02*
X33006265Y-82193847D01*
X33006265Y-82193847D02*
X33053884Y-82384323D01*
X33053884Y-82384323D02*
X33101503Y-82479561D01*
X33101503Y-82479561D02*
X33196741Y-82574800D01*
X33196741Y-82574800D02*
X33339598Y-82622419D01*
X33339598Y-82622419D02*
X33434836Y-82622419D01*
X33434836Y-82622419D02*
X33577693Y-82574800D01*
X33577693Y-82574800D02*
X33625312Y-82527180D01*
X33625312Y-82527180D02*
X33625312Y-82193847D01*
X33625312Y-82193847D02*
X33434836Y-82193847D01*
X85708646Y-56530419D02*
X86327693Y-56530419D01*
X86327693Y-56530419D02*
X85994360Y-56911371D01*
X85994360Y-56911371D02*
X86137217Y-56911371D01*
X86137217Y-56911371D02*
X86232455Y-56958990D01*
X86232455Y-56958990D02*
X86280074Y-57006609D01*
X86280074Y-57006609D02*
X86327693Y-57101847D01*
X86327693Y-57101847D02*
X86327693Y-57339942D01*
X86327693Y-57339942D02*
X86280074Y-57435180D01*
X86280074Y-57435180D02*
X86232455Y-57482800D01*
X86232455Y-57482800D02*
X86137217Y-57530419D01*
X86137217Y-57530419D02*
X85851503Y-57530419D01*
X85851503Y-57530419D02*
X85756265Y-57482800D01*
X85756265Y-57482800D02*
X85708646Y-57435180D01*
X85994360Y-48910419D02*
X86089598Y-48910419D01*
X86089598Y-48910419D02*
X86184836Y-48958038D01*
X86184836Y-48958038D02*
X86232455Y-49005657D01*
X86232455Y-49005657D02*
X86280074Y-49100895D01*
X86280074Y-49100895D02*
X86327693Y-49291371D01*
X86327693Y-49291371D02*
X86327693Y-49529466D01*
X86327693Y-49529466D02*
X86280074Y-49719942D01*
X86280074Y-49719942D02*
X86232455Y-49815180D01*
X86232455Y-49815180D02*
X86184836Y-49862800D01*
X86184836Y-49862800D02*
X86089598Y-49910419D01*
X86089598Y-49910419D02*
X85994360Y-49910419D01*
X85994360Y-49910419D02*
X85899122Y-49862800D01*
X85899122Y-49862800D02*
X85851503Y-49815180D01*
X85851503Y-49815180D02*
X85803884Y-49719942D01*
X85803884Y-49719942D02*
X85756265Y-49529466D01*
X85756265Y-49529466D02*
X85756265Y-49291371D01*
X85756265Y-49291371D02*
X85803884Y-49100895D01*
X85803884Y-49100895D02*
X85851503Y-49005657D01*
X85851503Y-49005657D02*
X85899122Y-48958038D01*
X85899122Y-48958038D02*
X85994360Y-48910419D01*
X86327693Y-52450419D02*
X85756265Y-52450419D01*
X86041979Y-52450419D02*
X86041979Y-51450419D01*
X86041979Y-51450419D02*
X85946741Y-51593276D01*
X85946741Y-51593276D02*
X85851503Y-51688514D01*
X85851503Y-51688514D02*
X85756265Y-51736133D01*
X86327693Y-82930419D02*
X85756265Y-82930419D01*
X86041979Y-82930419D02*
X86041979Y-81930419D01*
X86041979Y-81930419D02*
X85946741Y-82073276D01*
X85946741Y-82073276D02*
X85851503Y-82168514D01*
X85851503Y-82168514D02*
X85756265Y-82216133D01*
X86899122Y-82358990D02*
X86803884Y-82311371D01*
X86803884Y-82311371D02*
X86756265Y-82263752D01*
X86756265Y-82263752D02*
X86708646Y-82168514D01*
X86708646Y-82168514D02*
X86708646Y-82120895D01*
X86708646Y-82120895D02*
X86756265Y-82025657D01*
X86756265Y-82025657D02*
X86803884Y-81978038D01*
X86803884Y-81978038D02*
X86899122Y-81930419D01*
X86899122Y-81930419D02*
X87089598Y-81930419D01*
X87089598Y-81930419D02*
X87184836Y-81978038D01*
X87184836Y-81978038D02*
X87232455Y-82025657D01*
X87232455Y-82025657D02*
X87280074Y-82120895D01*
X87280074Y-82120895D02*
X87280074Y-82168514D01*
X87280074Y-82168514D02*
X87232455Y-82263752D01*
X87232455Y-82263752D02*
X87184836Y-82311371D01*
X87184836Y-82311371D02*
X87089598Y-82358990D01*
X87089598Y-82358990D02*
X86899122Y-82358990D01*
X86899122Y-82358990D02*
X86803884Y-82406609D01*
X86803884Y-82406609D02*
X86756265Y-82454228D01*
X86756265Y-82454228D02*
X86708646Y-82549466D01*
X86708646Y-82549466D02*
X86708646Y-82739942D01*
X86708646Y-82739942D02*
X86756265Y-82835180D01*
X86756265Y-82835180D02*
X86803884Y-82882800D01*
X86803884Y-82882800D02*
X86899122Y-82930419D01*
X86899122Y-82930419D02*
X87089598Y-82930419D01*
X87089598Y-82930419D02*
X87184836Y-82882800D01*
X87184836Y-82882800D02*
X87232455Y-82835180D01*
X87232455Y-82835180D02*
X87280074Y-82739942D01*
X87280074Y-82739942D02*
X87280074Y-82549466D01*
X87280074Y-82549466D02*
X87232455Y-82454228D01*
X87232455Y-82454228D02*
X87184836Y-82406609D01*
X87184836Y-82406609D02*
X87089598Y-82358990D01*
X33053884Y-60872419D02*
X33053884Y-59872419D01*
X33053884Y-59872419D02*
X33291979Y-59872419D01*
X33291979Y-59872419D02*
X33434836Y-59920038D01*
X33434836Y-59920038D02*
X33530074Y-60015276D01*
X33530074Y-60015276D02*
X33577693Y-60110514D01*
X33577693Y-60110514D02*
X33625312Y-60300990D01*
X33625312Y-60300990D02*
X33625312Y-60443847D01*
X33625312Y-60443847D02*
X33577693Y-60634323D01*
X33577693Y-60634323D02*
X33530074Y-60729561D01*
X33530074Y-60729561D02*
X33434836Y-60824800D01*
X33434836Y-60824800D02*
X33291979Y-60872419D01*
X33291979Y-60872419D02*
X33053884Y-60872419D01*
X33053884Y-43991466D02*
X33815789Y-43991466D01*
X33434836Y-44372419D02*
X33434836Y-43610514D01*
D11*
X77130180Y-91532268D02*
X77130180Y-92151315D01*
X77130180Y-92151315D02*
X76749228Y-91817982D01*
X76749228Y-91817982D02*
X76749228Y-91960839D01*
X76749228Y-91960839D02*
X76701609Y-92056077D01*
X76701609Y-92056077D02*
X76653990Y-92103696D01*
X76653990Y-92103696D02*
X76558752Y-92151315D01*
X76558752Y-92151315D02*
X76320657Y-92151315D01*
X76320657Y-92151315D02*
X76225419Y-92103696D01*
X76225419Y-92103696D02*
X76177800Y-92056077D01*
X76177800Y-92056077D02*
X76130180Y-91960839D01*
X76130180Y-91960839D02*
X76130180Y-91675125D01*
X76130180Y-91675125D02*
X76177800Y-91579887D01*
X76177800Y-91579887D02*
X76225419Y-91532268D01*
X77130180Y-92437030D02*
X76130180Y-92770363D01*
X76130180Y-92770363D02*
X77130180Y-93103696D01*
X77130180Y-93341792D02*
X77130180Y-93960839D01*
X77130180Y-93960839D02*
X76749228Y-93627506D01*
X76749228Y-93627506D02*
X76749228Y-93770363D01*
X76749228Y-93770363D02*
X76701609Y-93865601D01*
X76701609Y-93865601D02*
X76653990Y-93913220D01*
X76653990Y-93913220D02*
X76558752Y-93960839D01*
X76558752Y-93960839D02*
X76320657Y-93960839D01*
X76320657Y-93960839D02*
X76225419Y-93913220D01*
X76225419Y-93913220D02*
X76177800Y-93865601D01*
X76177800Y-93865601D02*
X76130180Y-93770363D01*
X76130180Y-93770363D02*
X76130180Y-93484649D01*
X76130180Y-93484649D02*
X76177800Y-93389411D01*
X76177800Y-93389411D02*
X76225419Y-93341792D01*
X77082561Y-84115601D02*
X77130180Y-84020363D01*
X77130180Y-84020363D02*
X77130180Y-83877506D01*
X77130180Y-83877506D02*
X77082561Y-83734649D01*
X77082561Y-83734649D02*
X76987323Y-83639411D01*
X76987323Y-83639411D02*
X76892085Y-83591792D01*
X76892085Y-83591792D02*
X76701609Y-83544173D01*
X76701609Y-83544173D02*
X76558752Y-83544173D01*
X76558752Y-83544173D02*
X76368276Y-83591792D01*
X76368276Y-83591792D02*
X76273038Y-83639411D01*
X76273038Y-83639411D02*
X76177800Y-83734649D01*
X76177800Y-83734649D02*
X76130180Y-83877506D01*
X76130180Y-83877506D02*
X76130180Y-83972744D01*
X76130180Y-83972744D02*
X76177800Y-84115601D01*
X76177800Y-84115601D02*
X76225419Y-84163220D01*
X76225419Y-84163220D02*
X76558752Y-84163220D01*
X76558752Y-84163220D02*
X76558752Y-83972744D01*
X76130180Y-84591792D02*
X77130180Y-84591792D01*
X77130180Y-84591792D02*
X76130180Y-85163220D01*
X76130180Y-85163220D02*
X77130180Y-85163220D01*
X76130180Y-85639411D02*
X77130180Y-85639411D01*
X77130180Y-85639411D02*
X77130180Y-85877506D01*
X77130180Y-85877506D02*
X77082561Y-86020363D01*
X77082561Y-86020363D02*
X76987323Y-86115601D01*
X76987323Y-86115601D02*
X76892085Y-86163220D01*
X76892085Y-86163220D02*
X76701609Y-86210839D01*
X76701609Y-86210839D02*
X76558752Y-86210839D01*
X76558752Y-86210839D02*
X76368276Y-86163220D01*
X76368276Y-86163220D02*
X76273038Y-86115601D01*
X76273038Y-86115601D02*
X76177800Y-86020363D01*
X76177800Y-86020363D02*
X76130180Y-85877506D01*
X76130180Y-85877506D02*
X76130180Y-85639411D01*
D10*
X85708646Y-44338419D02*
X86327693Y-44338419D01*
X86327693Y-44338419D02*
X85994360Y-44719371D01*
X85994360Y-44719371D02*
X86137217Y-44719371D01*
X86137217Y-44719371D02*
X86232455Y-44766990D01*
X86232455Y-44766990D02*
X86280074Y-44814609D01*
X86280074Y-44814609D02*
X86327693Y-44909847D01*
X86327693Y-44909847D02*
X86327693Y-45147942D01*
X86327693Y-45147942D02*
X86280074Y-45243180D01*
X86280074Y-45243180D02*
X86232455Y-45290800D01*
X86232455Y-45290800D02*
X86137217Y-45338419D01*
X86137217Y-45338419D02*
X85851503Y-45338419D01*
X85851503Y-45338419D02*
X85756265Y-45290800D01*
X85756265Y-45290800D02*
X85708646Y-45243180D01*
X86613408Y-44338419D02*
X86946741Y-45338419D01*
X86946741Y-45338419D02*
X87280074Y-44338419D01*
X87518170Y-44338419D02*
X88137217Y-44338419D01*
X88137217Y-44338419D02*
X87803884Y-44719371D01*
X87803884Y-44719371D02*
X87946741Y-44719371D01*
X87946741Y-44719371D02*
X88041979Y-44766990D01*
X88041979Y-44766990D02*
X88089598Y-44814609D01*
X88089598Y-44814609D02*
X88137217Y-44909847D01*
X88137217Y-44909847D02*
X88137217Y-45147942D01*
X88137217Y-45147942D02*
X88089598Y-45243180D01*
X88089598Y-45243180D02*
X88041979Y-45290800D01*
X88041979Y-45290800D02*
X87946741Y-45338419D01*
X87946741Y-45338419D02*
X87661027Y-45338419D01*
X87661027Y-45338419D02*
X87565789Y-45290800D01*
X87565789Y-45290800D02*
X87518170Y-45243180D01*
X86232455Y-66690419D02*
X86041979Y-66690419D01*
X86041979Y-66690419D02*
X85946741Y-66738038D01*
X85946741Y-66738038D02*
X85899122Y-66785657D01*
X85899122Y-66785657D02*
X85803884Y-66928514D01*
X85803884Y-66928514D02*
X85756265Y-67118990D01*
X85756265Y-67118990D02*
X85756265Y-67499942D01*
X85756265Y-67499942D02*
X85803884Y-67595180D01*
X85803884Y-67595180D02*
X85851503Y-67642800D01*
X85851503Y-67642800D02*
X85946741Y-67690419D01*
X85946741Y-67690419D02*
X86137217Y-67690419D01*
X86137217Y-67690419D02*
X86232455Y-67642800D01*
X86232455Y-67642800D02*
X86280074Y-67595180D01*
X86280074Y-67595180D02*
X86327693Y-67499942D01*
X86327693Y-67499942D02*
X86327693Y-67261847D01*
X86327693Y-67261847D02*
X86280074Y-67166609D01*
X86280074Y-67166609D02*
X86232455Y-67118990D01*
X86232455Y-67118990D02*
X86137217Y-67071371D01*
X86137217Y-67071371D02*
X85946741Y-67071371D01*
X85946741Y-67071371D02*
X85851503Y-67118990D01*
X85851503Y-67118990D02*
X85803884Y-67166609D01*
X85803884Y-67166609D02*
X85756265Y-67261847D01*
X85756265Y-87105657D02*
X85803884Y-87058038D01*
X85803884Y-87058038D02*
X85899122Y-87010419D01*
X85899122Y-87010419D02*
X86137217Y-87010419D01*
X86137217Y-87010419D02*
X86232455Y-87058038D01*
X86232455Y-87058038D02*
X86280074Y-87105657D01*
X86280074Y-87105657D02*
X86327693Y-87200895D01*
X86327693Y-87200895D02*
X86327693Y-87296133D01*
X86327693Y-87296133D02*
X86280074Y-87438990D01*
X86280074Y-87438990D02*
X85708646Y-88010419D01*
X85708646Y-88010419D02*
X86327693Y-88010419D01*
X86946741Y-87010419D02*
X87041979Y-87010419D01*
X87041979Y-87010419D02*
X87137217Y-87058038D01*
X87137217Y-87058038D02*
X87184836Y-87105657D01*
X87184836Y-87105657D02*
X87232455Y-87200895D01*
X87232455Y-87200895D02*
X87280074Y-87391371D01*
X87280074Y-87391371D02*
X87280074Y-87629466D01*
X87280074Y-87629466D02*
X87232455Y-87819942D01*
X87232455Y-87819942D02*
X87184836Y-87915180D01*
X87184836Y-87915180D02*
X87137217Y-87962800D01*
X87137217Y-87962800D02*
X87041979Y-88010419D01*
X87041979Y-88010419D02*
X86946741Y-88010419D01*
X86946741Y-88010419D02*
X86851503Y-87962800D01*
X86851503Y-87962800D02*
X86803884Y-87915180D01*
X86803884Y-87915180D02*
X86756265Y-87819942D01*
X86756265Y-87819942D02*
X86708646Y-87629466D01*
X86708646Y-87629466D02*
X86708646Y-87391371D01*
X86708646Y-87391371D02*
X86756265Y-87200895D01*
X86756265Y-87200895D02*
X86803884Y-87105657D01*
X86803884Y-87105657D02*
X86851503Y-87058038D01*
X86851503Y-87058038D02*
X86946741Y-87010419D01*
D11*
X64047618Y-64454819D02*
X63714285Y-63978628D01*
X63476190Y-64454819D02*
X63476190Y-63454819D01*
X63476190Y-63454819D02*
X63857142Y-63454819D01*
X63857142Y-63454819D02*
X63952380Y-63502438D01*
X63952380Y-63502438D02*
X63999999Y-63550057D01*
X63999999Y-63550057D02*
X64047618Y-63645295D01*
X64047618Y-63645295D02*
X64047618Y-63788152D01*
X64047618Y-63788152D02*
X63999999Y-63883390D01*
X63999999Y-63883390D02*
X63952380Y-63931009D01*
X63952380Y-63931009D02*
X63857142Y-63978628D01*
X63857142Y-63978628D02*
X63476190Y-63978628D01*
X64476190Y-63931009D02*
X64809523Y-63931009D01*
X64952380Y-64454819D02*
X64476190Y-64454819D01*
X64476190Y-64454819D02*
X64476190Y-63454819D01*
X64476190Y-63454819D02*
X64952380Y-63454819D01*
X65333333Y-64407200D02*
X65476190Y-64454819D01*
X65476190Y-64454819D02*
X65714285Y-64454819D01*
X65714285Y-64454819D02*
X65809523Y-64407200D01*
X65809523Y-64407200D02*
X65857142Y-64359580D01*
X65857142Y-64359580D02*
X65904761Y-64264342D01*
X65904761Y-64264342D02*
X65904761Y-64169104D01*
X65904761Y-64169104D02*
X65857142Y-64073866D01*
X65857142Y-64073866D02*
X65809523Y-64026247D01*
X65809523Y-64026247D02*
X65714285Y-63978628D01*
X65714285Y-63978628D02*
X65523809Y-63931009D01*
X65523809Y-63931009D02*
X65428571Y-63883390D01*
X65428571Y-63883390D02*
X65380952Y-63835771D01*
X65380952Y-63835771D02*
X65333333Y-63740533D01*
X65333333Y-63740533D02*
X65333333Y-63645295D01*
X65333333Y-63645295D02*
X65380952Y-63550057D01*
X65380952Y-63550057D02*
X65428571Y-63502438D01*
X65428571Y-63502438D02*
X65523809Y-63454819D01*
X65523809Y-63454819D02*
X65761904Y-63454819D01*
X65761904Y-63454819D02*
X65904761Y-63502438D01*
X66333333Y-63931009D02*
X66666666Y-63931009D01*
X66809523Y-64454819D02*
X66333333Y-64454819D01*
X66333333Y-64454819D02*
X66333333Y-63454819D01*
X66333333Y-63454819D02*
X66809523Y-63454819D01*
X67095238Y-63454819D02*
X67666666Y-63454819D01*
X67380952Y-64454819D02*
X67380952Y-63454819D01*
D10*
X86327693Y-59118038D02*
X86232455Y-59070419D01*
X86232455Y-59070419D02*
X86089598Y-59070419D01*
X86089598Y-59070419D02*
X85946741Y-59118038D01*
X85946741Y-59118038D02*
X85851503Y-59213276D01*
X85851503Y-59213276D02*
X85803884Y-59308514D01*
X85803884Y-59308514D02*
X85756265Y-59498990D01*
X85756265Y-59498990D02*
X85756265Y-59641847D01*
X85756265Y-59641847D02*
X85803884Y-59832323D01*
X85803884Y-59832323D02*
X85851503Y-59927561D01*
X85851503Y-59927561D02*
X85946741Y-60022800D01*
X85946741Y-60022800D02*
X86089598Y-60070419D01*
X86089598Y-60070419D02*
X86184836Y-60070419D01*
X86184836Y-60070419D02*
X86327693Y-60022800D01*
X86327693Y-60022800D02*
X86375312Y-59975180D01*
X86375312Y-59975180D02*
X86375312Y-59641847D01*
X86375312Y-59641847D02*
X86184836Y-59641847D01*
X86327693Y-85470419D02*
X85756265Y-85470419D01*
X86041979Y-85470419D02*
X86041979Y-84470419D01*
X86041979Y-84470419D02*
X85946741Y-84613276D01*
X85946741Y-84613276D02*
X85851503Y-84708514D01*
X85851503Y-84708514D02*
X85756265Y-84756133D01*
X86803884Y-85470419D02*
X86994360Y-85470419D01*
X86994360Y-85470419D02*
X87089598Y-85422800D01*
X87089598Y-85422800D02*
X87137217Y-85375180D01*
X87137217Y-85375180D02*
X87232455Y-85232323D01*
X87232455Y-85232323D02*
X87280074Y-85041847D01*
X87280074Y-85041847D02*
X87280074Y-84660895D01*
X87280074Y-84660895D02*
X87232455Y-84565657D01*
X87232455Y-84565657D02*
X87184836Y-84518038D01*
X87184836Y-84518038D02*
X87089598Y-84470419D01*
X87089598Y-84470419D02*
X86899122Y-84470419D01*
X86899122Y-84470419D02*
X86803884Y-84518038D01*
X86803884Y-84518038D02*
X86756265Y-84565657D01*
X86756265Y-84565657D02*
X86708646Y-84660895D01*
X86708646Y-84660895D02*
X86708646Y-84898990D01*
X86708646Y-84898990D02*
X86756265Y-84994228D01*
X86756265Y-84994228D02*
X86803884Y-85041847D01*
X86803884Y-85041847D02*
X86899122Y-85089466D01*
X86899122Y-85089466D02*
X87089598Y-85089466D01*
X87089598Y-85089466D02*
X87184836Y-85041847D01*
X87184836Y-85041847D02*
X87232455Y-84994228D01*
X87232455Y-84994228D02*
X87280074Y-84898990D01*
X33053884Y-65741466D02*
X33815789Y-65741466D01*
X85708646Y-74310419D02*
X86327693Y-74310419D01*
X86327693Y-74310419D02*
X85994360Y-74691371D01*
X85994360Y-74691371D02*
X86137217Y-74691371D01*
X86137217Y-74691371D02*
X86232455Y-74738990D01*
X86232455Y-74738990D02*
X86280074Y-74786609D01*
X86280074Y-74786609D02*
X86327693Y-74881847D01*
X86327693Y-74881847D02*
X86327693Y-75119942D01*
X86327693Y-75119942D02*
X86280074Y-75215180D01*
X86280074Y-75215180D02*
X86232455Y-75262800D01*
X86232455Y-75262800D02*
X86137217Y-75310419D01*
X86137217Y-75310419D02*
X85851503Y-75310419D01*
X85851503Y-75310419D02*
X85756265Y-75262800D01*
X85756265Y-75262800D02*
X85708646Y-75215180D01*
X86613408Y-74310419D02*
X86946741Y-75310419D01*
X86946741Y-75310419D02*
X87280074Y-74310419D01*
X87518170Y-74310419D02*
X88137217Y-74310419D01*
X88137217Y-74310419D02*
X87803884Y-74691371D01*
X87803884Y-74691371D02*
X87946741Y-74691371D01*
X87946741Y-74691371D02*
X88041979Y-74738990D01*
X88041979Y-74738990D02*
X88089598Y-74786609D01*
X88089598Y-74786609D02*
X88137217Y-74881847D01*
X88137217Y-74881847D02*
X88137217Y-75119942D01*
X88137217Y-75119942D02*
X88089598Y-75215180D01*
X88089598Y-75215180D02*
X88041979Y-75262800D01*
X88041979Y-75262800D02*
X87946741Y-75310419D01*
X87946741Y-75310419D02*
X87661027Y-75310419D01*
X87661027Y-75310419D02*
X87565789Y-75262800D01*
X87565789Y-75262800D02*
X87518170Y-75215180D01*
X33625312Y-77372419D02*
X33291979Y-76896228D01*
X33053884Y-77372419D02*
X33053884Y-76372419D01*
X33053884Y-76372419D02*
X33434836Y-76372419D01*
X33434836Y-76372419D02*
X33530074Y-76420038D01*
X33530074Y-76420038D02*
X33577693Y-76467657D01*
X33577693Y-76467657D02*
X33625312Y-76562895D01*
X33625312Y-76562895D02*
X33625312Y-76705752D01*
X33625312Y-76705752D02*
X33577693Y-76800990D01*
X33577693Y-76800990D02*
X33530074Y-76848609D01*
X33530074Y-76848609D02*
X33434836Y-76896228D01*
X33434836Y-76896228D02*
X33053884Y-76896228D01*
X85851503Y-77850419D02*
X86041979Y-77850419D01*
X86041979Y-77850419D02*
X86137217Y-77802800D01*
X86137217Y-77802800D02*
X86184836Y-77755180D01*
X86184836Y-77755180D02*
X86280074Y-77612323D01*
X86280074Y-77612323D02*
X86327693Y-77421847D01*
X86327693Y-77421847D02*
X86327693Y-77040895D01*
X86327693Y-77040895D02*
X86280074Y-76945657D01*
X86280074Y-76945657D02*
X86232455Y-76898038D01*
X86232455Y-76898038D02*
X86137217Y-76850419D01*
X86137217Y-76850419D02*
X85946741Y-76850419D01*
X85946741Y-76850419D02*
X85851503Y-76898038D01*
X85851503Y-76898038D02*
X85803884Y-76945657D01*
X85803884Y-76945657D02*
X85756265Y-77040895D01*
X85756265Y-77040895D02*
X85756265Y-77278990D01*
X85756265Y-77278990D02*
X85803884Y-77374228D01*
X85803884Y-77374228D02*
X85851503Y-77421847D01*
X85851503Y-77421847D02*
X85946741Y-77469466D01*
X85946741Y-77469466D02*
X86137217Y-77469466D01*
X86137217Y-77469466D02*
X86232455Y-77421847D01*
X86232455Y-77421847D02*
X86280074Y-77374228D01*
X86280074Y-77374228D02*
X86327693Y-77278990D01*
D11*
X76130180Y-87508458D02*
X76606371Y-87175125D01*
X76130180Y-86937030D02*
X77130180Y-86937030D01*
X77130180Y-86937030D02*
X77130180Y-87317982D01*
X77130180Y-87317982D02*
X77082561Y-87413220D01*
X77082561Y-87413220D02*
X77034942Y-87460839D01*
X77034942Y-87460839D02*
X76939704Y-87508458D01*
X76939704Y-87508458D02*
X76796847Y-87508458D01*
X76796847Y-87508458D02*
X76701609Y-87460839D01*
X76701609Y-87460839D02*
X76653990Y-87413220D01*
X76653990Y-87413220D02*
X76606371Y-87317982D01*
X76606371Y-87317982D02*
X76606371Y-86937030D01*
X77130180Y-87841792D02*
X76130180Y-88508458D01*
X77130180Y-88508458D02*
X76130180Y-87841792D01*
D10*
X33053884Y-48991466D02*
X33815789Y-48991466D01*
X86327693Y-92138038D02*
X86232455Y-92090419D01*
X86232455Y-92090419D02*
X86089598Y-92090419D01*
X86089598Y-92090419D02*
X85946741Y-92138038D01*
X85946741Y-92138038D02*
X85851503Y-92233276D01*
X85851503Y-92233276D02*
X85803884Y-92328514D01*
X85803884Y-92328514D02*
X85756265Y-92518990D01*
X85756265Y-92518990D02*
X85756265Y-92661847D01*
X85756265Y-92661847D02*
X85803884Y-92852323D01*
X85803884Y-92852323D02*
X85851503Y-92947561D01*
X85851503Y-92947561D02*
X85946741Y-93042800D01*
X85946741Y-93042800D02*
X86089598Y-93090419D01*
X86089598Y-93090419D02*
X86184836Y-93090419D01*
X86184836Y-93090419D02*
X86327693Y-93042800D01*
X86327693Y-93042800D02*
X86375312Y-92995180D01*
X86375312Y-92995180D02*
X86375312Y-92661847D01*
X86375312Y-92661847D02*
X86184836Y-92661847D01*
X33053884Y-71991466D02*
X33815789Y-71991466D01*
X33434836Y-72372419D02*
X33434836Y-71610514D01*
X85756265Y-54085657D02*
X85803884Y-54038038D01*
X85803884Y-54038038D02*
X85899122Y-53990419D01*
X85899122Y-53990419D02*
X86137217Y-53990419D01*
X86137217Y-53990419D02*
X86232455Y-54038038D01*
X86232455Y-54038038D02*
X86280074Y-54085657D01*
X86280074Y-54085657D02*
X86327693Y-54180895D01*
X86327693Y-54180895D02*
X86327693Y-54276133D01*
X86327693Y-54276133D02*
X86280074Y-54418990D01*
X86280074Y-54418990D02*
X85708646Y-54990419D01*
X85708646Y-54990419D02*
X86327693Y-54990419D01*
X85946741Y-72198990D02*
X85851503Y-72151371D01*
X85851503Y-72151371D02*
X85803884Y-72103752D01*
X85803884Y-72103752D02*
X85756265Y-72008514D01*
X85756265Y-72008514D02*
X85756265Y-71960895D01*
X85756265Y-71960895D02*
X85803884Y-71865657D01*
X85803884Y-71865657D02*
X85851503Y-71818038D01*
X85851503Y-71818038D02*
X85946741Y-71770419D01*
X85946741Y-71770419D02*
X86137217Y-71770419D01*
X86137217Y-71770419D02*
X86232455Y-71818038D01*
X86232455Y-71818038D02*
X86280074Y-71865657D01*
X86280074Y-71865657D02*
X86327693Y-71960895D01*
X86327693Y-71960895D02*
X86327693Y-72008514D01*
X86327693Y-72008514D02*
X86280074Y-72103752D01*
X86280074Y-72103752D02*
X86232455Y-72151371D01*
X86232455Y-72151371D02*
X86137217Y-72198990D01*
X86137217Y-72198990D02*
X85946741Y-72198990D01*
X85946741Y-72198990D02*
X85851503Y-72246609D01*
X85851503Y-72246609D02*
X85803884Y-72294228D01*
X85803884Y-72294228D02*
X85756265Y-72389466D01*
X85756265Y-72389466D02*
X85756265Y-72579942D01*
X85756265Y-72579942D02*
X85803884Y-72675180D01*
X85803884Y-72675180D02*
X85851503Y-72722800D01*
X85851503Y-72722800D02*
X85946741Y-72770419D01*
X85946741Y-72770419D02*
X86137217Y-72770419D01*
X86137217Y-72770419D02*
X86232455Y-72722800D01*
X86232455Y-72722800D02*
X86280074Y-72675180D01*
X86280074Y-72675180D02*
X86327693Y-72579942D01*
X86327693Y-72579942D02*
X86327693Y-72389466D01*
X86327693Y-72389466D02*
X86280074Y-72294228D01*
X86280074Y-72294228D02*
X86232455Y-72246609D01*
X86232455Y-72246609D02*
X86137217Y-72198990D01*
X33053884Y-55491466D02*
X33815789Y-55491466D01*
X33434836Y-55872419D02*
X33434836Y-55110514D01*
X33387217Y-86848609D02*
X33530074Y-86896228D01*
X33530074Y-86896228D02*
X33577693Y-86943847D01*
X33577693Y-86943847D02*
X33625312Y-87039085D01*
X33625312Y-87039085D02*
X33625312Y-87181942D01*
X33625312Y-87181942D02*
X33577693Y-87277180D01*
X33577693Y-87277180D02*
X33530074Y-87324800D01*
X33530074Y-87324800D02*
X33434836Y-87372419D01*
X33434836Y-87372419D02*
X33053884Y-87372419D01*
X33053884Y-87372419D02*
X33053884Y-86372419D01*
X33053884Y-86372419D02*
X33387217Y-86372419D01*
X33387217Y-86372419D02*
X33482455Y-86420038D01*
X33482455Y-86420038D02*
X33530074Y-86467657D01*
X33530074Y-86467657D02*
X33577693Y-86562895D01*
X33577693Y-86562895D02*
X33577693Y-86658133D01*
X33577693Y-86658133D02*
X33530074Y-86753371D01*
X33530074Y-86753371D02*
X33482455Y-86800990D01*
X33482455Y-86800990D02*
X33387217Y-86848609D01*
X33387217Y-86848609D02*
X33053884Y-86848609D01*
D11*
X77130180Y-89282268D02*
X77130180Y-89853696D01*
X76130180Y-89567982D02*
X77130180Y-89567982D01*
X77130180Y-90091792D02*
X76130180Y-90758458D01*
X77130180Y-90758458D02*
X76130180Y-90091792D01*
D10*
X86280074Y-64150419D02*
X85803884Y-64150419D01*
X85803884Y-64150419D02*
X85756265Y-64626609D01*
X85756265Y-64626609D02*
X85803884Y-64578990D01*
X85803884Y-64578990D02*
X85899122Y-64531371D01*
X85899122Y-64531371D02*
X86137217Y-64531371D01*
X86137217Y-64531371D02*
X86232455Y-64578990D01*
X86232455Y-64578990D02*
X86280074Y-64626609D01*
X86280074Y-64626609D02*
X86327693Y-64721847D01*
X86327693Y-64721847D02*
X86327693Y-64959942D01*
X86327693Y-64959942D02*
X86280074Y-65055180D01*
X86280074Y-65055180D02*
X86232455Y-65102800D01*
X86232455Y-65102800D02*
X86137217Y-65150419D01*
X86137217Y-65150419D02*
X85899122Y-65150419D01*
X85899122Y-65150419D02*
X85803884Y-65102800D01*
X85803884Y-65102800D02*
X85756265Y-65055180D01*
X85708646Y-69230419D02*
X86375312Y-69230419D01*
X86375312Y-69230419D02*
X85946741Y-70230419D01*
X86232455Y-61943752D02*
X86232455Y-62610419D01*
X85994360Y-61562800D02*
X85756265Y-62277085D01*
X85756265Y-62277085D02*
X86375312Y-62277085D01*
D12*
X60619673Y-91983465D02*
X60953006Y-91983465D01*
X61095863Y-92507275D02*
X60619673Y-92507275D01*
X60619673Y-92507275D02*
X60619673Y-91507275D01*
X60619673Y-91507275D02*
X61095863Y-91507275D01*
X61476816Y-92459656D02*
X61619673Y-92507275D01*
X61619673Y-92507275D02*
X61857768Y-92507275D01*
X61857768Y-92507275D02*
X61953006Y-92459656D01*
X61953006Y-92459656D02*
X62000625Y-92412036D01*
X62000625Y-92412036D02*
X62048244Y-92316798D01*
X62048244Y-92316798D02*
X62048244Y-92221560D01*
X62048244Y-92221560D02*
X62000625Y-92126322D01*
X62000625Y-92126322D02*
X61953006Y-92078703D01*
X61953006Y-92078703D02*
X61857768Y-92031084D01*
X61857768Y-92031084D02*
X61667292Y-91983465D01*
X61667292Y-91983465D02*
X61572054Y-91935846D01*
X61572054Y-91935846D02*
X61524435Y-91888227D01*
X61524435Y-91888227D02*
X61476816Y-91792989D01*
X61476816Y-91792989D02*
X61476816Y-91697751D01*
X61476816Y-91697751D02*
X61524435Y-91602513D01*
X61524435Y-91602513D02*
X61572054Y-91554894D01*
X61572054Y-91554894D02*
X61667292Y-91507275D01*
X61667292Y-91507275D02*
X61905387Y-91507275D01*
X61905387Y-91507275D02*
X62048244Y-91554894D01*
X62476816Y-92507275D02*
X62476816Y-91507275D01*
X62476816Y-91507275D02*
X62857768Y-91507275D01*
X62857768Y-91507275D02*
X62953006Y-91554894D01*
X62953006Y-91554894D02*
X63000625Y-91602513D01*
X63000625Y-91602513D02*
X63048244Y-91697751D01*
X63048244Y-91697751D02*
X63048244Y-91840608D01*
X63048244Y-91840608D02*
X63000625Y-91935846D01*
X63000625Y-91935846D02*
X62953006Y-91983465D01*
X62953006Y-91983465D02*
X62857768Y-92031084D01*
X62857768Y-92031084D02*
X62476816Y-92031084D01*
X63953006Y-92507275D02*
X63476816Y-92507275D01*
X63476816Y-92507275D02*
X63476816Y-91507275D01*
X64286340Y-91983465D02*
X64619673Y-91983465D01*
X64762530Y-92507275D02*
X64286340Y-92507275D01*
X64286340Y-92507275D02*
X64286340Y-91507275D01*
X64286340Y-91507275D02*
X64762530Y-91507275D01*
X65191102Y-92507275D02*
X65191102Y-91507275D01*
X65191102Y-91507275D02*
X65429197Y-91507275D01*
X65429197Y-91507275D02*
X65572054Y-91554894D01*
X65572054Y-91554894D02*
X65667292Y-91650132D01*
X65667292Y-91650132D02*
X65714911Y-91745370D01*
X65714911Y-91745370D02*
X65762530Y-91935846D01*
X65762530Y-91935846D02*
X65762530Y-92078703D01*
X65762530Y-92078703D02*
X65714911Y-92269179D01*
X65714911Y-92269179D02*
X65667292Y-92364417D01*
X65667292Y-92364417D02*
X65572054Y-92459656D01*
X65572054Y-92459656D02*
X65429197Y-92507275D01*
X65429197Y-92507275D02*
X65191102Y-92507275D01*
X66191102Y-92507275D02*
X66191102Y-91507275D01*
X66191102Y-91507275D02*
X66429197Y-91507275D01*
X66429197Y-91507275D02*
X66572054Y-91554894D01*
X66572054Y-91554894D02*
X66667292Y-91650132D01*
X66667292Y-91650132D02*
X66714911Y-91745370D01*
X66714911Y-91745370D02*
X66762530Y-91935846D01*
X66762530Y-91935846D02*
X66762530Y-92078703D01*
X66762530Y-92078703D02*
X66714911Y-92269179D01*
X66714911Y-92269179D02*
X66667292Y-92364417D01*
X66667292Y-92364417D02*
X66572054Y-92459656D01*
X66572054Y-92459656D02*
X66429197Y-92507275D01*
X66429197Y-92507275D02*
X66191102Y-92507275D01*
X67191102Y-92507275D02*
X67191102Y-91840608D01*
X67191102Y-92031084D02*
X67238721Y-91935846D01*
X67238721Y-91935846D02*
X67286340Y-91888227D01*
X67286340Y-91888227D02*
X67381578Y-91840608D01*
X67381578Y-91840608D02*
X67476816Y-91840608D01*
X67810150Y-92507275D02*
X67810150Y-91840608D01*
X67810150Y-91507275D02*
X67762531Y-91554894D01*
X67762531Y-91554894D02*
X67810150Y-91602513D01*
X67810150Y-91602513D02*
X67857769Y-91554894D01*
X67857769Y-91554894D02*
X67810150Y-91507275D01*
X67810150Y-91507275D02*
X67810150Y-91602513D01*
X68191102Y-91840608D02*
X68429197Y-92507275D01*
X68429197Y-92507275D02*
X68667292Y-91840608D01*
X69429197Y-92459656D02*
X69333959Y-92507275D01*
X69333959Y-92507275D02*
X69143483Y-92507275D01*
X69143483Y-92507275D02*
X69048245Y-92459656D01*
X69048245Y-92459656D02*
X69000626Y-92364417D01*
X69000626Y-92364417D02*
X69000626Y-91983465D01*
X69000626Y-91983465D02*
X69048245Y-91888227D01*
X69048245Y-91888227D02*
X69143483Y-91840608D01*
X69143483Y-91840608D02*
X69333959Y-91840608D01*
X69333959Y-91840608D02*
X69429197Y-91888227D01*
X69429197Y-91888227D02*
X69476816Y-91983465D01*
X69476816Y-91983465D02*
X69476816Y-92078703D01*
X69476816Y-92078703D02*
X69000626Y-92173941D01*
X69905388Y-92507275D02*
X69905388Y-91840608D01*
X69905388Y-92031084D02*
X69953007Y-91935846D01*
X69953007Y-91935846D02*
X70000626Y-91888227D01*
X70000626Y-91888227D02*
X70095864Y-91840608D01*
X70095864Y-91840608D02*
X70191102Y-91840608D01*
X71191103Y-91840608D02*
X71429198Y-92507275D01*
X71429198Y-92507275D02*
X71667293Y-91840608D01*
X72572055Y-92507275D02*
X72000627Y-92507275D01*
X72286341Y-92507275D02*
X72286341Y-91507275D01*
X72286341Y-91507275D02*
X72191103Y-91650132D01*
X72191103Y-91650132D02*
X72095865Y-91745370D01*
X72095865Y-91745370D02*
X72000627Y-91792989D01*
X73000627Y-92412036D02*
X73048246Y-92459656D01*
X73048246Y-92459656D02*
X73000627Y-92507275D01*
X73000627Y-92507275D02*
X72953008Y-92459656D01*
X72953008Y-92459656D02*
X73000627Y-92412036D01*
X73000627Y-92412036D02*
X73000627Y-92507275D01*
X73667293Y-91507275D02*
X73762531Y-91507275D01*
X73762531Y-91507275D02*
X73857769Y-91554894D01*
X73857769Y-91554894D02*
X73905388Y-91602513D01*
X73905388Y-91602513D02*
X73953007Y-91697751D01*
X73953007Y-91697751D02*
X74000626Y-91888227D01*
X74000626Y-91888227D02*
X74000626Y-92126322D01*
X74000626Y-92126322D02*
X73953007Y-92316798D01*
X73953007Y-92316798D02*
X73905388Y-92412036D01*
X73905388Y-92412036D02*
X73857769Y-92459656D01*
X73857769Y-92459656D02*
X73762531Y-92507275D01*
X73762531Y-92507275D02*
X73667293Y-92507275D01*
X73667293Y-92507275D02*
X73572055Y-92459656D01*
X73572055Y-92459656D02*
X73524436Y-92412036D01*
X73524436Y-92412036D02*
X73476817Y-92316798D01*
X73476817Y-92316798D02*
X73429198Y-92126322D01*
X73429198Y-92126322D02*
X73429198Y-91888227D01*
X73429198Y-91888227D02*
X73476817Y-91697751D01*
X73476817Y-91697751D02*
X73524436Y-91602513D01*
X73524436Y-91602513D02*
X73572055Y-91554894D01*
X73572055Y-91554894D02*
X73667293Y-91507275D01*
X60619673Y-94117219D02*
X60619673Y-93117219D01*
X60619673Y-93498171D02*
X60714911Y-93450552D01*
X60714911Y-93450552D02*
X60905387Y-93450552D01*
X60905387Y-93450552D02*
X61000625Y-93498171D01*
X61000625Y-93498171D02*
X61048244Y-93545790D01*
X61048244Y-93545790D02*
X61095863Y-93641028D01*
X61095863Y-93641028D02*
X61095863Y-93926742D01*
X61095863Y-93926742D02*
X61048244Y-94021980D01*
X61048244Y-94021980D02*
X61000625Y-94069600D01*
X61000625Y-94069600D02*
X60905387Y-94117219D01*
X60905387Y-94117219D02*
X60714911Y-94117219D01*
X60714911Y-94117219D02*
X60619673Y-94069600D01*
X61429197Y-93450552D02*
X61667292Y-94117219D01*
X61905387Y-93450552D02*
X61667292Y-94117219D01*
X61667292Y-94117219D02*
X61572054Y-94355314D01*
X61572054Y-94355314D02*
X61524435Y-94402933D01*
X61524435Y-94402933D02*
X61429197Y-94450552D01*
X63667292Y-93641028D02*
X63619673Y-93593409D01*
X63619673Y-93593409D02*
X63524435Y-93545790D01*
X63524435Y-93545790D02*
X63429197Y-93545790D01*
X63429197Y-93545790D02*
X63333959Y-93593409D01*
X63333959Y-93593409D02*
X63286340Y-93641028D01*
X63286340Y-93641028D02*
X63238721Y-93736266D01*
X63238721Y-93736266D02*
X63238721Y-93831504D01*
X63238721Y-93831504D02*
X63286340Y-93926742D01*
X63286340Y-93926742D02*
X63333959Y-93974361D01*
X63333959Y-93974361D02*
X63429197Y-94021980D01*
X63429197Y-94021980D02*
X63524435Y-94021980D01*
X63524435Y-94021980D02*
X63619673Y-93974361D01*
X63619673Y-93974361D02*
X63667292Y-93926742D01*
X63667292Y-93545790D02*
X63667292Y-93926742D01*
X63667292Y-93926742D02*
X63714911Y-93974361D01*
X63714911Y-93974361D02*
X63762530Y-93974361D01*
X63762530Y-93974361D02*
X63857769Y-93926742D01*
X63857769Y-93926742D02*
X63905388Y-93831504D01*
X63905388Y-93831504D02*
X63905388Y-93593409D01*
X63905388Y-93593409D02*
X63810150Y-93450552D01*
X63810150Y-93450552D02*
X63667292Y-93355314D01*
X63667292Y-93355314D02*
X63476816Y-93307695D01*
X63476816Y-93307695D02*
X63286340Y-93355314D01*
X63286340Y-93355314D02*
X63143483Y-93450552D01*
X63143483Y-93450552D02*
X63048245Y-93593409D01*
X63048245Y-93593409D02*
X63000626Y-93783885D01*
X63000626Y-93783885D02*
X63048245Y-93974361D01*
X63048245Y-93974361D02*
X63143483Y-94117219D01*
X63143483Y-94117219D02*
X63286340Y-94212457D01*
X63286340Y-94212457D02*
X63476816Y-94260076D01*
X63476816Y-94260076D02*
X63667292Y-94212457D01*
X63667292Y-94212457D02*
X63810150Y-94117219D01*
X64524435Y-93117219D02*
X64714911Y-93117219D01*
X64714911Y-93117219D02*
X64810149Y-93164838D01*
X64810149Y-93164838D02*
X64905387Y-93260076D01*
X64905387Y-93260076D02*
X64953006Y-93450552D01*
X64953006Y-93450552D02*
X64953006Y-93783885D01*
X64953006Y-93783885D02*
X64905387Y-93974361D01*
X64905387Y-93974361D02*
X64810149Y-94069600D01*
X64810149Y-94069600D02*
X64714911Y-94117219D01*
X64714911Y-94117219D02*
X64524435Y-94117219D01*
X64524435Y-94117219D02*
X64429197Y-94069600D01*
X64429197Y-94069600D02*
X64333959Y-93974361D01*
X64333959Y-93974361D02*
X64286340Y-93783885D01*
X64286340Y-93783885D02*
X64286340Y-93450552D01*
X64286340Y-93450552D02*
X64333959Y-93260076D01*
X64333959Y-93260076D02*
X64429197Y-93164838D01*
X64429197Y-93164838D02*
X64524435Y-93117219D01*
X65810149Y-94117219D02*
X65810149Y-93593409D01*
X65810149Y-93593409D02*
X65762530Y-93498171D01*
X65762530Y-93498171D02*
X65667292Y-93450552D01*
X65667292Y-93450552D02*
X65476816Y-93450552D01*
X65476816Y-93450552D02*
X65381578Y-93498171D01*
X65810149Y-94069600D02*
X65714911Y-94117219D01*
X65714911Y-94117219D02*
X65476816Y-94117219D01*
X65476816Y-94117219D02*
X65381578Y-94069600D01*
X65381578Y-94069600D02*
X65333959Y-93974361D01*
X65333959Y-93974361D02*
X65333959Y-93879123D01*
X65333959Y-93879123D02*
X65381578Y-93783885D01*
X65381578Y-93783885D02*
X65476816Y-93736266D01*
X65476816Y-93736266D02*
X65714911Y-93736266D01*
X65714911Y-93736266D02*
X65810149Y-93688647D01*
X66286340Y-94117219D02*
X66286340Y-93117219D01*
X66381578Y-93736266D02*
X66667292Y-94117219D01*
X66667292Y-93450552D02*
X66286340Y-93831504D01*
X66953007Y-93117219D02*
X67524435Y-93117219D01*
X67238721Y-94117219D02*
X67238721Y-93117219D01*
X67857769Y-94117219D02*
X67857769Y-93450552D01*
X67857769Y-93641028D02*
X67905388Y-93545790D01*
X67905388Y-93545790D02*
X67953007Y-93498171D01*
X67953007Y-93498171D02*
X68048245Y-93450552D01*
X68048245Y-93450552D02*
X68143483Y-93450552D01*
X68857769Y-94069600D02*
X68762531Y-94117219D01*
X68762531Y-94117219D02*
X68572055Y-94117219D01*
X68572055Y-94117219D02*
X68476817Y-94069600D01*
X68476817Y-94069600D02*
X68429198Y-93974361D01*
X68429198Y-93974361D02*
X68429198Y-93593409D01*
X68429198Y-93593409D02*
X68476817Y-93498171D01*
X68476817Y-93498171D02*
X68572055Y-93450552D01*
X68572055Y-93450552D02*
X68762531Y-93450552D01*
X68762531Y-93450552D02*
X68857769Y-93498171D01*
X68857769Y-93498171D02*
X68905388Y-93593409D01*
X68905388Y-93593409D02*
X68905388Y-93688647D01*
X68905388Y-93688647D02*
X68429198Y-93783885D01*
X69714912Y-94069600D02*
X69619674Y-94117219D01*
X69619674Y-94117219D02*
X69429198Y-94117219D01*
X69429198Y-94117219D02*
X69333960Y-94069600D01*
X69333960Y-94069600D02*
X69286341Y-93974361D01*
X69286341Y-93974361D02*
X69286341Y-93593409D01*
X69286341Y-93593409D02*
X69333960Y-93498171D01*
X69333960Y-93498171D02*
X69429198Y-93450552D01*
X69429198Y-93450552D02*
X69619674Y-93450552D01*
X69619674Y-93450552D02*
X69714912Y-93498171D01*
X69714912Y-93498171D02*
X69762531Y-93593409D01*
X69762531Y-93593409D02*
X69762531Y-93688647D01*
X69762531Y-93688647D02*
X69286341Y-93783885D01*
X70095865Y-93117219D02*
X70333960Y-94117219D01*
X70333960Y-94117219D02*
X70524436Y-93402933D01*
X70524436Y-93402933D02*
X70714912Y-94117219D01*
X70714912Y-94117219D02*
X70953008Y-93117219D01*
X71905388Y-94021980D02*
X71857769Y-94069600D01*
X71857769Y-94069600D02*
X71714912Y-94117219D01*
X71714912Y-94117219D02*
X71619674Y-94117219D01*
X71619674Y-94117219D02*
X71476817Y-94069600D01*
X71476817Y-94069600D02*
X71381579Y-93974361D01*
X71381579Y-93974361D02*
X71333960Y-93879123D01*
X71333960Y-93879123D02*
X71286341Y-93688647D01*
X71286341Y-93688647D02*
X71286341Y-93545790D01*
X71286341Y-93545790D02*
X71333960Y-93355314D01*
X71333960Y-93355314D02*
X71381579Y-93260076D01*
X71381579Y-93260076D02*
X71476817Y-93164838D01*
X71476817Y-93164838D02*
X71619674Y-93117219D01*
X71619674Y-93117219D02*
X71714912Y-93117219D01*
X71714912Y-93117219D02*
X71857769Y-93164838D01*
X71857769Y-93164838D02*
X71905388Y-93212457D01*
D10*
X86327693Y-80390419D02*
X85756265Y-80390419D01*
X86041979Y-80390419D02*
X86041979Y-79390419D01*
X86041979Y-79390419D02*
X85946741Y-79533276D01*
X85946741Y-79533276D02*
X85851503Y-79628514D01*
X85851503Y-79628514D02*
X85756265Y-79676133D01*
X86946741Y-79390419D02*
X87041979Y-79390419D01*
X87041979Y-79390419D02*
X87137217Y-79438038D01*
X87137217Y-79438038D02*
X87184836Y-79485657D01*
X87184836Y-79485657D02*
X87232455Y-79580895D01*
X87232455Y-79580895D02*
X87280074Y-79771371D01*
X87280074Y-79771371D02*
X87280074Y-80009466D01*
X87280074Y-80009466D02*
X87232455Y-80199942D01*
X87232455Y-80199942D02*
X87184836Y-80295180D01*
X87184836Y-80295180D02*
X87137217Y-80342800D01*
X87137217Y-80342800D02*
X87041979Y-80390419D01*
X87041979Y-80390419D02*
X86946741Y-80390419D01*
X86946741Y-80390419D02*
X86851503Y-80342800D01*
X86851503Y-80342800D02*
X86803884Y-80295180D01*
X86803884Y-80295180D02*
X86756265Y-80199942D01*
X86756265Y-80199942D02*
X86708646Y-80009466D01*
X86708646Y-80009466D02*
X86708646Y-79771371D01*
X86708646Y-79771371D02*
X86756265Y-79580895D01*
X86756265Y-79580895D02*
X86803884Y-79485657D01*
X86803884Y-79485657D02*
X86851503Y-79438038D01*
X86851503Y-79438038D02*
X86946741Y-79390419D01*
D11*
X83180666Y-41064819D02*
X83180666Y-41779104D01*
X83180666Y-41779104D02*
X83133047Y-41921961D01*
X83133047Y-41921961D02*
X83037809Y-42017200D01*
X83037809Y-42017200D02*
X82894952Y-42064819D01*
X82894952Y-42064819D02*
X82799714Y-42064819D01*
X84133047Y-41064819D02*
X83656857Y-41064819D01*
X83656857Y-41064819D02*
X83609238Y-41541009D01*
X83609238Y-41541009D02*
X83656857Y-41493390D01*
X83656857Y-41493390D02*
X83752095Y-41445771D01*
X83752095Y-41445771D02*
X83990190Y-41445771D01*
X83990190Y-41445771D02*
X84085428Y-41493390D01*
X84085428Y-41493390D02*
X84133047Y-41541009D01*
X84133047Y-41541009D02*
X84180666Y-41636247D01*
X84180666Y-41636247D02*
X84180666Y-41874342D01*
X84180666Y-41874342D02*
X84133047Y-41969580D01*
X84133047Y-41969580D02*
X84085428Y-42017200D01*
X84085428Y-42017200D02*
X83990190Y-42064819D01*
X83990190Y-42064819D02*
X83752095Y-42064819D01*
X83752095Y-42064819D02*
X83656857Y-42017200D01*
X83656857Y-42017200D02*
X83609238Y-41969580D01*
X57083333Y-59109580D02*
X57035714Y-59157200D01*
X57035714Y-59157200D02*
X56892857Y-59204819D01*
X56892857Y-59204819D02*
X56797619Y-59204819D01*
X56797619Y-59204819D02*
X56654762Y-59157200D01*
X56654762Y-59157200D02*
X56559524Y-59061961D01*
X56559524Y-59061961D02*
X56511905Y-58966723D01*
X56511905Y-58966723D02*
X56464286Y-58776247D01*
X56464286Y-58776247D02*
X56464286Y-58633390D01*
X56464286Y-58633390D02*
X56511905Y-58442914D01*
X56511905Y-58442914D02*
X56559524Y-58347676D01*
X56559524Y-58347676D02*
X56654762Y-58252438D01*
X56654762Y-58252438D02*
X56797619Y-58204819D01*
X56797619Y-58204819D02*
X56892857Y-58204819D01*
X56892857Y-58204819D02*
X57035714Y-58252438D01*
X57035714Y-58252438D02*
X57083333Y-58300057D01*
X57416667Y-58204819D02*
X58083333Y-58204819D01*
X58083333Y-58204819D02*
X57654762Y-59204819D01*
X52783333Y-81204819D02*
X52307143Y-81204819D01*
X52307143Y-81204819D02*
X52307143Y-80204819D01*
X53640476Y-81204819D02*
X53069048Y-81204819D01*
X53354762Y-81204819D02*
X53354762Y-80204819D01*
X53354762Y-80204819D02*
X53259524Y-80347676D01*
X53259524Y-80347676D02*
X53164286Y-80442914D01*
X53164286Y-80442914D02*
X53069048Y-80490533D01*
X54761905Y-74204819D02*
X54761905Y-73204819D01*
X54761905Y-73204819D02*
X55000000Y-73204819D01*
X55000000Y-73204819D02*
X55142857Y-73252438D01*
X55142857Y-73252438D02*
X55238095Y-73347676D01*
X55238095Y-73347676D02*
X55285714Y-73442914D01*
X55285714Y-73442914D02*
X55333333Y-73633390D01*
X55333333Y-73633390D02*
X55333333Y-73776247D01*
X55333333Y-73776247D02*
X55285714Y-73966723D01*
X55285714Y-73966723D02*
X55238095Y-74061961D01*
X55238095Y-74061961D02*
X55142857Y-74157200D01*
X55142857Y-74157200D02*
X55000000Y-74204819D01*
X55000000Y-74204819D02*
X54761905Y-74204819D01*
X55714286Y-73300057D02*
X55761905Y-73252438D01*
X55761905Y-73252438D02*
X55857143Y-73204819D01*
X55857143Y-73204819D02*
X56095238Y-73204819D01*
X56095238Y-73204819D02*
X56190476Y-73252438D01*
X56190476Y-73252438D02*
X56238095Y-73300057D01*
X56238095Y-73300057D02*
X56285714Y-73395295D01*
X56285714Y-73395295D02*
X56285714Y-73490533D01*
X56285714Y-73490533D02*
X56238095Y-73633390D01*
X56238095Y-73633390D02*
X55666667Y-74204819D01*
X55666667Y-74204819D02*
X56285714Y-74204819D01*
X57204819Y-53091904D02*
X58014342Y-53091904D01*
X58014342Y-53091904D02*
X58109580Y-53044285D01*
X58109580Y-53044285D02*
X58157200Y-52996666D01*
X58157200Y-52996666D02*
X58204819Y-52901428D01*
X58204819Y-52901428D02*
X58204819Y-52710952D01*
X58204819Y-52710952D02*
X58157200Y-52615714D01*
X58157200Y-52615714D02*
X58109580Y-52568095D01*
X58109580Y-52568095D02*
X58014342Y-52520476D01*
X58014342Y-52520476D02*
X57204819Y-52520476D01*
X58204819Y-51520476D02*
X58204819Y-52091904D01*
X58204819Y-51806190D02*
X57204819Y-51806190D01*
X57204819Y-51806190D02*
X57347676Y-51901428D01*
X57347676Y-51901428D02*
X57442914Y-51996666D01*
X57442914Y-51996666D02*
X57490533Y-52091904D01*
X81444819Y-46466666D02*
X80968628Y-46799999D01*
X81444819Y-47038094D02*
X80444819Y-47038094D01*
X80444819Y-47038094D02*
X80444819Y-46657142D01*
X80444819Y-46657142D02*
X80492438Y-46561904D01*
X80492438Y-46561904D02*
X80540057Y-46514285D01*
X80540057Y-46514285D02*
X80635295Y-46466666D01*
X80635295Y-46466666D02*
X80778152Y-46466666D01*
X80778152Y-46466666D02*
X80873390Y-46514285D01*
X80873390Y-46514285D02*
X80921009Y-46561904D01*
X80921009Y-46561904D02*
X80968628Y-46657142D01*
X80968628Y-46657142D02*
X80968628Y-47038094D01*
X80444819Y-46133332D02*
X80444819Y-45514285D01*
X80444819Y-45514285D02*
X80825771Y-45847618D01*
X80825771Y-45847618D02*
X80825771Y-45704761D01*
X80825771Y-45704761D02*
X80873390Y-45609523D01*
X80873390Y-45609523D02*
X80921009Y-45561904D01*
X80921009Y-45561904D02*
X81016247Y-45514285D01*
X81016247Y-45514285D02*
X81254342Y-45514285D01*
X81254342Y-45514285D02*
X81349580Y-45561904D01*
X81349580Y-45561904D02*
X81397200Y-45609523D01*
X81397200Y-45609523D02*
X81444819Y-45704761D01*
X81444819Y-45704761D02*
X81444819Y-45990475D01*
X81444819Y-45990475D02*
X81397200Y-46085713D01*
X81397200Y-46085713D02*
X81349580Y-46133332D01*
X53416666Y-54431009D02*
X53083333Y-54431009D01*
X53083333Y-54954819D02*
X53083333Y-53954819D01*
X53083333Y-53954819D02*
X53559523Y-53954819D01*
X54464285Y-54954819D02*
X53892857Y-54954819D01*
X54178571Y-54954819D02*
X54178571Y-53954819D01*
X54178571Y-53954819D02*
X54083333Y-54097676D01*
X54083333Y-54097676D02*
X53988095Y-54192914D01*
X53988095Y-54192914D02*
X53892857Y-54240533D01*
X69463095Y-84049819D02*
X69463095Y-84859342D01*
X69463095Y-84859342D02*
X69510714Y-84954580D01*
X69510714Y-84954580D02*
X69558333Y-85002200D01*
X69558333Y-85002200D02*
X69653571Y-85049819D01*
X69653571Y-85049819D02*
X69844047Y-85049819D01*
X69844047Y-85049819D02*
X69939285Y-85002200D01*
X69939285Y-85002200D02*
X69986904Y-84954580D01*
X69986904Y-84954580D02*
X70034523Y-84859342D01*
X70034523Y-84859342D02*
X70034523Y-84049819D01*
X70463095Y-84145057D02*
X70510714Y-84097438D01*
X70510714Y-84097438D02*
X70605952Y-84049819D01*
X70605952Y-84049819D02*
X70844047Y-84049819D01*
X70844047Y-84049819D02*
X70939285Y-84097438D01*
X70939285Y-84097438D02*
X70986904Y-84145057D01*
X70986904Y-84145057D02*
X71034523Y-84240295D01*
X71034523Y-84240295D02*
X71034523Y-84335533D01*
X71034523Y-84335533D02*
X70986904Y-84478390D01*
X70986904Y-84478390D02*
X70415476Y-85049819D01*
X70415476Y-85049819D02*
X71034523Y-85049819D01*
X74583333Y-66409580D02*
X74535714Y-66457200D01*
X74535714Y-66457200D02*
X74392857Y-66504819D01*
X74392857Y-66504819D02*
X74297619Y-66504819D01*
X74297619Y-66504819D02*
X74154762Y-66457200D01*
X74154762Y-66457200D02*
X74059524Y-66361961D01*
X74059524Y-66361961D02*
X74011905Y-66266723D01*
X74011905Y-66266723D02*
X73964286Y-66076247D01*
X73964286Y-66076247D02*
X73964286Y-65933390D01*
X73964286Y-65933390D02*
X74011905Y-65742914D01*
X74011905Y-65742914D02*
X74059524Y-65647676D01*
X74059524Y-65647676D02*
X74154762Y-65552438D01*
X74154762Y-65552438D02*
X74297619Y-65504819D01*
X74297619Y-65504819D02*
X74392857Y-65504819D01*
X74392857Y-65504819D02*
X74535714Y-65552438D01*
X74535714Y-65552438D02*
X74583333Y-65600057D01*
X75488095Y-65504819D02*
X75011905Y-65504819D01*
X75011905Y-65504819D02*
X74964286Y-65981009D01*
X74964286Y-65981009D02*
X75011905Y-65933390D01*
X75011905Y-65933390D02*
X75107143Y-65885771D01*
X75107143Y-65885771D02*
X75345238Y-65885771D01*
X75345238Y-65885771D02*
X75440476Y-65933390D01*
X75440476Y-65933390D02*
X75488095Y-65981009D01*
X75488095Y-65981009D02*
X75535714Y-66076247D01*
X75535714Y-66076247D02*
X75535714Y-66314342D01*
X75535714Y-66314342D02*
X75488095Y-66409580D01*
X75488095Y-66409580D02*
X75440476Y-66457200D01*
X75440476Y-66457200D02*
X75345238Y-66504819D01*
X75345238Y-66504819D02*
X75107143Y-66504819D01*
X75107143Y-66504819D02*
X75011905Y-66457200D01*
X75011905Y-66457200D02*
X74964286Y-66409580D01*
X56261905Y-78454819D02*
X56261905Y-77454819D01*
X56261905Y-77454819D02*
X56500000Y-77454819D01*
X56500000Y-77454819D02*
X56642857Y-77502438D01*
X56642857Y-77502438D02*
X56738095Y-77597676D01*
X56738095Y-77597676D02*
X56785714Y-77692914D01*
X56785714Y-77692914D02*
X56833333Y-77883390D01*
X56833333Y-77883390D02*
X56833333Y-78026247D01*
X56833333Y-78026247D02*
X56785714Y-78216723D01*
X56785714Y-78216723D02*
X56738095Y-78311961D01*
X56738095Y-78311961D02*
X56642857Y-78407200D01*
X56642857Y-78407200D02*
X56500000Y-78454819D01*
X56500000Y-78454819D02*
X56261905Y-78454819D01*
X57785714Y-78454819D02*
X57214286Y-78454819D01*
X57500000Y-78454819D02*
X57500000Y-77454819D01*
X57500000Y-77454819D02*
X57404762Y-77597676D01*
X57404762Y-77597676D02*
X57309524Y-77692914D01*
X57309524Y-77692914D02*
X57214286Y-77740533D01*
X62951333Y-79459580D02*
X62903714Y-79507200D01*
X62903714Y-79507200D02*
X62760857Y-79554819D01*
X62760857Y-79554819D02*
X62665619Y-79554819D01*
X62665619Y-79554819D02*
X62522762Y-79507200D01*
X62522762Y-79507200D02*
X62427524Y-79411961D01*
X62427524Y-79411961D02*
X62379905Y-79316723D01*
X62379905Y-79316723D02*
X62332286Y-79126247D01*
X62332286Y-79126247D02*
X62332286Y-78983390D01*
X62332286Y-78983390D02*
X62379905Y-78792914D01*
X62379905Y-78792914D02*
X62427524Y-78697676D01*
X62427524Y-78697676D02*
X62522762Y-78602438D01*
X62522762Y-78602438D02*
X62665619Y-78554819D01*
X62665619Y-78554819D02*
X62760857Y-78554819D01*
X62760857Y-78554819D02*
X62903714Y-78602438D01*
X62903714Y-78602438D02*
X62951333Y-78650057D01*
X63808476Y-78554819D02*
X63618000Y-78554819D01*
X63618000Y-78554819D02*
X63522762Y-78602438D01*
X63522762Y-78602438D02*
X63475143Y-78650057D01*
X63475143Y-78650057D02*
X63379905Y-78792914D01*
X63379905Y-78792914D02*
X63332286Y-78983390D01*
X63332286Y-78983390D02*
X63332286Y-79364342D01*
X63332286Y-79364342D02*
X63379905Y-79459580D01*
X63379905Y-79459580D02*
X63427524Y-79507200D01*
X63427524Y-79507200D02*
X63522762Y-79554819D01*
X63522762Y-79554819D02*
X63713238Y-79554819D01*
X63713238Y-79554819D02*
X63808476Y-79507200D01*
X63808476Y-79507200D02*
X63856095Y-79459580D01*
X63856095Y-79459580D02*
X63903714Y-79364342D01*
X63903714Y-79364342D02*
X63903714Y-79126247D01*
X63903714Y-79126247D02*
X63856095Y-79031009D01*
X63856095Y-79031009D02*
X63808476Y-78983390D01*
X63808476Y-78983390D02*
X63713238Y-78935771D01*
X63713238Y-78935771D02*
X63522762Y-78935771D01*
X63522762Y-78935771D02*
X63427524Y-78983390D01*
X63427524Y-78983390D02*
X63379905Y-79031009D01*
X63379905Y-79031009D02*
X63332286Y-79126247D01*
X53593333Y-47609580D02*
X53545714Y-47657200D01*
X53545714Y-47657200D02*
X53402857Y-47704819D01*
X53402857Y-47704819D02*
X53307619Y-47704819D01*
X53307619Y-47704819D02*
X53164762Y-47657200D01*
X53164762Y-47657200D02*
X53069524Y-47561961D01*
X53069524Y-47561961D02*
X53021905Y-47466723D01*
X53021905Y-47466723D02*
X52974286Y-47276247D01*
X52974286Y-47276247D02*
X52974286Y-47133390D01*
X52974286Y-47133390D02*
X53021905Y-46942914D01*
X53021905Y-46942914D02*
X53069524Y-46847676D01*
X53069524Y-46847676D02*
X53164762Y-46752438D01*
X53164762Y-46752438D02*
X53307619Y-46704819D01*
X53307619Y-46704819D02*
X53402857Y-46704819D01*
X53402857Y-46704819D02*
X53545714Y-46752438D01*
X53545714Y-46752438D02*
X53593333Y-46800057D01*
X53926667Y-46704819D02*
X54545714Y-46704819D01*
X54545714Y-46704819D02*
X54212381Y-47085771D01*
X54212381Y-47085771D02*
X54355238Y-47085771D01*
X54355238Y-47085771D02*
X54450476Y-47133390D01*
X54450476Y-47133390D02*
X54498095Y-47181009D01*
X54498095Y-47181009D02*
X54545714Y-47276247D01*
X54545714Y-47276247D02*
X54545714Y-47514342D01*
X54545714Y-47514342D02*
X54498095Y-47609580D01*
X54498095Y-47609580D02*
X54450476Y-47657200D01*
X54450476Y-47657200D02*
X54355238Y-47704819D01*
X54355238Y-47704819D02*
X54069524Y-47704819D01*
X54069524Y-47704819D02*
X53974286Y-47657200D01*
X53974286Y-47657200D02*
X53926667Y-47609580D01*
X81444819Y-42466666D02*
X80968628Y-42799999D01*
X81444819Y-43038094D02*
X80444819Y-43038094D01*
X80444819Y-43038094D02*
X80444819Y-42657142D01*
X80444819Y-42657142D02*
X80492438Y-42561904D01*
X80492438Y-42561904D02*
X80540057Y-42514285D01*
X80540057Y-42514285D02*
X80635295Y-42466666D01*
X80635295Y-42466666D02*
X80778152Y-42466666D01*
X80778152Y-42466666D02*
X80873390Y-42514285D01*
X80873390Y-42514285D02*
X80921009Y-42561904D01*
X80921009Y-42561904D02*
X80968628Y-42657142D01*
X80968628Y-42657142D02*
X80968628Y-43038094D01*
X80778152Y-41609523D02*
X81444819Y-41609523D01*
X80397200Y-41847618D02*
X81111485Y-42085713D01*
X81111485Y-42085713D02*
X81111485Y-41466666D01*
X53593333Y-44954819D02*
X53260000Y-44478628D01*
X53021905Y-44954819D02*
X53021905Y-43954819D01*
X53021905Y-43954819D02*
X53402857Y-43954819D01*
X53402857Y-43954819D02*
X53498095Y-44002438D01*
X53498095Y-44002438D02*
X53545714Y-44050057D01*
X53545714Y-44050057D02*
X53593333Y-44145295D01*
X53593333Y-44145295D02*
X53593333Y-44288152D01*
X53593333Y-44288152D02*
X53545714Y-44383390D01*
X53545714Y-44383390D02*
X53498095Y-44431009D01*
X53498095Y-44431009D02*
X53402857Y-44478628D01*
X53402857Y-44478628D02*
X53021905Y-44478628D01*
X54545714Y-44954819D02*
X53974286Y-44954819D01*
X54260000Y-44954819D02*
X54260000Y-43954819D01*
X54260000Y-43954819D02*
X54164762Y-44097676D01*
X54164762Y-44097676D02*
X54069524Y-44192914D01*
X54069524Y-44192914D02*
X53974286Y-44240533D01*
X53593333Y-50704819D02*
X53260000Y-50228628D01*
X53021905Y-50704819D02*
X53021905Y-49704819D01*
X53021905Y-49704819D02*
X53402857Y-49704819D01*
X53402857Y-49704819D02*
X53498095Y-49752438D01*
X53498095Y-49752438D02*
X53545714Y-49800057D01*
X53545714Y-49800057D02*
X53593333Y-49895295D01*
X53593333Y-49895295D02*
X53593333Y-50038152D01*
X53593333Y-50038152D02*
X53545714Y-50133390D01*
X53545714Y-50133390D02*
X53498095Y-50181009D01*
X53498095Y-50181009D02*
X53402857Y-50228628D01*
X53402857Y-50228628D02*
X53021905Y-50228628D01*
X53974286Y-49800057D02*
X54021905Y-49752438D01*
X54021905Y-49752438D02*
X54117143Y-49704819D01*
X54117143Y-49704819D02*
X54355238Y-49704819D01*
X54355238Y-49704819D02*
X54450476Y-49752438D01*
X54450476Y-49752438D02*
X54498095Y-49800057D01*
X54498095Y-49800057D02*
X54545714Y-49895295D01*
X54545714Y-49895295D02*
X54545714Y-49990533D01*
X54545714Y-49990533D02*
X54498095Y-50133390D01*
X54498095Y-50133390D02*
X53926667Y-50704819D01*
X53926667Y-50704819D02*
X54545714Y-50704819D01*
X53593333Y-42109580D02*
X53545714Y-42157200D01*
X53545714Y-42157200D02*
X53402857Y-42204819D01*
X53402857Y-42204819D02*
X53307619Y-42204819D01*
X53307619Y-42204819D02*
X53164762Y-42157200D01*
X53164762Y-42157200D02*
X53069524Y-42061961D01*
X53069524Y-42061961D02*
X53021905Y-41966723D01*
X53021905Y-41966723D02*
X52974286Y-41776247D01*
X52974286Y-41776247D02*
X52974286Y-41633390D01*
X52974286Y-41633390D02*
X53021905Y-41442914D01*
X53021905Y-41442914D02*
X53069524Y-41347676D01*
X53069524Y-41347676D02*
X53164762Y-41252438D01*
X53164762Y-41252438D02*
X53307619Y-41204819D01*
X53307619Y-41204819D02*
X53402857Y-41204819D01*
X53402857Y-41204819D02*
X53545714Y-41252438D01*
X53545714Y-41252438D02*
X53593333Y-41300057D01*
X54450476Y-41538152D02*
X54450476Y-42204819D01*
X54212381Y-41157200D02*
X53974286Y-41871485D01*
X53974286Y-41871485D02*
X54593333Y-41871485D01*
X78933466Y-81772819D02*
X78933466Y-82487104D01*
X78933466Y-82487104D02*
X78885847Y-82629961D01*
X78885847Y-82629961D02*
X78790609Y-82725200D01*
X78790609Y-82725200D02*
X78647752Y-82772819D01*
X78647752Y-82772819D02*
X78552514Y-82772819D01*
X79933466Y-82772819D02*
X79362038Y-82772819D01*
X79647752Y-82772819D02*
X79647752Y-81772819D01*
X79647752Y-81772819D02*
X79552514Y-81915676D01*
X79552514Y-81915676D02*
X79457276Y-82010914D01*
X79457276Y-82010914D02*
X79362038Y-82058533D01*
D13*
%TO.C,J5*%
X82184000Y-45650000D02*
X82184000Y-93970000D01*
X82184000Y-45650000D02*
X84844000Y-45650000D01*
X82184000Y-93970000D02*
X84844000Y-93970000D01*
X83514000Y-43050000D02*
X84844000Y-43050000D01*
X84844000Y-43050000D02*
X84844000Y-44380000D01*
X84844000Y-45650000D02*
X84844000Y-93970000D01*
%TO.C,C7*%
X45432918Y-60675000D02*
X46682918Y-60675000D01*
X46057918Y-60050000D02*
X46057918Y-61300000D01*
X52250000Y-57920000D02*
X52250000Y-70580000D01*
X52290000Y-57920000D02*
X52290000Y-70580000D01*
X52330000Y-57921000D02*
X52330000Y-70579000D01*
X52370000Y-57921000D02*
X52370000Y-70579000D01*
X52410000Y-57922000D02*
X52410000Y-70578000D01*
X52450000Y-57923000D02*
X52450000Y-70577000D01*
X52490000Y-57925000D02*
X52490000Y-70575000D01*
X52530000Y-57926000D02*
X52530000Y-70574000D01*
X52570000Y-57928000D02*
X52570000Y-70572000D01*
X52610000Y-57930000D02*
X52610000Y-70570000D01*
X52650000Y-57933000D02*
X52650000Y-70567000D01*
X52690000Y-57935000D02*
X52690000Y-70565000D01*
X52730000Y-57938000D02*
X52730000Y-70562000D01*
X52770000Y-57941000D02*
X52770000Y-70559000D01*
X52810000Y-57945000D02*
X52810000Y-70555000D01*
X52850000Y-57948000D02*
X52850000Y-70552000D01*
X52890000Y-57952000D02*
X52890000Y-70548000D01*
X52930000Y-57956000D02*
X52930000Y-70544000D01*
X52970000Y-57961000D02*
X52970000Y-70539000D01*
X53010000Y-57966000D02*
X53010000Y-70534000D01*
X53050000Y-57970000D02*
X53050000Y-70530000D01*
X53090000Y-57976000D02*
X53090000Y-70524000D01*
X53130000Y-57981000D02*
X53130000Y-70519000D01*
X53170000Y-57987000D02*
X53170000Y-70513000D01*
X53210000Y-57993000D02*
X53210000Y-70507000D01*
X53250000Y-57999000D02*
X53250000Y-70501000D01*
X53290000Y-58005000D02*
X53290000Y-70495000D01*
X53330000Y-58012000D02*
X53330000Y-62810000D01*
X53330000Y-65690000D02*
X53330000Y-70488000D01*
X53370000Y-58019000D02*
X53370000Y-62810000D01*
X53370000Y-65690000D02*
X53370000Y-70481000D01*
X53410000Y-58027000D02*
X53410000Y-62810000D01*
X53410000Y-65690000D02*
X53410000Y-70473000D01*
X53450000Y-58034000D02*
X53450000Y-62810000D01*
X53450000Y-65690000D02*
X53450000Y-70466000D01*
X53490000Y-58042000D02*
X53490000Y-62810000D01*
X53490000Y-65690000D02*
X53490000Y-70458000D01*
X53530000Y-58050000D02*
X53530000Y-62810000D01*
X53530000Y-65690000D02*
X53530000Y-70450000D01*
X53570000Y-58058000D02*
X53570000Y-62810000D01*
X53570000Y-65690000D02*
X53570000Y-70442000D01*
X53610000Y-58067000D02*
X53610000Y-62810000D01*
X53610000Y-65690000D02*
X53610000Y-70433000D01*
X53650000Y-58076000D02*
X53650000Y-62810000D01*
X53650000Y-65690000D02*
X53650000Y-70424000D01*
X53690000Y-58085000D02*
X53690000Y-62810000D01*
X53690000Y-65690000D02*
X53690000Y-70415000D01*
X53730000Y-58094000D02*
X53730000Y-62810000D01*
X53730000Y-65690000D02*
X53730000Y-70406000D01*
X53770000Y-58104000D02*
X53770000Y-62810000D01*
X53770000Y-65690000D02*
X53770000Y-70396000D01*
X53810000Y-58114000D02*
X53810000Y-62810000D01*
X53810000Y-65690000D02*
X53810000Y-70386000D01*
X53850000Y-58124000D02*
X53850000Y-62810000D01*
X53850000Y-65690000D02*
X53850000Y-70376000D01*
X53890000Y-58135000D02*
X53890000Y-62810000D01*
X53890000Y-65690000D02*
X53890000Y-70365000D01*
X53930000Y-58146000D02*
X53930000Y-62810000D01*
X53930000Y-65690000D02*
X53930000Y-70354000D01*
X53970000Y-58157000D02*
X53970000Y-62810000D01*
X53970000Y-65690000D02*
X53970000Y-70343000D01*
X54010000Y-58168000D02*
X54010000Y-62810000D01*
X54010000Y-65690000D02*
X54010000Y-70332000D01*
X54050000Y-58180000D02*
X54050000Y-62810000D01*
X54050000Y-65690000D02*
X54050000Y-70320000D01*
X54090000Y-58192000D02*
X54090000Y-62810000D01*
X54090000Y-65690000D02*
X54090000Y-70308000D01*
X54130000Y-58204000D02*
X54130000Y-62810000D01*
X54130000Y-65690000D02*
X54130000Y-70296000D01*
X54170000Y-58216000D02*
X54170000Y-62810000D01*
X54170000Y-65690000D02*
X54170000Y-70284000D01*
X54210000Y-58229000D02*
X54210000Y-62810000D01*
X54210000Y-65690000D02*
X54210000Y-70271000D01*
X54250000Y-58242000D02*
X54250000Y-62810000D01*
X54250000Y-65690000D02*
X54250000Y-70258000D01*
X54290000Y-58255000D02*
X54290000Y-62810000D01*
X54290000Y-65690000D02*
X54290000Y-70245000D01*
X54330000Y-58269000D02*
X54330000Y-62810000D01*
X54330000Y-65690000D02*
X54330000Y-70231000D01*
X54370000Y-58283000D02*
X54370000Y-62810000D01*
X54370000Y-65690000D02*
X54370000Y-70217000D01*
X54410000Y-58297000D02*
X54410000Y-62810000D01*
X54410000Y-65690000D02*
X54410000Y-70203000D01*
X54450000Y-58312000D02*
X54450000Y-62810000D01*
X54450000Y-65690000D02*
X54450000Y-70188000D01*
X54490000Y-58327000D02*
X54490000Y-62810000D01*
X54490000Y-65690000D02*
X54490000Y-70173000D01*
X54530000Y-58342000D02*
X54530000Y-62810000D01*
X54530000Y-65690000D02*
X54530000Y-70158000D01*
X54570000Y-58358000D02*
X54570000Y-62810000D01*
X54570000Y-65690000D02*
X54570000Y-70142000D01*
X54610000Y-58373000D02*
X54610000Y-62810000D01*
X54610000Y-65690000D02*
X54610000Y-70127000D01*
X54650000Y-58389000D02*
X54650000Y-62810000D01*
X54650000Y-65690000D02*
X54650000Y-70111000D01*
X54690000Y-58406000D02*
X54690000Y-62810000D01*
X54690000Y-65690000D02*
X54690000Y-70094000D01*
X54730000Y-58423000D02*
X54730000Y-62810000D01*
X54730000Y-65690000D02*
X54730000Y-70077000D01*
X54770000Y-58440000D02*
X54770000Y-62810000D01*
X54770000Y-65690000D02*
X54770000Y-70060000D01*
X54810000Y-58457000D02*
X54810000Y-62810000D01*
X54810000Y-65690000D02*
X54810000Y-70043000D01*
X54850000Y-58475000D02*
X54850000Y-62810000D01*
X54850000Y-65690000D02*
X54850000Y-70025000D01*
X54890000Y-58493000D02*
X54890000Y-62810000D01*
X54890000Y-65690000D02*
X54890000Y-70007000D01*
X54930000Y-58511000D02*
X54930000Y-62810000D01*
X54930000Y-65690000D02*
X54930000Y-69989000D01*
X54970000Y-58530000D02*
X54970000Y-62810000D01*
X54970000Y-65690000D02*
X54970000Y-69970000D01*
X55010000Y-58549000D02*
X55010000Y-62810000D01*
X55010000Y-65690000D02*
X55010000Y-69951000D01*
X55050000Y-58568000D02*
X55050000Y-62810000D01*
X55050000Y-65690000D02*
X55050000Y-69932000D01*
X55090000Y-58588000D02*
X55090000Y-62810000D01*
X55090000Y-65690000D02*
X55090000Y-69912000D01*
X55130000Y-58608000D02*
X55130000Y-62810000D01*
X55130000Y-65690000D02*
X55130000Y-69892000D01*
X55170000Y-58629000D02*
X55170000Y-62810000D01*
X55170000Y-65690000D02*
X55170000Y-69871000D01*
X55210000Y-58649000D02*
X55210000Y-62810000D01*
X55210000Y-65690000D02*
X55210000Y-69851000D01*
X55250000Y-58671000D02*
X55250000Y-62810000D01*
X55250000Y-65690000D02*
X55250000Y-69829000D01*
X55290000Y-58692000D02*
X55290000Y-62810000D01*
X55290000Y-65690000D02*
X55290000Y-69808000D01*
X55330000Y-58714000D02*
X55330000Y-62810000D01*
X55330000Y-65690000D02*
X55330000Y-69786000D01*
X55370000Y-58736000D02*
X55370000Y-62810000D01*
X55370000Y-65690000D02*
X55370000Y-69764000D01*
X55410000Y-58759000D02*
X55410000Y-62810000D01*
X55410000Y-65690000D02*
X55410000Y-69741000D01*
X55450000Y-58782000D02*
X55450000Y-62810000D01*
X55450000Y-65690000D02*
X55450000Y-69718000D01*
X55490000Y-58806000D02*
X55490000Y-62810000D01*
X55490000Y-65690000D02*
X55490000Y-69694000D01*
X55530000Y-58829000D02*
X55530000Y-62810000D01*
X55530000Y-65690000D02*
X55530000Y-69671000D01*
X55570000Y-58854000D02*
X55570000Y-62810000D01*
X55570000Y-65690000D02*
X55570000Y-69646000D01*
X55610000Y-58878000D02*
X55610000Y-62810000D01*
X55610000Y-65690000D02*
X55610000Y-69622000D01*
X55650000Y-58903000D02*
X55650000Y-62810000D01*
X55650000Y-65690000D02*
X55650000Y-69597000D01*
X55690000Y-58929000D02*
X55690000Y-62810000D01*
X55690000Y-65690000D02*
X55690000Y-69571000D01*
X55730000Y-58955000D02*
X55730000Y-62810000D01*
X55730000Y-65690000D02*
X55730000Y-69545000D01*
X55770000Y-58981000D02*
X55770000Y-62810000D01*
X55770000Y-65690000D02*
X55770000Y-69519000D01*
X55810000Y-59008000D02*
X55810000Y-62810000D01*
X55810000Y-65690000D02*
X55810000Y-69492000D01*
X55850000Y-59035000D02*
X55850000Y-62810000D01*
X55850000Y-65690000D02*
X55850000Y-69465000D01*
X55890000Y-59062000D02*
X55890000Y-62810000D01*
X55890000Y-65690000D02*
X55890000Y-69438000D01*
X55930000Y-59091000D02*
X55930000Y-62810000D01*
X55930000Y-65690000D02*
X55930000Y-69409000D01*
X55970000Y-59119000D02*
X55970000Y-62810000D01*
X55970000Y-65690000D02*
X55970000Y-69381000D01*
X56010000Y-59148000D02*
X56010000Y-62810000D01*
X56010000Y-65690000D02*
X56010000Y-69352000D01*
X56050000Y-59178000D02*
X56050000Y-62810000D01*
X56050000Y-65690000D02*
X56050000Y-69322000D01*
X56090000Y-59208000D02*
X56090000Y-62810000D01*
X56090000Y-65690000D02*
X56090000Y-69292000D01*
X56130000Y-59238000D02*
X56130000Y-62810000D01*
X56130000Y-65690000D02*
X56130000Y-69262000D01*
X56170000Y-59269000D02*
X56170000Y-62810000D01*
X56170000Y-65690000D02*
X56170000Y-69231000D01*
X56210000Y-59300000D02*
X56210000Y-69200000D01*
X56250000Y-59332000D02*
X56250000Y-69168000D01*
X56290000Y-59365000D02*
X56290000Y-69135000D01*
X56330000Y-59398000D02*
X56330000Y-69102000D01*
X56370000Y-59432000D02*
X56370000Y-69068000D01*
X56410000Y-59466000D02*
X56410000Y-69034000D01*
X56450000Y-59501000D02*
X56450000Y-68999000D01*
X56490000Y-59536000D02*
X56490000Y-68964000D01*
X56530000Y-59572000D02*
X56530000Y-68928000D01*
X56570000Y-59609000D02*
X56570000Y-68891000D01*
X56610000Y-59646000D02*
X56610000Y-68854000D01*
X56650000Y-59684000D02*
X56650000Y-68816000D01*
X56690000Y-59722000D02*
X56690000Y-68778000D01*
X56730000Y-59762000D02*
X56730000Y-68738000D01*
X56770000Y-59802000D02*
X56770000Y-68698000D01*
X56810000Y-59842000D02*
X56810000Y-68658000D01*
X56850000Y-59884000D02*
X56850000Y-68616000D01*
X56890000Y-59926000D02*
X56890000Y-68574000D01*
X56930000Y-59969000D02*
X56930000Y-68531000D01*
X56970000Y-60012000D02*
X56970000Y-68488000D01*
X57010000Y-60057000D02*
X57010000Y-68443000D01*
X57050000Y-60102000D02*
X57050000Y-68398000D01*
X57090000Y-60149000D02*
X57090000Y-68351000D01*
X57130000Y-60196000D02*
X57130000Y-68304000D01*
X57170000Y-60244000D02*
X57170000Y-68256000D01*
X57210000Y-60293000D02*
X57210000Y-68207000D01*
X57250000Y-60343000D02*
X57250000Y-68157000D01*
X57290000Y-60394000D02*
X57290000Y-68106000D01*
X57330000Y-60447000D02*
X57330000Y-68053000D01*
X57370000Y-60500000D02*
X57370000Y-68000000D01*
X57410000Y-60555000D02*
X57410000Y-67945000D01*
X57450000Y-60611000D02*
X57450000Y-67889000D01*
X57490000Y-60668000D02*
X57490000Y-67832000D01*
X57530000Y-60727000D02*
X57530000Y-67773000D01*
X57570000Y-60787000D02*
X57570000Y-67713000D01*
X57610000Y-60848000D02*
X57610000Y-67652000D01*
X57650000Y-60911000D02*
X57650000Y-67589000D01*
X57690000Y-60976000D02*
X57690000Y-67524000D01*
X57730000Y-61042000D02*
X57730000Y-67458000D01*
X57770000Y-61111000D02*
X57770000Y-67389000D01*
X57810000Y-61181000D02*
X57810000Y-67319000D01*
X57850000Y-61254000D02*
X57850000Y-67246000D01*
X57890000Y-61329000D02*
X57890000Y-67171000D01*
X57930000Y-61407000D02*
X57930000Y-67093000D01*
X57970000Y-61487000D02*
X57970000Y-67013000D01*
X58010000Y-61570000D02*
X58010000Y-66930000D01*
X58050000Y-61656000D02*
X58050000Y-66844000D01*
X58090000Y-61746000D02*
X58090000Y-66754000D01*
X58130000Y-61840000D02*
X58130000Y-66660000D01*
X58170000Y-61938000D02*
X58170000Y-66562000D01*
X58210000Y-62042000D02*
X58210000Y-66458000D01*
X58250000Y-62151000D02*
X58250000Y-66349000D01*
X58290000Y-62266000D02*
X58290000Y-66234000D01*
X58330000Y-62390000D02*
X58330000Y-66110000D01*
X58370000Y-62523000D02*
X58370000Y-65977000D01*
X58410000Y-62668000D02*
X58410000Y-65832000D01*
X58450000Y-62828000D02*
X58450000Y-65672000D01*
X58490000Y-63010000D02*
X58490000Y-65490000D01*
X58530000Y-63223000D02*
X58530000Y-65277000D01*
X58570000Y-63493000D02*
X58570000Y-65007000D01*
X58610000Y-63933000D02*
X58610000Y-64567000D01*
X58620000Y-64250000D02*
G75*
G02*
X45880000Y-64250000I-6370000J0D01*
G01*
X45880000Y-64250000D02*
G75*
G02*
X58620000Y-64250000I6370000J0D01*
G01*
%TO.C,L1*%
X46800000Y-82250000D02*
X46800000Y-85000000D01*
X46800000Y-91000000D02*
X46800000Y-93750000D01*
X47200000Y-81850000D02*
X58700000Y-81850000D01*
X58700000Y-94150000D02*
X47200000Y-94150000D01*
X59100000Y-82250000D02*
X59100000Y-85000000D01*
X59100000Y-91000000D02*
X59100000Y-93750000D01*
X46800000Y-82250000D02*
G75*
G02*
X47200000Y-81850000I399999J1D01*
G01*
X47200000Y-94150000D02*
G75*
G02*
X46800000Y-93750000I-1J399999D01*
G01*
X58700000Y-81850000D02*
G75*
G02*
X59100000Y-82250000I0J-400000D01*
G01*
X59100000Y-93750000D02*
G75*
G02*
X58700000Y-94150000I-400000J0D01*
G01*
%TO.C,D2*%
X46840000Y-71600000D02*
X46840000Y-75900000D01*
X46840000Y-71600000D02*
X52650000Y-71600000D01*
X46840000Y-75900000D02*
X52650000Y-75900000D01*
%TO.C,U1*%
X58890000Y-33990000D02*
X58890000Y-39800000D01*
X58890000Y-33990000D02*
X77110000Y-33990000D01*
X58890000Y-53910000D02*
X58890000Y-54210000D01*
X58890000Y-54210000D02*
X77110000Y-54210000D01*
X77110000Y-33990000D02*
X77110000Y-40490000D01*
X77110000Y-53910000D02*
X77110000Y-54210000D01*
X58900000Y-40500000D02*
X58400000Y-40500000D01*
X58900000Y-40000000D01*
X58900000Y-40500000D01*
G36*
X58900000Y-40500000D02*
G01*
X58400000Y-40500000D01*
X58900000Y-40000000D01*
X58900000Y-40500000D01*
G37*
%TO.C,R3*%
X79037500Y-46045276D02*
X79037500Y-46554724D01*
X80082500Y-46045276D02*
X80082500Y-46554724D01*
D14*
%TO.C,F1*%
X45835000Y-41250000D02*
X52565000Y-41250000D01*
X45835000Y-57250000D02*
X45835000Y-41250000D01*
X52565000Y-41250000D02*
X52565000Y-57250000D01*
X52565000Y-57250000D02*
X45835000Y-57250000D01*
D13*
%TO.C,U2*%
X68165000Y-78785000D02*
X72285000Y-78785000D01*
X68165000Y-78880000D02*
X68165000Y-78785000D01*
X68165000Y-83905000D02*
X68165000Y-83810000D01*
X72285000Y-78785000D02*
X72285000Y-78880000D01*
X72285000Y-83810000D02*
X72285000Y-83905000D01*
X72285000Y-83905000D02*
X68165000Y-83905000D01*
X67625000Y-78875000D02*
X67385000Y-78545000D01*
X67865000Y-78545000D01*
X67625000Y-78875000D01*
G36*
X67625000Y-78875000D02*
G01*
X67385000Y-78545000D01*
X67865000Y-78545000D01*
X67625000Y-78875000D01*
G37*
%TO.C,C5*%
X68000000Y-69490000D02*
X69250000Y-69490000D01*
X68625000Y-68865000D02*
X68625000Y-70115000D01*
X69490000Y-68054437D02*
X69490000Y-70740000D01*
X69490000Y-68054437D02*
X70554437Y-66990000D01*
X69490000Y-76445563D02*
X69490000Y-73760000D01*
X69490000Y-76445563D02*
X70554437Y-77510000D01*
X70554437Y-66990000D02*
X80010000Y-66990000D01*
X70554437Y-77510000D02*
X80010000Y-77510000D01*
X80010000Y-66990000D02*
X80010000Y-70740000D01*
X80010000Y-77510000D02*
X80010000Y-73760000D01*
%TO.C,D1*%
X46740000Y-76350000D02*
X46740000Y-79650000D01*
X46740000Y-76350000D02*
X53750000Y-76350000D01*
X46740000Y-79650000D02*
X53750000Y-79650000D01*
D15*
%TO.C,G\u002A\u002A\u002A*%
G36*
X69033333Y-90191666D02*
G01*
X69033333Y-90350000D01*
X68883333Y-90350000D01*
X68733333Y-90350000D01*
X68733333Y-90191666D01*
X68733333Y-90033333D01*
X68883333Y-90033333D01*
X69033333Y-90033333D01*
X69033333Y-90191666D01*
G37*
G36*
X63882632Y-86395303D02*
G01*
X63922645Y-86414964D01*
X63983858Y-86472235D01*
X64020699Y-86542490D01*
X64033390Y-86618712D01*
X64022154Y-86693884D01*
X63987212Y-86760989D01*
X63928787Y-86813008D01*
X63909718Y-86823225D01*
X63843148Y-86843332D01*
X63770773Y-86847989D01*
X63716666Y-86838229D01*
X63686765Y-86820849D01*
X63652583Y-86793711D01*
X63595183Y-86722790D01*
X63569064Y-86645381D01*
X63574044Y-86566010D01*
X63609940Y-86489197D01*
X63667346Y-86426985D01*
X63731343Y-86393074D01*
X63807298Y-86382316D01*
X63882632Y-86395303D01*
G37*
G36*
X62834754Y-86450218D02*
G01*
X62907736Y-86485469D01*
X62965057Y-86542295D01*
X63001442Y-86612784D01*
X63011619Y-86689028D01*
X63008860Y-86711383D01*
X62982361Y-86776754D01*
X62933617Y-86838083D01*
X62872931Y-86884147D01*
X62836128Y-86899502D01*
X62794578Y-86910711D01*
X62768701Y-86913806D01*
X62741837Y-86908769D01*
X62710072Y-86899359D01*
X62646945Y-86866106D01*
X62590394Y-86811506D01*
X62552056Y-86747162D01*
X62549073Y-86738859D01*
X62539601Y-86662492D01*
X62558121Y-86589895D01*
X62599328Y-86526427D01*
X62657921Y-86477446D01*
X62728595Y-86448310D01*
X62806046Y-86444379D01*
X62834754Y-86450218D01*
G37*
G36*
X63630859Y-87064881D02*
G01*
X63654020Y-87070859D01*
X63670390Y-87080829D01*
X63684369Y-87094951D01*
X63693105Y-87105096D01*
X63726664Y-87164869D01*
X63728490Y-87225787D01*
X63698531Y-87282550D01*
X63694863Y-87286642D01*
X63670789Y-87307521D01*
X63638884Y-87322652D01*
X63591293Y-87334512D01*
X63520159Y-87345576D01*
X63499029Y-87348347D01*
X63403991Y-87359224D01*
X63296470Y-87369533D01*
X63197288Y-87377308D01*
X63182591Y-87378246D01*
X63023515Y-87387951D01*
X62978424Y-87334363D01*
X62941838Y-87274921D01*
X62937535Y-87219637D01*
X62965378Y-87164918D01*
X62971662Y-87157298D01*
X62988304Y-87139922D01*
X63007576Y-87126986D01*
X63035242Y-87117127D01*
X63077064Y-87108979D01*
X63138804Y-87101180D01*
X63226225Y-87092364D01*
X63259162Y-87089238D01*
X63382289Y-87077670D01*
X63476622Y-87069289D01*
X63546561Y-87064256D01*
X63596506Y-87062733D01*
X63630859Y-87064881D01*
G37*
G36*
X65036878Y-89765801D02*
G01*
X65040675Y-89875888D01*
X65045165Y-89957645D01*
X65050902Y-90016076D01*
X65058442Y-90056183D01*
X65068338Y-90082969D01*
X65072900Y-90090801D01*
X65113486Y-90124913D01*
X65170114Y-90132949D01*
X65237428Y-90114397D01*
X65250827Y-90107905D01*
X65300000Y-90082477D01*
X65300000Y-89782905D01*
X65300000Y-89483333D01*
X65441666Y-89483333D01*
X65583333Y-89483333D01*
X65583333Y-89916666D01*
X65583333Y-90350000D01*
X65441666Y-90350000D01*
X65373062Y-90349608D01*
X65331192Y-90347152D01*
X65309458Y-90340707D01*
X65301260Y-90328349D01*
X65300000Y-90308700D01*
X65300000Y-90267400D01*
X65221736Y-90317033D01*
X65167957Y-90346991D01*
X65118749Y-90361589D01*
X65056979Y-90365448D01*
X65042570Y-90365350D01*
X64984264Y-90363193D01*
X64937376Y-90358967D01*
X64916666Y-90354896D01*
X64872434Y-90327364D01*
X64825583Y-90280947D01*
X64787506Y-90227005D01*
X64786407Y-90225000D01*
X64776748Y-90201206D01*
X64769239Y-90166899D01*
X64763499Y-90117545D01*
X64759145Y-90048611D01*
X64755792Y-89955565D01*
X64753060Y-89833873D01*
X64752973Y-89829166D01*
X64746631Y-89483333D01*
X64887677Y-89483333D01*
X65028723Y-89483333D01*
X65036878Y-89765801D01*
G37*
G36*
X62250000Y-89350236D02*
G01*
X62250000Y-89550472D01*
X62314035Y-89508096D01*
X62392618Y-89471949D01*
X62483437Y-89454374D01*
X62571849Y-89457493D01*
X62605770Y-89465820D01*
X62667628Y-89500584D01*
X62726406Y-89558236D01*
X62773582Y-89628782D01*
X62798267Y-89691689D01*
X62806872Y-89743178D01*
X62813280Y-89814566D01*
X62816377Y-89892437D01*
X62816503Y-89911547D01*
X62814494Y-89993199D01*
X62807323Y-90053488D01*
X62792959Y-90104236D01*
X62776945Y-90141666D01*
X62714876Y-90239107D01*
X62635301Y-90310216D01*
X62542088Y-90353318D01*
X62439107Y-90366737D01*
X62330225Y-90348799D01*
X62312310Y-90342833D01*
X62270620Y-90332015D01*
X62243834Y-90332606D01*
X62240493Y-90335232D01*
X62220640Y-90342160D01*
X62176123Y-90347346D01*
X62115601Y-90349884D01*
X62099016Y-90350000D01*
X61966666Y-90350000D01*
X61966666Y-89922808D01*
X62250000Y-89922808D01*
X62250855Y-90002338D01*
X62253189Y-90069371D01*
X62256649Y-90117074D01*
X62260884Y-90138620D01*
X62261111Y-90138888D01*
X62289409Y-90148727D01*
X62336388Y-90149860D01*
X62388880Y-90143418D01*
X62433717Y-90130534D01*
X62448052Y-90122821D01*
X62490136Y-90075023D01*
X62519080Y-90005118D01*
X62533144Y-89922323D01*
X62530588Y-89835853D01*
X62514913Y-89768801D01*
X62486966Y-89718607D01*
X62442638Y-89691486D01*
X62375207Y-89683333D01*
X62375000Y-89683333D01*
X62326097Y-89684903D01*
X62291948Y-89692986D01*
X62269909Y-89712644D01*
X62257341Y-89748937D01*
X62251600Y-89806927D01*
X62250045Y-89891675D01*
X62250000Y-89922808D01*
X61966666Y-89922808D01*
X61966666Y-89750000D01*
X61966666Y-89150000D01*
X62108333Y-89150000D01*
X62250000Y-89150000D01*
X62250000Y-89350236D01*
G37*
G36*
X68371678Y-89461739D02*
G01*
X68471422Y-89496810D01*
X68548328Y-89555905D01*
X68603013Y-89639621D01*
X68636093Y-89748560D01*
X68646569Y-89837500D01*
X68654282Y-89966666D01*
X68358667Y-89966666D01*
X68063053Y-89966666D01*
X68074428Y-90012500D01*
X68106418Y-90078782D01*
X68161714Y-90126309D01*
X68235386Y-90154036D01*
X68322503Y-90160920D01*
X68418132Y-90145916D01*
X68517344Y-90107982D01*
X68519761Y-90106764D01*
X68567502Y-90084109D01*
X68603961Y-90069571D01*
X68616112Y-90066666D01*
X68625287Y-90082276D01*
X68631323Y-90125031D01*
X68633333Y-90184183D01*
X68633333Y-90301700D01*
X68570833Y-90328592D01*
X68510259Y-90345033D01*
X68417218Y-90356150D01*
X68316666Y-90361311D01*
X68227050Y-90363062D01*
X68161896Y-90361361D01*
X68112429Y-90355334D01*
X68069877Y-90344109D01*
X68042865Y-90334053D01*
X67947272Y-90280365D01*
X67869204Y-90206160D01*
X67815522Y-90118384D01*
X67806665Y-90094978D01*
X67787154Y-90001957D01*
X67783393Y-89897524D01*
X67794497Y-89793594D01*
X67797094Y-89784117D01*
X68066666Y-89784117D01*
X68082152Y-89791247D01*
X68123915Y-89796675D01*
X68184912Y-89799656D01*
X68216666Y-89800000D01*
X68290305Y-89798959D01*
X68336174Y-89795243D01*
X68359788Y-89787961D01*
X68366661Y-89776223D01*
X68366666Y-89775784D01*
X68351550Y-89717897D01*
X68312401Y-89669168D01*
X68258522Y-89638845D01*
X68223388Y-89633333D01*
X68170927Y-89647379D01*
X68120711Y-89683152D01*
X68082664Y-89731108D01*
X68066706Y-89781700D01*
X68066666Y-89784117D01*
X67797094Y-89784117D01*
X67819579Y-89702082D01*
X67838912Y-89661529D01*
X67910961Y-89569567D01*
X68003819Y-89503381D01*
X68116636Y-89463410D01*
X68248482Y-89450092D01*
X68371678Y-89461739D01*
G37*
G36*
X66256086Y-89462632D02*
G01*
X66357541Y-89499778D01*
X66436263Y-89561224D01*
X66491963Y-89646667D01*
X66524349Y-89755801D01*
X66533333Y-89869691D01*
X66533333Y-89966666D01*
X66241666Y-89966666D01*
X66130857Y-89966891D01*
X66049932Y-89968486D01*
X65995442Y-89972836D01*
X65963938Y-89981323D01*
X65951971Y-89995332D01*
X65956092Y-90016245D01*
X65972852Y-90045447D01*
X65988109Y-90068368D01*
X66043835Y-90122883D01*
X66118831Y-90154308D01*
X66207834Y-90162118D01*
X66305579Y-90145788D01*
X66398146Y-90109272D01*
X66447397Y-90085826D01*
X66485621Y-90070351D01*
X66500176Y-90066666D01*
X66509939Y-90082790D01*
X66514073Y-90129878D01*
X66513230Y-90187500D01*
X66508333Y-90308333D01*
X66425000Y-90336770D01*
X66342294Y-90355535D01*
X66240155Y-90364896D01*
X66131115Y-90364898D01*
X66027707Y-90355585D01*
X65942462Y-90337001D01*
X65936600Y-90335045D01*
X65834009Y-90284299D01*
X65756184Y-90211387D01*
X65702994Y-90116124D01*
X65674306Y-89998320D01*
X65670355Y-89957010D01*
X65674611Y-89820399D01*
X65684120Y-89784117D01*
X65950000Y-89784117D01*
X65965486Y-89791247D01*
X66007248Y-89796675D01*
X66068246Y-89799656D01*
X66100000Y-89800000D01*
X66173639Y-89798959D01*
X66219508Y-89795243D01*
X66243121Y-89787961D01*
X66249994Y-89776223D01*
X66250000Y-89775784D01*
X66234883Y-89717897D01*
X66195735Y-89669168D01*
X66141855Y-89638845D01*
X66106721Y-89633333D01*
X66054260Y-89647379D01*
X66004045Y-89683152D01*
X65965998Y-89731108D01*
X65950040Y-89781700D01*
X65950000Y-89784117D01*
X65684120Y-89784117D01*
X65705445Y-89702753D01*
X65761428Y-89605641D01*
X65841131Y-89530631D01*
X65943124Y-89479293D01*
X66065978Y-89453194D01*
X66132191Y-89450092D01*
X66256086Y-89462632D01*
G37*
G36*
X63338137Y-89456116D02*
G01*
X63449912Y-89476074D01*
X63541146Y-89511559D01*
X63607992Y-89561666D01*
X63635533Y-89599739D01*
X63646147Y-89622816D01*
X63654068Y-89650259D01*
X63659679Y-89687033D01*
X63663360Y-89738104D01*
X63665496Y-89808435D01*
X63666469Y-89902993D01*
X63666666Y-90003906D01*
X63666666Y-90350000D01*
X63525000Y-90350000D01*
X63456031Y-90349344D01*
X63413895Y-90346387D01*
X63392099Y-90339647D01*
X63384153Y-90327641D01*
X63383333Y-90317632D01*
X63381316Y-90299528D01*
X63370336Y-90296249D01*
X63342995Y-90308644D01*
X63312500Y-90325765D01*
X63232471Y-90356244D01*
X63140824Y-90367584D01*
X63050782Y-90359383D01*
X62983488Y-90335744D01*
X62922053Y-90285117D01*
X62878345Y-90213552D01*
X62855101Y-90129882D01*
X62855085Y-90097026D01*
X63143006Y-90097026D01*
X63165165Y-90138527D01*
X63211450Y-90162707D01*
X63246675Y-90166666D01*
X63299062Y-90159728D01*
X63343098Y-90142815D01*
X63346291Y-90140721D01*
X63369571Y-90117398D01*
X63380661Y-90082855D01*
X63383333Y-90030258D01*
X63383333Y-89945739D01*
X63317645Y-89956243D01*
X63237722Y-89973762D01*
X63185390Y-89997676D01*
X63155092Y-90030869D01*
X63149258Y-90043617D01*
X63143006Y-90097026D01*
X62855085Y-90097026D01*
X62855058Y-90042940D01*
X62872852Y-89978631D01*
X62914579Y-89910010D01*
X62976201Y-89857508D01*
X63061195Y-89819261D01*
X63173038Y-89793405D01*
X63233317Y-89785285D01*
X63297406Y-89777006D01*
X63348069Y-89768391D01*
X63376681Y-89760974D01*
X63379621Y-89759267D01*
X63382961Y-89736777D01*
X63360906Y-89709390D01*
X63319613Y-89682963D01*
X63284517Y-89668796D01*
X63247528Y-89659244D01*
X63209509Y-89656225D01*
X63163647Y-89660625D01*
X63103131Y-89673332D01*
X63021150Y-89695235D01*
X62970833Y-89709664D01*
X62951256Y-89713602D01*
X62940043Y-89706797D01*
X62934867Y-89682691D01*
X62933402Y-89634730D01*
X62933333Y-89603981D01*
X62933333Y-89487408D01*
X63068366Y-89466402D01*
X63209673Y-89452591D01*
X63338137Y-89456116D01*
G37*
G36*
X66916666Y-89358333D02*
G01*
X66916666Y-89483333D01*
X67083333Y-89483333D01*
X67250000Y-89483333D01*
X67250000Y-89358333D01*
X67250000Y-89233333D01*
X67391666Y-89233333D01*
X67533333Y-89233333D01*
X67533333Y-89358333D01*
X67533333Y-89483333D01*
X67658333Y-89483333D01*
X67783333Y-89483333D01*
X67783333Y-89583333D01*
X67783333Y-89683333D01*
X67658333Y-89683333D01*
X67533333Y-89683333D01*
X67533333Y-89891666D01*
X67533798Y-89979567D01*
X67535814Y-90040573D01*
X67540310Y-90081117D01*
X67548216Y-90107632D01*
X67560463Y-90126550D01*
X67568542Y-90135209D01*
X67598078Y-90156121D01*
X67635759Y-90162701D01*
X67689668Y-90155183D01*
X67745833Y-90140371D01*
X67765910Y-90136393D01*
X67777137Y-90143712D01*
X67782081Y-90169045D01*
X67783306Y-90219107D01*
X67783333Y-90238523D01*
X67783333Y-90347601D01*
X67690976Y-90359140D01*
X67555951Y-90366670D01*
X67444085Y-90352879D01*
X67356397Y-90318017D01*
X67293907Y-90262335D01*
X67293165Y-90261341D01*
X67279846Y-90240452D01*
X67270176Y-90215484D01*
X67263418Y-90180697D01*
X67258836Y-90130351D01*
X67255691Y-90058706D01*
X67253246Y-89960022D01*
X67253019Y-89948841D01*
X67247706Y-89683333D01*
X67082186Y-89683333D01*
X66916666Y-89683333D01*
X66916666Y-89884090D01*
X66917009Y-89969250D01*
X66918833Y-90027876D01*
X66923331Y-90066763D01*
X66931699Y-90092710D01*
X66945129Y-90112514D01*
X66959438Y-90127619D01*
X66984820Y-90150070D01*
X67010129Y-90161067D01*
X67044289Y-90161256D01*
X67096221Y-90151283D01*
X67139722Y-90140665D01*
X67183333Y-90129719D01*
X67183333Y-90237679D01*
X67183333Y-90345638D01*
X67120833Y-90355969D01*
X67036019Y-90364453D01*
X66944823Y-90364710D01*
X66860222Y-90357276D01*
X66795195Y-90342684D01*
X66794730Y-90342519D01*
X66741103Y-90319157D01*
X66700538Y-90289319D01*
X66671312Y-90248399D01*
X66651706Y-90191791D01*
X66639997Y-90114891D01*
X66634466Y-90013091D01*
X66633333Y-89910566D01*
X66633333Y-89683333D01*
X66583333Y-89683333D01*
X66533333Y-89683333D01*
X66533333Y-89583333D01*
X66533333Y-89483333D01*
X66583333Y-89483333D01*
X66633333Y-89483333D01*
X66633333Y-89358333D01*
X66633333Y-89233333D01*
X66775000Y-89233333D01*
X66916666Y-89233333D01*
X66916666Y-89358333D01*
G37*
G36*
X64203816Y-89463786D02*
G01*
X64260661Y-89472806D01*
X64337591Y-89479404D01*
X64421387Y-89482589D01*
X64455368Y-89482671D01*
X64619070Y-89481042D01*
X64613701Y-89936862D01*
X64612037Y-90072037D01*
X64610346Y-90178240D01*
X64608238Y-90259828D01*
X64605328Y-90321161D01*
X64601225Y-90366599D01*
X64595543Y-90400498D01*
X64587892Y-90427219D01*
X64577886Y-90451120D01*
X64565754Y-90475359D01*
X64513631Y-90551000D01*
X64442083Y-90608184D01*
X64405893Y-90629484D01*
X64373739Y-90643838D01*
X64337644Y-90652748D01*
X64289631Y-90657716D01*
X64221721Y-90660242D01*
X64159662Y-90661338D01*
X64076043Y-90661588D01*
X64000224Y-90660009D01*
X63940927Y-90656893D01*
X63908333Y-90652892D01*
X63882494Y-90645550D01*
X63867199Y-90633048D01*
X63859191Y-90607549D01*
X63855216Y-90561217D01*
X63853436Y-90520720D01*
X63852994Y-90462168D01*
X63856355Y-90419268D01*
X63862806Y-90400281D01*
X63863841Y-90400000D01*
X63887634Y-90405260D01*
X63930070Y-90418555D01*
X63952071Y-90426226D01*
X64018722Y-90442935D01*
X64095035Y-90451262D01*
X64169077Y-90450909D01*
X64228914Y-90441577D01*
X64249392Y-90433658D01*
X64279462Y-90405068D01*
X64308753Y-90358826D01*
X64328976Y-90309757D01*
X64333333Y-90283529D01*
X64320362Y-90279735D01*
X64287507Y-90290210D01*
X64267330Y-90299661D01*
X64179422Y-90327959D01*
X64080543Y-90333317D01*
X63983715Y-90315935D01*
X63931788Y-90294550D01*
X63880665Y-90260696D01*
X63841094Y-90215265D01*
X63809744Y-90160987D01*
X63785794Y-90110330D01*
X63771107Y-90065201D01*
X63763381Y-90014124D01*
X63760317Y-89945627D01*
X63759894Y-89912270D01*
X63759941Y-89907089D01*
X64050000Y-89907089D01*
X64057871Y-89994418D01*
X64082542Y-90055510D01*
X64125594Y-90093788D01*
X64139283Y-90100140D01*
X64182198Y-90113269D01*
X64221116Y-90111515D01*
X64272006Y-90093983D01*
X64275535Y-90092517D01*
X64333333Y-90068367D01*
X64333333Y-89876605D01*
X64333333Y-89684843D01*
X64275894Y-89674068D01*
X64196243Y-89672797D01*
X64131784Y-89700015D01*
X64084619Y-89753554D01*
X64056847Y-89831247D01*
X64050000Y-89907089D01*
X63759941Y-89907089D01*
X63760617Y-89832614D01*
X63765654Y-89774617D01*
X63776993Y-89726689D01*
X63796620Y-89677236D01*
X63802303Y-89664883D01*
X63862381Y-89570912D01*
X63940613Y-89503199D01*
X64033275Y-89463610D01*
X64136642Y-89454012D01*
X64203816Y-89463786D01*
G37*
G36*
X64805109Y-84938382D02*
G01*
X64887352Y-84961015D01*
X64955072Y-85013539D01*
X65008368Y-85096047D01*
X65029200Y-85147314D01*
X65045851Y-85194625D01*
X65071167Y-85265999D01*
X65102539Y-85354134D01*
X65137357Y-85451726D01*
X65173011Y-85551470D01*
X65206892Y-85646062D01*
X65236391Y-85728199D01*
X65258897Y-85790575D01*
X65266310Y-85810970D01*
X65285528Y-85863608D01*
X65455264Y-85873806D01*
X65565061Y-85879024D01*
X65698862Y-85883122D01*
X65852278Y-85886136D01*
X66020920Y-85888101D01*
X66200401Y-85889049D01*
X66386332Y-85889017D01*
X66574323Y-85888038D01*
X66759987Y-85886147D01*
X66938936Y-85883378D01*
X67106779Y-85879765D01*
X67259130Y-85875344D01*
X67391599Y-85870148D01*
X67499799Y-85864211D01*
X67579339Y-85857569D01*
X67583333Y-85857123D01*
X67689812Y-85848113D01*
X67821511Y-85841855D01*
X67970555Y-85838302D01*
X68129069Y-85837406D01*
X68289178Y-85839120D01*
X68443007Y-85843396D01*
X68582680Y-85850187D01*
X68700324Y-85859445D01*
X68741666Y-85864108D01*
X68937964Y-85901349D01*
X69117947Y-85962754D01*
X69291559Y-86051958D01*
X69341807Y-86083333D01*
X69378176Y-86106245D01*
X69429041Y-86137531D01*
X69461027Y-86156926D01*
X69602519Y-86261097D01*
X69721319Y-86389507D01*
X69817664Y-86542440D01*
X69861818Y-86638706D01*
X69880618Y-86697629D01*
X69900021Y-86779340D01*
X69918219Y-86873383D01*
X69933402Y-86969299D01*
X69943762Y-87056632D01*
X69947492Y-87124924D01*
X69947354Y-87133333D01*
X69938769Y-87256464D01*
X69921302Y-87388942D01*
X69896694Y-87522810D01*
X69866684Y-87650107D01*
X69833012Y-87762877D01*
X69797418Y-87853161D01*
X69784375Y-87878796D01*
X69769163Y-87908243D01*
X69744879Y-87957304D01*
X69716724Y-88015469D01*
X69716151Y-88016666D01*
X69648122Y-88146558D01*
X69576696Y-88254724D01*
X69493382Y-88352382D01*
X69389689Y-88450748D01*
X69383284Y-88456351D01*
X69241243Y-88560521D01*
X69084200Y-88637385D01*
X68908221Y-88688752D01*
X68856679Y-88698530D01*
X68779986Y-88711612D01*
X68696560Y-88725889D01*
X68659760Y-88732204D01*
X68606257Y-88739119D01*
X68528888Y-88746170D01*
X68437110Y-88752626D01*
X68340379Y-88757752D01*
X68318094Y-88758679D01*
X68228049Y-88762378D01*
X68147011Y-88766016D01*
X68082227Y-88769246D01*
X68040945Y-88771718D01*
X68033333Y-88772346D01*
X67996392Y-88772848D01*
X67938399Y-88770281D01*
X67871441Y-88765196D01*
X67866666Y-88764754D01*
X67656417Y-88745843D01*
X67457542Y-88729535D01*
X67277040Y-88716369D01*
X67121910Y-88706887D01*
X67108333Y-88706176D01*
X66979878Y-88701086D01*
X66830689Y-88697729D01*
X66666048Y-88696020D01*
X66491239Y-88695874D01*
X66311545Y-88697205D01*
X66132250Y-88699930D01*
X65958636Y-88703962D01*
X65795988Y-88709217D01*
X65649587Y-88715609D01*
X65524718Y-88723054D01*
X65426664Y-88731467D01*
X65408333Y-88733545D01*
X65366548Y-88736601D01*
X65295008Y-88739534D01*
X65197287Y-88742283D01*
X65076963Y-88744790D01*
X64937612Y-88746994D01*
X64782811Y-88748835D01*
X64616138Y-88750252D01*
X64441168Y-88751185D01*
X64341666Y-88751473D01*
X64140633Y-88751829D01*
X63969847Y-88751962D01*
X63826226Y-88751780D01*
X63706685Y-88751186D01*
X63608138Y-88750087D01*
X63527502Y-88748388D01*
X63461692Y-88745995D01*
X63407624Y-88742812D01*
X63362212Y-88738747D01*
X63322373Y-88733703D01*
X63285021Y-88727587D01*
X63247073Y-88720304D01*
X63233333Y-88717513D01*
X63115543Y-88696776D01*
X62969982Y-88676757D01*
X62802209Y-88658066D01*
X62617787Y-88641314D01*
X62422277Y-88627110D01*
X62391666Y-88625195D01*
X62193950Y-88605104D01*
X62018545Y-88568988D01*
X61862167Y-88514545D01*
X61721534Y-88439474D01*
X61593362Y-88341472D01*
X61474368Y-88218237D01*
X61361267Y-88067468D01*
X61250777Y-87886862D01*
X61197085Y-87787713D01*
X61151138Y-87698039D01*
X61116695Y-87623748D01*
X61092102Y-87557305D01*
X61075707Y-87491178D01*
X61065857Y-87417832D01*
X61060900Y-87329733D01*
X61059183Y-87219347D01*
X61059026Y-87158333D01*
X61059071Y-87152882D01*
X61525997Y-87152882D01*
X61526994Y-87397431D01*
X61590376Y-87525675D01*
X61677925Y-87690187D01*
X61764769Y-87828622D01*
X61849590Y-87939238D01*
X61931072Y-88020293D01*
X61998386Y-88065491D01*
X62089533Y-88101277D01*
X62207535Y-88129838D01*
X62354343Y-88151541D01*
X62531911Y-88166755D01*
X62537430Y-88167096D01*
X62730336Y-88180190D01*
X62894491Y-88194216D01*
X63034473Y-88209667D01*
X63154861Y-88227036D01*
X63241666Y-88242954D01*
X63310567Y-88254159D01*
X63401308Y-88264958D01*
X63502406Y-88274163D01*
X63602377Y-88280586D01*
X63608333Y-88280868D01*
X63692037Y-88283747D01*
X63799854Y-88285908D01*
X63927435Y-88287385D01*
X64070433Y-88288211D01*
X64224499Y-88288419D01*
X64385285Y-88288043D01*
X64548443Y-88287116D01*
X64709625Y-88285671D01*
X64864484Y-88283742D01*
X65008670Y-88281361D01*
X65137836Y-88278563D01*
X65247634Y-88275381D01*
X65333716Y-88271847D01*
X65391734Y-88267995D01*
X65400000Y-88267143D01*
X65510511Y-88256904D01*
X65648565Y-88247884D01*
X65808387Y-88240183D01*
X65984205Y-88233898D01*
X66170246Y-88229127D01*
X66360738Y-88225969D01*
X66549906Y-88224522D01*
X66731979Y-88224884D01*
X66901183Y-88227153D01*
X67051745Y-88231428D01*
X67166666Y-88237079D01*
X67267944Y-88243274D01*
X67380418Y-88249860D01*
X67486457Y-88255815D01*
X67533333Y-88258329D01*
X67615395Y-88264088D01*
X67693204Y-88272087D01*
X67755533Y-88281057D01*
X67780477Y-88286283D01*
X67826390Y-88292786D01*
X67899184Y-88296614D01*
X67992529Y-88297962D01*
X68100097Y-88297023D01*
X68215559Y-88293991D01*
X68332585Y-88289062D01*
X68444848Y-88282428D01*
X68546018Y-88274285D01*
X68629765Y-88264825D01*
X68666195Y-88259116D01*
X68747714Y-88242430D01*
X68831759Y-88222097D01*
X68901592Y-88202200D01*
X68908208Y-88200041D01*
X69013589Y-88148339D01*
X69113067Y-88067557D01*
X69204534Y-87961731D01*
X69285879Y-87834898D01*
X69354992Y-87691095D01*
X69409764Y-87534359D01*
X69448085Y-87368725D01*
X69467844Y-87198232D01*
X69470106Y-87125000D01*
X69464752Y-86991296D01*
X69445939Y-86879530D01*
X69411513Y-86780284D01*
X69375331Y-86710403D01*
X69337075Y-86655902D01*
X69286291Y-86604384D01*
X69218699Y-86552749D01*
X69130019Y-86497895D01*
X69015972Y-86436721D01*
X68956424Y-86406891D01*
X68896920Y-86380682D01*
X68832912Y-86359554D01*
X68760125Y-86342986D01*
X68674284Y-86330457D01*
X68571115Y-86321446D01*
X68446344Y-86315433D01*
X68295694Y-86311896D01*
X68165884Y-86310572D01*
X67806769Y-86308333D01*
X67828876Y-86372499D01*
X67838539Y-86406342D01*
X67841360Y-86439401D01*
X67836569Y-86480675D01*
X67823400Y-86539164D01*
X67810385Y-86589166D01*
X67790232Y-86668309D01*
X67766507Y-86766778D01*
X67742360Y-86871248D01*
X67723486Y-86956539D01*
X67698152Y-87064545D01*
X67673472Y-87145053D01*
X67646512Y-87203703D01*
X67614336Y-87246139D01*
X67574012Y-87278000D01*
X67548842Y-87292265D01*
X67470653Y-87315336D01*
X67390127Y-87309590D01*
X67315461Y-87277836D01*
X67254853Y-87222881D01*
X67230155Y-87183113D01*
X67214867Y-87138928D01*
X67199613Y-87073918D01*
X67187196Y-87000474D01*
X67184992Y-86983333D01*
X67174351Y-86899601D01*
X67160864Y-86800488D01*
X67146940Y-86703529D01*
X67142660Y-86675000D01*
X67131517Y-86594051D01*
X67122795Y-86516124D01*
X67117746Y-86453138D01*
X67116990Y-86430833D01*
X67116666Y-86353333D01*
X66895207Y-86353333D01*
X66673749Y-86353333D01*
X66680211Y-86408684D01*
X66676746Y-86461405D01*
X66658583Y-86531520D01*
X66644795Y-86569518D01*
X66593157Y-86707607D01*
X66556861Y-86824482D01*
X66533862Y-86927370D01*
X66524682Y-86993921D01*
X66508539Y-87095284D01*
X66482304Y-87169777D01*
X66443443Y-87222996D01*
X66408758Y-87249737D01*
X66338757Y-87276802D01*
X66261462Y-87281174D01*
X66186333Y-87264802D01*
X66122829Y-87229630D01*
X66082990Y-87182691D01*
X66060652Y-87131074D01*
X66034570Y-87055427D01*
X66006836Y-86963745D01*
X65979540Y-86864024D01*
X65954775Y-86764260D01*
X65934633Y-86672448D01*
X65921205Y-86596584D01*
X65916573Y-86546574D01*
X65911724Y-86490983D01*
X65900150Y-86432891D01*
X65899775Y-86431527D01*
X65888973Y-86398353D01*
X65873907Y-86379317D01*
X65845558Y-86369051D01*
X65794909Y-86362188D01*
X65780756Y-86360693D01*
X65716771Y-86355439D01*
X65646961Y-86351952D01*
X65579185Y-86350318D01*
X65521306Y-86350624D01*
X65481184Y-86352956D01*
X65466666Y-86357248D01*
X65471974Y-86376361D01*
X65484461Y-86411301D01*
X65499777Y-86463912D01*
X65516569Y-86541835D01*
X65533668Y-86637153D01*
X65549906Y-86741952D01*
X65564115Y-86848314D01*
X65575124Y-86948324D01*
X65581767Y-87034065D01*
X65583192Y-87079994D01*
X65579847Y-87179204D01*
X65568014Y-87252182D01*
X65545307Y-87305468D01*
X65509342Y-87345598D01*
X65478357Y-87367341D01*
X65410128Y-87393159D01*
X65332474Y-87398873D01*
X65259554Y-87384425D01*
X65227354Y-87368368D01*
X65176370Y-87327487D01*
X65143092Y-87279965D01*
X65124286Y-87218001D01*
X65116721Y-87133796D01*
X65116142Y-87100000D01*
X65105463Y-86943470D01*
X65075051Y-86760904D01*
X65025087Y-86553000D01*
X64955748Y-86320452D01*
X64867216Y-86063958D01*
X64808630Y-85908333D01*
X64783885Y-85842582D01*
X64762061Y-85781495D01*
X64747810Y-85738097D01*
X64747634Y-85737500D01*
X64733889Y-85701213D01*
X64721274Y-85684142D01*
X64720049Y-85683941D01*
X64705151Y-85697186D01*
X64680098Y-85730312D01*
X64663834Y-85754888D01*
X64624887Y-85812348D01*
X64574046Y-85881443D01*
X64515526Y-85957077D01*
X64453539Y-86034156D01*
X64392298Y-86107582D01*
X64336018Y-86172262D01*
X64288911Y-86223099D01*
X64255190Y-86254999D01*
X64244077Y-86262535D01*
X64165739Y-86282964D01*
X64083777Y-86273085D01*
X63994607Y-86232389D01*
X63983333Y-86225461D01*
X63853541Y-86148200D01*
X63739523Y-86091507D01*
X63633128Y-86052742D01*
X63526202Y-86029265D01*
X63410592Y-86018436D01*
X63339341Y-86016913D01*
X63208575Y-86021868D01*
X63082910Y-86038455D01*
X62953668Y-86068592D01*
X62812172Y-86114199D01*
X62691666Y-86160160D01*
X62580913Y-86203038D01*
X62494117Y-86232109D01*
X62425221Y-86248068D01*
X62368168Y-86251610D01*
X62316902Y-86243430D01*
X62265366Y-86224223D01*
X62240094Y-86211974D01*
X62182913Y-86178694D01*
X62142177Y-86141860D01*
X62110858Y-86092480D01*
X62081927Y-86021561D01*
X62074444Y-86000000D01*
X62051594Y-85936512D01*
X62034531Y-85902419D01*
X62019836Y-85895076D01*
X62004088Y-85911842D01*
X61991075Y-85935584D01*
X61966285Y-85979907D01*
X61943328Y-86013994D01*
X61941120Y-86016666D01*
X61919789Y-86047860D01*
X61888251Y-86101752D01*
X61850394Y-86170833D01*
X61810104Y-86247592D01*
X61771268Y-86324522D01*
X61737774Y-86394111D01*
X61713507Y-86448851D01*
X61703888Y-86475000D01*
X61683719Y-86526059D01*
X61652121Y-86588197D01*
X61626124Y-86631778D01*
X61589129Y-86696812D01*
X61561899Y-86765147D01*
X61543220Y-86843104D01*
X61531876Y-86937006D01*
X61526654Y-87053174D01*
X61525997Y-87152882D01*
X61059071Y-87152882D01*
X61060138Y-87024365D01*
X61063960Y-86916966D01*
X61070936Y-86829450D01*
X61081508Y-86755130D01*
X61087894Y-86722626D01*
X61113551Y-86620340D01*
X61143042Y-86531774D01*
X61173936Y-86463140D01*
X61203803Y-86420651D01*
X61207286Y-86417535D01*
X61228326Y-86388820D01*
X61248542Y-86344371D01*
X61251341Y-86336166D01*
X61280232Y-86260961D01*
X61323917Y-86165503D01*
X61378475Y-86057123D01*
X61439985Y-85943153D01*
X61504525Y-85830922D01*
X61568173Y-85727761D01*
X61611626Y-85662670D01*
X61641351Y-85618658D01*
X61661336Y-85586482D01*
X61666666Y-85575209D01*
X61675483Y-85558076D01*
X61698300Y-85522468D01*
X61722217Y-85487538D01*
X61759838Y-85429411D01*
X61793956Y-85369331D01*
X61807539Y-85341666D01*
X61863192Y-85248921D01*
X61934917Y-85184971D01*
X62023851Y-85148807D01*
X62026049Y-85148308D01*
X62081444Y-85138101D01*
X62121871Y-85139343D01*
X62164264Y-85153821D01*
X62189367Y-85165553D01*
X62234599Y-85191324D01*
X62267202Y-85222626D01*
X62296318Y-85269727D01*
X62313804Y-85305337D01*
X62341571Y-85368885D01*
X62374115Y-85450127D01*
X62405903Y-85535058D01*
X62417077Y-85566666D01*
X62440730Y-85634014D01*
X62460549Y-85688668D01*
X62473929Y-85723545D01*
X62477975Y-85732299D01*
X62495082Y-85729880D01*
X62535373Y-85717084D01*
X62591283Y-85696401D01*
X62612855Y-85687875D01*
X62829425Y-85615024D01*
X63047644Y-85568725D01*
X63259825Y-85550545D01*
X63287143Y-85550330D01*
X63451396Y-85554538D01*
X63592026Y-85567714D01*
X63717956Y-85591622D01*
X63838109Y-85628032D01*
X63961408Y-85678709D01*
X63980862Y-85687715D01*
X64036609Y-85713214D01*
X64070807Y-85725447D01*
X64091962Y-85725564D01*
X64108581Y-85714716D01*
X64117228Y-85706174D01*
X64136299Y-85682785D01*
X64171390Y-85635955D01*
X64219634Y-85569710D01*
X64278161Y-85488072D01*
X64344102Y-85395067D01*
X64414590Y-85294718D01*
X64486755Y-85191051D01*
X64555717Y-85091024D01*
X64615542Y-85014070D01*
X64672425Y-84965438D01*
X64732500Y-84941372D01*
X64801898Y-84938119D01*
X64805109Y-84938382D01*
G37*
D13*
%TO.C,C6*%
X59708000Y-71340000D02*
X59708000Y-73690000D01*
X59708000Y-78160000D02*
X59708000Y-75810000D01*
X65463563Y-71340000D02*
X59708000Y-71340000D01*
X65463563Y-78160000D02*
X59708000Y-78160000D01*
X66528000Y-72404437D02*
X65463563Y-71340000D01*
X66528000Y-72404437D02*
X66528000Y-73690000D01*
X66528000Y-77095563D02*
X65463563Y-78160000D01*
X66528000Y-77095563D02*
X66528000Y-75810000D01*
X67161750Y-76991250D02*
X67161750Y-76203750D01*
X67555500Y-76597500D02*
X66768000Y-76597500D01*
%TO.C,J3*%
X34780000Y-69380000D02*
X44820000Y-69380000D01*
X34780000Y-71700000D02*
X34780000Y-69380000D01*
X34780000Y-94620000D02*
X34780000Y-72300000D01*
X35400000Y-69380000D02*
X35400000Y-94620000D01*
X36900000Y-69380000D02*
X36900000Y-94620000D01*
X41800000Y-69380000D02*
X41800000Y-94620000D01*
X44820000Y-69380000D02*
X44820000Y-94620000D01*
X44820000Y-94620000D02*
X34780000Y-94620000D01*
X34780000Y-72000000D02*
X34170000Y-72440000D01*
X34170000Y-71560000D01*
X34780000Y-72000000D01*
G36*
X34780000Y-72000000D02*
G01*
X34170000Y-72440000D01*
X34170000Y-71560000D01*
X34780000Y-72000000D01*
G37*
%TO.C,J4*%
X34780000Y-52880000D02*
X44820000Y-52880000D01*
X34780000Y-55200000D02*
X34780000Y-52880000D01*
X34780000Y-68120000D02*
X34780000Y-55800000D01*
X35400000Y-52880000D02*
X35400000Y-68120000D01*
X36900000Y-52880000D02*
X36900000Y-68120000D01*
X41800000Y-52880000D02*
X41800000Y-68120000D01*
X44820000Y-52880000D02*
X44820000Y-68120000D01*
X44820000Y-68120000D02*
X34780000Y-68120000D01*
X34780000Y-55500000D02*
X34170000Y-55940000D01*
X34170000Y-55060000D01*
X34780000Y-55500000D01*
G36*
X34780000Y-55500000D02*
G01*
X34170000Y-55940000D01*
X34170000Y-55060000D01*
X34780000Y-55500000D01*
G37*
%TO.C,C3*%
X56113733Y-46740000D02*
X56406267Y-46740000D01*
X56113733Y-47760000D02*
X56406267Y-47760000D01*
%TO.C,R4*%
X79037500Y-42045276D02*
X79037500Y-42554724D01*
X80082500Y-42045276D02*
X80082500Y-42554724D01*
%TO.C,R1*%
X56005276Y-43977500D02*
X56514724Y-43977500D01*
X56005276Y-45022500D02*
X56514724Y-45022500D01*
%TO.C,R2*%
X56005276Y-49727500D02*
X56514724Y-49727500D01*
X56005276Y-50772500D02*
X56514724Y-50772500D01*
%TO.C,C4*%
X56113733Y-41240000D02*
X56406267Y-41240000D01*
X56113733Y-42260000D02*
X56406267Y-42260000D01*
%TO.C,RESET1*%
X62000000Y-59000000D02*
X62000000Y-60500000D01*
X63250000Y-63000000D02*
X67750000Y-63000000D01*
X67750000Y-56500000D02*
X63250000Y-56500000D01*
X69000000Y-60500000D02*
X69000000Y-59000000D01*
%TO.C,J1*%
X77822800Y-83628000D02*
X79202800Y-83628000D01*
X77822800Y-85008000D02*
X77822800Y-83628000D01*
X77822800Y-86278000D02*
X77822800Y-94008000D01*
X77822800Y-86278000D02*
X80582800Y-86278000D01*
X77822800Y-94008000D02*
X80582800Y-94008000D01*
X80582800Y-86278000D02*
X80582800Y-94008000D01*
%TO.C,J2*%
X34780000Y-41380000D02*
X44820000Y-41380000D01*
X34780000Y-43700000D02*
X34780000Y-41380000D01*
X34780000Y-51620000D02*
X34780000Y-44300000D01*
X35400000Y-41380000D02*
X35400000Y-51620000D01*
X36900000Y-41380000D02*
X36900000Y-51620000D01*
X41800000Y-41380000D02*
X41800000Y-51620000D01*
X44820000Y-41380000D02*
X44820000Y-51620000D01*
X44820000Y-51620000D02*
X34780000Y-51620000D01*
X34780000Y-44000000D02*
X34170000Y-44440000D01*
X34170000Y-43560000D01*
X34780000Y-44000000D01*
G36*
X34780000Y-44000000D02*
G01*
X34170000Y-44440000D01*
X34170000Y-43560000D01*
X34780000Y-44000000D01*
G37*
%TO.C,BOOT1*%
X72500000Y-59000000D02*
X72500000Y-60500000D01*
X73750000Y-63000000D02*
X78250000Y-63000000D01*
X78250000Y-56500000D02*
X73750000Y-56500000D01*
X79500000Y-60500000D02*
X79500000Y-59000000D01*
%TD*%
M02*
