%TF.GenerationSoftware,KiCad,Pcbnew,9.0.7*%
%TF.CreationDate,2026-09-22T21:17:47-07:00*%
%TF.ProjectId,ESPLEDDriver,4553504c-4544-4447-9269-7665722e6b69,rev?*%
%TF.SameCoordinates,Original*%
%TF.FileFunction,Legend,Top*%
%TF.FilePolarity,Positive*%
%FSLAX46Y46*%
G04 Gerber Fmt 4.6, Leading zero omitted, Abs format (unit mm)*
G04 Created by KiCad (PCBNEW 9.0.7) date 2026-09-22 21:17:47*
%MOMM*%
%LPD*%
G01*
G04 APERTURE LIST*
%ADD10C,0.100000*%
%ADD11C,0.150000*%
%ADD12C,0.200000*%
%ADD13C,0.120000*%
%ADD14C,0.000000*%
%ADD15C,0.127000*%
G04 APERTURE END LIST*
D10*
X85756265Y-89645657D02*
X85803884Y-89598038D01*
X85803884Y-89598038D02*
X85899122Y-89550419D01*
X85899122Y-89550419D02*
X86137217Y-89550419D01*
X86137217Y-89550419D02*
X86232455Y-89598038D01*
X86232455Y-89598038D02*
X86280074Y-89645657D01*
X86280074Y-89645657D02*
X86327693Y-89740895D01*
X86327693Y-89740895D02*
X86327693Y-89836133D01*
X86327693Y-89836133D02*
X86280074Y-89978990D01*
X86280074Y-89978990D02*
X85708646Y-90550419D01*
X85708646Y-90550419D02*
X86327693Y-90550419D01*
X87280074Y-90550419D02*
X86708646Y-90550419D01*
X86994360Y-90550419D02*
X86994360Y-89550419D01*
X86994360Y-89550419D02*
X86899122Y-89693276D01*
X86899122Y-89693276D02*
X86803884Y-89788514D01*
X86803884Y-89788514D02*
X86708646Y-89836133D01*
X32958646Y-91622419D02*
X33196741Y-92622419D01*
X33196741Y-92622419D02*
X33387217Y-91908133D01*
X33387217Y-91908133D02*
X33577693Y-92622419D01*
X33577693Y-92622419D02*
X33815789Y-91622419D01*
X86327693Y-46418038D02*
X86232455Y-46370419D01*
X86232455Y-46370419D02*
X86089598Y-46370419D01*
X86089598Y-46370419D02*
X85946741Y-46418038D01*
X85946741Y-46418038D02*
X85851503Y-46513276D01*
X85851503Y-46513276D02*
X85803884Y-46608514D01*
X85803884Y-46608514D02*
X85756265Y-46798990D01*
X85756265Y-46798990D02*
X85756265Y-46941847D01*
X85756265Y-46941847D02*
X85803884Y-47132323D01*
X85803884Y-47132323D02*
X85851503Y-47227561D01*
X85851503Y-47227561D02*
X85946741Y-47322800D01*
X85946741Y-47322800D02*
X86089598Y-47370419D01*
X86089598Y-47370419D02*
X86184836Y-47370419D01*
X86184836Y-47370419D02*
X86327693Y-47322800D01*
X86327693Y-47322800D02*
X86375312Y-47275180D01*
X86375312Y-47275180D02*
X86375312Y-46941847D01*
X86375312Y-46941847D02*
X86184836Y-46941847D01*
D11*
X74642857Y-63931009D02*
X74785714Y-63978628D01*
X74785714Y-63978628D02*
X74833333Y-64026247D01*
X74833333Y-64026247D02*
X74880952Y-64121485D01*
X74880952Y-64121485D02*
X74880952Y-64264342D01*
X74880952Y-64264342D02*
X74833333Y-64359580D01*
X74833333Y-64359580D02*
X74785714Y-64407200D01*
X74785714Y-64407200D02*
X74690476Y-64454819D01*
X74690476Y-64454819D02*
X74309524Y-64454819D01*
X74309524Y-64454819D02*
X74309524Y-63454819D01*
X74309524Y-63454819D02*
X74642857Y-63454819D01*
X74642857Y-63454819D02*
X74738095Y-63502438D01*
X74738095Y-63502438D02*
X74785714Y-63550057D01*
X74785714Y-63550057D02*
X74833333Y-63645295D01*
X74833333Y-63645295D02*
X74833333Y-63740533D01*
X74833333Y-63740533D02*
X74785714Y-63835771D01*
X74785714Y-63835771D02*
X74738095Y-63883390D01*
X74738095Y-63883390D02*
X74642857Y-63931009D01*
X74642857Y-63931009D02*
X74309524Y-63931009D01*
X75500000Y-63454819D02*
X75690476Y-63454819D01*
X75690476Y-63454819D02*
X75785714Y-63502438D01*
X75785714Y-63502438D02*
X75880952Y-63597676D01*
X75880952Y-63597676D02*
X75928571Y-63788152D01*
X75928571Y-63788152D02*
X75928571Y-64121485D01*
X75928571Y-64121485D02*
X75880952Y-64311961D01*
X75880952Y-64311961D02*
X75785714Y-64407200D01*
X75785714Y-64407200D02*
X75690476Y-64454819D01*
X75690476Y-64454819D02*
X75500000Y-64454819D01*
X75500000Y-64454819D02*
X75404762Y-64407200D01*
X75404762Y-64407200D02*
X75309524Y-64311961D01*
X75309524Y-64311961D02*
X75261905Y-64121485D01*
X75261905Y-64121485D02*
X75261905Y-63788152D01*
X75261905Y-63788152D02*
X75309524Y-63597676D01*
X75309524Y-63597676D02*
X75404762Y-63502438D01*
X75404762Y-63502438D02*
X75500000Y-63454819D01*
X76547619Y-63454819D02*
X76738095Y-63454819D01*
X76738095Y-63454819D02*
X76833333Y-63502438D01*
X76833333Y-63502438D02*
X76928571Y-63597676D01*
X76928571Y-63597676D02*
X76976190Y-63788152D01*
X76976190Y-63788152D02*
X76976190Y-64121485D01*
X76976190Y-64121485D02*
X76928571Y-64311961D01*
X76928571Y-64311961D02*
X76833333Y-64407200D01*
X76833333Y-64407200D02*
X76738095Y-64454819D01*
X76738095Y-64454819D02*
X76547619Y-64454819D01*
X76547619Y-64454819D02*
X76452381Y-64407200D01*
X76452381Y-64407200D02*
X76357143Y-64311961D01*
X76357143Y-64311961D02*
X76309524Y-64121485D01*
X76309524Y-64121485D02*
X76309524Y-63788152D01*
X76309524Y-63788152D02*
X76357143Y-63597676D01*
X76357143Y-63597676D02*
X76452381Y-63502438D01*
X76452381Y-63502438D02*
X76547619Y-63454819D01*
X77261905Y-63454819D02*
X77833333Y-63454819D01*
X77547619Y-64454819D02*
X77547619Y-63454819D01*
D10*
X33577693Y-81670038D02*
X33482455Y-81622419D01*
X33482455Y-81622419D02*
X33339598Y-81622419D01*
X33339598Y-81622419D02*
X33196741Y-81670038D01*
X33196741Y-81670038D02*
X33101503Y-81765276D01*
X33101503Y-81765276D02*
X33053884Y-81860514D01*
X33053884Y-81860514D02*
X33006265Y-82050990D01*
X33006265Y-82050990D02*
X33006265Y-82193847D01*
X33006265Y-82193847D02*
X33053884Y-82384323D01*
X33053884Y-82384323D02*
X33101503Y-82479561D01*
X33101503Y-82479561D02*
X33196741Y-82574800D01*
X33196741Y-82574800D02*
X33339598Y-82622419D01*
X33339598Y-82622419D02*
X33434836Y-82622419D01*
X33434836Y-82622419D02*
X33577693Y-82574800D01*
X33577693Y-82574800D02*
X33625312Y-82527180D01*
X33625312Y-82527180D02*
X33625312Y-82193847D01*
X33625312Y-82193847D02*
X33434836Y-82193847D01*
X85708646Y-56530419D02*
X86327693Y-56530419D01*
X86327693Y-56530419D02*
X85994360Y-56911371D01*
X85994360Y-56911371D02*
X86137217Y-56911371D01*
X86137217Y-56911371D02*
X86232455Y-56958990D01*
X86232455Y-56958990D02*
X86280074Y-57006609D01*
X86280074Y-57006609D02*
X86327693Y-57101847D01*
X86327693Y-57101847D02*
X86327693Y-57339942D01*
X86327693Y-57339942D02*
X86280074Y-57435180D01*
X86280074Y-57435180D02*
X86232455Y-57482800D01*
X86232455Y-57482800D02*
X86137217Y-57530419D01*
X86137217Y-57530419D02*
X85851503Y-57530419D01*
X85851503Y-57530419D02*
X85756265Y-57482800D01*
X85756265Y-57482800D02*
X85708646Y-57435180D01*
X85994360Y-48910419D02*
X86089598Y-48910419D01*
X86089598Y-48910419D02*
X86184836Y-48958038D01*
X86184836Y-48958038D02*
X86232455Y-49005657D01*
X86232455Y-49005657D02*
X86280074Y-49100895D01*
X86280074Y-49100895D02*
X86327693Y-49291371D01*
X86327693Y-49291371D02*
X86327693Y-49529466D01*
X86327693Y-49529466D02*
X86280074Y-49719942D01*
X86280074Y-49719942D02*
X86232455Y-49815180D01*
X86232455Y-49815180D02*
X86184836Y-49862800D01*
X86184836Y-49862800D02*
X86089598Y-49910419D01*
X86089598Y-49910419D02*
X85994360Y-49910419D01*
X85994360Y-49910419D02*
X85899122Y-49862800D01*
X85899122Y-49862800D02*
X85851503Y-49815180D01*
X85851503Y-49815180D02*
X85803884Y-49719942D01*
X85803884Y-49719942D02*
X85756265Y-49529466D01*
X85756265Y-49529466D02*
X85756265Y-49291371D01*
X85756265Y-49291371D02*
X85803884Y-49100895D01*
X85803884Y-49100895D02*
X85851503Y-49005657D01*
X85851503Y-49005657D02*
X85899122Y-48958038D01*
X85899122Y-48958038D02*
X85994360Y-48910419D01*
X86327693Y-52450419D02*
X85756265Y-52450419D01*
X86041979Y-52450419D02*
X86041979Y-51450419D01*
X86041979Y-51450419D02*
X85946741Y-51593276D01*
X85946741Y-51593276D02*
X85851503Y-51688514D01*
X85851503Y-51688514D02*
X85756265Y-51736133D01*
X86327693Y-82930419D02*
X85756265Y-82930419D01*
X86041979Y-82930419D02*
X86041979Y-81930419D01*
X86041979Y-81930419D02*
X85946741Y-82073276D01*
X85946741Y-82073276D02*
X85851503Y-82168514D01*
X85851503Y-82168514D02*
X85756265Y-82216133D01*
X86899122Y-82358990D02*
X86803884Y-82311371D01*
X86803884Y-82311371D02*
X86756265Y-82263752D01*
X86756265Y-82263752D02*
X86708646Y-82168514D01*
X86708646Y-82168514D02*
X86708646Y-82120895D01*
X86708646Y-82120895D02*
X86756265Y-82025657D01*
X86756265Y-82025657D02*
X86803884Y-81978038D01*
X86803884Y-81978038D02*
X86899122Y-81930419D01*
X86899122Y-81930419D02*
X87089598Y-81930419D01*
X87089598Y-81930419D02*
X87184836Y-81978038D01*
X87184836Y-81978038D02*
X87232455Y-82025657D01*
X87232455Y-82025657D02*
X87280074Y-82120895D01*
X87280074Y-82120895D02*
X87280074Y-82168514D01*
X87280074Y-82168514D02*
X87232455Y-82263752D01*
X87232455Y-82263752D02*
X87184836Y-82311371D01*
X87184836Y-82311371D02*
X87089598Y-82358990D01*
X87089598Y-82358990D02*
X86899122Y-82358990D01*
X86899122Y-82358990D02*
X86803884Y-82406609D01*
X86803884Y-82406609D02*
X86756265Y-82454228D01*
X86756265Y-82454228D02*
X86708646Y-82549466D01*
X86708646Y-82549466D02*
X86708646Y-82739942D01*
X86708646Y-82739942D02*
X86756265Y-82835180D01*
X86756265Y-82835180D02*
X86803884Y-82882800D01*
X86803884Y-82882800D02*
X86899122Y-82930419D01*
X86899122Y-82930419D02*
X87089598Y-82930419D01*
X87089598Y-82930419D02*
X87184836Y-82882800D01*
X87184836Y-82882800D02*
X87232455Y-82835180D01*
X87232455Y-82835180D02*
X87280074Y-82739942D01*
X87280074Y-82739942D02*
X87280074Y-82549466D01*
X87280074Y-82549466D02*
X87232455Y-82454228D01*
X87232455Y-82454228D02*
X87184836Y-82406609D01*
X87184836Y-82406609D02*
X87089598Y-82358990D01*
X33053884Y-60872419D02*
X33053884Y-59872419D01*
X33053884Y-59872419D02*
X33291979Y-59872419D01*
X33291979Y-59872419D02*
X33434836Y-59920038D01*
X33434836Y-59920038D02*
X33530074Y-60015276D01*
X33530074Y-60015276D02*
X33577693Y-60110514D01*
X33577693Y-60110514D02*
X33625312Y-60300990D01*
X33625312Y-60300990D02*
X33625312Y-60443847D01*
X33625312Y-60443847D02*
X33577693Y-60634323D01*
X33577693Y-60634323D02*
X33530074Y-60729561D01*
X33530074Y-60729561D02*
X33434836Y-60824800D01*
X33434836Y-60824800D02*
X33291979Y-60872419D01*
X33291979Y-60872419D02*
X33053884Y-60872419D01*
X33053884Y-43991466D02*
X33815789Y-43991466D01*
X33434836Y-44372419D02*
X33434836Y-43610514D01*
D11*
X77130180Y-91532268D02*
X77130180Y-92151315D01*
X77130180Y-92151315D02*
X76749228Y-91817982D01*
X76749228Y-91817982D02*
X76749228Y-91960839D01*
X76749228Y-91960839D02*
X76701609Y-92056077D01*
X76701609Y-92056077D02*
X76653990Y-92103696D01*
X76653990Y-92103696D02*
X76558752Y-92151315D01*
X76558752Y-92151315D02*
X76320657Y-92151315D01*
X76320657Y-92151315D02*
X76225419Y-92103696D01*
X76225419Y-92103696D02*
X76177800Y-92056077D01*
X76177800Y-92056077D02*
X76130180Y-91960839D01*
X76130180Y-91960839D02*
X76130180Y-91675125D01*
X76130180Y-91675125D02*
X76177800Y-91579887D01*
X76177800Y-91579887D02*
X76225419Y-91532268D01*
X77130180Y-92437030D02*
X76130180Y-92770363D01*
X76130180Y-92770363D02*
X77130180Y-93103696D01*
X77130180Y-93341792D02*
X77130180Y-93960839D01*
X77130180Y-93960839D02*
X76749228Y-93627506D01*
X76749228Y-93627506D02*
X76749228Y-93770363D01*
X76749228Y-93770363D02*
X76701609Y-93865601D01*
X76701609Y-93865601D02*
X76653990Y-93913220D01*
X76653990Y-93913220D02*
X76558752Y-93960839D01*
X76558752Y-93960839D02*
X76320657Y-93960839D01*
X76320657Y-93960839D02*
X76225419Y-93913220D01*
X76225419Y-93913220D02*
X76177800Y-93865601D01*
X76177800Y-93865601D02*
X76130180Y-93770363D01*
X76130180Y-93770363D02*
X76130180Y-93484649D01*
X76130180Y-93484649D02*
X76177800Y-93389411D01*
X76177800Y-93389411D02*
X76225419Y-93341792D01*
X77082561Y-84115601D02*
X77130180Y-84020363D01*
X77130180Y-84020363D02*
X77130180Y-83877506D01*
X77130180Y-83877506D02*
X77082561Y-83734649D01*
X77082561Y-83734649D02*
X76987323Y-83639411D01*
X76987323Y-83639411D02*
X76892085Y-83591792D01*
X76892085Y-83591792D02*
X76701609Y-83544173D01*
X76701609Y-83544173D02*
X76558752Y-83544173D01*
X76558752Y-83544173D02*
X76368276Y-83591792D01*
X76368276Y-83591792D02*
X76273038Y-83639411D01*
X76273038Y-83639411D02*
X76177800Y-83734649D01*
X76177800Y-83734649D02*
X76130180Y-83877506D01*
X76130180Y-83877506D02*
X76130180Y-83972744D01*
X76130180Y-83972744D02*
X76177800Y-84115601D01*
X76177800Y-84115601D02*
X76225419Y-84163220D01*
X76225419Y-84163220D02*
X76558752Y-84163220D01*
X76558752Y-84163220D02*
X76558752Y-83972744D01*
X76130180Y-84591792D02*
X77130180Y-84591792D01*
X77130180Y-84591792D02*
X76130180Y-85163220D01*
X76130180Y-85163220D02*
X77130180Y-85163220D01*
X76130180Y-85639411D02*
X77130180Y-85639411D01*
X77130180Y-85639411D02*
X77130180Y-85877506D01*
X77130180Y-85877506D02*
X77082561Y-86020363D01*
X77082561Y-86020363D02*
X76987323Y-86115601D01*
X76987323Y-86115601D02*
X76892085Y-86163220D01*
X76892085Y-86163220D02*
X76701609Y-86210839D01*
X76701609Y-86210839D02*
X76558752Y-86210839D01*
X76558752Y-86210839D02*
X76368276Y-86163220D01*
X76368276Y-86163220D02*
X76273038Y-86115601D01*
X76273038Y-86115601D02*
X76177800Y-86020363D01*
X76177800Y-86020363D02*
X76130180Y-85877506D01*
X76130180Y-85877506D02*
X76130180Y-85639411D01*
D10*
X85708646Y-44338419D02*
X86327693Y-44338419D01*
X86327693Y-44338419D02*
X85994360Y-44719371D01*
X85994360Y-44719371D02*
X86137217Y-44719371D01*
X86137217Y-44719371D02*
X86232455Y-44766990D01*
X86232455Y-44766990D02*
X86280074Y-44814609D01*
X86280074Y-44814609D02*
X86327693Y-44909847D01*
X86327693Y-44909847D02*
X86327693Y-45147942D01*
X86327693Y-45147942D02*
X86280074Y-45243180D01*
X86280074Y-45243180D02*
X86232455Y-45290800D01*
X86232455Y-45290800D02*
X86137217Y-45338419D01*
X86137217Y-45338419D02*
X85851503Y-45338419D01*
X85851503Y-45338419D02*
X85756265Y-45290800D01*
X85756265Y-45290800D02*
X85708646Y-45243180D01*
X86613408Y-44338419D02*
X86946741Y-45338419D01*
X86946741Y-45338419D02*
X87280074Y-44338419D01*
X87518170Y-44338419D02*
X88137217Y-44338419D01*
X88137217Y-44338419D02*
X87803884Y-44719371D01*
X87803884Y-44719371D02*
X87946741Y-44719371D01*
X87946741Y-44719371D02*
X88041979Y-44766990D01*
X88041979Y-44766990D02*
X88089598Y-44814609D01*
X88089598Y-44814609D02*
X88137217Y-44909847D01*
X88137217Y-44909847D02*
X88137217Y-45147942D01*
X88137217Y-45147942D02*
X88089598Y-45243180D01*
X88089598Y-45243180D02*
X88041979Y-45290800D01*
X88041979Y-45290800D02*
X87946741Y-45338419D01*
X87946741Y-45338419D02*
X87661027Y-45338419D01*
X87661027Y-45338419D02*
X87565789Y-45290800D01*
X87565789Y-45290800D02*
X87518170Y-45243180D01*
X86232455Y-66690419D02*
X86041979Y-66690419D01*
X86041979Y-66690419D02*
X85946741Y-66738038D01*
X85946741Y-66738038D02*
X85899122Y-66785657D01*
X85899122Y-66785657D02*
X85803884Y-66928514D01*
X85803884Y-66928514D02*
X85756265Y-67118990D01*
X85756265Y-67118990D02*
X85756265Y-67499942D01*
X85756265Y-67499942D02*
X85803884Y-67595180D01*
X85803884Y-67595180D02*
X85851503Y-67642800D01*
X85851503Y-67642800D02*
X85946741Y-67690419D01*
X85946741Y-67690419D02*
X86137217Y-67690419D01*
X86137217Y-67690419D02*
X86232455Y-67642800D01*
X86232455Y-67642800D02*
X86280074Y-67595180D01*
X86280074Y-67595180D02*
X86327693Y-67499942D01*
X86327693Y-67499942D02*
X86327693Y-67261847D01*
X86327693Y-67261847D02*
X86280074Y-67166609D01*
X86280074Y-67166609D02*
X86232455Y-67118990D01*
X86232455Y-67118990D02*
X86137217Y-67071371D01*
X86137217Y-67071371D02*
X85946741Y-67071371D01*
X85946741Y-67071371D02*
X85851503Y-67118990D01*
X85851503Y-67118990D02*
X85803884Y-67166609D01*
X85803884Y-67166609D02*
X85756265Y-67261847D01*
X85756265Y-87105657D02*
X85803884Y-87058038D01*
X85803884Y-87058038D02*
X85899122Y-87010419D01*
X85899122Y-87010419D02*
X86137217Y-87010419D01*
X86137217Y-87010419D02*
X86232455Y-87058038D01*
X86232455Y-87058038D02*
X86280074Y-87105657D01*
X86280074Y-87105657D02*
X86327693Y-87200895D01*
X86327693Y-87200895D02*
X86327693Y-87296133D01*
X86327693Y-87296133D02*
X86280074Y-87438990D01*
X86280074Y-87438990D02*
X85708646Y-88010419D01*
X85708646Y-88010419D02*
X86327693Y-88010419D01*
X86946741Y-87010419D02*
X87041979Y-87010419D01*
X87041979Y-87010419D02*
X87137217Y-87058038D01*
X87137217Y-87058038D02*
X87184836Y-87105657D01*
X87184836Y-87105657D02*
X87232455Y-87200895D01*
X87232455Y-87200895D02*
X87280074Y-87391371D01*
X87280074Y-87391371D02*
X87280074Y-87629466D01*
X87280074Y-87629466D02*
X87232455Y-87819942D01*
X87232455Y-87819942D02*
X87184836Y-87915180D01*
X87184836Y-87915180D02*
X87137217Y-87962800D01*
X87137217Y-87962800D02*
X87041979Y-88010419D01*
X87041979Y-88010419D02*
X86946741Y-88010419D01*
X86946741Y-88010419D02*
X86851503Y-87962800D01*
X86851503Y-87962800D02*
X86803884Y-87915180D01*
X86803884Y-87915180D02*
X86756265Y-87819942D01*
X86756265Y-87819942D02*
X86708646Y-87629466D01*
X86708646Y-87629466D02*
X86708646Y-87391371D01*
X86708646Y-87391371D02*
X86756265Y-87200895D01*
X86756265Y-87200895D02*
X86803884Y-87105657D01*
X86803884Y-87105657D02*
X86851503Y-87058038D01*
X86851503Y-87058038D02*
X86946741Y-87010419D01*
D11*
X64047618Y-64454819D02*
X63714285Y-63978628D01*
X63476190Y-64454819D02*
X63476190Y-63454819D01*
X63476190Y-63454819D02*
X63857142Y-63454819D01*
X63857142Y-63454819D02*
X63952380Y-63502438D01*
X63952380Y-63502438D02*
X63999999Y-63550057D01*
X63999999Y-63550057D02*
X64047618Y-63645295D01*
X64047618Y-63645295D02*
X64047618Y-63788152D01*
X64047618Y-63788152D02*
X63999999Y-63883390D01*
X63999999Y-63883390D02*
X63952380Y-63931009D01*
X63952380Y-63931009D02*
X63857142Y-63978628D01*
X63857142Y-63978628D02*
X63476190Y-63978628D01*
X64476190Y-63931009D02*
X64809523Y-63931009D01*
X64952380Y-64454819D02*
X64476190Y-64454819D01*
X64476190Y-64454819D02*
X64476190Y-63454819D01*
X64476190Y-63454819D02*
X64952380Y-63454819D01*
X65333333Y-64407200D02*
X65476190Y-64454819D01*
X65476190Y-64454819D02*
X65714285Y-64454819D01*
X65714285Y-64454819D02*
X65809523Y-64407200D01*
X65809523Y-64407200D02*
X65857142Y-64359580D01*
X65857142Y-64359580D02*
X65904761Y-64264342D01*
X65904761Y-64264342D02*
X65904761Y-64169104D01*
X65904761Y-64169104D02*
X65857142Y-64073866D01*
X65857142Y-64073866D02*
X65809523Y-64026247D01*
X65809523Y-64026247D02*
X65714285Y-63978628D01*
X65714285Y-63978628D02*
X65523809Y-63931009D01*
X65523809Y-63931009D02*
X65428571Y-63883390D01*
X65428571Y-63883390D02*
X65380952Y-63835771D01*
X65380952Y-63835771D02*
X65333333Y-63740533D01*
X65333333Y-63740533D02*
X65333333Y-63645295D01*
X65333333Y-63645295D02*
X65380952Y-63550057D01*
X65380952Y-63550057D02*
X65428571Y-63502438D01*
X65428571Y-63502438D02*
X65523809Y-63454819D01*
X65523809Y-63454819D02*
X65761904Y-63454819D01*
X65761904Y-63454819D02*
X65904761Y-63502438D01*
X66333333Y-63931009D02*
X66666666Y-63931009D01*
X66809523Y-64454819D02*
X66333333Y-64454819D01*
X66333333Y-64454819D02*
X66333333Y-63454819D01*
X66333333Y-63454819D02*
X66809523Y-63454819D01*
X67095238Y-63454819D02*
X67666666Y-63454819D01*
X67380952Y-64454819D02*
X67380952Y-63454819D01*
D10*
X86327693Y-59118038D02*
X86232455Y-59070419D01*
X86232455Y-59070419D02*
X86089598Y-59070419D01*
X86089598Y-59070419D02*
X85946741Y-59118038D01*
X85946741Y-59118038D02*
X85851503Y-59213276D01*
X85851503Y-59213276D02*
X85803884Y-59308514D01*
X85803884Y-59308514D02*
X85756265Y-59498990D01*
X85756265Y-59498990D02*
X85756265Y-59641847D01*
X85756265Y-59641847D02*
X85803884Y-59832323D01*
X85803884Y-59832323D02*
X85851503Y-59927561D01*
X85851503Y-59927561D02*
X85946741Y-60022800D01*
X85946741Y-60022800D02*
X86089598Y-60070419D01*
X86089598Y-60070419D02*
X86184836Y-60070419D01*
X86184836Y-60070419D02*
X86327693Y-60022800D01*
X86327693Y-60022800D02*
X86375312Y-59975180D01*
X86375312Y-59975180D02*
X86375312Y-59641847D01*
X86375312Y-59641847D02*
X86184836Y-59641847D01*
X86327693Y-85470419D02*
X85756265Y-85470419D01*
X86041979Y-85470419D02*
X86041979Y-84470419D01*
X86041979Y-84470419D02*
X85946741Y-84613276D01*
X85946741Y-84613276D02*
X85851503Y-84708514D01*
X85851503Y-84708514D02*
X85756265Y-84756133D01*
X86803884Y-85470419D02*
X86994360Y-85470419D01*
X86994360Y-85470419D02*
X87089598Y-85422800D01*
X87089598Y-85422800D02*
X87137217Y-85375180D01*
X87137217Y-85375180D02*
X87232455Y-85232323D01*
X87232455Y-85232323D02*
X87280074Y-85041847D01*
X87280074Y-85041847D02*
X87280074Y-84660895D01*
X87280074Y-84660895D02*
X87232455Y-84565657D01*
X87232455Y-84565657D02*
X87184836Y-84518038D01*
X87184836Y-84518038D02*
X87089598Y-84470419D01*
X87089598Y-84470419D02*
X86899122Y-84470419D01*
X86899122Y-84470419D02*
X86803884Y-84518038D01*
X86803884Y-84518038D02*
X86756265Y-84565657D01*
X86756265Y-84565657D02*
X86708646Y-84660895D01*
X86708646Y-84660895D02*
X86708646Y-84898990D01*
X86708646Y-84898990D02*
X86756265Y-84994228D01*
X86756265Y-84994228D02*
X86803884Y-85041847D01*
X86803884Y-85041847D02*
X86899122Y-85089466D01*
X86899122Y-85089466D02*
X87089598Y-85089466D01*
X87089598Y-85089466D02*
X87184836Y-85041847D01*
X87184836Y-85041847D02*
X87232455Y-84994228D01*
X87232455Y-84994228D02*
X87280074Y-84898990D01*
X33053884Y-65741466D02*
X33815789Y-65741466D01*
X85708646Y-74310419D02*
X86327693Y-74310419D01*
X86327693Y-74310419D02*
X85994360Y-74691371D01*
X85994360Y-74691371D02*
X86137217Y-74691371D01*
X86137217Y-74691371D02*
X86232455Y-74738990D01*
X86232455Y-74738990D02*
X86280074Y-74786609D01*
X86280074Y-74786609D02*
X86327693Y-74881847D01*
X86327693Y-74881847D02*
X86327693Y-75119942D01*
X86327693Y-75119942D02*
X86280074Y-75215180D01*
X86280074Y-75215180D02*
X86232455Y-75262800D01*
X86232455Y-75262800D02*
X86137217Y-75310419D01*
X86137217Y-75310419D02*
X85851503Y-75310419D01*
X85851503Y-75310419D02*
X85756265Y-75262800D01*
X85756265Y-75262800D02*
X85708646Y-75215180D01*
X86613408Y-74310419D02*
X86946741Y-75310419D01*
X86946741Y-75310419D02*
X87280074Y-74310419D01*
X87518170Y-74310419D02*
X88137217Y-74310419D01*
X88137217Y-74310419D02*
X87803884Y-74691371D01*
X87803884Y-74691371D02*
X87946741Y-74691371D01*
X87946741Y-74691371D02*
X88041979Y-74738990D01*
X88041979Y-74738990D02*
X88089598Y-74786609D01*
X88089598Y-74786609D02*
X88137217Y-74881847D01*
X88137217Y-74881847D02*
X88137217Y-75119942D01*
X88137217Y-75119942D02*
X88089598Y-75215180D01*
X88089598Y-75215180D02*
X88041979Y-75262800D01*
X88041979Y-75262800D02*
X87946741Y-75310419D01*
X87946741Y-75310419D02*
X87661027Y-75310419D01*
X87661027Y-75310419D02*
X87565789Y-75262800D01*
X87565789Y-75262800D02*
X87518170Y-75215180D01*
X33625312Y-77372419D02*
X33291979Y-76896228D01*
X33053884Y-77372419D02*
X33053884Y-76372419D01*
X33053884Y-76372419D02*
X33434836Y-76372419D01*
X33434836Y-76372419D02*
X33530074Y-76420038D01*
X33530074Y-76420038D02*
X33577693Y-76467657D01*
X33577693Y-76467657D02*
X33625312Y-76562895D01*
X33625312Y-76562895D02*
X33625312Y-76705752D01*
X33625312Y-76705752D02*
X33577693Y-76800990D01*
X33577693Y-76800990D02*
X33530074Y-76848609D01*
X33530074Y-76848609D02*
X33434836Y-76896228D01*
X33434836Y-76896228D02*
X33053884Y-76896228D01*
X85851503Y-77850419D02*
X86041979Y-77850419D01*
X86041979Y-77850419D02*
X86137217Y-77802800D01*
X86137217Y-77802800D02*
X86184836Y-77755180D01*
X86184836Y-77755180D02*
X86280074Y-77612323D01*
X86280074Y-77612323D02*
X86327693Y-77421847D01*
X86327693Y-77421847D02*
X86327693Y-77040895D01*
X86327693Y-77040895D02*
X86280074Y-76945657D01*
X86280074Y-76945657D02*
X86232455Y-76898038D01*
X86232455Y-76898038D02*
X86137217Y-76850419D01*
X86137217Y-76850419D02*
X85946741Y-76850419D01*
X85946741Y-76850419D02*
X85851503Y-76898038D01*
X85851503Y-76898038D02*
X85803884Y-76945657D01*
X85803884Y-76945657D02*
X85756265Y-77040895D01*
X85756265Y-77040895D02*
X85756265Y-77278990D01*
X85756265Y-77278990D02*
X85803884Y-77374228D01*
X85803884Y-77374228D02*
X85851503Y-77421847D01*
X85851503Y-77421847D02*
X85946741Y-77469466D01*
X85946741Y-77469466D02*
X86137217Y-77469466D01*
X86137217Y-77469466D02*
X86232455Y-77421847D01*
X86232455Y-77421847D02*
X86280074Y-77374228D01*
X86280074Y-77374228D02*
X86327693Y-77278990D01*
D11*
X76130180Y-87508458D02*
X76606371Y-87175125D01*
X76130180Y-86937030D02*
X77130180Y-86937030D01*
X77130180Y-86937030D02*
X77130180Y-87317982D01*
X77130180Y-87317982D02*
X77082561Y-87413220D01*
X77082561Y-87413220D02*
X77034942Y-87460839D01*
X77034942Y-87460839D02*
X76939704Y-87508458D01*
X76939704Y-87508458D02*
X76796847Y-87508458D01*
X76796847Y-87508458D02*
X76701609Y-87460839D01*
X76701609Y-87460839D02*
X76653990Y-87413220D01*
X76653990Y-87413220D02*
X76606371Y-87317982D01*
X76606371Y-87317982D02*
X76606371Y-86937030D01*
X77130180Y-87841792D02*
X76130180Y-88508458D01*
X77130180Y-88508458D02*
X76130180Y-87841792D01*
D10*
X33053884Y-48991466D02*
X33815789Y-48991466D01*
X86327693Y-92138038D02*
X86232455Y-92090419D01*
X86232455Y-92090419D02*
X86089598Y-92090419D01*
X86089598Y-92090419D02*
X85946741Y-92138038D01*
X85946741Y-92138038D02*
X85851503Y-92233276D01*
X85851503Y-92233276D02*
X85803884Y-92328514D01*
X85803884Y-92328514D02*
X85756265Y-92518990D01*
X85756265Y-92518990D02*
X85756265Y-92661847D01*
X85756265Y-92661847D02*
X85803884Y-92852323D01*
X85803884Y-92852323D02*
X85851503Y-92947561D01*
X85851503Y-92947561D02*
X85946741Y-93042800D01*
X85946741Y-93042800D02*
X86089598Y-93090419D01*
X86089598Y-93090419D02*
X86184836Y-93090419D01*
X86184836Y-93090419D02*
X86327693Y-93042800D01*
X86327693Y-93042800D02*
X86375312Y-92995180D01*
X86375312Y-92995180D02*
X86375312Y-92661847D01*
X86375312Y-92661847D02*
X86184836Y-92661847D01*
X33053884Y-71991466D02*
X33815789Y-71991466D01*
X33434836Y-72372419D02*
X33434836Y-71610514D01*
X85756265Y-54085657D02*
X85803884Y-54038038D01*
X85803884Y-54038038D02*
X85899122Y-53990419D01*
X85899122Y-53990419D02*
X86137217Y-53990419D01*
X86137217Y-53990419D02*
X86232455Y-54038038D01*
X86232455Y-54038038D02*
X86280074Y-54085657D01*
X86280074Y-54085657D02*
X86327693Y-54180895D01*
X86327693Y-54180895D02*
X86327693Y-54276133D01*
X86327693Y-54276133D02*
X86280074Y-54418990D01*
X86280074Y-54418990D02*
X85708646Y-54990419D01*
X85708646Y-54990419D02*
X86327693Y-54990419D01*
X85946741Y-72198990D02*
X85851503Y-72151371D01*
X85851503Y-72151371D02*
X85803884Y-72103752D01*
X85803884Y-72103752D02*
X85756265Y-72008514D01*
X85756265Y-72008514D02*
X85756265Y-71960895D01*
X85756265Y-71960895D02*
X85803884Y-71865657D01*
X85803884Y-71865657D02*
X85851503Y-71818038D01*
X85851503Y-71818038D02*
X85946741Y-71770419D01*
X85946741Y-71770419D02*
X86137217Y-71770419D01*
X86137217Y-71770419D02*
X86232455Y-71818038D01*
X86232455Y-71818038D02*
X86280074Y-71865657D01*
X86280074Y-71865657D02*
X86327693Y-71960895D01*
X86327693Y-71960895D02*
X86327693Y-72008514D01*
X86327693Y-72008514D02*
X86280074Y-72103752D01*
X86280074Y-72103752D02*
X86232455Y-72151371D01*
X86232455Y-72151371D02*
X86137217Y-72198990D01*
X86137217Y-72198990D02*
X85946741Y-72198990D01*
X85946741Y-72198990D02*
X85851503Y-72246609D01*
X85851503Y-72246609D02*
X85803884Y-72294228D01*
X85803884Y-72294228D02*
X85756265Y-72389466D01*
X85756265Y-72389466D02*
X85756265Y-72579942D01*
X85756265Y-72579942D02*
X85803884Y-72675180D01*
X85803884Y-72675180D02*
X85851503Y-72722800D01*
X85851503Y-72722800D02*
X85946741Y-72770419D01*
X85946741Y-72770419D02*
X86137217Y-72770419D01*
X86137217Y-72770419D02*
X86232455Y-72722800D01*
X86232455Y-72722800D02*
X86280074Y-72675180D01*
X86280074Y-72675180D02*
X86327693Y-72579942D01*
X86327693Y-72579942D02*
X86327693Y-72389466D01*
X86327693Y-72389466D02*
X86280074Y-72294228D01*
X86280074Y-72294228D02*
X86232455Y-72246609D01*
X86232455Y-72246609D02*
X86137217Y-72198990D01*
X33053884Y-55491466D02*
X33815789Y-55491466D01*
X33434836Y-55872419D02*
X33434836Y-55110514D01*
X33387217Y-86848609D02*
X33530074Y-86896228D01*
X33530074Y-86896228D02*
X33577693Y-86943847D01*
X33577693Y-86943847D02*
X33625312Y-87039085D01*
X33625312Y-87039085D02*
X33625312Y-87181942D01*
X33625312Y-87181942D02*
X33577693Y-87277180D01*
X33577693Y-87277180D02*
X33530074Y-87324800D01*
X33530074Y-87324800D02*
X33434836Y-87372419D01*
X33434836Y-87372419D02*
X33053884Y-87372419D01*
X33053884Y-87372419D02*
X33053884Y-86372419D01*
X33053884Y-86372419D02*
X33387217Y-86372419D01*
X33387217Y-86372419D02*
X33482455Y-86420038D01*
X33482455Y-86420038D02*
X33530074Y-86467657D01*
X33530074Y-86467657D02*
X33577693Y-86562895D01*
X33577693Y-86562895D02*
X33577693Y-86658133D01*
X33577693Y-86658133D02*
X33530074Y-86753371D01*
X33530074Y-86753371D02*
X33482455Y-86800990D01*
X33482455Y-86800990D02*
X33387217Y-86848609D01*
X33387217Y-86848609D02*
X33053884Y-86848609D01*
D11*
X77130180Y-89282268D02*
X77130180Y-89853696D01*
X76130180Y-89567982D02*
X77130180Y-89567982D01*
X77130180Y-90091792D02*
X76130180Y-90758458D01*
X77130180Y-90758458D02*
X76130180Y-90091792D01*
D10*
X86280074Y-64150419D02*
X85803884Y-64150419D01*
X85803884Y-64150419D02*
X85756265Y-64626609D01*
X85756265Y-64626609D02*
X85803884Y-64578990D01*
X85803884Y-64578990D02*
X85899122Y-64531371D01*
X85899122Y-64531371D02*
X86137217Y-64531371D01*
X86137217Y-64531371D02*
X86232455Y-64578990D01*
X86232455Y-64578990D02*
X86280074Y-64626609D01*
X86280074Y-64626609D02*
X86327693Y-64721847D01*
X86327693Y-64721847D02*
X86327693Y-64959942D01*
X86327693Y-64959942D02*
X86280074Y-65055180D01*
X86280074Y-65055180D02*
X86232455Y-65102800D01*
X86232455Y-65102800D02*
X86137217Y-65150419D01*
X86137217Y-65150419D02*
X85899122Y-65150419D01*
X85899122Y-65150419D02*
X85803884Y-65102800D01*
X85803884Y-65102800D02*
X85756265Y-65055180D01*
X85708646Y-69230419D02*
X86375312Y-69230419D01*
X86375312Y-69230419D02*
X85946741Y-70230419D01*
X86232455Y-61943752D02*
X86232455Y-62610419D01*
X85994360Y-61562800D02*
X85756265Y-62277085D01*
X85756265Y-62277085D02*
X86375312Y-62277085D01*
D12*
X60619673Y-91983465D02*
X60953006Y-91983465D01*
X61095863Y-92507275D02*
X60619673Y-92507275D01*
X60619673Y-92507275D02*
X60619673Y-91507275D01*
X60619673Y-91507275D02*
X61095863Y-91507275D01*
X61476816Y-92459656D02*
X61619673Y-92507275D01*
X61619673Y-92507275D02*
X61857768Y-92507275D01*
X61857768Y-92507275D02*
X61953006Y-92459656D01*
X61953006Y-92459656D02*
X62000625Y-92412036D01*
X62000625Y-92412036D02*
X62048244Y-92316798D01*
X62048244Y-92316798D02*
X62048244Y-92221560D01*
X62048244Y-92221560D02*
X62000625Y-92126322D01*
X62000625Y-92126322D02*
X61953006Y-92078703D01*
X61953006Y-92078703D02*
X61857768Y-92031084D01*
X61857768Y-92031084D02*
X61667292Y-91983465D01*
X61667292Y-91983465D02*
X61572054Y-91935846D01*
X61572054Y-91935846D02*
X61524435Y-91888227D01*
X61524435Y-91888227D02*
X61476816Y-91792989D01*
X61476816Y-91792989D02*
X61476816Y-91697751D01*
X61476816Y-91697751D02*
X61524435Y-91602513D01*
X61524435Y-91602513D02*
X61572054Y-91554894D01*
X61572054Y-91554894D02*
X61667292Y-91507275D01*
X61667292Y-91507275D02*
X61905387Y-91507275D01*
X61905387Y-91507275D02*
X62048244Y-91554894D01*
X62476816Y-92507275D02*
X62476816Y-91507275D01*
X62476816Y-91507275D02*
X62857768Y-91507275D01*
X62857768Y-91507275D02*
X62953006Y-91554894D01*
X62953006Y-91554894D02*
X63000625Y-91602513D01*
X63000625Y-91602513D02*
X63048244Y-91697751D01*
X63048244Y-91697751D02*
X63048244Y-91840608D01*
X63048244Y-91840608D02*
X63000625Y-91935846D01*
X63000625Y-91935846D02*
X62953006Y-91983465D01*
X62953006Y-91983465D02*
X62857768Y-92031084D01*
X62857768Y-92031084D02*
X62476816Y-92031084D01*
X63953006Y-92507275D02*
X63476816Y-92507275D01*
X63476816Y-92507275D02*
X63476816Y-91507275D01*
X64286340Y-91983465D02*
X64619673Y-91983465D01*
X64762530Y-92507275D02*
X64286340Y-92507275D01*
X64286340Y-92507275D02*
X64286340Y-91507275D01*
X64286340Y-91507275D02*
X64762530Y-91507275D01*
X65191102Y-92507275D02*
X65191102Y-91507275D01*
X65191102Y-91507275D02*
X65429197Y-91507275D01*
X65429197Y-91507275D02*
X65572054Y-91554894D01*
X65572054Y-91554894D02*
X65667292Y-91650132D01*
X65667292Y-91650132D02*
X65714911Y-91745370D01*
X65714911Y-91745370D02*
X65762530Y-91935846D01*
X65762530Y-91935846D02*
X65762530Y-92078703D01*
X65762530Y-92078703D02*
X65714911Y-92269179D01*
X65714911Y-92269179D02*
X65667292Y-92364417D01*
X65667292Y-92364417D02*
X65572054Y-92459656D01*
X65572054Y-92459656D02*
X65429197Y-92507275D01*
X65429197Y-92507275D02*
X65191102Y-92507275D01*
X66191102Y-92507275D02*
X66191102Y-91507275D01*
X66191102Y-91507275D02*
X66429197Y-91507275D01*
X66429197Y-91507275D02*
X66572054Y-91554894D01*
X66572054Y-91554894D02*
X66667292Y-91650132D01*
X66667292Y-91650132D02*
X66714911Y-91745370D01*
X66714911Y-91745370D02*
X66762530Y-91935846D01*
X66762530Y-91935846D02*
X66762530Y-92078703D01*
X66762530Y-92078703D02*
X66714911Y-92269179D01*
X66714911Y-92269179D02*
X66667292Y-92364417D01*
X66667292Y-92364417D02*
X66572054Y-92459656D01*
X66572054Y-92459656D02*
X66429197Y-92507275D01*
X66429197Y-92507275D02*
X66191102Y-92507275D01*
X67191102Y-92507275D02*
X67191102Y-91840608D01*
X67191102Y-92031084D02*
X67238721Y-91935846D01*
X67238721Y-91935846D02*
X67286340Y-91888227D01*
X67286340Y-91888227D02*
X67381578Y-91840608D01*
X67381578Y-91840608D02*
X67476816Y-91840608D01*
X67810150Y-92507275D02*
X67810150Y-91840608D01*
X67810150Y-91507275D02*
X67762531Y-91554894D01*
X67762531Y-91554894D02*
X67810150Y-91602513D01*
X67810150Y-91602513D02*
X67857769Y-91554894D01*
X67857769Y-91554894D02*
X67810150Y-91507275D01*
X67810150Y-91507275D02*
X67810150Y-91602513D01*
X68191102Y-91840608D02*
X68429197Y-92507275D01*
X68429197Y-92507275D02*
X68667292Y-91840608D01*
X69429197Y-92459656D02*
X69333959Y-92507275D01*
X69333959Y-92507275D02*
X69143483Y-92507275D01*
X69143483Y-92507275D02*
X69048245Y-92459656D01*
X69048245Y-92459656D02*
X69000626Y-92364417D01*
X69000626Y-92364417D02*
X69000626Y-91983465D01*
X69000626Y-91983465D02*
X69048245Y-91888227D01*
X69048245Y-91888227D02*
X69143483Y-91840608D01*
X69143483Y-91840608D02*
X69333959Y-91840608D01*
X69333959Y-91840608D02*
X69429197Y-91888227D01*
X69429197Y-91888227D02*
X69476816Y-91983465D01*
X69476816Y-91983465D02*
X69476816Y-92078703D01*
X69476816Y-92078703D02*
X69000626Y-92173941D01*
X69905388Y-92507275D02*
X69905388Y-91840608D01*
X69905388Y-92031084D02*
X69953007Y-91935846D01*
X69953007Y-91935846D02*
X70000626Y-91888227D01*
X70000626Y-91888227D02*
X70095864Y-91840608D01*
X70095864Y-91840608D02*
X70191102Y-91840608D01*
X71191103Y-91840608D02*
X71429198Y-92507275D01*
X71429198Y-92507275D02*
X71667293Y-91840608D01*
X72572055Y-92507275D02*
X72000627Y-92507275D01*
X72286341Y-92507275D02*
X72286341Y-91507275D01*
X72286341Y-91507275D02*
X72191103Y-91650132D01*
X72191103Y-91650132D02*
X72095865Y-91745370D01*
X72095865Y-91745370D02*
X72000627Y-91792989D01*
X73000627Y-92412036D02*
X73048246Y-92459656D01*
X73048246Y-92459656D02*
X73000627Y-92507275D01*
X73000627Y-92507275D02*
X72953008Y-92459656D01*
X72953008Y-92459656D02*
X73000627Y-92412036D01*
X73000627Y-92412036D02*
X73000627Y-92507275D01*
X73667293Y-91507275D02*
X73762531Y-91507275D01*
X73762531Y-91507275D02*
X73857769Y-91554894D01*
X73857769Y-91554894D02*
X73905388Y-91602513D01*
X73905388Y-91602513D02*
X73953007Y-91697751D01*
X73953007Y-91697751D02*
X74000626Y-91888227D01*
X74000626Y-91888227D02*
X74000626Y-92126322D01*
X74000626Y-92126322D02*
X73953007Y-92316798D01*
X73953007Y-92316798D02*
X73905388Y-92412036D01*
X73905388Y-92412036D02*
X73857769Y-92459656D01*
X73857769Y-92459656D02*
X73762531Y-92507275D01*
X73762531Y-92507275D02*
X73667293Y-92507275D01*
X73667293Y-92507275D02*
X73572055Y-92459656D01*
X73572055Y-92459656D02*
X73524436Y-92412036D01*
X73524436Y-92412036D02*
X73476817Y-92316798D01*
X73476817Y-92316798D02*
X73429198Y-92126322D01*
X73429198Y-92126322D02*
X73429198Y-91888227D01*
X73429198Y-91888227D02*
X73476817Y-91697751D01*
X73476817Y-91697751D02*
X73524436Y-91602513D01*
X73524436Y-91602513D02*
X73572055Y-91554894D01*
X73572055Y-91554894D02*
X73667293Y-91507275D01*
X60619673Y-94117219D02*
X60619673Y-93117219D01*
X60619673Y-93498171D02*
X60714911Y-93450552D01*
X60714911Y-93450552D02*
X60905387Y-93450552D01*
X60905387Y-93450552D02*
X61000625Y-93498171D01*
X61000625Y-93498171D02*
X61048244Y-93545790D01*
X61048244Y-93545790D02*
X61095863Y-93641028D01*
X61095863Y-93641028D02*
X61095863Y-93926742D01*
X61095863Y-93926742D02*
X61048244Y-94021980D01*
X61048244Y-94021980D02*
X61000625Y-94069600D01*
X61000625Y-94069600D02*
X60905387Y-94117219D01*
X60905387Y-94117219D02*
X60714911Y-94117219D01*
X60714911Y-94117219D02*
X60619673Y-94069600D01*
X61429197Y-93450552D02*
X61667292Y-94117219D01*
X61905387Y-93450552D02*
X61667292Y-94117219D01*
X61667292Y-94117219D02*
X61572054Y-94355314D01*
X61572054Y-94355314D02*
X61524435Y-94402933D01*
X61524435Y-94402933D02*
X61429197Y-94450552D01*
X63667292Y-93641028D02*
X63619673Y-93593409D01*
X63619673Y-93593409D02*
X63524435Y-93545790D01*
X63524435Y-93545790D02*
X63429197Y-93545790D01*
X63429197Y-93545790D02*
X63333959Y-93593409D01*
X63333959Y-93593409D02*
X63286340Y-93641028D01*
X63286340Y-93641028D02*
X63238721Y-93736266D01*
X63238721Y-93736266D02*
X63238721Y-93831504D01*
X63238721Y-93831504D02*
X63286340Y-93926742D01*
X63286340Y-93926742D02*
X63333959Y-93974361D01*
X63333959Y-93974361D02*
X63429197Y-94021980D01*
X63429197Y-94021980D02*
X63524435Y-94021980D01*
X63524435Y-94021980D02*
X63619673Y-93974361D01*
X63619673Y-93974361D02*
X63667292Y-93926742D01*
X63667292Y-93545790D02*
X63667292Y-93926742D01*
X63667292Y-93926742D02*
X63714911Y-93974361D01*
X63714911Y-93974361D02*
X63762530Y-93974361D01*
X63762530Y-93974361D02*
X63857769Y-93926742D01*
X63857769Y-93926742D02*
X63905388Y-93831504D01*
X63905388Y-93831504D02*
X63905388Y-93593409D01*
X63905388Y-93593409D02*
X63810150Y-93450552D01*
X63810150Y-93450552D02*
X63667292Y-93355314D01*
X63667292Y-93355314D02*
X63476816Y-93307695D01*
X63476816Y-93307695D02*
X63286340Y-93355314D01*
X63286340Y-93355314D02*
X63143483Y-93450552D01*
X63143483Y-93450552D02*
X63048245Y-93593409D01*
X63048245Y-93593409D02*
X63000626Y-93783885D01*
X63000626Y-93783885D02*
X63048245Y-93974361D01*
X63048245Y-93974361D02*
X63143483Y-94117219D01*
X63143483Y-94117219D02*
X63286340Y-94212457D01*
X63286340Y-94212457D02*
X63476816Y-94260076D01*
X63476816Y-94260076D02*
X63667292Y-94212457D01*
X63667292Y-94212457D02*
X63810150Y-94117219D01*
X64524435Y-93117219D02*
X64714911Y-93117219D01*
X64714911Y-93117219D02*
X64810149Y-93164838D01*
X64810149Y-93164838D02*
X64905387Y-93260076D01*
X64905387Y-93260076D02*
X64953006Y-93450552D01*
X64953006Y-93450552D02*
X64953006Y-93783885D01*
X64953006Y-93783885D02*
X64905387Y-93974361D01*
X64905387Y-93974361D02*
X64810149Y-94069600D01*
X64810149Y-94069600D02*
X64714911Y-94117219D01*
X64714911Y-94117219D02*
X64524435Y-94117219D01*
X64524435Y-94117219D02*
X64429197Y-94069600D01*
X64429197Y-94069600D02*
X64333959Y-93974361D01*
X64333959Y-93974361D02*
X64286340Y-93783885D01*
X64286340Y-93783885D02*
X64286340Y-93450552D01*
X64286340Y-93450552D02*
X64333959Y-93260076D01*
X64333959Y-93260076D02*
X64429197Y-93164838D01*
X64429197Y-93164838D02*
X64524435Y-93117219D01*
X65810149Y-94117219D02*
X65810149Y-93593409D01*
X65810149Y-93593409D02*
X65762530Y-93498171D01*
X65762530Y-93498171D02*
X65667292Y-93450552D01*
X65667292Y-93450552D02*
X65476816Y-93450552D01*
X65476816Y-93450552D02*
X65381578Y-93498171D01*
X65810149Y-94069600D02*
X65714911Y-94117219D01*
X65714911Y-94117219D02*
X65476816Y-94117219D01*
X65476816Y-94117219D02*
X65381578Y-94069600D01*
X65381578Y-94069600D02*
X65333959Y-93974361D01*
X65333959Y-93974361D02*
X65333959Y-93879123D01*
X65333959Y-93879123D02*
X65381578Y-93783885D01*
X65381578Y-93783885D02*
X65476816Y-93736266D01*
X65476816Y-93736266D02*
X65714911Y-93736266D01*
X65714911Y-93736266D02*
X65810149Y-93688647D01*
X66286340Y-94117219D02*
X66286340Y-93117219D01*
X66381578Y-93736266D02*
X66667292Y-94117219D01*
X66667292Y-93450552D02*
X66286340Y-93831504D01*
X66953007Y-93117219D02*
X67524435Y-93117219D01*
X67238721Y-94117219D02*
X67238721Y-93117219D01*
X67857769Y-94117219D02*
X67857769Y-93450552D01*
X67857769Y-93641028D02*
X67905388Y-93545790D01*
X67905388Y-93545790D02*
X67953007Y-93498171D01*
X67953007Y-93498171D02*
X68048245Y-93450552D01*
X68048245Y-93450552D02*
X68143483Y-93450552D01*
X68857769Y-94069600D02*
X68762531Y-94117219D01*
X68762531Y-94117219D02*
X68572055Y-94117219D01*
X68572055Y-94117219D02*
X68476817Y-94069600D01*
X68476817Y-94069600D02*
X68429198Y-93974361D01*
X68429198Y-93974361D02*
X68429198Y-93593409D01*
X68429198Y-93593409D02*
X68476817Y-93498171D01*
X68476817Y-93498171D02*
X68572055Y-93450552D01*
X68572055Y-93450552D02*
X68762531Y-93450552D01*
X68762531Y-93450552D02*
X68857769Y-93498171D01*
X68857769Y-93498171D02*
X68905388Y-93593409D01*
X68905388Y-93593409D02*
X68905388Y-93688647D01*
X68905388Y-93688647D02*
X68429198Y-93783885D01*
X69714912Y-94069600D02*
X69619674Y-94117219D01*
X69619674Y-94117219D02*
X69429198Y-94117219D01*
X69429198Y-94117219D02*
X69333960Y-94069600D01*
X69333960Y-94069600D02*
X69286341Y-93974361D01*
X69286341Y-93974361D02*
X69286341Y-93593409D01*
X69286341Y-93593409D02*
X69333960Y-93498171D01*
X69333960Y-93498171D02*
X69429198Y-93450552D01*
X69429198Y-93450552D02*
X69619674Y-93450552D01*
X69619674Y-93450552D02*
X69714912Y-93498171D01*
X69714912Y-93498171D02*
X69762531Y-93593409D01*
X69762531Y-93593409D02*
X69762531Y-93688647D01*
X69762531Y-93688647D02*
X69286341Y-93783885D01*
X70095865Y-93117219D02*
X70333960Y-94117219D01*
X70333960Y-94117219D02*
X70524436Y-93402933D01*
X70524436Y-93402933D02*
X70714912Y-94117219D01*
X70714912Y-94117219D02*
X70953008Y-93117219D01*
X71905388Y-94021980D02*
X71857769Y-94069600D01*
X71857769Y-94069600D02*
X71714912Y-94117219D01*
X71714912Y-94117219D02*
X71619674Y-94117219D01*
X71619674Y-94117219D02*
X71476817Y-94069600D01*
X71476817Y-94069600D02*
X71381579Y-93974361D01*
X71381579Y-93974361D02*
X71333960Y-93879123D01*
X71333960Y-93879123D02*
X71286341Y-93688647D01*
X71286341Y-93688647D02*
X71286341Y-93545790D01*
X71286341Y-93545790D02*
X71333960Y-93355314D01*
X71333960Y-93355314D02*
X71381579Y-93260076D01*
X71381579Y-93260076D02*
X71476817Y-93164838D01*
X71476817Y-93164838D02*
X71619674Y-93117219D01*
X71619674Y-93117219D02*
X71714912Y-93117219D01*
X71714912Y-93117219D02*
X71857769Y-93164838D01*
X71857769Y-93164838D02*
X71905388Y-93212457D01*
D10*
X86327693Y-80390419D02*
X85756265Y-80390419D01*
X86041979Y-80390419D02*
X86041979Y-79390419D01*
X86041979Y-79390419D02*
X85946741Y-79533276D01*
X85946741Y-79533276D02*
X85851503Y-79628514D01*
X85851503Y-79628514D02*
X85756265Y-79676133D01*
X86946741Y-79390419D02*
X87041979Y-79390419D01*
X87041979Y-79390419D02*
X87137217Y-79438038D01*
X87137217Y-79438038D02*
X87184836Y-79485657D01*
X87184836Y-79485657D02*
X87232455Y-79580895D01*
X87232455Y-79580895D02*
X87280074Y-79771371D01*
X87280074Y-79771371D02*
X87280074Y-80009466D01*
X87280074Y-80009466D02*
X87232455Y-80199942D01*
X87232455Y-80199942D02*
X87184836Y-80295180D01*
X87184836Y-80295180D02*
X87137217Y-80342800D01*
X87137217Y-80342800D02*
X87041979Y-80390419D01*
X87041979Y-80390419D02*
X86946741Y-80390419D01*
X86946741Y-80390419D02*
X86851503Y-80342800D01*
X86851503Y-80342800D02*
X86803884Y-80295180D01*
X86803884Y-80295180D02*
X86756265Y-80199942D01*
X86756265Y-80199942D02*
X86708646Y-80009466D01*
X86708646Y-80009466D02*
X86708646Y-79771371D01*
X86708646Y-79771371D02*
X86756265Y-79580895D01*
X86756265Y-79580895D02*
X86803884Y-79485657D01*
X86803884Y-79485657D02*
X86851503Y-79438038D01*
X86851503Y-79438038D02*
X86946741Y-79390419D01*
D11*
X83180666Y-41064819D02*
X83180666Y-41779104D01*
X83180666Y-41779104D02*
X83133047Y-41921961D01*
X83133047Y-41921961D02*
X83037809Y-42017200D01*
X83037809Y-42017200D02*
X82894952Y-42064819D01*
X82894952Y-42064819D02*
X82799714Y-42064819D01*
X84133047Y-41064819D02*
X83656857Y-41064819D01*
X83656857Y-41064819D02*
X83609238Y-41541009D01*
X83609238Y-41541009D02*
X83656857Y-41493390D01*
X83656857Y-41493390D02*
X83752095Y-41445771D01*
X83752095Y-41445771D02*
X83990190Y-41445771D01*
X83990190Y-41445771D02*
X84085428Y-41493390D01*
X84085428Y-41493390D02*
X84133047Y-41541009D01*
X84133047Y-41541009D02*
X84180666Y-41636247D01*
X84180666Y-41636247D02*
X84180666Y-41874342D01*
X84180666Y-41874342D02*
X84133047Y-41969580D01*
X84133047Y-41969580D02*
X84085428Y-42017200D01*
X84085428Y-42017200D02*
X83990190Y-42064819D01*
X83990190Y-42064819D02*
X83752095Y-42064819D01*
X83752095Y-42064819D02*
X83656857Y-42017200D01*
X83656857Y-42017200D02*
X83609238Y-41969580D01*
X57083333Y-59109580D02*
X57035714Y-59157200D01*
X57035714Y-59157200D02*
X56892857Y-59204819D01*
X56892857Y-59204819D02*
X56797619Y-59204819D01*
X56797619Y-59204819D02*
X56654762Y-59157200D01*
X56654762Y-59157200D02*
X56559524Y-59061961D01*
X56559524Y-59061961D02*
X56511905Y-58966723D01*
X56511905Y-58966723D02*
X56464286Y-58776247D01*
X56464286Y-58776247D02*
X56464286Y-58633390D01*
X56464286Y-58633390D02*
X56511905Y-58442914D01*
X56511905Y-58442914D02*
X56559524Y-58347676D01*
X56559524Y-58347676D02*
X56654762Y-58252438D01*
X56654762Y-58252438D02*
X56797619Y-58204819D01*
X56797619Y-58204819D02*
X56892857Y-58204819D01*
X56892857Y-58204819D02*
X57035714Y-58252438D01*
X57035714Y-58252438D02*
X57083333Y-58300057D01*
X57416667Y-58204819D02*
X58083333Y-58204819D01*
X58083333Y-58204819D02*
X57654762Y-59204819D01*
X52783333Y-81204819D02*
X52307143Y-81204819D01*
X52307143Y-81204819D02*
X52307143Y-80204819D01*
X53640476Y-81204819D02*
X53069048Y-81204819D01*
X53354762Y-81204819D02*
X53354762Y-80204819D01*
X53354762Y-80204819D02*
X53259524Y-80347676D01*
X53259524Y-80347676D02*
X53164286Y-80442914D01*
X53164286Y-80442914D02*
X53069048Y-80490533D01*
X54761905Y-74204819D02*
X54761905Y-73204819D01*
X54761905Y-73204819D02*
X55000000Y-73204819D01*
X55000000Y-73204819D02*
X55142857Y-73252438D01*
X55142857Y-73252438D02*
X55238095Y-73347676D01*
X55238095Y-73347676D02*
X55285714Y-73442914D01*
X55285714Y-73442914D02*
X55333333Y-73633390D01*
X55333333Y-73633390D02*
X55333333Y-73776247D01*
X55333333Y-73776247D02*
X55285714Y-73966723D01*
X55285714Y-73966723D02*
X55238095Y-74061961D01*
X55238095Y-74061961D02*
X55142857Y-74157200D01*
X55142857Y-74157200D02*
X55000000Y-74204819D01*
X55000000Y-74204819D02*
X54761905Y-74204819D01*
X55714286Y-73300057D02*
X55761905Y-73252438D01*
X55761905Y-73252438D02*
X55857143Y-73204819D01*
X55857143Y-73204819D02*
X56095238Y-73204819D01*
X56095238Y-73204819D02*
X56190476Y-73252438D01*
X56190476Y-73252438D02*
X56238095Y-73300057D01*
X56238095Y-73300057D02*
X56285714Y-73395295D01*
X56285714Y-73395295D02*
X56285714Y-73490533D01*
X56285714Y-73490533D02*
X56238095Y-73633390D01*
X56238095Y-73633390D02*
X55666667Y-74204819D01*
X55666667Y-74204819D02*
X56285714Y-74204819D01*
X57204819Y-53091904D02*
X58014342Y-53091904D01*
X58014342Y-53091904D02*
X58109580Y-53044285D01*
X58109580Y-53044285D02*
X58157200Y-52996666D01*
X58157200Y-52996666D02*
X58204819Y-52901428D01*
X58204819Y-52901428D02*
X58204819Y-52710952D01*
X58204819Y-52710952D02*
X58157200Y-52615714D01*
X58157200Y-52615714D02*
X58109580Y-52568095D01*
X58109580Y-52568095D02*
X58014342Y-52520476D01*
X58014342Y-52520476D02*
X57204819Y-52520476D01*
X58204819Y-51520476D02*
X58204819Y-52091904D01*
X58204819Y-51806190D02*
X57204819Y-51806190D01*
X57204819Y-51806190D02*
X57347676Y-51901428D01*
X57347676Y-51901428D02*
X57442914Y-51996666D01*
X57442914Y-51996666D02*
X57490533Y-52091904D01*
X81444819Y-46466666D02*
X80968628Y-46799999D01*
X81444819Y-47038094D02*
X80444819Y-47038094D01*
X80444819Y-47038094D02*
X80444819Y-46657142D01*
X80444819Y-46657142D02*
X80492438Y-46561904D01*
X80492438Y-46561904D02*
X80540057Y-46514285D01*
X80540057Y-46514285D02*
X80635295Y-46466666D01*
X80635295Y-46466666D02*
X80778152Y-46466666D01*
X80778152Y-46466666D02*
X80873390Y-46514285D01*
X80873390Y-46514285D02*
X80921009Y-46561904D01*
X80921009Y-46561904D02*
X80968628Y-46657142D01*
X80968628Y-46657142D02*
X80968628Y-47038094D01*
X80444819Y-46133332D02*
X80444819Y-45514285D01*
X80444819Y-45514285D02*
X80825771Y-45847618D01*
X80825771Y-45847618D02*
X80825771Y-45704761D01*
X80825771Y-45704761D02*
X80873390Y-45609523D01*
X80873390Y-45609523D02*
X80921009Y-45561904D01*
X80921009Y-45561904D02*
X81016247Y-45514285D01*
X81016247Y-45514285D02*
X81254342Y-45514285D01*
X81254342Y-45514285D02*
X81349580Y-45561904D01*
X81349580Y-45561904D02*
X81397200Y-45609523D01*
X81397200Y-45609523D02*
X81444819Y-45704761D01*
X81444819Y-45704761D02*
X81444819Y-45990475D01*
X81444819Y-45990475D02*
X81397200Y-46085713D01*
X81397200Y-46085713D02*
X81349580Y-46133332D01*
X53416666Y-54431009D02*
X53083333Y-54431009D01*
X53083333Y-54954819D02*
X53083333Y-53954819D01*
X53083333Y-53954819D02*
X53559523Y-53954819D01*
X54464285Y-54954819D02*
X53892857Y-54954819D01*
X54178571Y-54954819D02*
X54178571Y-53954819D01*
X54178571Y-53954819D02*
X54083333Y-54097676D01*
X54083333Y-54097676D02*
X53988095Y-54192914D01*
X53988095Y-54192914D02*
X53892857Y-54240533D01*
X69463095Y-84049819D02*
X69463095Y-84859342D01*
X69463095Y-84859342D02*
X69510714Y-84954580D01*
X69510714Y-84954580D02*
X69558333Y-85002200D01*
X69558333Y-85002200D02*
X69653571Y-85049819D01*
X69653571Y-85049819D02*
X69844047Y-85049819D01*
X69844047Y-85049819D02*
X69939285Y-85002200D01*
X69939285Y-85002200D02*
X69986904Y-84954580D01*
X69986904Y-84954580D02*
X70034523Y-84859342D01*
X70034523Y-84859342D02*
X70034523Y-84049819D01*
X70463095Y-84145057D02*
X70510714Y-84097438D01*
X70510714Y-84097438D02*
X70605952Y-84049819D01*
X70605952Y-84049819D02*
X70844047Y-84049819D01*
X70844047Y-84049819D02*
X70939285Y-84097438D01*
X70939285Y-84097438D02*
X70986904Y-84145057D01*
X70986904Y-84145057D02*
X71034523Y-84240295D01*
X71034523Y-84240295D02*
X71034523Y-84335533D01*
X71034523Y-84335533D02*
X70986904Y-84478390D01*
X70986904Y-84478390D02*
X70415476Y-85049819D01*
X70415476Y-85049819D02*
X71034523Y-85049819D01*
X74583333Y-66409580D02*
X74535714Y-66457200D01*
X74535714Y-66457200D02*
X74392857Y-66504819D01*
X74392857Y-66504819D02*
X74297619Y-66504819D01*
X74297619Y-66504819D02*
X74154762Y-66457200D01*
X74154762Y-66457200D02*
X74059524Y-66361961D01*
X74059524Y-66361961D02*
X74011905Y-66266723D01*
X74011905Y-66266723D02*
X73964286Y-66076247D01*
X73964286Y-66076247D02*
X73964286Y-65933390D01*
X73964286Y-65933390D02*
X74011905Y-65742914D01*
X74011905Y-65742914D02*
X74059524Y-65647676D01*
X74059524Y-65647676D02*
X74154762Y-65552438D01*
X74154762Y-65552438D02*
X74297619Y-65504819D01*
X74297619Y-65504819D02*
X74392857Y-65504819D01*
X74392857Y-65504819D02*
X74535714Y-65552438D01*
X74535714Y-65552438D02*
X74583333Y-65600057D01*
X75488095Y-65504819D02*
X75011905Y-65504819D01*
X75011905Y-65504819D02*
X74964286Y-65981009D01*
X74964286Y-65981009D02*
X75011905Y-65933390D01*
X75011905Y-65933390D02*
X75107143Y-65885771D01*
X75107143Y-65885771D02*
X75345238Y-65885771D01*
X75345238Y-65885771D02*
X75440476Y-65933390D01*
X75440476Y-65933390D02*
X75488095Y-65981009D01*
X75488095Y-65981009D02*
X75535714Y-66076247D01*
X75535714Y-66076247D02*
X75535714Y-66314342D01*
X75535714Y-66314342D02*
X75488095Y-66409580D01*
X75488095Y-66409580D02*
X75440476Y-66457200D01*
X75440476Y-66457200D02*
X75345238Y-66504819D01*
X75345238Y-66504819D02*
X75107143Y-66504819D01*
X75107143Y-66504819D02*
X75011905Y-66457200D01*
X75011905Y-66457200D02*
X74964286Y-66409580D01*
X56261905Y-78454819D02*
X56261905Y-77454819D01*
X56261905Y-77454819D02*
X56500000Y-77454819D01*
X56500000Y-77454819D02*
X56642857Y-77502438D01*
X56642857Y-77502438D02*
X56738095Y-77597676D01*
X56738095Y-77597676D02*
X56785714Y-77692914D01*
X56785714Y-77692914D02*
X56833333Y-77883390D01*
X56833333Y-77883390D02*
X56833333Y-78026247D01*
X56833333Y-78026247D02*
X56785714Y-78216723D01*
X56785714Y-78216723D02*
X56738095Y-78311961D01*
X56738095Y-78311961D02*
X56642857Y-78407200D01*
X56642857Y-78407200D02*
X56500000Y-78454819D01*
X56500000Y-78454819D02*
X56261905Y-78454819D01*
X57785714Y-78454819D02*
X57214286Y-78454819D01*
X57500000Y-78454819D02*
X57500000Y-77454819D01*
X57500000Y-77454819D02*
X57404762Y-77597676D01*
X57404762Y-77597676D02*
X57309524Y-77692914D01*
X57309524Y-77692914D02*
X57214286Y-77740533D01*
X62951333Y-79459580D02*
X62903714Y-79507200D01*
X62903714Y-79507200D02*
X62760857Y-79554819D01*
X62760857Y-79554819D02*
X62665619Y-79554819D01*
X62665619Y-79554819D02*
X62522762Y-79507200D01*
X62522762Y-79507200D02*
X62427524Y-79411961D01*
X62427524Y-79411961D02*
X62379905Y-79316723D01*
X62379905Y-79316723D02*
X62332286Y-79126247D01*
X62332286Y-79126247D02*
X62332286Y-78983390D01*
X62332286Y-78983390D02*
X62379905Y-78792914D01*
X62379905Y-78792914D02*
X62427524Y-78697676D01*
X62427524Y-78697676D02*
X62522762Y-78602438D01*
X62522762Y-78602438D02*
X62665619Y-78554819D01*
X62665619Y-78554819D02*
X62760857Y-78554819D01*
X62760857Y-78554819D02*
X62903714Y-78602438D01*
X62903714Y-78602438D02*
X62951333Y-78650057D01*
X63808476Y-78554819D02*
X63618000Y-78554819D01*
X63618000Y-78554819D02*
X63522762Y-78602438D01*
X63522762Y-78602438D02*
X63475143Y-78650057D01*
X63475143Y-78650057D02*
X63379905Y-78792914D01*
X63379905Y-78792914D02*
X63332286Y-78983390D01*
X63332286Y-78983390D02*
X63332286Y-79364342D01*
X63332286Y-79364342D02*
X63379905Y-79459580D01*
X63379905Y-79459580D02*
X63427524Y-79507200D01*
X63427524Y-79507200D02*
X63522762Y-79554819D01*
X63522762Y-79554819D02*
X63713238Y-79554819D01*
X63713238Y-79554819D02*
X63808476Y-79507200D01*
X63808476Y-79507200D02*
X63856095Y-79459580D01*
X63856095Y-79459580D02*
X63903714Y-79364342D01*
X63903714Y-79364342D02*
X63903714Y-79126247D01*
X63903714Y-79126247D02*
X63856095Y-79031009D01*
X63856095Y-79031009D02*
X63808476Y-78983390D01*
X63808476Y-78983390D02*
X63713238Y-78935771D01*
X63713238Y-78935771D02*
X63522762Y-78935771D01*
X63522762Y-78935771D02*
X63427524Y-78983390D01*
X63427524Y-78983390D02*
X63379905Y-79031009D01*
X63379905Y-79031009D02*
X63332286Y-79126247D01*
X53593333Y-47609580D02*
X53545714Y-47657200D01*
X53545714Y-47657200D02*
X53402857Y-47704819D01*
X53402857Y-47704819D02*
X53307619Y-47704819D01*
X53307619Y-47704819D02*
X53164762Y-47657200D01*
X53164762Y-47657200D02*
X53069524Y-47561961D01*
X53069524Y-47561961D02*
X53021905Y-47466723D01*
X53021905Y-47466723D02*
X52974286Y-47276247D01*
X52974286Y-47276247D02*
X52974286Y-47133390D01*
X52974286Y-47133390D02*
X53021905Y-46942914D01*
X53021905Y-46942914D02*
X53069524Y-46847676D01*
X53069524Y-46847676D02*
X53164762Y-46752438D01*
X53164762Y-46752438D02*
X53307619Y-46704819D01*
X53307619Y-46704819D02*
X53402857Y-46704819D01*
X53402857Y-46704819D02*
X53545714Y-46752438D01*
X53545714Y-46752438D02*
X53593333Y-46800057D01*
X53926667Y-46704819D02*
X54545714Y-46704819D01*
X54545714Y-46704819D02*
X54212381Y-47085771D01*
X54212381Y-47085771D02*
X54355238Y-47085771D01*
X54355238Y-47085771D02*
X54450476Y-47133390D01*
X54450476Y-47133390D02*
X54498095Y-47181009D01*
X54498095Y-47181009D02*
X54545714Y-47276247D01*
X54545714Y-47276247D02*
X54545714Y-47514342D01*
X54545714Y-47514342D02*
X54498095Y-47609580D01*
X54498095Y-47609580D02*
X54450476Y-47657200D01*
X54450476Y-47657200D02*
X54355238Y-47704819D01*
X54355238Y-47704819D02*
X54069524Y-47704819D01*
X54069524Y-47704819D02*
X53974286Y-47657200D01*
X53974286Y-47657200D02*
X53926667Y-47609580D01*
X81444819Y-42466666D02*
X80968628Y-42799999D01*
X81444819Y-43038094D02*
X80444819Y-43038094D01*
X80444819Y-43038094D02*
X80444819Y-42657142D01*
X80444819Y-42657142D02*
X80492438Y-42561904D01*
X80492438Y-42561904D02*
X80540057Y-42514285D01*
X80540057Y-42514285D02*
X80635295Y-42466666D01*
X80635295Y-42466666D02*
X80778152Y-42466666D01*
X80778152Y-42466666D02*
X80873390Y-42514285D01*
X80873390Y-42514285D02*
X80921009Y-42561904D01*
X80921009Y-42561904D02*
X80968628Y-42657142D01*
X80968628Y-42657142D02*
X80968628Y-43038094D01*
X80778152Y-41609523D02*
X81444819Y-41609523D01*
X80397200Y-41847618D02*
X81111485Y-42085713D01*
X81111485Y-42085713D02*
X81111485Y-41466666D01*
X53593333Y-44954819D02*
X53260000Y-44478628D01*
X53021905Y-44954819D02*
X53021905Y-43954819D01*
X53021905Y-43954819D02*
X53402857Y-43954819D01*
X53402857Y-43954819D02*
X53498095Y-44002438D01*
X53498095Y-44002438D02*
X53545714Y-44050057D01*
X53545714Y-44050057D02*
X53593333Y-44145295D01*
X53593333Y-44145295D02*
X53593333Y-44288152D01*
X53593333Y-44288152D02*
X53545714Y-44383390D01*
X53545714Y-44383390D02*
X53498095Y-44431009D01*
X53498095Y-44431009D02*
X53402857Y-44478628D01*
X53402857Y-44478628D02*
X53021905Y-44478628D01*
X54545714Y-44954819D02*
X53974286Y-44954819D01*
X54260000Y-44954819D02*
X54260000Y-43954819D01*
X54260000Y-43954819D02*
X54164762Y-44097676D01*
X54164762Y-44097676D02*
X54069524Y-44192914D01*
X54069524Y-44192914D02*
X53974286Y-44240533D01*
X53593333Y-50704819D02*
X53260000Y-50228628D01*
X53021905Y-50704819D02*
X53021905Y-49704819D01*
X53021905Y-49704819D02*
X53402857Y-49704819D01*
X53402857Y-49704819D02*
X53498095Y-49752438D01*
X53498095Y-49752438D02*
X53545714Y-49800057D01*
X53545714Y-49800057D02*
X53593333Y-49895295D01*
X53593333Y-49895295D02*
X53593333Y-50038152D01*
X53593333Y-50038152D02*
X53545714Y-50133390D01*
X53545714Y-50133390D02*
X53498095Y-50181009D01*
X53498095Y-50181009D02*
X53402857Y-50228628D01*
X53402857Y-50228628D02*
X53021905Y-50228628D01*
X53974286Y-49800057D02*
X54021905Y-49752438D01*
X54021905Y-49752438D02*
X54117143Y-49704819D01*
X54117143Y-49704819D02*
X54355238Y-49704819D01*
X54355238Y-49704819D02*
X54450476Y-49752438D01*
X54450476Y-49752438D02*
X54498095Y-49800057D01*
X54498095Y-49800057D02*
X54545714Y-49895295D01*
X54545714Y-49895295D02*
X54545714Y-49990533D01*
X54545714Y-49990533D02*
X54498095Y-50133390D01*
X54498095Y-50133390D02*
X53926667Y-50704819D01*
X53926667Y-50704819D02*
X54545714Y-50704819D01*
X53593333Y-42109580D02*
X53545714Y-42157200D01*
X53545714Y-42157200D02*
X53402857Y-42204819D01*
X53402857Y-42204819D02*
X53307619Y-42204819D01*
X53307619Y-42204819D02*
X53164762Y-42157200D01*
X53164762Y-42157200D02*
X53069524Y-42061961D01*
X53069524Y-42061961D02*
X53021905Y-41966723D01*
X53021905Y-41966723D02*
X52974286Y-41776247D01*
X52974286Y-41776247D02*
X52974286Y-41633390D01*
X52974286Y-41633390D02*
X53021905Y-41442914D01*
X53021905Y-41442914D02*
X53069524Y-41347676D01*
X53069524Y-41347676D02*
X53164762Y-41252438D01*
X53164762Y-41252438D02*
X53307619Y-41204819D01*
X53307619Y-41204819D02*
X53402857Y-41204819D01*
X53402857Y-41204819D02*
X53545714Y-41252438D01*
X53545714Y-41252438D02*
X53593333Y-41300057D01*
X54450476Y-41538152D02*
X54450476Y-42204819D01*
X54212381Y-41157200D02*
X53974286Y-41871485D01*
X53974286Y-41871485D02*
X54593333Y-41871485D01*
X78933466Y-81772819D02*
X78933466Y-82487104D01*
X78933466Y-82487104D02*
X78885847Y-82629961D01*
X78885847Y-82629961D02*
X78790609Y-82725200D01*
X78790609Y-82725200D02*
X78647752Y-82772819D01*
X78647752Y-82772819D02*
X78552514Y-82772819D01*
X79933466Y-82772819D02*
X79362038Y-82772819D01*
X79647752Y-82772819D02*
X79647752Y-81772819D01*
X79647752Y-81772819D02*
X79552514Y-81915676D01*
X79552514Y-81915676D02*
X79457276Y-82010914D01*
X79457276Y-82010914D02*
X79362038Y-82058533D01*
D13*
%TO.C,J5*%
X82184000Y-45650000D02*
X82184000Y-93970000D01*
X82184000Y-45650000D02*
X84844000Y-45650000D01*
X82184000Y-93970000D02*
X84844000Y-93970000D01*
X83514000Y-43050000D02*
X84844000Y-43050000D01*
X84844000Y-43050000D02*
X84844000Y-44380000D01*
X84844000Y-45650000D02*
X84844000Y-93970000D01*
%TO.C,C7*%
X45432918Y-60675000D02*
X46682918Y-60675000D01*
X46057918Y-60050000D02*
X46057918Y-61300000D01*
X52250000Y-57920000D02*
X52250000Y-70580000D01*
X52290000Y-57920000D02*
X52290000Y-70580000D01*
X52330000Y-57921000D02*
X52330000Y-70579000D01*
X52370000Y-57921000D02*
X52370000Y-70579000D01*
X52410000Y-57922000D02*
X52410000Y-70578000D01*
X52450000Y-57923000D02*
X52450000Y-70577000D01*
X52490000Y-57925000D02*
X52490000Y-70575000D01*
X52530000Y-57926000D02*
X52530000Y-70574000D01*
X52570000Y-57928000D02*
X52570000Y-70572000D01*
X52610000Y-57930000D02*
X52610000Y-70570000D01*
X52650000Y-57933000D02*
X52650000Y-70567000D01*
X52690000Y-57935000D02*
X52690000Y-70565000D01*
X52730000Y-57938000D02*
X52730000Y-70562000D01*
X52770000Y-57941000D02*
X52770000Y-70559000D01*
X52810000Y-57945000D02*
X52810000Y-70555000D01*
X52850000Y-57948000D02*
X52850000Y-70552000D01*
X52890000Y-57952000D02*
X52890000Y-70548000D01*
X52930000Y-57956000D02*
X52930000Y-70544000D01*
X52970000Y-57961000D02*
X52970000Y-70539000D01*
X53010000Y-57966000D02*
X53010000Y-70534000D01*
X53050000Y-57970000D02*
X53050000Y-70530000D01*
X53090000Y-57976000D02*
X53090000Y-70524000D01*
X53130000Y-57981000D02*
X53130000Y-70519000D01*
X53170000Y-57987000D02*
X53170000Y-70513000D01*
X53210000Y-57993000D02*
X53210000Y-70507000D01*
X53250000Y-57999000D02*
X53250000Y-70501000D01*
X53290000Y-58005000D02*
X53290000Y-70495000D01*
X53330000Y-58012000D02*
X53330000Y-62810000D01*
X53330000Y-65690000D02*
X53330000Y-70488000D01*
X53370000Y-58019000D02*
X53370000Y-62810000D01*
X53370000Y-65690000D02*
X53370000Y-70481000D01*
X53410000Y-58027000D02*
X53410000Y-62810000D01*
X53410000Y-65690000D02*
X53410000Y-70473000D01*
X53450000Y-58034000D02*
X53450000Y-62810000D01*
X53450000Y-65690000D02*
X53450000Y-70466000D01*
X53490000Y-58042000D02*
X53490000Y-62810000D01*
X53490000Y-65690000D02*
X53490000Y-70458000D01*
X53530000Y-58050000D02*
X53530000Y-62810000D01*
X53530000Y-65690000D02*
X53530000Y-70450000D01*
X53570000Y-58058000D02*
X53570000Y-62810000D01*
X53570000Y-65690000D02*
X53570000Y-70442000D01*
X53610000Y-58067000D02*
X53610000Y-62810000D01*
X53610000Y-65690000D02*
X53610000Y-70433000D01*
X53650000Y-58076000D02*
X53650000Y-62810000D01*
X53650000Y-65690000D02*
X53650000Y-70424000D01*
X53690000Y-58085000D02*
X53690000Y-62810000D01*
X53690000Y-65690000D02*
X53690000Y-70415000D01*
X53730000Y-58094000D02*
X53730000Y-62810000D01*
X53730000Y-65690000D02*
X53730000Y-70406000D01*
X53770000Y-58104000D02*
X53770000Y-62810000D01*
X53770000Y-65690000D02*
X53770000Y-70396000D01*
X53810000Y-58114000D02*
X53810000Y-62810000D01*
X53810000Y-65690000D02*
X53810000Y-70386000D01*
X53850000Y-58124000D02*
X53850000Y-62810000D01*
X53850000Y-65690000D02*
X53850000Y-70376000D01*
X53890000Y-58135000D02*
X53890000Y-62810000D01*
X53890000Y-65690000D02*
X53890000Y-70365000D01*
X53930000Y-58146000D02*
X53930000Y-62810000D01*
X53930000Y-65690000D02*
X53930000Y-70354000D01*
X53970000Y-58157000D02*
X53970000Y-62810000D01*
X53970000Y-65690000D02*
X53970000Y-70343000D01*
X54010000Y-58168000D02*
X54010000Y-62810000D01*
X54010000Y-65690000D02*
X54010000Y-70332000D01*
X54050000Y-58180000D02*
X54050000Y-62810000D01*
X54050000Y-65690000D02*
X54050000Y-70320000D01*
X54090000Y-58192000D02*
X54090000Y-62810000D01*
X54090000Y-65690000D02*
X54090000Y-70308000D01*
X54130000Y-58204000D02*
X54130000Y-62810000D01*
X54130000Y-65690000D02*
X54130000Y-70296000D01*
X54170000Y-58216000D02*
X54170000Y-62810000D01*
X54170000Y-65690000D02*
X54170000Y-70284000D01*
X54210000Y-58229000D02*
X54210000Y-62810000D01*
X54210000Y-65690000D02*
X54210000Y-70271000D01*
X54250000Y-58242000D02*
X54250000Y-62810000D01*
X54250000Y-65690000D02*
X54250000Y-70258000D01*
X54290000Y-58255000D02*
X54290000Y-62810000D01*
X54290000Y-65690000D02*
X54290000Y-70245000D01*
X54330000Y-58269000D02*
X54330000Y-62810000D01*
X54330000Y-65690000D02*
X54330000Y-70231000D01*
X54370000Y-58283000D02*
X54370000Y-62810000D01*
X54370000Y-65690000D02*
X54370000Y-70217000D01*
X54410000Y-58297000D02*
X54410000Y-62810000D01*
X54410000Y-65690000D02*
X54410000Y-70203000D01*
X54450000Y-58312000D02*
X54450000Y-62810000D01*
X54450000Y-65690000D02*
X54450000Y-70188000D01*
X54490000Y-58327000D02*
X54490000Y-62810000D01*
X54490000Y-65690000D02*
X54490000Y-70173000D01*
X54530000Y-58342000D02*
X54530000Y-62810000D01*
X54530000Y-65690000D02*
X54530000Y-70158000D01*
X54570000Y-58358000D02*
X54570000Y-62810000D01*
X54570000Y-65690000D02*
X54570000Y-70142000D01*
X54610000Y-58373000D02*
X54610000Y-62810000D01*
X54610000Y-65690000D02*
X54610000Y-70127000D01*
X54650000Y-58389000D02*
X54650000Y-62810000D01*
X54650000Y-65690000D02*
X54650000Y-70111000D01*
X54690000Y-58406000D02*
X54690000Y-62810000D01*
X54690000Y-65690000D02*
X54690000Y-70094000D01*
X54730000Y-58423000D02*
X54730000Y-62810000D01*
X54730000Y-65690000D02*
X54730000Y-70077000D01*
X54770000Y-58440000D02*
X54770000Y-62810000D01*
X54770000Y-65690000D02*
X54770000Y-70060000D01*
X54810000Y-58457000D02*
X54810000Y-62810000D01*
X54810000Y-65690000D02*
X54810000Y-70043000D01*
X54850000Y-58475000D02*
X54850000Y-62810000D01*
X54850000Y-65690000D02*
X54850000Y-70025000D01*
X54890000Y-58493000D02*
X54890000Y-62810000D01*
X54890000Y-65690000D02*
X54890000Y-70007000D01*
X54930000Y-58511000D02*
X54930000Y-62810000D01*
X54930000Y-65690000D02*
X54930000Y-69989000D01*
X54970000Y-58530000D02*
X54970000Y-62810000D01*
X54970000Y-65690000D02*
X54970000Y-69970000D01*
X55010000Y-58549000D02*
X55010000Y-62810000D01*
X55010000Y-65690000D02*
X55010000Y-69951000D01*
X55050000Y-58568000D02*
X55050000Y-62810000D01*
X55050000Y-65690000D02*
X55050000Y-69932000D01*
X55090000Y-58588000D02*
X55090000Y-62810000D01*
X55090000Y-65690000D02*
X55090000Y-69912000D01*
X55130000Y-58608000D02*
X55130000Y-62810000D01*
X55130000Y-65690000D02*
X55130000Y-69892000D01*
X55170000Y-58629000D02*
X55170000Y-62810000D01*
X55170000Y-65690000D02*
X55170000Y-69871000D01*
X55210000Y-58649000D02*
X55210000Y-62810000D01*
X55210000Y-65690000D02*
X55210000Y-69851000D01*
X55250000Y-58671000D02*
X55250000Y-62810000D01*
X55250000Y-65690000D02*
X55250000Y-69829000D01*
X55290000Y-58692000D02*
X55290000Y-62810000D01*
X55290000Y-65690000D02*
X55290000Y-69808000D01*
X55330000Y-58714000D02*
X55330000Y-62810000D01*
X55330000Y-65690000D02*
X55330000Y-69786000D01*
X55370000Y-58736000D02*
X55370000Y-62810000D01*
X55370000Y-65690000D02*
X55370000Y-69764000D01*
X55410000Y-58759000D02*
X55410000Y-62810000D01*
X55410000Y-65690000D02*
X55410000Y-69741000D01*
X55450000Y-58782000D02*
X55450000Y-62810000D01*
X55450000Y-65690000D02*
X55450000Y-69718000D01*
X55490000Y-58806000D02*
X55490000Y-62810000D01*
X55490000Y-65690000D02*
X55490000Y-69694000D01*
X55530000Y-58829000D02*
X55530000Y-62810000D01*
X55530000Y-65690000D02*
X55530000Y-69671000D01*
X55570000Y-58854000D02*
X55570000Y-62810000D01*
X55570000Y-65690000D02*
X55570000Y-69646000D01*
X55610000Y-58878000D02*
X55610000Y-62810000D01*
X55610000Y-65690000D02*
X55610000Y-69622000D01*
X55650000Y-58903000D02*
X55650000Y-62810000D01*
X55650000Y-65690000D02*
X55650000Y-69597000D01*
X55690000Y-58929000D02*
X55690000Y-62810000D01*
X55690000Y-65690000D02*
X55690000Y-69571000D01*
X55730000Y-58955000D02*
X55730000Y-62810000D01*
X55730000Y-65690000D02*
X55730000Y-69545000D01*
X55770000Y-58981000D02*
X55770000Y-62810000D01*
X55770000Y-65690000D02*
X55770000Y-69519000D01*
X55810000Y-59008000D02*
X55810000Y-62810000D01*
X55810000Y-65690000D02*
X55810000Y-69492000D01*
X55850000Y-59035000D02*
X55850000Y-62810000D01*
X55850000Y-65690000D02*
X55850000Y-69465000D01*
X55890000Y-59062000D02*
X55890000Y-62810000D01*
X55890000Y-65690000D02*
X55890000Y-69438000D01*
X55930000Y-59091000D02*
X55930000Y-62810000D01*
X55930000Y-65690000D02*
X55930000Y-69409000D01*
X55970000Y-59119000D02*
X55970000Y-62810000D01*
X55970000Y-65690000D02*
X55970000Y-69381000D01*
X56010000Y-59148000D02*
X56010000Y-62810000D01*
X56010000Y-65690000D02*
X56010000Y-69352000D01*
X56050000Y-59178000D02*
X56050000Y-62810000D01*
X56050000Y-65690000D02*
X56050000Y-69322000D01*
X56090000Y-59208000D02*
X56090000Y-62810000D01*
X56090000Y-65690000D02*
X56090000Y-69292000D01*
X56130000Y-59238000D02*
X56130000Y-62810000D01*
X56130000Y-65690000D02*
X56130000Y-69262000D01*
X56170000Y-59269000D02*
X56170000Y-62810000D01*
X56170000Y-65690000D02*
X56170000Y-69231000D01*
X56210000Y-59300000D02*
X56210000Y-69200000D01*
X56250000Y-59332000D02*
X56250000Y-69168000D01*
X56290000Y-59365000D02*
X56290000Y-69135000D01*
X56330000Y-59398000D02*
X56330000Y-69102000D01*
X56370000Y-59432000D02*
X56370000Y-69068000D01*
X56410000Y-59466000D02*
X56410000Y-69034000D01*
X56450000Y-59501000D02*
X56450000Y-68999000D01*
X56490000Y-59536000D02*
X56490000Y-68964000D01*
X56530000Y-59572000D02*
X56530000Y-68928000D01*
X56570000Y-59609000D02*
X56570000Y-68891000D01*
X56610000Y-59646000D02*
X56610000Y-68854000D01*
X56650000Y-59684000D02*
X56650000Y-68816000D01*
X56690000Y-59722000D02*
X56690000Y-68778000D01*
X56730000Y-59762000D02*
X56730000Y-68738000D01*
X56770000Y-59802000D02*
X56770000Y-68698000D01*
X56810000Y-59842000D02*
X56810000Y-68658000D01*
X56850000Y-59884000D02*
X56850000Y-68616000D01*
X56890000Y-59926000D02*
X56890000Y-68574000D01*
X56930000Y-59969000D02*
X56930000Y-68531000D01*
X56970000Y-60012000D02*
X56970000Y-68488000D01*
X57010000Y-60057000D02*
X57010000Y-68443000D01*
X57050000Y-60102000D02*
X57050000Y-68398000D01*
X57090000Y-60149000D02*
X57090000Y-68351000D01*
X57130000Y-60196000D02*
X57130000Y-68304000D01*
X57170000Y-60244000D02*
X57170000Y-68256000D01*
X57210000Y-60293000D02*
X57210000Y-68207000D01*
X57250000Y-60343000D02*
X57250000Y-68157000D01*
X57290000Y-60394000D02*
X57290000Y-68106000D01*
X57330000Y-60447000D02*
X57330000Y-68053000D01*
X57370000Y-60500000D02*
X57370000Y-68000000D01*
X57410000Y-60555000D02*
X57410000Y-67945000D01*
X57450000Y-60611000D02*
X57450000Y-67889000D01*
X57490000Y-60668000D02*
X57490000Y-67832000D01*
X57530000Y-60727000D02*
X57530000Y-67773000D01*
X57570000Y-60787000D02*
X57570000Y-67713000D01*
X57610000Y-60848000D02*
X57610000Y-67652000D01*
X57650000Y-60911000D02*
X57650000Y-67589000D01*
X57690000Y-60976000D02*
X57690000Y-67524000D01*
X57730000Y-61042000D02*
X57730000Y-67458000D01*
X57770000Y-61111000D02*
X57770000Y-67389000D01*
X57810000Y-61181000D02*
X57810000Y-67319000D01*
X57850000Y-61254000D02*
X57850000Y-67246000D01*
X57890000Y-61329000D02*
X57890000Y-67171000D01*
X57930000Y-61407000D02*
X57930000Y-67093000D01*
X57970000Y-61487000D02*
X57970000Y-67013000D01*
X58010000Y-61570000D02*
X58010000Y-66930000D01*
X58050000Y-61656000D02*
X58050000Y-66844000D01*
X58090000Y-61746000D02*
X58090000Y-66754000D01*
X58130000Y-61840000D02*
X58130000Y-66660000D01*
X58170000Y-61938000D02*
X58170000Y-66562000D01*
X58210000Y-62042000D02*
X58210000Y-66458000D01*
X58250000Y-62151000D02*
X58250000Y-66349000D01*
X58290000Y-62266000D02*
X58290000Y-66234000D01*
X58330000Y-62390000D02*
X58330000Y-66110000D01*
X58370000Y-62523000D02*
X58370000Y-65977000D01*
X58410000Y-62668000D02*
X58410000Y-65832000D01*
X58450000Y-62828000D02*
X58450000Y-65672000D01*
X58490000Y-63010000D02*
X58490000Y-65490000D01*
X58530000Y-63223000D02*
X58530000Y-65277000D01*
X58570000Y-63493000D02*
X58570000Y-65007000D01*
X58610000Y-63933000D02*
X58610000Y-64567000D01*
X58620000Y-64250000D02*
G75*
G02*
X45880000Y-64250000I-6370000J0D01*
G01*
X45880000Y-64250000D02*
G75*
G02*
X58620000Y-64250000I6370000J0D01*
G01*
%TO.C,L1*%
X46800000Y-82250000D02*
X46800000Y-85000000D01*
X46800000Y-91000000D02*
X46800000Y-93750000D01*
X47200000Y-81850000D02*
X58700000Y-81850000D01*
X58700000Y-94150000D02*
X47200000Y-94150000D01*
X59100000Y-82250000D02*
X59100000Y-85000000D01*
X59100000Y-91000000D02*
X59100000Y-93750000D01*
X46800000Y-82250000D02*
G75*
G02*
X47200000Y-81850000I399999J1D01*
G01*
X47200000Y-94150000D02*
G75*
G02*
X46800000Y-93750000I-1J399999D01*
G01*
X58700000Y-81850000D02*
G75*
G02*
X59100000Y-82250000I0J-400000D01*
G01*
X59100000Y-93750000D02*
G75*
G02*
X58700000Y-94150000I-400000J0D01*
G01*
%TO.C,D2*%
X46840000Y-71600000D02*
X46840000Y-75900000D01*
X46840000Y-71600000D02*
X52650000Y-71600000D01*
X46840000Y-75900000D02*
X52650000Y-75900000D01*
D14*
%TO.C,G\u002A\u002A\u002A*%
G36*
X73195722Y-90177412D02*
G01*
X73221506Y-90188996D01*
X73228724Y-90197189D01*
X73238468Y-90227923D01*
X73229555Y-90256491D01*
X73202256Y-90282469D01*
X73159044Y-90304568D01*
X73128198Y-90314547D01*
X73109482Y-90312525D01*
X73098848Y-90296485D01*
X73093382Y-90271859D01*
X73088390Y-90233050D01*
X73089501Y-90208361D01*
X73098034Y-90193516D01*
X73115308Y-90184227D01*
X73120980Y-90182326D01*
X73160451Y-90174944D01*
X73195722Y-90177412D01*
G37*
G36*
X73149216Y-90005792D02*
G01*
X73169173Y-90013082D01*
X73176579Y-90028265D01*
X73177350Y-90041063D01*
X73174152Y-90062735D01*
X73161285Y-90080961D01*
X73141066Y-90097527D01*
X73116458Y-90113263D01*
X73096185Y-90122248D01*
X73090150Y-90123128D01*
X73078716Y-90114124D01*
X73066215Y-90092776D01*
X73061065Y-90080025D01*
X73052360Y-90052850D01*
X73047450Y-90032660D01*
X73047012Y-90027841D01*
X73056107Y-90018645D01*
X73077960Y-90010735D01*
X73106316Y-90005460D01*
X73134921Y-90004172D01*
X73149216Y-90005792D01*
G37*
G36*
X70668356Y-89710224D02*
G01*
X70670874Y-89735355D01*
X70668157Y-89773305D01*
X70660225Y-89821352D01*
X70659564Y-89824596D01*
X70652458Y-89859314D01*
X70646980Y-89886555D01*
X70644165Y-89901153D01*
X70644034Y-89901961D01*
X70636413Y-89907286D01*
X70635999Y-89907190D01*
X70623686Y-89903997D01*
X70598826Y-89897576D01*
X70573013Y-89890917D01*
X70543139Y-89882943D01*
X70521903Y-89876763D01*
X70514602Y-89874062D01*
X70518818Y-89865917D01*
X70532789Y-89847035D01*
X70553613Y-89820866D01*
X70578384Y-89790860D01*
X70604199Y-89760466D01*
X70628154Y-89733132D01*
X70647350Y-89712309D01*
X70658878Y-89701445D01*
X70660579Y-89700634D01*
X70668356Y-89710224D01*
G37*
G36*
X70036034Y-89090954D02*
G01*
X70118079Y-89095762D01*
X70203545Y-89103977D01*
X70287430Y-89115158D01*
X70364739Y-89128865D01*
X70403575Y-89137548D01*
X70568811Y-89184584D01*
X70741942Y-89246394D01*
X70920350Y-89321904D01*
X71101421Y-89410048D01*
X71201989Y-89463963D01*
X71308769Y-89522554D01*
X71401990Y-89572322D01*
X71484278Y-89614424D01*
X71558255Y-89650018D01*
X71626543Y-89680263D01*
X71691767Y-89706319D01*
X71756552Y-89729342D01*
X71823516Y-89750490D01*
X71895287Y-89770921D01*
X71900231Y-89772265D01*
X71939181Y-89782503D01*
X71974803Y-89790902D01*
X72010391Y-89797940D01*
X72049238Y-89804097D01*
X72094634Y-89809848D01*
X72149875Y-89815675D01*
X72218249Y-89822050D01*
X72281850Y-89827628D01*
X72363655Y-89834517D01*
X72429950Y-89839586D01*
X72484146Y-89842941D01*
X72529647Y-89844683D01*
X72569857Y-89844915D01*
X72608189Y-89843744D01*
X72648044Y-89841271D01*
X72671177Y-89839448D01*
X72917071Y-89810108D01*
X73156882Y-89763430D01*
X73389624Y-89699663D01*
X73614317Y-89619051D01*
X73709494Y-89578704D01*
X73748783Y-89561859D01*
X73781356Y-89549061D01*
X73803561Y-89541672D01*
X73811638Y-89540736D01*
X73808036Y-89549924D01*
X73795493Y-89572848D01*
X73775349Y-89607248D01*
X73748943Y-89650869D01*
X73717617Y-89701452D01*
X73693482Y-89739784D01*
X73659540Y-89793957D01*
X73629659Y-89842831D01*
X73605162Y-89884134D01*
X73587388Y-89915593D01*
X73577659Y-89934935D01*
X73576346Y-89940043D01*
X73586997Y-89942699D01*
X73613912Y-89946591D01*
X73654405Y-89951412D01*
X73705794Y-89956858D01*
X73765390Y-89962619D01*
X73807608Y-89966422D01*
X73870650Y-89972223D01*
X73926796Y-89977938D01*
X73973468Y-89983263D01*
X74008087Y-89987885D01*
X74028074Y-89991498D01*
X74031993Y-89993210D01*
X74023507Y-90002939D01*
X74001198Y-90021661D01*
X73967124Y-90047921D01*
X73923346Y-90080264D01*
X73871923Y-90117235D01*
X73814913Y-90157379D01*
X73754378Y-90199243D01*
X73692379Y-90241372D01*
X73630975Y-90282310D01*
X73572225Y-90320604D01*
X73533363Y-90345320D01*
X73327064Y-90468785D01*
X73127684Y-90575683D01*
X72935453Y-90665921D01*
X72750603Y-90739408D01*
X72573363Y-90796050D01*
X72403966Y-90835756D01*
X72258596Y-90856912D01*
X72194600Y-90860006D01*
X72115121Y-90858417D01*
X72023013Y-90852477D01*
X71921132Y-90842522D01*
X71812331Y-90828890D01*
X71699462Y-90811913D01*
X71585382Y-90791930D01*
X71472944Y-90769275D01*
X71427425Y-90759165D01*
X71370935Y-90745966D01*
X71317123Y-90732689D01*
X71264365Y-90718774D01*
X71211029Y-90703659D01*
X71155490Y-90686786D01*
X71096117Y-90667592D01*
X71031284Y-90645517D01*
X70959361Y-90620001D01*
X70878720Y-90590486D01*
X70787732Y-90556407D01*
X70684771Y-90517206D01*
X70568205Y-90472323D01*
X70436410Y-90421196D01*
X70429730Y-90418595D01*
X71139367Y-90418595D01*
X71141229Y-90434438D01*
X71152351Y-90444061D01*
X71169237Y-90449199D01*
X71196501Y-90445806D01*
X71228100Y-90427295D01*
X71261508Y-90396273D01*
X71294194Y-90355353D01*
X71323632Y-90307145D01*
X71339899Y-90272966D01*
X71354444Y-90260658D01*
X71370693Y-90258961D01*
X71388600Y-90261338D01*
X71394492Y-90263429D01*
X71395382Y-90273213D01*
X71397925Y-90298330D01*
X71401763Y-90335204D01*
X71406521Y-90380263D01*
X71407608Y-90390484D01*
X71414079Y-90446898D01*
X71420227Y-90487473D01*
X71427050Y-90515336D01*
X71435544Y-90533617D01*
X71446709Y-90545438D01*
X71459448Y-90552942D01*
X71477196Y-90558527D01*
X71494342Y-90554324D01*
X71515722Y-90540675D01*
X71529952Y-90519467D01*
X71536550Y-90483597D01*
X71535665Y-90435751D01*
X71527448Y-90378613D01*
X71517880Y-90339004D01*
X71887390Y-90339004D01*
X71888058Y-90408803D01*
X71897920Y-90474683D01*
X71916922Y-90532446D01*
X71945008Y-90577904D01*
X71946833Y-90579984D01*
X71985749Y-90609908D01*
X72033693Y-90625570D01*
X72086228Y-90626134D01*
X72129911Y-90614621D01*
X72153961Y-90599145D01*
X72170052Y-90577795D01*
X72177413Y-90554974D01*
X72175281Y-90535088D01*
X72162882Y-90522538D01*
X72146329Y-90520595D01*
X72118418Y-90523472D01*
X72087126Y-90526757D01*
X72087089Y-90526761D01*
X72051284Y-90521882D01*
X72020252Y-90498963D01*
X71993719Y-90457778D01*
X71987169Y-90443200D01*
X71977570Y-90406433D01*
X71973868Y-90360638D01*
X71975603Y-90311502D01*
X71982313Y-90264709D01*
X71993537Y-90225947D01*
X72006608Y-90203193D01*
X72036364Y-90182534D01*
X72071656Y-90178904D01*
X72108963Y-90192612D01*
X72111165Y-90193977D01*
X72134990Y-90205650D01*
X72148779Y-90202126D01*
X72155263Y-90182292D01*
X72155975Y-90175711D01*
X72153217Y-90159311D01*
X72268567Y-90159311D01*
X72268717Y-90212903D01*
X72270853Y-90267535D01*
X72273477Y-90323807D01*
X72275808Y-90379087D01*
X72277639Y-90427882D01*
X72278747Y-90464699D01*
X72278898Y-90472011D01*
X72280436Y-90508356D01*
X72283362Y-90540088D01*
X72286399Y-90557507D01*
X72290967Y-90569914D01*
X72299166Y-90576875D01*
X72315662Y-90579913D01*
X72345120Y-90580541D01*
X72357008Y-90580490D01*
X72400673Y-90578331D01*
X72451266Y-90573095D01*
X72493713Y-90566613D01*
X72538716Y-90557313D01*
X72568015Y-90548429D01*
X72584819Y-90538410D01*
X72592332Y-90525714D01*
X72593558Y-90518477D01*
X72590334Y-90503414D01*
X72576059Y-90494430D01*
X72548616Y-90491111D01*
X72505895Y-90493039D01*
X72478463Y-90495805D01*
X72429739Y-90500107D01*
X72396764Y-90499210D01*
X72376686Y-90491849D01*
X72366652Y-90476761D01*
X72363813Y-90452685D01*
X72363893Y-90445082D01*
X72364896Y-90343888D01*
X72362442Y-90257447D01*
X72356642Y-90186435D01*
X72347608Y-90131539D01*
X72338250Y-90102229D01*
X72576657Y-90102229D01*
X72576957Y-90105936D01*
X72581356Y-90140015D01*
X72588950Y-90184261D01*
X72598745Y-90234137D01*
X72609745Y-90285102D01*
X72620954Y-90332615D01*
X72631376Y-90372138D01*
X72640014Y-90399130D01*
X72642559Y-90405031D01*
X72672534Y-90445650D01*
X72713322Y-90474461D01*
X72760389Y-90489693D01*
X72809206Y-90489575D01*
X72837654Y-90481315D01*
X72859738Y-90463345D01*
X72881184Y-90429779D01*
X72899881Y-90383976D01*
X72900883Y-90380864D01*
X72906547Y-90349642D01*
X72909173Y-90304805D01*
X72908855Y-90251489D01*
X72905693Y-90194832D01*
X72899785Y-90139972D01*
X72895858Y-90114974D01*
X72887572Y-90087363D01*
X72873778Y-90058122D01*
X72857798Y-90032921D01*
X72842957Y-90017434D01*
X72838364Y-90015543D01*
X72979877Y-90015543D01*
X72981458Y-90035610D01*
X72986076Y-90065457D01*
X72993986Y-90107730D01*
X73005443Y-90165073D01*
X73010160Y-90188310D01*
X73022125Y-90245208D01*
X73033504Y-90295708D01*
X73043562Y-90336845D01*
X73051573Y-90365651D01*
X73056805Y-90379159D01*
X73057258Y-90379648D01*
X73077558Y-90384733D01*
X73111382Y-90381367D01*
X73155463Y-90370004D01*
X73176680Y-90362804D01*
X73231385Y-90336348D01*
X73269879Y-90302829D01*
X73291287Y-90263133D01*
X73295221Y-90242339D01*
X73291300Y-90198244D01*
X73274008Y-90157087D01*
X73246438Y-90125444D01*
X73237278Y-90119169D01*
X73222719Y-90109403D01*
X73218757Y-90099530D01*
X73224585Y-90082866D01*
X73231263Y-90069210D01*
X73245140Y-90026128D01*
X73244077Y-89986955D01*
X73229690Y-89954813D01*
X73203591Y-89932829D01*
X73167391Y-89924122D01*
X73156493Y-89924422D01*
X73121569Y-89930700D01*
X73080347Y-89943190D01*
X73039605Y-89959311D01*
X73006126Y-89976474D01*
X72990808Y-89987572D01*
X72984808Y-89994170D01*
X72981079Y-90002612D01*
X72979877Y-90015543D01*
X72838364Y-90015543D01*
X72837356Y-90015128D01*
X72825979Y-90021302D01*
X72812037Y-90035854D01*
X72802810Y-90049977D01*
X72799208Y-90065479D01*
X72800614Y-90088677D01*
X72804413Y-90113911D01*
X72811384Y-90167155D01*
X72815867Y-90223834D01*
X72817710Y-90278697D01*
X72816769Y-90326499D01*
X72812891Y-90361993D01*
X72811580Y-90367827D01*
X72796748Y-90399475D01*
X72774358Y-90415359D01*
X72747027Y-90414192D01*
X72732347Y-90406824D01*
X72721634Y-90397504D01*
X72712516Y-90383169D01*
X72704240Y-90361203D01*
X72696063Y-90328997D01*
X72687233Y-90283941D01*
X72677002Y-90223418D01*
X72673536Y-90201787D01*
X72663951Y-90145342D01*
X72655417Y-90104877D01*
X72647093Y-90077451D01*
X72638130Y-90060127D01*
X72630552Y-90052049D01*
X72615670Y-90044234D01*
X72600614Y-90049514D01*
X72590882Y-90057057D01*
X72578688Y-90074747D01*
X72576657Y-90102229D01*
X72338250Y-90102229D01*
X72335446Y-90093445D01*
X72320270Y-90072833D01*
X72303567Y-90069951D01*
X72288726Y-90078081D01*
X72278197Y-90094171D01*
X72271602Y-90120491D01*
X72268567Y-90159311D01*
X72153217Y-90159311D01*
X72150149Y-90141071D01*
X72129080Y-90109220D01*
X72127212Y-90107859D01*
X72096381Y-90085362D01*
X72091700Y-90083220D01*
X72053712Y-90076599D01*
X72013396Y-90085890D01*
X71975120Y-90109216D01*
X71943258Y-90144699D01*
X71941108Y-90148020D01*
X71913859Y-90204419D01*
X71895971Y-90269479D01*
X71887390Y-90339004D01*
X71517880Y-90339004D01*
X71512050Y-90314867D01*
X71509279Y-90305924D01*
X71501065Y-90279426D01*
X71481182Y-90219817D01*
X71527748Y-90179113D01*
X71580479Y-90129621D01*
X71616732Y-90087800D01*
X71636344Y-90053881D01*
X71639162Y-90028101D01*
X71635434Y-90019953D01*
X71620541Y-90010617D01*
X71596703Y-90013978D01*
X71562920Y-90030464D01*
X71518199Y-90060516D01*
X71484400Y-90086264D01*
X71401060Y-90151880D01*
X71411653Y-90105096D01*
X71425798Y-90039098D01*
X71434333Y-89988310D01*
X71435304Y-89974713D01*
X71437087Y-89949722D01*
X71433890Y-89920327D01*
X71424570Y-89897117D01*
X71409805Y-89878180D01*
X71408950Y-89877082D01*
X71398010Y-89866678D01*
X71373522Y-89844943D01*
X71351496Y-89863425D01*
X71340477Y-89875564D01*
X71331629Y-89893542D01*
X71323613Y-89921299D01*
X71315083Y-89962783D01*
X71312158Y-89978849D01*
X71296683Y-90057526D01*
X71280100Y-90122731D01*
X71260431Y-90179979D01*
X71235709Y-90234790D01*
X71203948Y-90292682D01*
X71193428Y-90310357D01*
X71165058Y-90358897D01*
X71147174Y-90394197D01*
X71139367Y-90418595D01*
X70429730Y-90418595D01*
X70366774Y-90394083D01*
X70283107Y-90362151D01*
X70217405Y-90337935D01*
X70193056Y-90328960D01*
X70100404Y-90295820D01*
X70008934Y-90264038D01*
X69922429Y-90234922D01*
X69844674Y-90209780D01*
X69779454Y-90189918D01*
X69760097Y-90184404D01*
X69694617Y-90168578D01*
X69617367Y-90153710D01*
X69534131Y-90140602D01*
X69450702Y-90130057D01*
X69372863Y-90122881D01*
X69306405Y-90119875D01*
X69295177Y-90119843D01*
X69222829Y-90120291D01*
X69208394Y-90168359D01*
X69184266Y-90259182D01*
X69161777Y-90364444D01*
X69141813Y-90479580D01*
X69126497Y-90589831D01*
X69105936Y-90757408D01*
X69036333Y-90751317D01*
X68999554Y-90747363D01*
X68978307Y-90742793D01*
X68969123Y-90736557D01*
X68968007Y-90730651D01*
X68971144Y-90708937D01*
X68977663Y-90672997D01*
X68986683Y-90627132D01*
X68997316Y-90575642D01*
X69008681Y-90522831D01*
X69019895Y-90472997D01*
X69027611Y-90440431D01*
X69074814Y-90265757D01*
X69130245Y-90096823D01*
X69133930Y-90087376D01*
X70298940Y-90087376D01*
X70304982Y-90103513D01*
X70314146Y-90116004D01*
X70324969Y-90118855D01*
X70344570Y-90113162D01*
X70351362Y-90110649D01*
X70380210Y-90093451D01*
X70410588Y-90064962D01*
X70420772Y-90052792D01*
X70455887Y-90007753D01*
X70513172Y-90018470D01*
X70544519Y-90025229D01*
X70567921Y-90031926D01*
X70577100Y-90036280D01*
X70577160Y-90048115D01*
X70570434Y-90071375D01*
X70561667Y-90093341D01*
X70543203Y-90136194D01*
X70532221Y-90165663D01*
X70528019Y-90185528D01*
X70529889Y-90199561D01*
X70537128Y-90211540D01*
X70539124Y-90213981D01*
X70560800Y-90229133D01*
X70586462Y-90226737D01*
X70617125Y-90206616D01*
X70625644Y-90198842D01*
X70647701Y-90169239D01*
X70662542Y-90139109D01*
X70807811Y-90139109D01*
X70809324Y-90204985D01*
X70821852Y-90262658D01*
X70845080Y-90310340D01*
X70878698Y-90346247D01*
X70922395Y-90368594D01*
X70953404Y-90374756D01*
X70985669Y-90373184D01*
X71013678Y-90365916D01*
X71038388Y-90348708D01*
X71052196Y-90325029D01*
X71052333Y-90300747D01*
X71048275Y-90292654D01*
X71032033Y-90281343D01*
X71007240Y-90274880D01*
X71006364Y-90274798D01*
X70971401Y-90263212D01*
X70950554Y-90247091D01*
X70937939Y-90232106D01*
X70930925Y-90215862D01*
X70928239Y-90192720D01*
X70928609Y-90157048D01*
X70928828Y-90150838D01*
X70936653Y-90088580D01*
X70954307Y-90024264D01*
X70979625Y-89963038D01*
X71010448Y-89910049D01*
X71044612Y-89870444D01*
X71047707Y-89867771D01*
X71076011Y-89854708D01*
X71107026Y-89856064D01*
X71133194Y-89871150D01*
X71137320Y-89875936D01*
X71159847Y-89894339D01*
X71184344Y-89897415D01*
X71205306Y-89885020D01*
X71210327Y-89877836D01*
X71217205Y-89848252D01*
X71211095Y-89813272D01*
X71193829Y-89779414D01*
X71177617Y-89761207D01*
X71147260Y-89744608D01*
X71106563Y-89735855D01*
X71062825Y-89735712D01*
X71023346Y-89744936D01*
X71022898Y-89745119D01*
X70981127Y-89770418D01*
X70939039Y-89810512D01*
X70900125Y-89861569D01*
X70872452Y-89910115D01*
X70839062Y-89989888D01*
X70817620Y-90066814D01*
X70807811Y-90139109D01*
X70662542Y-90139109D01*
X70668543Y-90126926D01*
X70670081Y-90123801D01*
X70691852Y-90065671D01*
X70712088Y-89997984D01*
X70729859Y-89923879D01*
X70744239Y-89846497D01*
X70754298Y-89768974D01*
X70755027Y-89761380D01*
X70759327Y-89696486D01*
X70758287Y-89646723D01*
X70751439Y-89608850D01*
X70738318Y-89579625D01*
X70726615Y-89564186D01*
X70700846Y-89546810D01*
X70671245Y-89548047D01*
X70637819Y-89567895D01*
X70600578Y-89606346D01*
X70559528Y-89663396D01*
X70549350Y-89679469D01*
X70529551Y-89710673D01*
X70501811Y-89753401D01*
X70468879Y-89803461D01*
X70433516Y-89856663D01*
X70405956Y-89897726D01*
X70373955Y-89945651D01*
X70345480Y-89989177D01*
X70322341Y-90025472D01*
X70306345Y-90051697D01*
X70299330Y-90064931D01*
X70298940Y-90087376D01*
X69133930Y-90087376D01*
X69195591Y-89929313D01*
X69227021Y-89859711D01*
X69727217Y-89859711D01*
X69728636Y-89883179D01*
X69737635Y-89899614D01*
X69747280Y-89907608D01*
X69775476Y-89915424D01*
X69807865Y-89905949D01*
X69843133Y-89880093D01*
X69879962Y-89838756D01*
X69908927Y-89796351D01*
X69952539Y-89725718D01*
X70031515Y-89764979D01*
X70066173Y-89782407D01*
X70093603Y-89796570D01*
X70109908Y-89805439D01*
X70112702Y-89807292D01*
X70111128Y-89817110D01*
X70105066Y-89840892D01*
X70095625Y-89874436D01*
X70089842Y-89894029D01*
X70078348Y-89934165D01*
X70069060Y-89969894D01*
X70063423Y-89995529D01*
X70062497Y-90001852D01*
X70066249Y-90030924D01*
X70082110Y-90047667D01*
X70107109Y-90051331D01*
X70114889Y-90048793D01*
X70138275Y-90041164D01*
X70160596Y-90026656D01*
X70175003Y-90014010D01*
X70187978Y-89998486D01*
X70201182Y-89977067D01*
X70216274Y-89946736D01*
X70234915Y-89904477D01*
X70257066Y-89851407D01*
X70280889Y-89792362D01*
X70305220Y-89730007D01*
X70327717Y-89670474D01*
X70346041Y-89619894D01*
X70351593Y-89603789D01*
X70385444Y-89503540D01*
X70368763Y-89476471D01*
X70351096Y-89456053D01*
X70331742Y-89444546D01*
X70331450Y-89444473D01*
X70308756Y-89443851D01*
X70286208Y-89454289D01*
X70261956Y-89477499D01*
X70234155Y-89515193D01*
X70205788Y-89560850D01*
X70182648Y-89598203D01*
X70161869Y-89628462D01*
X70145810Y-89648398D01*
X70137130Y-89654839D01*
X70122552Y-89650147D01*
X70097129Y-89639036D01*
X70070979Y-89626231D01*
X70017297Y-89598716D01*
X70024610Y-89510054D01*
X70027036Y-89450453D01*
X70022541Y-89405504D01*
X70010296Y-89371846D01*
X69989475Y-89346122D01*
X69982915Y-89340600D01*
X69955621Y-89329748D01*
X69926913Y-89334270D01*
X69903906Y-89352546D01*
X69899647Y-89359529D01*
X69892811Y-89376502D01*
X69882037Y-89407292D01*
X69868811Y-89447490D01*
X69854903Y-89491784D01*
X69836867Y-89547101D01*
X69814315Y-89611199D01*
X69790358Y-89675441D01*
X69771653Y-89722651D01*
X69748402Y-89781893D01*
X69733698Y-89826764D01*
X69727217Y-89859711D01*
X69227021Y-89859711D01*
X69246032Y-89817612D01*
X69272538Y-89758920D01*
X69362772Y-89581332D01*
X69365949Y-89575387D01*
X69395053Y-89522327D01*
X69429007Y-89462584D01*
X69465851Y-89399405D01*
X69503625Y-89336033D01*
X69540374Y-89275712D01*
X69574135Y-89221689D01*
X69602951Y-89177208D01*
X69624864Y-89145512D01*
X69627977Y-89141345D01*
X69648429Y-89119576D01*
X69666292Y-89109200D01*
X69678202Y-89111280D01*
X69681062Y-89124530D01*
X69685134Y-89135451D01*
X69696891Y-89134477D01*
X69805582Y-89107774D01*
X69902197Y-89093325D01*
X69962407Y-89089995D01*
X70036034Y-89090954D01*
G37*
D13*
%TO.C,U1*%
X58890000Y-33990000D02*
X58890000Y-39800000D01*
X58890000Y-33990000D02*
X77110000Y-33990000D01*
X58890000Y-53910000D02*
X58890000Y-54210000D01*
X58890000Y-54210000D02*
X77110000Y-54210000D01*
X77110000Y-33990000D02*
X77110000Y-40490000D01*
X77110000Y-53910000D02*
X77110000Y-54210000D01*
X58900000Y-40500000D02*
X58400000Y-40500000D01*
X58900000Y-40000000D01*
X58900000Y-40500000D01*
G36*
X58900000Y-40500000D02*
G01*
X58400000Y-40500000D01*
X58900000Y-40000000D01*
X58900000Y-40500000D01*
G37*
%TO.C,R3*%
X79037500Y-46045276D02*
X79037500Y-46554724D01*
X80082500Y-46045276D02*
X80082500Y-46554724D01*
D15*
%TO.C,F1*%
X45835000Y-41250000D02*
X52565000Y-41250000D01*
X45835000Y-57250000D02*
X45835000Y-41250000D01*
X52565000Y-41250000D02*
X52565000Y-57250000D01*
X52565000Y-57250000D02*
X45835000Y-57250000D01*
D13*
%TO.C,U2*%
X68165000Y-78785000D02*
X72285000Y-78785000D01*
X68165000Y-78880000D02*
X68165000Y-78785000D01*
X68165000Y-83905000D02*
X68165000Y-83810000D01*
X72285000Y-78785000D02*
X72285000Y-78880000D01*
X72285000Y-83810000D02*
X72285000Y-83905000D01*
X72285000Y-83905000D02*
X68165000Y-83905000D01*
X67625000Y-78875000D02*
X67385000Y-78545000D01*
X67865000Y-78545000D01*
X67625000Y-78875000D01*
G36*
X67625000Y-78875000D02*
G01*
X67385000Y-78545000D01*
X67865000Y-78545000D01*
X67625000Y-78875000D01*
G37*
%TO.C,C5*%
X68000000Y-69490000D02*
X69250000Y-69490000D01*
X68625000Y-68865000D02*
X68625000Y-70115000D01*
X69490000Y-68054437D02*
X69490000Y-70740000D01*
X69490000Y-68054437D02*
X70554437Y-66990000D01*
X69490000Y-76445563D02*
X69490000Y-73760000D01*
X69490000Y-76445563D02*
X70554437Y-77510000D01*
X70554437Y-66990000D02*
X80010000Y-66990000D01*
X70554437Y-77510000D02*
X80010000Y-77510000D01*
X80010000Y-66990000D02*
X80010000Y-70740000D01*
X80010000Y-77510000D02*
X80010000Y-73760000D01*
%TO.C,D1*%
X46740000Y-76350000D02*
X46740000Y-79650000D01*
X46740000Y-76350000D02*
X53750000Y-76350000D01*
X46740000Y-79650000D02*
X53750000Y-79650000D01*
D14*
%TO.C,G\u002A\u002A\u002A*%
G36*
X63657632Y-86395303D02*
G01*
X63697645Y-86414964D01*
X63758858Y-86472235D01*
X63795699Y-86542490D01*
X63808390Y-86618712D01*
X63797154Y-86693884D01*
X63762212Y-86760989D01*
X63703787Y-86813008D01*
X63684718Y-86823225D01*
X63618148Y-86843332D01*
X63545773Y-86847989D01*
X63491666Y-86838229D01*
X63461765Y-86820849D01*
X63427583Y-86793711D01*
X63370183Y-86722790D01*
X63344064Y-86645381D01*
X63349044Y-86566010D01*
X63384940Y-86489197D01*
X63442346Y-86426985D01*
X63506343Y-86393074D01*
X63582298Y-86382316D01*
X63657632Y-86395303D01*
G37*
G36*
X62609754Y-86450218D02*
G01*
X62682736Y-86485469D01*
X62740057Y-86542295D01*
X62776442Y-86612784D01*
X62786619Y-86689028D01*
X62783860Y-86711383D01*
X62757361Y-86776754D01*
X62708617Y-86838083D01*
X62647931Y-86884147D01*
X62611128Y-86899502D01*
X62569578Y-86910711D01*
X62543701Y-86913806D01*
X62516837Y-86908769D01*
X62485072Y-86899359D01*
X62421945Y-86866106D01*
X62365394Y-86811506D01*
X62327056Y-86747162D01*
X62324073Y-86738859D01*
X62314601Y-86662492D01*
X62333121Y-86589895D01*
X62374328Y-86526427D01*
X62432921Y-86477446D01*
X62503595Y-86448310D01*
X62581046Y-86444379D01*
X62609754Y-86450218D01*
G37*
G36*
X63405859Y-87064881D02*
G01*
X63429020Y-87070859D01*
X63445390Y-87080829D01*
X63459369Y-87094951D01*
X63468105Y-87105096D01*
X63501664Y-87164869D01*
X63503490Y-87225787D01*
X63473531Y-87282550D01*
X63469863Y-87286642D01*
X63445789Y-87307521D01*
X63413884Y-87322652D01*
X63366293Y-87334512D01*
X63295159Y-87345576D01*
X63274029Y-87348347D01*
X63178991Y-87359224D01*
X63071470Y-87369533D01*
X62972288Y-87377308D01*
X62957591Y-87378246D01*
X62798515Y-87387951D01*
X62753424Y-87334363D01*
X62716838Y-87274921D01*
X62712535Y-87219637D01*
X62740378Y-87164918D01*
X62746662Y-87157298D01*
X62763304Y-87139922D01*
X62782576Y-87126986D01*
X62810242Y-87117127D01*
X62852064Y-87108979D01*
X62913804Y-87101180D01*
X63001225Y-87092364D01*
X63034162Y-87089238D01*
X63157289Y-87077670D01*
X63251622Y-87069289D01*
X63321561Y-87064256D01*
X63371506Y-87062733D01*
X63405859Y-87064881D01*
G37*
G36*
X64811878Y-89765801D02*
G01*
X64815675Y-89875888D01*
X64820165Y-89957645D01*
X64825902Y-90016076D01*
X64833442Y-90056183D01*
X64843338Y-90082969D01*
X64847900Y-90090801D01*
X64888486Y-90124913D01*
X64945114Y-90132949D01*
X65012428Y-90114397D01*
X65025827Y-90107905D01*
X65075000Y-90082477D01*
X65075000Y-89782905D01*
X65075000Y-89483333D01*
X65216666Y-89483333D01*
X65358333Y-89483333D01*
X65358333Y-89916666D01*
X65358333Y-90350000D01*
X65216666Y-90350000D01*
X65148062Y-90349608D01*
X65106192Y-90347152D01*
X65084458Y-90340707D01*
X65076260Y-90328349D01*
X65075000Y-90308700D01*
X65075000Y-90267400D01*
X64996736Y-90317033D01*
X64942957Y-90346991D01*
X64893749Y-90361589D01*
X64831979Y-90365448D01*
X64817570Y-90365350D01*
X64759264Y-90363193D01*
X64712376Y-90358967D01*
X64691666Y-90354896D01*
X64647434Y-90327364D01*
X64600583Y-90280947D01*
X64562506Y-90227005D01*
X64561407Y-90225000D01*
X64551748Y-90201206D01*
X64544239Y-90166899D01*
X64538499Y-90117545D01*
X64534145Y-90048611D01*
X64530792Y-89955565D01*
X64528060Y-89833873D01*
X64527973Y-89829166D01*
X64521631Y-89483333D01*
X64662677Y-89483333D01*
X64803723Y-89483333D01*
X64811878Y-89765801D01*
G37*
G36*
X62025000Y-89350236D02*
G01*
X62025000Y-89550472D01*
X62089035Y-89508096D01*
X62167618Y-89471949D01*
X62258437Y-89454374D01*
X62346849Y-89457493D01*
X62380770Y-89465820D01*
X62442628Y-89500584D01*
X62501406Y-89558236D01*
X62548582Y-89628782D01*
X62573267Y-89691689D01*
X62581872Y-89743178D01*
X62588280Y-89814566D01*
X62591377Y-89892437D01*
X62591503Y-89911547D01*
X62589494Y-89993199D01*
X62582323Y-90053488D01*
X62567959Y-90104236D01*
X62551945Y-90141666D01*
X62489876Y-90239107D01*
X62410301Y-90310216D01*
X62317088Y-90353318D01*
X62214107Y-90366737D01*
X62105225Y-90348799D01*
X62087310Y-90342833D01*
X62045620Y-90332015D01*
X62018834Y-90332606D01*
X62015493Y-90335232D01*
X61995640Y-90342160D01*
X61951123Y-90347346D01*
X61890601Y-90349884D01*
X61874016Y-90350000D01*
X61741666Y-90350000D01*
X61741666Y-89922808D01*
X62025000Y-89922808D01*
X62025855Y-90002338D01*
X62028189Y-90069371D01*
X62031649Y-90117074D01*
X62035884Y-90138620D01*
X62036111Y-90138888D01*
X62064409Y-90148727D01*
X62111388Y-90149860D01*
X62163880Y-90143418D01*
X62208717Y-90130534D01*
X62223052Y-90122821D01*
X62265136Y-90075023D01*
X62294080Y-90005118D01*
X62308144Y-89922323D01*
X62305588Y-89835853D01*
X62289913Y-89768801D01*
X62261966Y-89718607D01*
X62217638Y-89691486D01*
X62150207Y-89683333D01*
X62150000Y-89683333D01*
X62101097Y-89684903D01*
X62066948Y-89692986D01*
X62044909Y-89712644D01*
X62032341Y-89748937D01*
X62026600Y-89806927D01*
X62025045Y-89891675D01*
X62025000Y-89922808D01*
X61741666Y-89922808D01*
X61741666Y-89750000D01*
X61741666Y-89150000D01*
X61883333Y-89150000D01*
X62025000Y-89150000D01*
X62025000Y-89350236D01*
G37*
G36*
X68146678Y-89461739D02*
G01*
X68246422Y-89496810D01*
X68323328Y-89555905D01*
X68378013Y-89639621D01*
X68411093Y-89748560D01*
X68421569Y-89837500D01*
X68429282Y-89966666D01*
X68133667Y-89966666D01*
X67838053Y-89966666D01*
X67849428Y-90012500D01*
X67881418Y-90078782D01*
X67936714Y-90126309D01*
X68010386Y-90154036D01*
X68097503Y-90160920D01*
X68193132Y-90145916D01*
X68292344Y-90107982D01*
X68294761Y-90106764D01*
X68342502Y-90084109D01*
X68378961Y-90069571D01*
X68391112Y-90066666D01*
X68400287Y-90082276D01*
X68406323Y-90125031D01*
X68408333Y-90184183D01*
X68408333Y-90301700D01*
X68345833Y-90328592D01*
X68285259Y-90345033D01*
X68192218Y-90356150D01*
X68091666Y-90361311D01*
X68002050Y-90363062D01*
X67936896Y-90361361D01*
X67887429Y-90355334D01*
X67844877Y-90344109D01*
X67817865Y-90334053D01*
X67722272Y-90280365D01*
X67644204Y-90206160D01*
X67590522Y-90118384D01*
X67581665Y-90094978D01*
X67562154Y-90001957D01*
X67558393Y-89897524D01*
X67569497Y-89793594D01*
X67572094Y-89784117D01*
X67841666Y-89784117D01*
X67857152Y-89791247D01*
X67898915Y-89796675D01*
X67959912Y-89799656D01*
X67991666Y-89800000D01*
X68065305Y-89798959D01*
X68111174Y-89795243D01*
X68134788Y-89787961D01*
X68141661Y-89776223D01*
X68141666Y-89775784D01*
X68126550Y-89717897D01*
X68087401Y-89669168D01*
X68033522Y-89638845D01*
X67998388Y-89633333D01*
X67945927Y-89647379D01*
X67895711Y-89683152D01*
X67857664Y-89731108D01*
X67841706Y-89781700D01*
X67841666Y-89784117D01*
X67572094Y-89784117D01*
X67594579Y-89702082D01*
X67613912Y-89661529D01*
X67685961Y-89569567D01*
X67778819Y-89503381D01*
X67891636Y-89463410D01*
X68023482Y-89450092D01*
X68146678Y-89461739D01*
G37*
G36*
X66031086Y-89462632D02*
G01*
X66132541Y-89499778D01*
X66211263Y-89561224D01*
X66266963Y-89646667D01*
X66299349Y-89755801D01*
X66308333Y-89869691D01*
X66308333Y-89966666D01*
X66016666Y-89966666D01*
X65905857Y-89966891D01*
X65824932Y-89968486D01*
X65770442Y-89972836D01*
X65738938Y-89981323D01*
X65726971Y-89995332D01*
X65731092Y-90016245D01*
X65747852Y-90045447D01*
X65763109Y-90068368D01*
X65818835Y-90122883D01*
X65893831Y-90154308D01*
X65982834Y-90162118D01*
X66080579Y-90145788D01*
X66173146Y-90109272D01*
X66222397Y-90085826D01*
X66260621Y-90070351D01*
X66275176Y-90066666D01*
X66284939Y-90082790D01*
X66289073Y-90129878D01*
X66288230Y-90187500D01*
X66283333Y-90308333D01*
X66200000Y-90336770D01*
X66117294Y-90355535D01*
X66015155Y-90364896D01*
X65906115Y-90364898D01*
X65802707Y-90355585D01*
X65717462Y-90337001D01*
X65711600Y-90335045D01*
X65609009Y-90284299D01*
X65531184Y-90211387D01*
X65477994Y-90116124D01*
X65449306Y-89998320D01*
X65445355Y-89957010D01*
X65449611Y-89820399D01*
X65459120Y-89784117D01*
X65725000Y-89784117D01*
X65740486Y-89791247D01*
X65782248Y-89796675D01*
X65843246Y-89799656D01*
X65875000Y-89800000D01*
X65948639Y-89798959D01*
X65994508Y-89795243D01*
X66018121Y-89787961D01*
X66024994Y-89776223D01*
X66025000Y-89775784D01*
X66009883Y-89717897D01*
X65970735Y-89669168D01*
X65916855Y-89638845D01*
X65881721Y-89633333D01*
X65829260Y-89647379D01*
X65779045Y-89683152D01*
X65740998Y-89731108D01*
X65725040Y-89781700D01*
X65725000Y-89784117D01*
X65459120Y-89784117D01*
X65480445Y-89702753D01*
X65536428Y-89605641D01*
X65616131Y-89530631D01*
X65718124Y-89479293D01*
X65840978Y-89453194D01*
X65907191Y-89450092D01*
X66031086Y-89462632D01*
G37*
G36*
X63113137Y-89456116D02*
G01*
X63224912Y-89476074D01*
X63316146Y-89511559D01*
X63382992Y-89561666D01*
X63410533Y-89599739D01*
X63421147Y-89622816D01*
X63429068Y-89650259D01*
X63434679Y-89687033D01*
X63438360Y-89738104D01*
X63440496Y-89808435D01*
X63441469Y-89902993D01*
X63441666Y-90003906D01*
X63441666Y-90350000D01*
X63300000Y-90350000D01*
X63231031Y-90349344D01*
X63188895Y-90346387D01*
X63167099Y-90339647D01*
X63159153Y-90327641D01*
X63158333Y-90317632D01*
X63156316Y-90299528D01*
X63145336Y-90296249D01*
X63117995Y-90308644D01*
X63087500Y-90325765D01*
X63007471Y-90356244D01*
X62915824Y-90367584D01*
X62825782Y-90359383D01*
X62758488Y-90335744D01*
X62697053Y-90285117D01*
X62653345Y-90213552D01*
X62630101Y-90129882D01*
X62630085Y-90097026D01*
X62918006Y-90097026D01*
X62940165Y-90138527D01*
X62986450Y-90162707D01*
X63021675Y-90166666D01*
X63074062Y-90159728D01*
X63118098Y-90142815D01*
X63121291Y-90140721D01*
X63144571Y-90117398D01*
X63155661Y-90082855D01*
X63158333Y-90030258D01*
X63158333Y-89945739D01*
X63092645Y-89956243D01*
X63012722Y-89973762D01*
X62960390Y-89997676D01*
X62930092Y-90030869D01*
X62924258Y-90043617D01*
X62918006Y-90097026D01*
X62630085Y-90097026D01*
X62630058Y-90042940D01*
X62647852Y-89978631D01*
X62689579Y-89910010D01*
X62751201Y-89857508D01*
X62836195Y-89819261D01*
X62948038Y-89793405D01*
X63008317Y-89785285D01*
X63072406Y-89777006D01*
X63123069Y-89768391D01*
X63151681Y-89760974D01*
X63154621Y-89759267D01*
X63157961Y-89736777D01*
X63135906Y-89709390D01*
X63094613Y-89682963D01*
X63059517Y-89668796D01*
X63022528Y-89659244D01*
X62984509Y-89656225D01*
X62938647Y-89660625D01*
X62878131Y-89673332D01*
X62796150Y-89695235D01*
X62745833Y-89709664D01*
X62726256Y-89713602D01*
X62715043Y-89706797D01*
X62709867Y-89682691D01*
X62708402Y-89634730D01*
X62708333Y-89603981D01*
X62708333Y-89487408D01*
X62843366Y-89466402D01*
X62984673Y-89452591D01*
X63113137Y-89456116D01*
G37*
G36*
X66691666Y-89358333D02*
G01*
X66691666Y-89483333D01*
X66858333Y-89483333D01*
X67025000Y-89483333D01*
X67025000Y-89358333D01*
X67025000Y-89233333D01*
X67166666Y-89233333D01*
X67308333Y-89233333D01*
X67308333Y-89358333D01*
X67308333Y-89483333D01*
X67433333Y-89483333D01*
X67558333Y-89483333D01*
X67558333Y-89583333D01*
X67558333Y-89683333D01*
X67433333Y-89683333D01*
X67308333Y-89683333D01*
X67308333Y-89891666D01*
X67308798Y-89979567D01*
X67310814Y-90040573D01*
X67315310Y-90081117D01*
X67323216Y-90107632D01*
X67335463Y-90126550D01*
X67343542Y-90135209D01*
X67373078Y-90156121D01*
X67410759Y-90162701D01*
X67464668Y-90155183D01*
X67520833Y-90140371D01*
X67540910Y-90136393D01*
X67552137Y-90143712D01*
X67557081Y-90169045D01*
X67558306Y-90219107D01*
X67558333Y-90238523D01*
X67558333Y-90347601D01*
X67465976Y-90359140D01*
X67330951Y-90366670D01*
X67219085Y-90352879D01*
X67131397Y-90318017D01*
X67068907Y-90262335D01*
X67068165Y-90261341D01*
X67054846Y-90240452D01*
X67045176Y-90215484D01*
X67038418Y-90180697D01*
X67033836Y-90130351D01*
X67030691Y-90058706D01*
X67028246Y-89960022D01*
X67028019Y-89948841D01*
X67022706Y-89683333D01*
X66857186Y-89683333D01*
X66691666Y-89683333D01*
X66691666Y-89884090D01*
X66692009Y-89969250D01*
X66693833Y-90027876D01*
X66698331Y-90066763D01*
X66706699Y-90092710D01*
X66720129Y-90112514D01*
X66734438Y-90127619D01*
X66759820Y-90150070D01*
X66785129Y-90161067D01*
X66819289Y-90161256D01*
X66871221Y-90151283D01*
X66914722Y-90140665D01*
X66958333Y-90129719D01*
X66958333Y-90237679D01*
X66958333Y-90345638D01*
X66895833Y-90355969D01*
X66811019Y-90364453D01*
X66719823Y-90364710D01*
X66635222Y-90357276D01*
X66570195Y-90342684D01*
X66569730Y-90342519D01*
X66516103Y-90319157D01*
X66475538Y-90289319D01*
X66446312Y-90248399D01*
X66426706Y-90191791D01*
X66414997Y-90114891D01*
X66409466Y-90013091D01*
X66408333Y-89910566D01*
X66408333Y-89683333D01*
X66358333Y-89683333D01*
X66308333Y-89683333D01*
X66308333Y-89583333D01*
X66308333Y-89483333D01*
X66358333Y-89483333D01*
X66408333Y-89483333D01*
X66408333Y-89358333D01*
X66408333Y-89233333D01*
X66550000Y-89233333D01*
X66691666Y-89233333D01*
X66691666Y-89358333D01*
G37*
G36*
X63978816Y-89463786D02*
G01*
X64035661Y-89472806D01*
X64112591Y-89479404D01*
X64196387Y-89482589D01*
X64230368Y-89482671D01*
X64394070Y-89481042D01*
X64388701Y-89936862D01*
X64387037Y-90072037D01*
X64385346Y-90178240D01*
X64383238Y-90259828D01*
X64380328Y-90321161D01*
X64376225Y-90366599D01*
X64370543Y-90400498D01*
X64362892Y-90427219D01*
X64352886Y-90451120D01*
X64340754Y-90475359D01*
X64288631Y-90551000D01*
X64217083Y-90608184D01*
X64180893Y-90629484D01*
X64148739Y-90643838D01*
X64112644Y-90652748D01*
X64064631Y-90657716D01*
X63996721Y-90660242D01*
X63934662Y-90661338D01*
X63851043Y-90661588D01*
X63775224Y-90660009D01*
X63715927Y-90656893D01*
X63683333Y-90652892D01*
X63657494Y-90645550D01*
X63642199Y-90633048D01*
X63634191Y-90607549D01*
X63630216Y-90561217D01*
X63628436Y-90520720D01*
X63627994Y-90462168D01*
X63631355Y-90419268D01*
X63637806Y-90400281D01*
X63638841Y-90400000D01*
X63662634Y-90405260D01*
X63705070Y-90418555D01*
X63727071Y-90426226D01*
X63793722Y-90442935D01*
X63870035Y-90451262D01*
X63944077Y-90450909D01*
X64003914Y-90441577D01*
X64024392Y-90433658D01*
X64054462Y-90405068D01*
X64083753Y-90358826D01*
X64103976Y-90309757D01*
X64108333Y-90283529D01*
X64095362Y-90279735D01*
X64062507Y-90290210D01*
X64042330Y-90299661D01*
X63954422Y-90327959D01*
X63855543Y-90333317D01*
X63758715Y-90315935D01*
X63706788Y-90294550D01*
X63655665Y-90260696D01*
X63616094Y-90215265D01*
X63584744Y-90160987D01*
X63560794Y-90110330D01*
X63546107Y-90065201D01*
X63538381Y-90014124D01*
X63535317Y-89945627D01*
X63534894Y-89912270D01*
X63534941Y-89907089D01*
X63825000Y-89907089D01*
X63832871Y-89994418D01*
X63857542Y-90055510D01*
X63900594Y-90093788D01*
X63914283Y-90100140D01*
X63957198Y-90113269D01*
X63996116Y-90111515D01*
X64047006Y-90093983D01*
X64050535Y-90092517D01*
X64108333Y-90068367D01*
X64108333Y-89876605D01*
X64108333Y-89684843D01*
X64050894Y-89674068D01*
X63971243Y-89672797D01*
X63906784Y-89700015D01*
X63859619Y-89753554D01*
X63831847Y-89831247D01*
X63825000Y-89907089D01*
X63534941Y-89907089D01*
X63535617Y-89832614D01*
X63540654Y-89774617D01*
X63551993Y-89726689D01*
X63571620Y-89677236D01*
X63577303Y-89664883D01*
X63637381Y-89570912D01*
X63715613Y-89503199D01*
X63808275Y-89463610D01*
X63911642Y-89454012D01*
X63978816Y-89463786D01*
G37*
G36*
X64580109Y-84938382D02*
G01*
X64662352Y-84961015D01*
X64730072Y-85013539D01*
X64783368Y-85096047D01*
X64804200Y-85147314D01*
X64820851Y-85194625D01*
X64846167Y-85265999D01*
X64877539Y-85354134D01*
X64912357Y-85451726D01*
X64948011Y-85551470D01*
X64981892Y-85646062D01*
X65011391Y-85728199D01*
X65033897Y-85790575D01*
X65041310Y-85810970D01*
X65060528Y-85863608D01*
X65230264Y-85873806D01*
X65340061Y-85879024D01*
X65473862Y-85883122D01*
X65627278Y-85886136D01*
X65795920Y-85888101D01*
X65975401Y-85889049D01*
X66161332Y-85889017D01*
X66349323Y-85888038D01*
X66534987Y-85886147D01*
X66713936Y-85883378D01*
X66881779Y-85879765D01*
X67034130Y-85875344D01*
X67166599Y-85870148D01*
X67274799Y-85864211D01*
X67354339Y-85857569D01*
X67358333Y-85857123D01*
X67464812Y-85848113D01*
X67596511Y-85841855D01*
X67745555Y-85838302D01*
X67904069Y-85837406D01*
X68064178Y-85839120D01*
X68218007Y-85843396D01*
X68357680Y-85850187D01*
X68475324Y-85859445D01*
X68516666Y-85864108D01*
X68712964Y-85901349D01*
X68892947Y-85962754D01*
X69066559Y-86051958D01*
X69116807Y-86083333D01*
X69153176Y-86106245D01*
X69204041Y-86137531D01*
X69236027Y-86156926D01*
X69377519Y-86261097D01*
X69496319Y-86389507D01*
X69592664Y-86542440D01*
X69636818Y-86638706D01*
X69655618Y-86697629D01*
X69675021Y-86779340D01*
X69693219Y-86873383D01*
X69708402Y-86969299D01*
X69718762Y-87056632D01*
X69722492Y-87124924D01*
X69722354Y-87133333D01*
X69713769Y-87256464D01*
X69696302Y-87388942D01*
X69671694Y-87522810D01*
X69641684Y-87650107D01*
X69608012Y-87762877D01*
X69572418Y-87853161D01*
X69559375Y-87878796D01*
X69544163Y-87908243D01*
X69519879Y-87957304D01*
X69491724Y-88015469D01*
X69491151Y-88016666D01*
X69423122Y-88146558D01*
X69351696Y-88254724D01*
X69268382Y-88352382D01*
X69164689Y-88450748D01*
X69158284Y-88456351D01*
X69016243Y-88560521D01*
X68859200Y-88637385D01*
X68683221Y-88688752D01*
X68631679Y-88698530D01*
X68554986Y-88711612D01*
X68471560Y-88725889D01*
X68434760Y-88732204D01*
X68381257Y-88739119D01*
X68303888Y-88746170D01*
X68212110Y-88752626D01*
X68115379Y-88757752D01*
X68093094Y-88758679D01*
X68003049Y-88762378D01*
X67922011Y-88766016D01*
X67857227Y-88769246D01*
X67815945Y-88771718D01*
X67808333Y-88772346D01*
X67771392Y-88772848D01*
X67713399Y-88770281D01*
X67646441Y-88765196D01*
X67641666Y-88764754D01*
X67431417Y-88745843D01*
X67232542Y-88729535D01*
X67052040Y-88716369D01*
X66896910Y-88706887D01*
X66883333Y-88706176D01*
X66754878Y-88701086D01*
X66605689Y-88697729D01*
X66441048Y-88696020D01*
X66266239Y-88695874D01*
X66086545Y-88697205D01*
X65907250Y-88699930D01*
X65733636Y-88703962D01*
X65570988Y-88709217D01*
X65424587Y-88715609D01*
X65299718Y-88723054D01*
X65201664Y-88731467D01*
X65183333Y-88733545D01*
X65141548Y-88736601D01*
X65070008Y-88739534D01*
X64972287Y-88742283D01*
X64851963Y-88744790D01*
X64712612Y-88746994D01*
X64557811Y-88748835D01*
X64391138Y-88750252D01*
X64216168Y-88751185D01*
X64116666Y-88751473D01*
X63915633Y-88751829D01*
X63744847Y-88751962D01*
X63601226Y-88751780D01*
X63481685Y-88751186D01*
X63383138Y-88750087D01*
X63302502Y-88748388D01*
X63236692Y-88745995D01*
X63182624Y-88742812D01*
X63137212Y-88738747D01*
X63097373Y-88733703D01*
X63060021Y-88727587D01*
X63022073Y-88720304D01*
X63008333Y-88717513D01*
X62890543Y-88696776D01*
X62744982Y-88676757D01*
X62577209Y-88658066D01*
X62392787Y-88641314D01*
X62197277Y-88627110D01*
X62166666Y-88625195D01*
X61968950Y-88605104D01*
X61793545Y-88568988D01*
X61637167Y-88514545D01*
X61496534Y-88439474D01*
X61368362Y-88341472D01*
X61249368Y-88218237D01*
X61136267Y-88067468D01*
X61025777Y-87886862D01*
X60972085Y-87787713D01*
X60926138Y-87698039D01*
X60891695Y-87623748D01*
X60867102Y-87557305D01*
X60850707Y-87491178D01*
X60840857Y-87417832D01*
X60835900Y-87329733D01*
X60834183Y-87219347D01*
X60834026Y-87158333D01*
X60834071Y-87152882D01*
X61300997Y-87152882D01*
X61301994Y-87397431D01*
X61365376Y-87525675D01*
X61452925Y-87690187D01*
X61539769Y-87828622D01*
X61624590Y-87939238D01*
X61706072Y-88020293D01*
X61773386Y-88065491D01*
X61864533Y-88101277D01*
X61982535Y-88129838D01*
X62129343Y-88151541D01*
X62306911Y-88166755D01*
X62312430Y-88167096D01*
X62505336Y-88180190D01*
X62669491Y-88194216D01*
X62809473Y-88209667D01*
X62929861Y-88227036D01*
X63016666Y-88242954D01*
X63085567Y-88254159D01*
X63176308Y-88264958D01*
X63277406Y-88274163D01*
X63377377Y-88280586D01*
X63383333Y-88280868D01*
X63467037Y-88283747D01*
X63574854Y-88285908D01*
X63702435Y-88287385D01*
X63845433Y-88288211D01*
X63999499Y-88288419D01*
X64160285Y-88288043D01*
X64323443Y-88287116D01*
X64484625Y-88285671D01*
X64639484Y-88283742D01*
X64783670Y-88281361D01*
X64912836Y-88278563D01*
X65022634Y-88275381D01*
X65108716Y-88271847D01*
X65166734Y-88267995D01*
X65175000Y-88267143D01*
X65285511Y-88256904D01*
X65423565Y-88247884D01*
X65583387Y-88240183D01*
X65759205Y-88233898D01*
X65945246Y-88229127D01*
X66135738Y-88225969D01*
X66324906Y-88224522D01*
X66506979Y-88224884D01*
X66676183Y-88227153D01*
X66826745Y-88231428D01*
X66941666Y-88237079D01*
X67042944Y-88243274D01*
X67155418Y-88249860D01*
X67261457Y-88255815D01*
X67308333Y-88258329D01*
X67390395Y-88264088D01*
X67468204Y-88272087D01*
X67530533Y-88281057D01*
X67555477Y-88286283D01*
X67601390Y-88292786D01*
X67674184Y-88296614D01*
X67767529Y-88297962D01*
X67875097Y-88297023D01*
X67990559Y-88293991D01*
X68107585Y-88289062D01*
X68219848Y-88282428D01*
X68321018Y-88274285D01*
X68404765Y-88264825D01*
X68441195Y-88259116D01*
X68522714Y-88242430D01*
X68606759Y-88222097D01*
X68676592Y-88202200D01*
X68683208Y-88200041D01*
X68788589Y-88148339D01*
X68888067Y-88067557D01*
X68979534Y-87961731D01*
X69060879Y-87834898D01*
X69129992Y-87691095D01*
X69184764Y-87534359D01*
X69223085Y-87368725D01*
X69242844Y-87198232D01*
X69245106Y-87125000D01*
X69239752Y-86991296D01*
X69220939Y-86879530D01*
X69186513Y-86780284D01*
X69150331Y-86710403D01*
X69112075Y-86655902D01*
X69061291Y-86604384D01*
X68993699Y-86552749D01*
X68905019Y-86497895D01*
X68790972Y-86436721D01*
X68731424Y-86406891D01*
X68671920Y-86380682D01*
X68607912Y-86359554D01*
X68535125Y-86342986D01*
X68449284Y-86330457D01*
X68346115Y-86321446D01*
X68221344Y-86315433D01*
X68070694Y-86311896D01*
X67940884Y-86310572D01*
X67581769Y-86308333D01*
X67603876Y-86372499D01*
X67613539Y-86406342D01*
X67616360Y-86439401D01*
X67611569Y-86480675D01*
X67598400Y-86539164D01*
X67585385Y-86589166D01*
X67565232Y-86668309D01*
X67541507Y-86766778D01*
X67517360Y-86871248D01*
X67498486Y-86956539D01*
X67473152Y-87064545D01*
X67448472Y-87145053D01*
X67421512Y-87203703D01*
X67389336Y-87246139D01*
X67349012Y-87278000D01*
X67323842Y-87292265D01*
X67245653Y-87315336D01*
X67165127Y-87309590D01*
X67090461Y-87277836D01*
X67029853Y-87222881D01*
X67005155Y-87183113D01*
X66989867Y-87138928D01*
X66974613Y-87073918D01*
X66962196Y-87000474D01*
X66959992Y-86983333D01*
X66949351Y-86899601D01*
X66935864Y-86800488D01*
X66921940Y-86703529D01*
X66917660Y-86675000D01*
X66906517Y-86594051D01*
X66897795Y-86516124D01*
X66892746Y-86453138D01*
X66891990Y-86430833D01*
X66891666Y-86353333D01*
X66670207Y-86353333D01*
X66448749Y-86353333D01*
X66455211Y-86408684D01*
X66451746Y-86461405D01*
X66433583Y-86531520D01*
X66419795Y-86569518D01*
X66368157Y-86707607D01*
X66331861Y-86824482D01*
X66308862Y-86927370D01*
X66299682Y-86993921D01*
X66283539Y-87095284D01*
X66257304Y-87169777D01*
X66218443Y-87222996D01*
X66183758Y-87249737D01*
X66113757Y-87276802D01*
X66036462Y-87281174D01*
X65961333Y-87264802D01*
X65897829Y-87229630D01*
X65857990Y-87182691D01*
X65835652Y-87131074D01*
X65809570Y-87055427D01*
X65781836Y-86963745D01*
X65754540Y-86864024D01*
X65729775Y-86764260D01*
X65709633Y-86672448D01*
X65696205Y-86596584D01*
X65691573Y-86546574D01*
X65686724Y-86490983D01*
X65675150Y-86432891D01*
X65674775Y-86431527D01*
X65663973Y-86398353D01*
X65648907Y-86379317D01*
X65620558Y-86369051D01*
X65569909Y-86362188D01*
X65555756Y-86360693D01*
X65491771Y-86355439D01*
X65421961Y-86351952D01*
X65354185Y-86350318D01*
X65296306Y-86350624D01*
X65256184Y-86352956D01*
X65241666Y-86357248D01*
X65246974Y-86376361D01*
X65259461Y-86411301D01*
X65274777Y-86463912D01*
X65291569Y-86541835D01*
X65308668Y-86637153D01*
X65324906Y-86741952D01*
X65339115Y-86848314D01*
X65350124Y-86948324D01*
X65356767Y-87034065D01*
X65358192Y-87079994D01*
X65354847Y-87179204D01*
X65343014Y-87252182D01*
X65320307Y-87305468D01*
X65284342Y-87345598D01*
X65253357Y-87367341D01*
X65185128Y-87393159D01*
X65107474Y-87398873D01*
X65034554Y-87384425D01*
X65002354Y-87368368D01*
X64951370Y-87327487D01*
X64918092Y-87279965D01*
X64899286Y-87218001D01*
X64891721Y-87133796D01*
X64891142Y-87100000D01*
X64880463Y-86943470D01*
X64850051Y-86760904D01*
X64800087Y-86553000D01*
X64730748Y-86320452D01*
X64642216Y-86063958D01*
X64583630Y-85908333D01*
X64558885Y-85842582D01*
X64537061Y-85781495D01*
X64522810Y-85738097D01*
X64522634Y-85737500D01*
X64508889Y-85701213D01*
X64496274Y-85684142D01*
X64495049Y-85683941D01*
X64480151Y-85697186D01*
X64455098Y-85730312D01*
X64438834Y-85754888D01*
X64399887Y-85812348D01*
X64349046Y-85881443D01*
X64290526Y-85957077D01*
X64228539Y-86034156D01*
X64167298Y-86107582D01*
X64111018Y-86172262D01*
X64063911Y-86223099D01*
X64030190Y-86254999D01*
X64019077Y-86262535D01*
X63940739Y-86282964D01*
X63858777Y-86273085D01*
X63769607Y-86232389D01*
X63758333Y-86225461D01*
X63628541Y-86148200D01*
X63514523Y-86091507D01*
X63408128Y-86052742D01*
X63301202Y-86029265D01*
X63185592Y-86018436D01*
X63114341Y-86016913D01*
X62983575Y-86021868D01*
X62857910Y-86038455D01*
X62728668Y-86068592D01*
X62587172Y-86114199D01*
X62466666Y-86160160D01*
X62355913Y-86203038D01*
X62269117Y-86232109D01*
X62200221Y-86248068D01*
X62143168Y-86251610D01*
X62091902Y-86243430D01*
X62040366Y-86224223D01*
X62015094Y-86211974D01*
X61957913Y-86178694D01*
X61917177Y-86141860D01*
X61885858Y-86092480D01*
X61856927Y-86021561D01*
X61849444Y-86000000D01*
X61826594Y-85936512D01*
X61809531Y-85902419D01*
X61794836Y-85895076D01*
X61779088Y-85911842D01*
X61766075Y-85935584D01*
X61741285Y-85979907D01*
X61718328Y-86013994D01*
X61716120Y-86016666D01*
X61694789Y-86047860D01*
X61663251Y-86101752D01*
X61625394Y-86170833D01*
X61585104Y-86247592D01*
X61546268Y-86324522D01*
X61512774Y-86394111D01*
X61488507Y-86448851D01*
X61478888Y-86475000D01*
X61458719Y-86526059D01*
X61427121Y-86588197D01*
X61401124Y-86631778D01*
X61364129Y-86696812D01*
X61336899Y-86765147D01*
X61318220Y-86843104D01*
X61306876Y-86937006D01*
X61301654Y-87053174D01*
X61300997Y-87152882D01*
X60834071Y-87152882D01*
X60835138Y-87024365D01*
X60838960Y-86916966D01*
X60845936Y-86829450D01*
X60856508Y-86755130D01*
X60862894Y-86722626D01*
X60888551Y-86620340D01*
X60918042Y-86531774D01*
X60948936Y-86463140D01*
X60978803Y-86420651D01*
X60982286Y-86417535D01*
X61003326Y-86388820D01*
X61023542Y-86344371D01*
X61026341Y-86336166D01*
X61055232Y-86260961D01*
X61098917Y-86165503D01*
X61153475Y-86057123D01*
X61214985Y-85943153D01*
X61279525Y-85830922D01*
X61343173Y-85727761D01*
X61386626Y-85662670D01*
X61416351Y-85618658D01*
X61436336Y-85586482D01*
X61441666Y-85575209D01*
X61450483Y-85558076D01*
X61473300Y-85522468D01*
X61497217Y-85487538D01*
X61534838Y-85429411D01*
X61568956Y-85369331D01*
X61582539Y-85341666D01*
X61638192Y-85248921D01*
X61709917Y-85184971D01*
X61798851Y-85148807D01*
X61801049Y-85148308D01*
X61856444Y-85138101D01*
X61896871Y-85139343D01*
X61939264Y-85153821D01*
X61964367Y-85165553D01*
X62009599Y-85191324D01*
X62042202Y-85222626D01*
X62071318Y-85269727D01*
X62088804Y-85305337D01*
X62116571Y-85368885D01*
X62149115Y-85450127D01*
X62180903Y-85535058D01*
X62192077Y-85566666D01*
X62215730Y-85634014D01*
X62235549Y-85688668D01*
X62248929Y-85723545D01*
X62252975Y-85732299D01*
X62270082Y-85729880D01*
X62310373Y-85717084D01*
X62366283Y-85696401D01*
X62387855Y-85687875D01*
X62604425Y-85615024D01*
X62822644Y-85568725D01*
X63034825Y-85550545D01*
X63062143Y-85550330D01*
X63226396Y-85554538D01*
X63367026Y-85567714D01*
X63492956Y-85591622D01*
X63613109Y-85628032D01*
X63736408Y-85678709D01*
X63755862Y-85687715D01*
X63811609Y-85713214D01*
X63845807Y-85725447D01*
X63866962Y-85725564D01*
X63883581Y-85714716D01*
X63892228Y-85706174D01*
X63911299Y-85682785D01*
X63946390Y-85635955D01*
X63994634Y-85569710D01*
X64053161Y-85488072D01*
X64119102Y-85395067D01*
X64189590Y-85294718D01*
X64261755Y-85191051D01*
X64330717Y-85091024D01*
X64390542Y-85014070D01*
X64447425Y-84965438D01*
X64507500Y-84941372D01*
X64576898Y-84938119D01*
X64580109Y-84938382D01*
G37*
D13*
%TO.C,C6*%
X59708000Y-71340000D02*
X59708000Y-73690000D01*
X59708000Y-78160000D02*
X59708000Y-75810000D01*
X65463563Y-71340000D02*
X59708000Y-71340000D01*
X65463563Y-78160000D02*
X59708000Y-78160000D01*
X66528000Y-72404437D02*
X65463563Y-71340000D01*
X66528000Y-72404437D02*
X66528000Y-73690000D01*
X66528000Y-77095563D02*
X65463563Y-78160000D01*
X66528000Y-77095563D02*
X66528000Y-75810000D01*
X67161750Y-76991250D02*
X67161750Y-76203750D01*
X67555500Y-76597500D02*
X66768000Y-76597500D01*
%TO.C,J3*%
X34780000Y-69380000D02*
X44820000Y-69380000D01*
X34780000Y-71700000D02*
X34780000Y-69380000D01*
X34780000Y-94620000D02*
X34780000Y-72300000D01*
X35400000Y-69380000D02*
X35400000Y-94620000D01*
X36900000Y-69380000D02*
X36900000Y-94620000D01*
X41800000Y-69380000D02*
X41800000Y-94620000D01*
X44820000Y-69380000D02*
X44820000Y-94620000D01*
X44820000Y-94620000D02*
X34780000Y-94620000D01*
X34780000Y-72000000D02*
X34170000Y-72440000D01*
X34170000Y-71560000D01*
X34780000Y-72000000D01*
G36*
X34780000Y-72000000D02*
G01*
X34170000Y-72440000D01*
X34170000Y-71560000D01*
X34780000Y-72000000D01*
G37*
%TO.C,J4*%
X34780000Y-52880000D02*
X44820000Y-52880000D01*
X34780000Y-55200000D02*
X34780000Y-52880000D01*
X34780000Y-68120000D02*
X34780000Y-55800000D01*
X35400000Y-52880000D02*
X35400000Y-68120000D01*
X36900000Y-52880000D02*
X36900000Y-68120000D01*
X41800000Y-52880000D02*
X41800000Y-68120000D01*
X44820000Y-52880000D02*
X44820000Y-68120000D01*
X44820000Y-68120000D02*
X34780000Y-68120000D01*
X34780000Y-55500000D02*
X34170000Y-55940000D01*
X34170000Y-55060000D01*
X34780000Y-55500000D01*
G36*
X34780000Y-55500000D02*
G01*
X34170000Y-55940000D01*
X34170000Y-55060000D01*
X34780000Y-55500000D01*
G37*
%TO.C,C3*%
X56113733Y-46740000D02*
X56406267Y-46740000D01*
X56113733Y-47760000D02*
X56406267Y-47760000D01*
%TO.C,R4*%
X79037500Y-42045276D02*
X79037500Y-42554724D01*
X80082500Y-42045276D02*
X80082500Y-42554724D01*
%TO.C,R1*%
X56005276Y-43977500D02*
X56514724Y-43977500D01*
X56005276Y-45022500D02*
X56514724Y-45022500D01*
%TO.C,R2*%
X56005276Y-49727500D02*
X56514724Y-49727500D01*
X56005276Y-50772500D02*
X56514724Y-50772500D01*
%TO.C,C4*%
X56113733Y-41240000D02*
X56406267Y-41240000D01*
X56113733Y-42260000D02*
X56406267Y-42260000D01*
%TO.C,RESET1*%
X62000000Y-59000000D02*
X62000000Y-60500000D01*
X63250000Y-63000000D02*
X67750000Y-63000000D01*
X67750000Y-56500000D02*
X63250000Y-56500000D01*
X69000000Y-60500000D02*
X69000000Y-59000000D01*
%TO.C,J1*%
X77822800Y-83628000D02*
X79202800Y-83628000D01*
X77822800Y-85008000D02*
X77822800Y-83628000D01*
X77822800Y-86278000D02*
X77822800Y-94008000D01*
X77822800Y-86278000D02*
X80582800Y-86278000D01*
X77822800Y-94008000D02*
X80582800Y-94008000D01*
X80582800Y-86278000D02*
X80582800Y-94008000D01*
%TO.C,J2*%
X34780000Y-41380000D02*
X44820000Y-41380000D01*
X34780000Y-43700000D02*
X34780000Y-41380000D01*
X34780000Y-51620000D02*
X34780000Y-44300000D01*
X35400000Y-41380000D02*
X35400000Y-51620000D01*
X36900000Y-41380000D02*
X36900000Y-51620000D01*
X41800000Y-41380000D02*
X41800000Y-51620000D01*
X44820000Y-41380000D02*
X44820000Y-51620000D01*
X44820000Y-51620000D02*
X34780000Y-51620000D01*
X34780000Y-44000000D02*
X34170000Y-44440000D01*
X34170000Y-43560000D01*
X34780000Y-44000000D01*
G36*
X34780000Y-44000000D02*
G01*
X34170000Y-44440000D01*
X34170000Y-43560000D01*
X34780000Y-44000000D01*
G37*
%TO.C,BOOT1*%
X72500000Y-59000000D02*
X72500000Y-60500000D01*
X73750000Y-63000000D02*
X78250000Y-63000000D01*
X78250000Y-56500000D02*
X73750000Y-56500000D01*
X79500000Y-60500000D02*
X79500000Y-59000000D01*
%TD*%
M02*
