%TF.GenerationSoftware,KiCad,Pcbnew,9.0.7*%
%TF.CreationDate,2026-09-22T21:17:47-07:00*%
%TF.ProjectId,ESPLEDDriver,4553504c-4544-4447-9269-7665722e6b69,rev?*%
%TF.SameCoordinates,Original*%
%TF.FileFunction,Legend,Bot*%
%TF.FilePolarity,Positive*%
%FSLAX46Y46*%
G04 Gerber Fmt 4.6, Leading zero omitted, Abs format (unit mm)*
G04 Created by KiCad (PCBNEW 9.0.7) date 2026-09-22 21:17:47*
%MOMM*%
%LPD*%
G01*
G04 APERTURE LIST*
%ADD10C,0.187500*%
%ADD11C,0.250000*%
%ADD12C,0.150000*%
%ADD13C,0.000000*%
%ADD14C,0.120000*%
G04 APERTURE END LIST*
D10*
X37286211Y-54948678D02*
X36786211Y-56448678D01*
X36786211Y-56448678D02*
X36286211Y-54948678D01*
X34929069Y-56305821D02*
X35000497Y-56377250D01*
X35000497Y-56377250D02*
X35214783Y-56448678D01*
X35214783Y-56448678D02*
X35357640Y-56448678D01*
X35357640Y-56448678D02*
X35571926Y-56377250D01*
X35571926Y-56377250D02*
X35714783Y-56234392D01*
X35714783Y-56234392D02*
X35786212Y-56091535D01*
X35786212Y-56091535D02*
X35857640Y-55805821D01*
X35857640Y-55805821D02*
X35857640Y-55591535D01*
X35857640Y-55591535D02*
X35786212Y-55305821D01*
X35786212Y-55305821D02*
X35714783Y-55162964D01*
X35714783Y-55162964D02*
X35571926Y-55020107D01*
X35571926Y-55020107D02*
X35357640Y-54948678D01*
X35357640Y-54948678D02*
X35214783Y-54948678D01*
X35214783Y-54948678D02*
X35000497Y-55020107D01*
X35000497Y-55020107D02*
X34929069Y-55091535D01*
X33429069Y-56305821D02*
X33500497Y-56377250D01*
X33500497Y-56377250D02*
X33714783Y-56448678D01*
X33714783Y-56448678D02*
X33857640Y-56448678D01*
X33857640Y-56448678D02*
X34071926Y-56377250D01*
X34071926Y-56377250D02*
X34214783Y-56234392D01*
X34214783Y-56234392D02*
X34286212Y-56091535D01*
X34286212Y-56091535D02*
X34357640Y-55805821D01*
X34357640Y-55805821D02*
X34357640Y-55591535D01*
X34357640Y-55591535D02*
X34286212Y-55305821D01*
X34286212Y-55305821D02*
X34214783Y-55162964D01*
X34214783Y-55162964D02*
X34071926Y-55020107D01*
X34071926Y-55020107D02*
X33857640Y-54948678D01*
X33857640Y-54948678D02*
X33714783Y-54948678D01*
X33714783Y-54948678D02*
X33500497Y-55020107D01*
X33500497Y-55020107D02*
X33429069Y-55091535D01*
D11*
X51406955Y-46772350D02*
X52359336Y-46772350D01*
X52359336Y-46772350D02*
X52454574Y-47724731D01*
X52454574Y-47724731D02*
X52359336Y-47629492D01*
X52359336Y-47629492D02*
X52168860Y-47534254D01*
X52168860Y-47534254D02*
X51692669Y-47534254D01*
X51692669Y-47534254D02*
X51502193Y-47629492D01*
X51502193Y-47629492D02*
X51406955Y-47724731D01*
X51406955Y-47724731D02*
X51311717Y-47915207D01*
X51311717Y-47915207D02*
X51311717Y-48391397D01*
X51311717Y-48391397D02*
X51406955Y-48581873D01*
X51406955Y-48581873D02*
X51502193Y-48677112D01*
X51502193Y-48677112D02*
X51692669Y-48772350D01*
X51692669Y-48772350D02*
X52168860Y-48772350D01*
X52168860Y-48772350D02*
X52359336Y-48677112D01*
X52359336Y-48677112D02*
X52454574Y-48581873D01*
X50454574Y-48010445D02*
X48930765Y-48010445D01*
X48168860Y-46772350D02*
X46930765Y-46772350D01*
X46930765Y-46772350D02*
X47597432Y-47534254D01*
X47597432Y-47534254D02*
X47311717Y-47534254D01*
X47311717Y-47534254D02*
X47121241Y-47629492D01*
X47121241Y-47629492D02*
X47026003Y-47724731D01*
X47026003Y-47724731D02*
X46930765Y-47915207D01*
X46930765Y-47915207D02*
X46930765Y-48391397D01*
X46930765Y-48391397D02*
X47026003Y-48581873D01*
X47026003Y-48581873D02*
X47121241Y-48677112D01*
X47121241Y-48677112D02*
X47311717Y-48772350D01*
X47311717Y-48772350D02*
X47883146Y-48772350D01*
X47883146Y-48772350D02*
X48073622Y-48677112D01*
X48073622Y-48677112D02*
X48168860Y-48581873D01*
X45692670Y-46772350D02*
X45502193Y-46772350D01*
X45502193Y-46772350D02*
X45311717Y-46867588D01*
X45311717Y-46867588D02*
X45216479Y-46962826D01*
X45216479Y-46962826D02*
X45121241Y-47153302D01*
X45121241Y-47153302D02*
X45026003Y-47534254D01*
X45026003Y-47534254D02*
X45026003Y-48010445D01*
X45026003Y-48010445D02*
X45121241Y-48391397D01*
X45121241Y-48391397D02*
X45216479Y-48581873D01*
X45216479Y-48581873D02*
X45311717Y-48677112D01*
X45311717Y-48677112D02*
X45502193Y-48772350D01*
X45502193Y-48772350D02*
X45692670Y-48772350D01*
X45692670Y-48772350D02*
X45883146Y-48677112D01*
X45883146Y-48677112D02*
X45978384Y-48581873D01*
X45978384Y-48581873D02*
X46073622Y-48391397D01*
X46073622Y-48391397D02*
X46168860Y-48010445D01*
X46168860Y-48010445D02*
X46168860Y-47534254D01*
X46168860Y-47534254D02*
X46073622Y-47153302D01*
X46073622Y-47153302D02*
X45978384Y-46962826D01*
X45978384Y-46962826D02*
X45883146Y-46867588D01*
X45883146Y-46867588D02*
X45692670Y-46772350D01*
X44454574Y-46772350D02*
X43787908Y-48772350D01*
X43787908Y-48772350D02*
X43121241Y-46772350D01*
X51406955Y-49992238D02*
X52359336Y-49992238D01*
X52359336Y-49992238D02*
X52454574Y-50944619D01*
X52454574Y-50944619D02*
X52359336Y-50849380D01*
X52359336Y-50849380D02*
X52168860Y-50754142D01*
X52168860Y-50754142D02*
X51692669Y-50754142D01*
X51692669Y-50754142D02*
X51502193Y-50849380D01*
X51502193Y-50849380D02*
X51406955Y-50944619D01*
X51406955Y-50944619D02*
X51311717Y-51135095D01*
X51311717Y-51135095D02*
X51311717Y-51611285D01*
X51311717Y-51611285D02*
X51406955Y-51801761D01*
X51406955Y-51801761D02*
X51502193Y-51897000D01*
X51502193Y-51897000D02*
X51692669Y-51992238D01*
X51692669Y-51992238D02*
X52168860Y-51992238D01*
X52168860Y-51992238D02*
X52359336Y-51897000D01*
X52359336Y-51897000D02*
X52454574Y-51801761D01*
X50549812Y-51420809D02*
X49597431Y-51420809D01*
X50740288Y-51992238D02*
X50073622Y-49992238D01*
X50073622Y-49992238D02*
X49406955Y-51992238D01*
X47216478Y-51992238D02*
X47216478Y-49992238D01*
X47216478Y-49992238D02*
X46549811Y-51420809D01*
X46549811Y-51420809D02*
X45883145Y-49992238D01*
X45883145Y-49992238D02*
X45883145Y-51992238D01*
X45026002Y-51420809D02*
X44073621Y-51420809D01*
X45216478Y-51992238D02*
X44549812Y-49992238D01*
X44549812Y-49992238D02*
X43883145Y-51992238D01*
X43406954Y-49992238D02*
X42073621Y-51992238D01*
X42073621Y-49992238D02*
X43406954Y-51992238D01*
D10*
X37286211Y-71204678D02*
X36786211Y-72704678D01*
X36786211Y-72704678D02*
X36286211Y-71204678D01*
X34929069Y-72561821D02*
X35000497Y-72633250D01*
X35000497Y-72633250D02*
X35214783Y-72704678D01*
X35214783Y-72704678D02*
X35357640Y-72704678D01*
X35357640Y-72704678D02*
X35571926Y-72633250D01*
X35571926Y-72633250D02*
X35714783Y-72490392D01*
X35714783Y-72490392D02*
X35786212Y-72347535D01*
X35786212Y-72347535D02*
X35857640Y-72061821D01*
X35857640Y-72061821D02*
X35857640Y-71847535D01*
X35857640Y-71847535D02*
X35786212Y-71561821D01*
X35786212Y-71561821D02*
X35714783Y-71418964D01*
X35714783Y-71418964D02*
X35571926Y-71276107D01*
X35571926Y-71276107D02*
X35357640Y-71204678D01*
X35357640Y-71204678D02*
X35214783Y-71204678D01*
X35214783Y-71204678D02*
X35000497Y-71276107D01*
X35000497Y-71276107D02*
X34929069Y-71347535D01*
X33429069Y-72561821D02*
X33500497Y-72633250D01*
X33500497Y-72633250D02*
X33714783Y-72704678D01*
X33714783Y-72704678D02*
X33857640Y-72704678D01*
X33857640Y-72704678D02*
X34071926Y-72633250D01*
X34071926Y-72633250D02*
X34214783Y-72490392D01*
X34214783Y-72490392D02*
X34286212Y-72347535D01*
X34286212Y-72347535D02*
X34357640Y-72061821D01*
X34357640Y-72061821D02*
X34357640Y-71847535D01*
X34357640Y-71847535D02*
X34286212Y-71561821D01*
X34286212Y-71561821D02*
X34214783Y-71418964D01*
X34214783Y-71418964D02*
X34071926Y-71276107D01*
X34071926Y-71276107D02*
X33857640Y-71204678D01*
X33857640Y-71204678D02*
X33714783Y-71204678D01*
X33714783Y-71204678D02*
X33500497Y-71276107D01*
X33500497Y-71276107D02*
X33429069Y-71347535D01*
X45390498Y-77784678D02*
X45390498Y-76284678D01*
X44390497Y-76284678D02*
X44104783Y-76284678D01*
X44104783Y-76284678D02*
X43961926Y-76356107D01*
X43961926Y-76356107D02*
X43819069Y-76498964D01*
X43819069Y-76498964D02*
X43747640Y-76784678D01*
X43747640Y-76784678D02*
X43747640Y-77284678D01*
X43747640Y-77284678D02*
X43819069Y-77570392D01*
X43819069Y-77570392D02*
X43961926Y-77713250D01*
X43961926Y-77713250D02*
X44104783Y-77784678D01*
X44104783Y-77784678D02*
X44390497Y-77784678D01*
X44390497Y-77784678D02*
X44533355Y-77713250D01*
X44533355Y-77713250D02*
X44676212Y-77570392D01*
X44676212Y-77570392D02*
X44747640Y-77284678D01*
X44747640Y-77284678D02*
X44747640Y-76784678D01*
X44747640Y-76784678D02*
X44676212Y-76498964D01*
X44676212Y-76498964D02*
X44533355Y-76356107D01*
X44533355Y-76356107D02*
X44390497Y-76284678D01*
X42461926Y-76784678D02*
X42461926Y-77784678D01*
X42819068Y-76213250D02*
X43176211Y-77284678D01*
X43176211Y-77284678D02*
X42247640Y-77284678D01*
X36571926Y-64926107D02*
X36714784Y-64854678D01*
X36714784Y-64854678D02*
X36929069Y-64854678D01*
X36929069Y-64854678D02*
X37143355Y-64926107D01*
X37143355Y-64926107D02*
X37286212Y-65068964D01*
X37286212Y-65068964D02*
X37357641Y-65211821D01*
X37357641Y-65211821D02*
X37429069Y-65497535D01*
X37429069Y-65497535D02*
X37429069Y-65711821D01*
X37429069Y-65711821D02*
X37357641Y-65997535D01*
X37357641Y-65997535D02*
X37286212Y-66140392D01*
X37286212Y-66140392D02*
X37143355Y-66283250D01*
X37143355Y-66283250D02*
X36929069Y-66354678D01*
X36929069Y-66354678D02*
X36786212Y-66354678D01*
X36786212Y-66354678D02*
X36571926Y-66283250D01*
X36571926Y-66283250D02*
X36500498Y-66211821D01*
X36500498Y-66211821D02*
X36500498Y-65711821D01*
X36500498Y-65711821D02*
X36786212Y-65711821D01*
X35857641Y-66354678D02*
X35857641Y-64854678D01*
X35857641Y-64854678D02*
X35000498Y-66354678D01*
X35000498Y-66354678D02*
X35000498Y-64854678D01*
X34286212Y-66354678D02*
X34286212Y-64854678D01*
X34286212Y-64854678D02*
X33929069Y-64854678D01*
X33929069Y-64854678D02*
X33714783Y-64926107D01*
X33714783Y-64926107D02*
X33571926Y-65068964D01*
X33571926Y-65068964D02*
X33500497Y-65211821D01*
X33500497Y-65211821D02*
X33429069Y-65497535D01*
X33429069Y-65497535D02*
X33429069Y-65711821D01*
X33429069Y-65711821D02*
X33500497Y-65997535D01*
X33500497Y-65997535D02*
X33571926Y-66140392D01*
X33571926Y-66140392D02*
X33714783Y-66283250D01*
X33714783Y-66283250D02*
X33929069Y-66354678D01*
X33929069Y-66354678D02*
X34286212Y-66354678D01*
X36571926Y-48416107D02*
X36714784Y-48344678D01*
X36714784Y-48344678D02*
X36929069Y-48344678D01*
X36929069Y-48344678D02*
X37143355Y-48416107D01*
X37143355Y-48416107D02*
X37286212Y-48558964D01*
X37286212Y-48558964D02*
X37357641Y-48701821D01*
X37357641Y-48701821D02*
X37429069Y-48987535D01*
X37429069Y-48987535D02*
X37429069Y-49201821D01*
X37429069Y-49201821D02*
X37357641Y-49487535D01*
X37357641Y-49487535D02*
X37286212Y-49630392D01*
X37286212Y-49630392D02*
X37143355Y-49773250D01*
X37143355Y-49773250D02*
X36929069Y-49844678D01*
X36929069Y-49844678D02*
X36786212Y-49844678D01*
X36786212Y-49844678D02*
X36571926Y-49773250D01*
X36571926Y-49773250D02*
X36500498Y-49701821D01*
X36500498Y-49701821D02*
X36500498Y-49201821D01*
X36500498Y-49201821D02*
X36786212Y-49201821D01*
X35857641Y-49844678D02*
X35857641Y-48344678D01*
X35857641Y-48344678D02*
X35000498Y-49844678D01*
X35000498Y-49844678D02*
X35000498Y-48344678D01*
X34286212Y-49844678D02*
X34286212Y-48344678D01*
X34286212Y-48344678D02*
X33929069Y-48344678D01*
X33929069Y-48344678D02*
X33714783Y-48416107D01*
X33714783Y-48416107D02*
X33571926Y-48558964D01*
X33571926Y-48558964D02*
X33500497Y-48701821D01*
X33500497Y-48701821D02*
X33429069Y-48987535D01*
X33429069Y-48987535D02*
X33429069Y-49201821D01*
X33429069Y-49201821D02*
X33500497Y-49487535D01*
X33500497Y-49487535D02*
X33571926Y-49630392D01*
X33571926Y-49630392D02*
X33714783Y-49773250D01*
X33714783Y-49773250D02*
X33929069Y-49844678D01*
X33929069Y-49844678D02*
X34286212Y-49844678D01*
X36500497Y-77784678D02*
X37357640Y-77784678D01*
X36929069Y-77784678D02*
X36929069Y-76284678D01*
X36929069Y-76284678D02*
X37071926Y-76498964D01*
X37071926Y-76498964D02*
X37214783Y-76641821D01*
X37214783Y-76641821D02*
X37357640Y-76713250D01*
X34786212Y-76213250D02*
X36071926Y-78141821D01*
X33429069Y-77784678D02*
X33929069Y-77070392D01*
X34286212Y-77784678D02*
X34286212Y-76284678D01*
X34286212Y-76284678D02*
X33714783Y-76284678D01*
X33714783Y-76284678D02*
X33571926Y-76356107D01*
X33571926Y-76356107D02*
X33500497Y-76427535D01*
X33500497Y-76427535D02*
X33429069Y-76570392D01*
X33429069Y-76570392D02*
X33429069Y-76784678D01*
X33429069Y-76784678D02*
X33500497Y-76927535D01*
X33500497Y-76927535D02*
X33571926Y-76998964D01*
X33571926Y-76998964D02*
X33714783Y-77070392D01*
X33714783Y-77070392D02*
X34286212Y-77070392D01*
X45390498Y-92770678D02*
X45390498Y-91270678D01*
X44390497Y-91270678D02*
X44104783Y-91270678D01*
X44104783Y-91270678D02*
X43961926Y-91342107D01*
X43961926Y-91342107D02*
X43819069Y-91484964D01*
X43819069Y-91484964D02*
X43747640Y-91770678D01*
X43747640Y-91770678D02*
X43747640Y-92270678D01*
X43747640Y-92270678D02*
X43819069Y-92556392D01*
X43819069Y-92556392D02*
X43961926Y-92699250D01*
X43961926Y-92699250D02*
X44104783Y-92770678D01*
X44104783Y-92770678D02*
X44390497Y-92770678D01*
X44390497Y-92770678D02*
X44533355Y-92699250D01*
X44533355Y-92699250D02*
X44676212Y-92556392D01*
X44676212Y-92556392D02*
X44747640Y-92270678D01*
X44747640Y-92270678D02*
X44747640Y-91770678D01*
X44747640Y-91770678D02*
X44676212Y-91484964D01*
X44676212Y-91484964D02*
X44533355Y-91342107D01*
X44533355Y-91342107D02*
X44390497Y-91270678D01*
X43247640Y-91270678D02*
X42247640Y-91270678D01*
X42247640Y-91270678D02*
X42890497Y-92770678D01*
X45390498Y-82864678D02*
X45390498Y-81364678D01*
X44390497Y-81364678D02*
X44104783Y-81364678D01*
X44104783Y-81364678D02*
X43961926Y-81436107D01*
X43961926Y-81436107D02*
X43819069Y-81578964D01*
X43819069Y-81578964D02*
X43747640Y-81864678D01*
X43747640Y-81864678D02*
X43747640Y-82364678D01*
X43747640Y-82364678D02*
X43819069Y-82650392D01*
X43819069Y-82650392D02*
X43961926Y-82793250D01*
X43961926Y-82793250D02*
X44104783Y-82864678D01*
X44104783Y-82864678D02*
X44390497Y-82864678D01*
X44390497Y-82864678D02*
X44533355Y-82793250D01*
X44533355Y-82793250D02*
X44676212Y-82650392D01*
X44676212Y-82650392D02*
X44747640Y-82364678D01*
X44747640Y-82364678D02*
X44747640Y-81864678D01*
X44747640Y-81864678D02*
X44676212Y-81578964D01*
X44676212Y-81578964D02*
X44533355Y-81436107D01*
X44533355Y-81436107D02*
X44390497Y-81364678D01*
X42390497Y-81364678D02*
X43104783Y-81364678D01*
X43104783Y-81364678D02*
X43176211Y-82078964D01*
X43176211Y-82078964D02*
X43104783Y-82007535D01*
X43104783Y-82007535D02*
X42961926Y-81936107D01*
X42961926Y-81936107D02*
X42604783Y-81936107D01*
X42604783Y-81936107D02*
X42461926Y-82007535D01*
X42461926Y-82007535D02*
X42390497Y-82078964D01*
X42390497Y-82078964D02*
X42319068Y-82221821D01*
X42319068Y-82221821D02*
X42319068Y-82578964D01*
X42319068Y-82578964D02*
X42390497Y-82721821D01*
X42390497Y-82721821D02*
X42461926Y-82793250D01*
X42461926Y-82793250D02*
X42604783Y-82864678D01*
X42604783Y-82864678D02*
X42961926Y-82864678D01*
X42961926Y-82864678D02*
X43104783Y-82793250D01*
X43104783Y-82793250D02*
X43176211Y-82721821D01*
X45390498Y-87690678D02*
X45390498Y-86190678D01*
X44390497Y-86190678D02*
X44104783Y-86190678D01*
X44104783Y-86190678D02*
X43961926Y-86262107D01*
X43961926Y-86262107D02*
X43819069Y-86404964D01*
X43819069Y-86404964D02*
X43747640Y-86690678D01*
X43747640Y-86690678D02*
X43747640Y-87190678D01*
X43747640Y-87190678D02*
X43819069Y-87476392D01*
X43819069Y-87476392D02*
X43961926Y-87619250D01*
X43961926Y-87619250D02*
X44104783Y-87690678D01*
X44104783Y-87690678D02*
X44390497Y-87690678D01*
X44390497Y-87690678D02*
X44533355Y-87619250D01*
X44533355Y-87619250D02*
X44676212Y-87476392D01*
X44676212Y-87476392D02*
X44747640Y-87190678D01*
X44747640Y-87190678D02*
X44747640Y-86690678D01*
X44747640Y-86690678D02*
X44676212Y-86404964D01*
X44676212Y-86404964D02*
X44533355Y-86262107D01*
X44533355Y-86262107D02*
X44390497Y-86190678D01*
X42461926Y-86190678D02*
X42747640Y-86190678D01*
X42747640Y-86190678D02*
X42890497Y-86262107D01*
X42890497Y-86262107D02*
X42961926Y-86333535D01*
X42961926Y-86333535D02*
X43104783Y-86547821D01*
X43104783Y-86547821D02*
X43176211Y-86833535D01*
X43176211Y-86833535D02*
X43176211Y-87404964D01*
X43176211Y-87404964D02*
X43104783Y-87547821D01*
X43104783Y-87547821D02*
X43033354Y-87619250D01*
X43033354Y-87619250D02*
X42890497Y-87690678D01*
X42890497Y-87690678D02*
X42604783Y-87690678D01*
X42604783Y-87690678D02*
X42461926Y-87619250D01*
X42461926Y-87619250D02*
X42390497Y-87547821D01*
X42390497Y-87547821D02*
X42319068Y-87404964D01*
X42319068Y-87404964D02*
X42319068Y-87047821D01*
X42319068Y-87047821D02*
X42390497Y-86904964D01*
X42390497Y-86904964D02*
X42461926Y-86833535D01*
X42461926Y-86833535D02*
X42604783Y-86762107D01*
X42604783Y-86762107D02*
X42890497Y-86762107D01*
X42890497Y-86762107D02*
X43033354Y-86833535D01*
X43033354Y-86833535D02*
X43104783Y-86904964D01*
X43104783Y-86904964D02*
X43176211Y-87047821D01*
X38000497Y-61274678D02*
X38000497Y-59774678D01*
X38000497Y-59774678D02*
X37643354Y-59774678D01*
X37643354Y-59774678D02*
X37429068Y-59846107D01*
X37429068Y-59846107D02*
X37286211Y-59988964D01*
X37286211Y-59988964D02*
X37214782Y-60131821D01*
X37214782Y-60131821D02*
X37143354Y-60417535D01*
X37143354Y-60417535D02*
X37143354Y-60631821D01*
X37143354Y-60631821D02*
X37214782Y-60917535D01*
X37214782Y-60917535D02*
X37286211Y-61060392D01*
X37286211Y-61060392D02*
X37429068Y-61203250D01*
X37429068Y-61203250D02*
X37643354Y-61274678D01*
X37643354Y-61274678D02*
X38000497Y-61274678D01*
X36571925Y-60846107D02*
X35857640Y-60846107D01*
X36714782Y-61274678D02*
X36214782Y-59774678D01*
X36214782Y-59774678D02*
X35714782Y-61274678D01*
X35429068Y-59774678D02*
X34571926Y-59774678D01*
X35000497Y-61274678D02*
X35000497Y-59774678D01*
X34143354Y-60846107D02*
X33429069Y-60846107D01*
X34286211Y-61274678D02*
X33786211Y-59774678D01*
X33786211Y-59774678D02*
X33286211Y-61274678D01*
X36857641Y-92024678D02*
X36857641Y-93024678D01*
X37214783Y-91453250D02*
X37571926Y-92524678D01*
X37571926Y-92524678D02*
X36643355Y-92524678D01*
X35000498Y-91453250D02*
X36286212Y-93381821D01*
X34643355Y-91524678D02*
X34286212Y-93024678D01*
X34286212Y-93024678D02*
X34000498Y-91953250D01*
X34000498Y-91953250D02*
X33714783Y-93024678D01*
X33714783Y-93024678D02*
X33357641Y-91524678D01*
X37357640Y-81507535D02*
X37286212Y-81436107D01*
X37286212Y-81436107D02*
X37143355Y-81364678D01*
X37143355Y-81364678D02*
X36786212Y-81364678D01*
X36786212Y-81364678D02*
X36643355Y-81436107D01*
X36643355Y-81436107D02*
X36571926Y-81507535D01*
X36571926Y-81507535D02*
X36500497Y-81650392D01*
X36500497Y-81650392D02*
X36500497Y-81793250D01*
X36500497Y-81793250D02*
X36571926Y-82007535D01*
X36571926Y-82007535D02*
X37429069Y-82864678D01*
X37429069Y-82864678D02*
X36500497Y-82864678D01*
X34786212Y-81293250D02*
X36071926Y-83221821D01*
X33500497Y-81436107D02*
X33643355Y-81364678D01*
X33643355Y-81364678D02*
X33857640Y-81364678D01*
X33857640Y-81364678D02*
X34071926Y-81436107D01*
X34071926Y-81436107D02*
X34214783Y-81578964D01*
X34214783Y-81578964D02*
X34286212Y-81721821D01*
X34286212Y-81721821D02*
X34357640Y-82007535D01*
X34357640Y-82007535D02*
X34357640Y-82221821D01*
X34357640Y-82221821D02*
X34286212Y-82507535D01*
X34286212Y-82507535D02*
X34214783Y-82650392D01*
X34214783Y-82650392D02*
X34071926Y-82793250D01*
X34071926Y-82793250D02*
X33857640Y-82864678D01*
X33857640Y-82864678D02*
X33714783Y-82864678D01*
X33714783Y-82864678D02*
X33500497Y-82793250D01*
X33500497Y-82793250D02*
X33429069Y-82721821D01*
X33429069Y-82721821D02*
X33429069Y-82221821D01*
X33429069Y-82221821D02*
X33714783Y-82221821D01*
X45390498Y-61274678D02*
X45390498Y-59774678D01*
X44390497Y-59774678D02*
X44104783Y-59774678D01*
X44104783Y-59774678D02*
X43961926Y-59846107D01*
X43961926Y-59846107D02*
X43819069Y-59988964D01*
X43819069Y-59988964D02*
X43747640Y-60274678D01*
X43747640Y-60274678D02*
X43747640Y-60774678D01*
X43747640Y-60774678D02*
X43819069Y-61060392D01*
X43819069Y-61060392D02*
X43961926Y-61203250D01*
X43961926Y-61203250D02*
X44104783Y-61274678D01*
X44104783Y-61274678D02*
X44390497Y-61274678D01*
X44390497Y-61274678D02*
X44533355Y-61203250D01*
X44533355Y-61203250D02*
X44676212Y-61060392D01*
X44676212Y-61060392D02*
X44747640Y-60774678D01*
X44747640Y-60774678D02*
X44747640Y-60274678D01*
X44747640Y-60274678D02*
X44676212Y-59988964D01*
X44676212Y-59988964D02*
X44533355Y-59846107D01*
X44533355Y-59846107D02*
X44390497Y-59774678D01*
X42819068Y-59774678D02*
X42676211Y-59774678D01*
X42676211Y-59774678D02*
X42533354Y-59846107D01*
X42533354Y-59846107D02*
X42461926Y-59917535D01*
X42461926Y-59917535D02*
X42390497Y-60060392D01*
X42390497Y-60060392D02*
X42319068Y-60346107D01*
X42319068Y-60346107D02*
X42319068Y-60703250D01*
X42319068Y-60703250D02*
X42390497Y-60988964D01*
X42390497Y-60988964D02*
X42461926Y-61131821D01*
X42461926Y-61131821D02*
X42533354Y-61203250D01*
X42533354Y-61203250D02*
X42676211Y-61274678D01*
X42676211Y-61274678D02*
X42819068Y-61274678D01*
X42819068Y-61274678D02*
X42961926Y-61203250D01*
X42961926Y-61203250D02*
X43033354Y-61131821D01*
X43033354Y-61131821D02*
X43104783Y-60988964D01*
X43104783Y-60988964D02*
X43176211Y-60703250D01*
X43176211Y-60703250D02*
X43176211Y-60346107D01*
X43176211Y-60346107D02*
X43104783Y-60060392D01*
X43104783Y-60060392D02*
X43033354Y-59917535D01*
X43033354Y-59917535D02*
X42961926Y-59846107D01*
X42961926Y-59846107D02*
X42819068Y-59774678D01*
X37286211Y-43264678D02*
X36786211Y-44764678D01*
X36786211Y-44764678D02*
X36286211Y-43264678D01*
X34929069Y-44621821D02*
X35000497Y-44693250D01*
X35000497Y-44693250D02*
X35214783Y-44764678D01*
X35214783Y-44764678D02*
X35357640Y-44764678D01*
X35357640Y-44764678D02*
X35571926Y-44693250D01*
X35571926Y-44693250D02*
X35714783Y-44550392D01*
X35714783Y-44550392D02*
X35786212Y-44407535D01*
X35786212Y-44407535D02*
X35857640Y-44121821D01*
X35857640Y-44121821D02*
X35857640Y-43907535D01*
X35857640Y-43907535D02*
X35786212Y-43621821D01*
X35786212Y-43621821D02*
X35714783Y-43478964D01*
X35714783Y-43478964D02*
X35571926Y-43336107D01*
X35571926Y-43336107D02*
X35357640Y-43264678D01*
X35357640Y-43264678D02*
X35214783Y-43264678D01*
X35214783Y-43264678D02*
X35000497Y-43336107D01*
X35000497Y-43336107D02*
X34929069Y-43407535D01*
X33429069Y-44621821D02*
X33500497Y-44693250D01*
X33500497Y-44693250D02*
X33714783Y-44764678D01*
X33714783Y-44764678D02*
X33857640Y-44764678D01*
X33857640Y-44764678D02*
X34071926Y-44693250D01*
X34071926Y-44693250D02*
X34214783Y-44550392D01*
X34214783Y-44550392D02*
X34286212Y-44407535D01*
X34286212Y-44407535D02*
X34357640Y-44121821D01*
X34357640Y-44121821D02*
X34357640Y-43907535D01*
X34357640Y-43907535D02*
X34286212Y-43621821D01*
X34286212Y-43621821D02*
X34214783Y-43478964D01*
X34214783Y-43478964D02*
X34071926Y-43336107D01*
X34071926Y-43336107D02*
X33857640Y-43264678D01*
X33857640Y-43264678D02*
X33714783Y-43264678D01*
X33714783Y-43264678D02*
X33500497Y-43336107D01*
X33500497Y-43336107D02*
X33429069Y-43407535D01*
X37429069Y-86190678D02*
X36500497Y-86190678D01*
X36500497Y-86190678D02*
X37000497Y-86762107D01*
X37000497Y-86762107D02*
X36786212Y-86762107D01*
X36786212Y-86762107D02*
X36643355Y-86833535D01*
X36643355Y-86833535D02*
X36571926Y-86904964D01*
X36571926Y-86904964D02*
X36500497Y-87047821D01*
X36500497Y-87047821D02*
X36500497Y-87404964D01*
X36500497Y-87404964D02*
X36571926Y-87547821D01*
X36571926Y-87547821D02*
X36643355Y-87619250D01*
X36643355Y-87619250D02*
X36786212Y-87690678D01*
X36786212Y-87690678D02*
X37214783Y-87690678D01*
X37214783Y-87690678D02*
X37357640Y-87619250D01*
X37357640Y-87619250D02*
X37429069Y-87547821D01*
X34786212Y-86119250D02*
X36071926Y-88047821D01*
X33786212Y-86904964D02*
X33571926Y-86976392D01*
X33571926Y-86976392D02*
X33500497Y-87047821D01*
X33500497Y-87047821D02*
X33429069Y-87190678D01*
X33429069Y-87190678D02*
X33429069Y-87404964D01*
X33429069Y-87404964D02*
X33500497Y-87547821D01*
X33500497Y-87547821D02*
X33571926Y-87619250D01*
X33571926Y-87619250D02*
X33714783Y-87690678D01*
X33714783Y-87690678D02*
X34286212Y-87690678D01*
X34286212Y-87690678D02*
X34286212Y-86190678D01*
X34286212Y-86190678D02*
X33786212Y-86190678D01*
X33786212Y-86190678D02*
X33643355Y-86262107D01*
X33643355Y-86262107D02*
X33571926Y-86333535D01*
X33571926Y-86333535D02*
X33500497Y-86476392D01*
X33500497Y-86476392D02*
X33500497Y-86619250D01*
X33500497Y-86619250D02*
X33571926Y-86762107D01*
X33571926Y-86762107D02*
X33643355Y-86833535D01*
X33643355Y-86833535D02*
X33786212Y-86904964D01*
X33786212Y-86904964D02*
X34286212Y-86904964D01*
D12*
X62166666Y-77204819D02*
X62499999Y-76728628D01*
X62738094Y-77204819D02*
X62738094Y-76204819D01*
X62738094Y-76204819D02*
X62357142Y-76204819D01*
X62357142Y-76204819D02*
X62261904Y-76252438D01*
X62261904Y-76252438D02*
X62214285Y-76300057D01*
X62214285Y-76300057D02*
X62166666Y-76395295D01*
X62166666Y-76395295D02*
X62166666Y-76538152D01*
X62166666Y-76538152D02*
X62214285Y-76633390D01*
X62214285Y-76633390D02*
X62261904Y-76681009D01*
X62261904Y-76681009D02*
X62357142Y-76728628D01*
X62357142Y-76728628D02*
X62738094Y-76728628D01*
X61309523Y-76204819D02*
X61499999Y-76204819D01*
X61499999Y-76204819D02*
X61595237Y-76252438D01*
X61595237Y-76252438D02*
X61642856Y-76300057D01*
X61642856Y-76300057D02*
X61738094Y-76442914D01*
X61738094Y-76442914D02*
X61785713Y-76633390D01*
X61785713Y-76633390D02*
X61785713Y-77014342D01*
X61785713Y-77014342D02*
X61738094Y-77109580D01*
X61738094Y-77109580D02*
X61690475Y-77157200D01*
X61690475Y-77157200D02*
X61595237Y-77204819D01*
X61595237Y-77204819D02*
X61404761Y-77204819D01*
X61404761Y-77204819D02*
X61309523Y-77157200D01*
X61309523Y-77157200D02*
X61261904Y-77109580D01*
X61261904Y-77109580D02*
X61214285Y-77014342D01*
X61214285Y-77014342D02*
X61214285Y-76776247D01*
X61214285Y-76776247D02*
X61261904Y-76681009D01*
X61261904Y-76681009D02*
X61309523Y-76633390D01*
X61309523Y-76633390D02*
X61404761Y-76585771D01*
X61404761Y-76585771D02*
X61595237Y-76585771D01*
X61595237Y-76585771D02*
X61690475Y-76633390D01*
X61690475Y-76633390D02*
X61738094Y-76681009D01*
X61738094Y-76681009D02*
X61785713Y-76776247D01*
X63142857Y-87704819D02*
X63476190Y-87228628D01*
X63714285Y-87704819D02*
X63714285Y-86704819D01*
X63714285Y-86704819D02*
X63333333Y-86704819D01*
X63333333Y-86704819D02*
X63238095Y-86752438D01*
X63238095Y-86752438D02*
X63190476Y-86800057D01*
X63190476Y-86800057D02*
X63142857Y-86895295D01*
X63142857Y-86895295D02*
X63142857Y-87038152D01*
X63142857Y-87038152D02*
X63190476Y-87133390D01*
X63190476Y-87133390D02*
X63238095Y-87181009D01*
X63238095Y-87181009D02*
X63333333Y-87228628D01*
X63333333Y-87228628D02*
X63714285Y-87228628D01*
X62190476Y-87704819D02*
X62761904Y-87704819D01*
X62476190Y-87704819D02*
X62476190Y-86704819D01*
X62476190Y-86704819D02*
X62571428Y-86847676D01*
X62571428Y-86847676D02*
X62666666Y-86942914D01*
X62666666Y-86942914D02*
X62761904Y-86990533D01*
X61238095Y-87704819D02*
X61809523Y-87704819D01*
X61523809Y-87704819D02*
X61523809Y-86704819D01*
X61523809Y-86704819D02*
X61619047Y-86847676D01*
X61619047Y-86847676D02*
X61714285Y-86942914D01*
X61714285Y-86942914D02*
X61809523Y-86990533D01*
X62166666Y-75454819D02*
X62499999Y-74978628D01*
X62738094Y-75454819D02*
X62738094Y-74454819D01*
X62738094Y-74454819D02*
X62357142Y-74454819D01*
X62357142Y-74454819D02*
X62261904Y-74502438D01*
X62261904Y-74502438D02*
X62214285Y-74550057D01*
X62214285Y-74550057D02*
X62166666Y-74645295D01*
X62166666Y-74645295D02*
X62166666Y-74788152D01*
X62166666Y-74788152D02*
X62214285Y-74883390D01*
X62214285Y-74883390D02*
X62261904Y-74931009D01*
X62261904Y-74931009D02*
X62357142Y-74978628D01*
X62357142Y-74978628D02*
X62738094Y-74978628D01*
X61690475Y-75454819D02*
X61499999Y-75454819D01*
X61499999Y-75454819D02*
X61404761Y-75407200D01*
X61404761Y-75407200D02*
X61357142Y-75359580D01*
X61357142Y-75359580D02*
X61261904Y-75216723D01*
X61261904Y-75216723D02*
X61214285Y-75026247D01*
X61214285Y-75026247D02*
X61214285Y-74645295D01*
X61214285Y-74645295D02*
X61261904Y-74550057D01*
X61261904Y-74550057D02*
X61309523Y-74502438D01*
X61309523Y-74502438D02*
X61404761Y-74454819D01*
X61404761Y-74454819D02*
X61595237Y-74454819D01*
X61595237Y-74454819D02*
X61690475Y-74502438D01*
X61690475Y-74502438D02*
X61738094Y-74550057D01*
X61738094Y-74550057D02*
X61785713Y-74645295D01*
X61785713Y-74645295D02*
X61785713Y-74883390D01*
X61785713Y-74883390D02*
X61738094Y-74978628D01*
X61738094Y-74978628D02*
X61690475Y-75026247D01*
X61690475Y-75026247D02*
X61595237Y-75073866D01*
X61595237Y-75073866D02*
X61404761Y-75073866D01*
X61404761Y-75073866D02*
X61309523Y-75026247D01*
X61309523Y-75026247D02*
X61261904Y-74978628D01*
X61261904Y-74978628D02*
X61214285Y-74883390D01*
X55605238Y-91750057D02*
X55700476Y-91702438D01*
X55700476Y-91702438D02*
X55795714Y-91607200D01*
X55795714Y-91607200D02*
X55938571Y-91464342D01*
X55938571Y-91464342D02*
X56033809Y-91416723D01*
X56033809Y-91416723D02*
X56129047Y-91416723D01*
X56081428Y-91654819D02*
X56176666Y-91607200D01*
X56176666Y-91607200D02*
X56271904Y-91511961D01*
X56271904Y-91511961D02*
X56319523Y-91321485D01*
X56319523Y-91321485D02*
X56319523Y-90988152D01*
X56319523Y-90988152D02*
X56271904Y-90797676D01*
X56271904Y-90797676D02*
X56176666Y-90702438D01*
X56176666Y-90702438D02*
X56081428Y-90654819D01*
X56081428Y-90654819D02*
X55890952Y-90654819D01*
X55890952Y-90654819D02*
X55795714Y-90702438D01*
X55795714Y-90702438D02*
X55700476Y-90797676D01*
X55700476Y-90797676D02*
X55652857Y-90988152D01*
X55652857Y-90988152D02*
X55652857Y-91321485D01*
X55652857Y-91321485D02*
X55700476Y-91511961D01*
X55700476Y-91511961D02*
X55795714Y-91607200D01*
X55795714Y-91607200D02*
X55890952Y-91654819D01*
X55890952Y-91654819D02*
X56081428Y-91654819D01*
X54795714Y-90988152D02*
X54795714Y-91654819D01*
X55033809Y-90607200D02*
X55271904Y-91321485D01*
X55271904Y-91321485D02*
X54652857Y-91321485D01*
X61416666Y-71204819D02*
X61749999Y-70728628D01*
X61988094Y-71204819D02*
X61988094Y-70204819D01*
X61988094Y-70204819D02*
X61607142Y-70204819D01*
X61607142Y-70204819D02*
X61511904Y-70252438D01*
X61511904Y-70252438D02*
X61464285Y-70300057D01*
X61464285Y-70300057D02*
X61416666Y-70395295D01*
X61416666Y-70395295D02*
X61416666Y-70538152D01*
X61416666Y-70538152D02*
X61464285Y-70633390D01*
X61464285Y-70633390D02*
X61511904Y-70681009D01*
X61511904Y-70681009D02*
X61607142Y-70728628D01*
X61607142Y-70728628D02*
X61988094Y-70728628D01*
X60511904Y-70204819D02*
X60988094Y-70204819D01*
X60988094Y-70204819D02*
X61035713Y-70681009D01*
X61035713Y-70681009D02*
X60988094Y-70633390D01*
X60988094Y-70633390D02*
X60892856Y-70585771D01*
X60892856Y-70585771D02*
X60654761Y-70585771D01*
X60654761Y-70585771D02*
X60559523Y-70633390D01*
X60559523Y-70633390D02*
X60511904Y-70681009D01*
X60511904Y-70681009D02*
X60464285Y-70776247D01*
X60464285Y-70776247D02*
X60464285Y-71014342D01*
X60464285Y-71014342D02*
X60511904Y-71109580D01*
X60511904Y-71109580D02*
X60559523Y-71157200D01*
X60559523Y-71157200D02*
X60654761Y-71204819D01*
X60654761Y-71204819D02*
X60892856Y-71204819D01*
X60892856Y-71204819D02*
X60988094Y-71157200D01*
X60988094Y-71157200D02*
X61035713Y-71109580D01*
X55605238Y-84620057D02*
X55700476Y-84572438D01*
X55700476Y-84572438D02*
X55795714Y-84477200D01*
X55795714Y-84477200D02*
X55938571Y-84334342D01*
X55938571Y-84334342D02*
X56033809Y-84286723D01*
X56033809Y-84286723D02*
X56129047Y-84286723D01*
X56081428Y-84524819D02*
X56176666Y-84477200D01*
X56176666Y-84477200D02*
X56271904Y-84381961D01*
X56271904Y-84381961D02*
X56319523Y-84191485D01*
X56319523Y-84191485D02*
X56319523Y-83858152D01*
X56319523Y-83858152D02*
X56271904Y-83667676D01*
X56271904Y-83667676D02*
X56176666Y-83572438D01*
X56176666Y-83572438D02*
X56081428Y-83524819D01*
X56081428Y-83524819D02*
X55890952Y-83524819D01*
X55890952Y-83524819D02*
X55795714Y-83572438D01*
X55795714Y-83572438D02*
X55700476Y-83667676D01*
X55700476Y-83667676D02*
X55652857Y-83858152D01*
X55652857Y-83858152D02*
X55652857Y-84191485D01*
X55652857Y-84191485D02*
X55700476Y-84381961D01*
X55700476Y-84381961D02*
X55795714Y-84477200D01*
X55795714Y-84477200D02*
X55890952Y-84524819D01*
X55890952Y-84524819D02*
X56081428Y-84524819D01*
X55319523Y-83524819D02*
X54700476Y-83524819D01*
X54700476Y-83524819D02*
X55033809Y-83905771D01*
X55033809Y-83905771D02*
X54890952Y-83905771D01*
X54890952Y-83905771D02*
X54795714Y-83953390D01*
X54795714Y-83953390D02*
X54748095Y-84001009D01*
X54748095Y-84001009D02*
X54700476Y-84096247D01*
X54700476Y-84096247D02*
X54700476Y-84334342D01*
X54700476Y-84334342D02*
X54748095Y-84429580D01*
X54748095Y-84429580D02*
X54795714Y-84477200D01*
X54795714Y-84477200D02*
X54890952Y-84524819D01*
X54890952Y-84524819D02*
X55176666Y-84524819D01*
X55176666Y-84524819D02*
X55271904Y-84477200D01*
X55271904Y-84477200D02*
X55319523Y-84429580D01*
X60142857Y-92454819D02*
X60476190Y-91978628D01*
X60714285Y-92454819D02*
X60714285Y-91454819D01*
X60714285Y-91454819D02*
X60333333Y-91454819D01*
X60333333Y-91454819D02*
X60238095Y-91502438D01*
X60238095Y-91502438D02*
X60190476Y-91550057D01*
X60190476Y-91550057D02*
X60142857Y-91645295D01*
X60142857Y-91645295D02*
X60142857Y-91788152D01*
X60142857Y-91788152D02*
X60190476Y-91883390D01*
X60190476Y-91883390D02*
X60238095Y-91931009D01*
X60238095Y-91931009D02*
X60333333Y-91978628D01*
X60333333Y-91978628D02*
X60714285Y-91978628D01*
X59190476Y-92454819D02*
X59761904Y-92454819D01*
X59476190Y-92454819D02*
X59476190Y-91454819D01*
X59476190Y-91454819D02*
X59571428Y-91597676D01*
X59571428Y-91597676D02*
X59666666Y-91692914D01*
X59666666Y-91692914D02*
X59761904Y-91740533D01*
X58809523Y-91550057D02*
X58761904Y-91502438D01*
X58761904Y-91502438D02*
X58666666Y-91454819D01*
X58666666Y-91454819D02*
X58428571Y-91454819D01*
X58428571Y-91454819D02*
X58333333Y-91502438D01*
X58333333Y-91502438D02*
X58285714Y-91550057D01*
X58285714Y-91550057D02*
X58238095Y-91645295D01*
X58238095Y-91645295D02*
X58238095Y-91740533D01*
X58238095Y-91740533D02*
X58285714Y-91883390D01*
X58285714Y-91883390D02*
X58857142Y-92454819D01*
X58857142Y-92454819D02*
X58238095Y-92454819D01*
X56416666Y-43609580D02*
X56464285Y-43657200D01*
X56464285Y-43657200D02*
X56607142Y-43704819D01*
X56607142Y-43704819D02*
X56702380Y-43704819D01*
X56702380Y-43704819D02*
X56845237Y-43657200D01*
X56845237Y-43657200D02*
X56940475Y-43561961D01*
X56940475Y-43561961D02*
X56988094Y-43466723D01*
X56988094Y-43466723D02*
X57035713Y-43276247D01*
X57035713Y-43276247D02*
X57035713Y-43133390D01*
X57035713Y-43133390D02*
X56988094Y-42942914D01*
X56988094Y-42942914D02*
X56940475Y-42847676D01*
X56940475Y-42847676D02*
X56845237Y-42752438D01*
X56845237Y-42752438D02*
X56702380Y-42704819D01*
X56702380Y-42704819D02*
X56607142Y-42704819D01*
X56607142Y-42704819D02*
X56464285Y-42752438D01*
X56464285Y-42752438D02*
X56416666Y-42800057D01*
X56035713Y-42800057D02*
X55988094Y-42752438D01*
X55988094Y-42752438D02*
X55892856Y-42704819D01*
X55892856Y-42704819D02*
X55654761Y-42704819D01*
X55654761Y-42704819D02*
X55559523Y-42752438D01*
X55559523Y-42752438D02*
X55511904Y-42800057D01*
X55511904Y-42800057D02*
X55464285Y-42895295D01*
X55464285Y-42895295D02*
X55464285Y-42990533D01*
X55464285Y-42990533D02*
X55511904Y-43133390D01*
X55511904Y-43133390D02*
X56083332Y-43704819D01*
X56083332Y-43704819D02*
X55464285Y-43704819D01*
X63142857Y-81704819D02*
X63476190Y-81228628D01*
X63714285Y-81704819D02*
X63714285Y-80704819D01*
X63714285Y-80704819D02*
X63333333Y-80704819D01*
X63333333Y-80704819D02*
X63238095Y-80752438D01*
X63238095Y-80752438D02*
X63190476Y-80800057D01*
X63190476Y-80800057D02*
X63142857Y-80895295D01*
X63142857Y-80895295D02*
X63142857Y-81038152D01*
X63142857Y-81038152D02*
X63190476Y-81133390D01*
X63190476Y-81133390D02*
X63238095Y-81181009D01*
X63238095Y-81181009D02*
X63333333Y-81228628D01*
X63333333Y-81228628D02*
X63714285Y-81228628D01*
X62190476Y-81704819D02*
X62761904Y-81704819D01*
X62476190Y-81704819D02*
X62476190Y-80704819D01*
X62476190Y-80704819D02*
X62571428Y-80847676D01*
X62571428Y-80847676D02*
X62666666Y-80942914D01*
X62666666Y-80942914D02*
X62761904Y-80990533D01*
X61571428Y-80704819D02*
X61476190Y-80704819D01*
X61476190Y-80704819D02*
X61380952Y-80752438D01*
X61380952Y-80752438D02*
X61333333Y-80800057D01*
X61333333Y-80800057D02*
X61285714Y-80895295D01*
X61285714Y-80895295D02*
X61238095Y-81085771D01*
X61238095Y-81085771D02*
X61238095Y-81323866D01*
X61238095Y-81323866D02*
X61285714Y-81514342D01*
X61285714Y-81514342D02*
X61333333Y-81609580D01*
X61333333Y-81609580D02*
X61380952Y-81657200D01*
X61380952Y-81657200D02*
X61476190Y-81704819D01*
X61476190Y-81704819D02*
X61571428Y-81704819D01*
X61571428Y-81704819D02*
X61666666Y-81657200D01*
X61666666Y-81657200D02*
X61714285Y-81609580D01*
X61714285Y-81609580D02*
X61761904Y-81514342D01*
X61761904Y-81514342D02*
X61809523Y-81323866D01*
X61809523Y-81323866D02*
X61809523Y-81085771D01*
X61809523Y-81085771D02*
X61761904Y-80895295D01*
X61761904Y-80895295D02*
X61714285Y-80800057D01*
X61714285Y-80800057D02*
X61666666Y-80752438D01*
X61666666Y-80752438D02*
X61571428Y-80704819D01*
X55605238Y-70520057D02*
X55700476Y-70472438D01*
X55700476Y-70472438D02*
X55795714Y-70377200D01*
X55795714Y-70377200D02*
X55938571Y-70234342D01*
X55938571Y-70234342D02*
X56033809Y-70186723D01*
X56033809Y-70186723D02*
X56129047Y-70186723D01*
X56081428Y-70424819D02*
X56176666Y-70377200D01*
X56176666Y-70377200D02*
X56271904Y-70281961D01*
X56271904Y-70281961D02*
X56319523Y-70091485D01*
X56319523Y-70091485D02*
X56319523Y-69758152D01*
X56319523Y-69758152D02*
X56271904Y-69567676D01*
X56271904Y-69567676D02*
X56176666Y-69472438D01*
X56176666Y-69472438D02*
X56081428Y-69424819D01*
X56081428Y-69424819D02*
X55890952Y-69424819D01*
X55890952Y-69424819D02*
X55795714Y-69472438D01*
X55795714Y-69472438D02*
X55700476Y-69567676D01*
X55700476Y-69567676D02*
X55652857Y-69758152D01*
X55652857Y-69758152D02*
X55652857Y-70091485D01*
X55652857Y-70091485D02*
X55700476Y-70281961D01*
X55700476Y-70281961D02*
X55795714Y-70377200D01*
X55795714Y-70377200D02*
X55890952Y-70424819D01*
X55890952Y-70424819D02*
X56081428Y-70424819D01*
X54700476Y-70424819D02*
X55271904Y-70424819D01*
X54986190Y-70424819D02*
X54986190Y-69424819D01*
X54986190Y-69424819D02*
X55081428Y-69567676D01*
X55081428Y-69567676D02*
X55176666Y-69662914D01*
X55176666Y-69662914D02*
X55271904Y-69710533D01*
X55605238Y-77570057D02*
X55700476Y-77522438D01*
X55700476Y-77522438D02*
X55795714Y-77427200D01*
X55795714Y-77427200D02*
X55938571Y-77284342D01*
X55938571Y-77284342D02*
X56033809Y-77236723D01*
X56033809Y-77236723D02*
X56129047Y-77236723D01*
X56081428Y-77474819D02*
X56176666Y-77427200D01*
X56176666Y-77427200D02*
X56271904Y-77331961D01*
X56271904Y-77331961D02*
X56319523Y-77141485D01*
X56319523Y-77141485D02*
X56319523Y-76808152D01*
X56319523Y-76808152D02*
X56271904Y-76617676D01*
X56271904Y-76617676D02*
X56176666Y-76522438D01*
X56176666Y-76522438D02*
X56081428Y-76474819D01*
X56081428Y-76474819D02*
X55890952Y-76474819D01*
X55890952Y-76474819D02*
X55795714Y-76522438D01*
X55795714Y-76522438D02*
X55700476Y-76617676D01*
X55700476Y-76617676D02*
X55652857Y-76808152D01*
X55652857Y-76808152D02*
X55652857Y-77141485D01*
X55652857Y-77141485D02*
X55700476Y-77331961D01*
X55700476Y-77331961D02*
X55795714Y-77427200D01*
X55795714Y-77427200D02*
X55890952Y-77474819D01*
X55890952Y-77474819D02*
X56081428Y-77474819D01*
X55271904Y-76570057D02*
X55224285Y-76522438D01*
X55224285Y-76522438D02*
X55129047Y-76474819D01*
X55129047Y-76474819D02*
X54890952Y-76474819D01*
X54890952Y-76474819D02*
X54795714Y-76522438D01*
X54795714Y-76522438D02*
X54748095Y-76570057D01*
X54748095Y-76570057D02*
X54700476Y-76665295D01*
X54700476Y-76665295D02*
X54700476Y-76760533D01*
X54700476Y-76760533D02*
X54748095Y-76903390D01*
X54748095Y-76903390D02*
X55319523Y-77474819D01*
X55319523Y-77474819D02*
X54700476Y-77474819D01*
X62166666Y-83454819D02*
X62499999Y-82978628D01*
X62738094Y-83454819D02*
X62738094Y-82454819D01*
X62738094Y-82454819D02*
X62357142Y-82454819D01*
X62357142Y-82454819D02*
X62261904Y-82502438D01*
X62261904Y-82502438D02*
X62214285Y-82550057D01*
X62214285Y-82550057D02*
X62166666Y-82645295D01*
X62166666Y-82645295D02*
X62166666Y-82788152D01*
X62166666Y-82788152D02*
X62214285Y-82883390D01*
X62214285Y-82883390D02*
X62261904Y-82931009D01*
X62261904Y-82931009D02*
X62357142Y-82978628D01*
X62357142Y-82978628D02*
X62738094Y-82978628D01*
X61833332Y-82454819D02*
X61166666Y-82454819D01*
X61166666Y-82454819D02*
X61595237Y-83454819D01*
X62166666Y-89454819D02*
X62499999Y-88978628D01*
X62738094Y-89454819D02*
X62738094Y-88454819D01*
X62738094Y-88454819D02*
X62357142Y-88454819D01*
X62357142Y-88454819D02*
X62261904Y-88502438D01*
X62261904Y-88502438D02*
X62214285Y-88550057D01*
X62214285Y-88550057D02*
X62166666Y-88645295D01*
X62166666Y-88645295D02*
X62166666Y-88788152D01*
X62166666Y-88788152D02*
X62214285Y-88883390D01*
X62214285Y-88883390D02*
X62261904Y-88931009D01*
X62261904Y-88931009D02*
X62357142Y-88978628D01*
X62357142Y-88978628D02*
X62738094Y-88978628D01*
X61595237Y-88883390D02*
X61690475Y-88835771D01*
X61690475Y-88835771D02*
X61738094Y-88788152D01*
X61738094Y-88788152D02*
X61785713Y-88692914D01*
X61785713Y-88692914D02*
X61785713Y-88645295D01*
X61785713Y-88645295D02*
X61738094Y-88550057D01*
X61738094Y-88550057D02*
X61690475Y-88502438D01*
X61690475Y-88502438D02*
X61595237Y-88454819D01*
X61595237Y-88454819D02*
X61404761Y-88454819D01*
X61404761Y-88454819D02*
X61309523Y-88502438D01*
X61309523Y-88502438D02*
X61261904Y-88550057D01*
X61261904Y-88550057D02*
X61214285Y-88645295D01*
X61214285Y-88645295D02*
X61214285Y-88692914D01*
X61214285Y-88692914D02*
X61261904Y-88788152D01*
X61261904Y-88788152D02*
X61309523Y-88835771D01*
X61309523Y-88835771D02*
X61404761Y-88883390D01*
X61404761Y-88883390D02*
X61595237Y-88883390D01*
X61595237Y-88883390D02*
X61690475Y-88931009D01*
X61690475Y-88931009D02*
X61738094Y-88978628D01*
X61738094Y-88978628D02*
X61785713Y-89073866D01*
X61785713Y-89073866D02*
X61785713Y-89264342D01*
X61785713Y-89264342D02*
X61738094Y-89359580D01*
X61738094Y-89359580D02*
X61690475Y-89407200D01*
X61690475Y-89407200D02*
X61595237Y-89454819D01*
X61595237Y-89454819D02*
X61404761Y-89454819D01*
X61404761Y-89454819D02*
X61309523Y-89407200D01*
X61309523Y-89407200D02*
X61261904Y-89359580D01*
X61261904Y-89359580D02*
X61214285Y-89264342D01*
X61214285Y-89264342D02*
X61214285Y-89073866D01*
X61214285Y-89073866D02*
X61261904Y-88978628D01*
X61261904Y-88978628D02*
X61309523Y-88931009D01*
X61309523Y-88931009D02*
X61404761Y-88883390D01*
X67764666Y-79819580D02*
X67812285Y-79867200D01*
X67812285Y-79867200D02*
X67955142Y-79914819D01*
X67955142Y-79914819D02*
X68050380Y-79914819D01*
X68050380Y-79914819D02*
X68193237Y-79867200D01*
X68193237Y-79867200D02*
X68288475Y-79771961D01*
X68288475Y-79771961D02*
X68336094Y-79676723D01*
X68336094Y-79676723D02*
X68383713Y-79486247D01*
X68383713Y-79486247D02*
X68383713Y-79343390D01*
X68383713Y-79343390D02*
X68336094Y-79152914D01*
X68336094Y-79152914D02*
X68288475Y-79057676D01*
X68288475Y-79057676D02*
X68193237Y-78962438D01*
X68193237Y-78962438D02*
X68050380Y-78914819D01*
X68050380Y-78914819D02*
X67955142Y-78914819D01*
X67955142Y-78914819D02*
X67812285Y-78962438D01*
X67812285Y-78962438D02*
X67764666Y-79010057D01*
X66812285Y-79914819D02*
X67383713Y-79914819D01*
X67097999Y-79914819D02*
X67097999Y-78914819D01*
X67097999Y-78914819D02*
X67193237Y-79057676D01*
X67193237Y-79057676D02*
X67288475Y-79152914D01*
X67288475Y-79152914D02*
X67383713Y-79200533D01*
D13*
%TO.C,G\u002A\u002A\u002A*%
G36*
X74012717Y-92947125D02*
G01*
X74020051Y-93015453D01*
X74012869Y-93128564D01*
X73995878Y-93287227D01*
X73906925Y-93270539D01*
X73886239Y-93266550D01*
X73820298Y-93250128D01*
X73789000Y-93231594D01*
X73781072Y-93205086D01*
X73798931Y-93190362D01*
X73851467Y-93193206D01*
X73891829Y-93198900D01*
X73914756Y-93188206D01*
X73927677Y-93150409D01*
X73938406Y-93074869D01*
X73946675Y-93021403D01*
X73961487Y-92959082D01*
X73975916Y-92929497D01*
X73991004Y-92924314D01*
X74012717Y-92947125D01*
G37*
G36*
X74220950Y-92977390D02*
G01*
X74252792Y-93033379D01*
X74269874Y-93105460D01*
X74267796Y-93184484D01*
X74242158Y-93261297D01*
X74241747Y-93262058D01*
X74204682Y-93297375D01*
X74140534Y-93302313D01*
X74136872Y-93301913D01*
X74085157Y-93287228D01*
X74055861Y-93264307D01*
X74056014Y-93243191D01*
X74092647Y-93233920D01*
X74142397Y-93220866D01*
X74182525Y-93171848D01*
X74190741Y-93095364D01*
X74188052Y-93076847D01*
X74169712Y-93038656D01*
X74128100Y-93032722D01*
X74091431Y-93031858D01*
X74075057Y-93011474D01*
X74102529Y-92970910D01*
X74130592Y-92950298D01*
X74178750Y-92946646D01*
X74220950Y-92977390D01*
G37*
G36*
X74841536Y-92758630D02*
G01*
X74889404Y-92795831D01*
X74935144Y-92852902D01*
X74973430Y-92942412D01*
X74986565Y-93036260D01*
X74972997Y-93120161D01*
X74931170Y-93179830D01*
X74901796Y-93196057D01*
X74853347Y-93203904D01*
X74832813Y-93194525D01*
X74810971Y-93162461D01*
X74810751Y-93128157D01*
X74836029Y-93112156D01*
X74838937Y-93112094D01*
X74877278Y-93090510D01*
X74887831Y-93033865D01*
X74869491Y-92947584D01*
X74846997Y-92892059D01*
X74818556Y-92865456D01*
X74772770Y-92863462D01*
X74731658Y-92860878D01*
X74706477Y-92837420D01*
X74718242Y-92801966D01*
X74767602Y-92766676D01*
X74800892Y-92754371D01*
X74841536Y-92758630D01*
G37*
G36*
X73673875Y-92910044D02*
G01*
X73669600Y-92987272D01*
X73664507Y-93045265D01*
X73669245Y-93104653D01*
X73685799Y-93122533D01*
X73709806Y-93096513D01*
X73736904Y-93024197D01*
X73742943Y-93004272D01*
X73769157Y-92943256D01*
X73793366Y-92917622D01*
X73809702Y-92930437D01*
X73812300Y-92984771D01*
X73809582Y-93008650D01*
X73787616Y-93093885D01*
X73752576Y-93160413D01*
X73711695Y-93193244D01*
X73690715Y-93198723D01*
X73658090Y-93206743D01*
X73648771Y-93207164D01*
X73617890Y-93182804D01*
X73596502Y-93127642D01*
X73586822Y-93055517D01*
X73591068Y-92980267D01*
X73611459Y-92915733D01*
X73640116Y-92874865D01*
X73663157Y-92871480D01*
X73673875Y-92910044D01*
G37*
G36*
X74640312Y-92864537D02*
G01*
X74661600Y-92933738D01*
X74664267Y-92948012D01*
X74687568Y-93034997D01*
X74717068Y-93109086D01*
X74719445Y-93113732D01*
X74744766Y-93170693D01*
X74755185Y-93208358D01*
X74750835Y-93225582D01*
X74723398Y-93233497D01*
X74681122Y-93212535D01*
X74636224Y-93166950D01*
X74586258Y-93099980D01*
X74585487Y-93174256D01*
X74576796Y-93233638D01*
X74555318Y-93277929D01*
X74528691Y-93294683D01*
X74494954Y-93276361D01*
X74483643Y-93261919D01*
X74476516Y-93221715D01*
X74491830Y-93154680D01*
X74505208Y-93103138D01*
X74504038Y-93057341D01*
X74479135Y-93019173D01*
X74446608Y-92973761D01*
X74438447Y-92934645D01*
X74461307Y-92921038D01*
X74511657Y-92941388D01*
X74521693Y-92946963D01*
X74545928Y-92943286D01*
X74560602Y-92898397D01*
X74561090Y-92895861D01*
X74582405Y-92842921D01*
X74611363Y-92833372D01*
X74640312Y-92864537D01*
G37*
G36*
X75261002Y-92897387D02*
G01*
X75303478Y-92989696D01*
X75314446Y-93045025D01*
X75293929Y-93063451D01*
X75277396Y-93057535D01*
X75242242Y-93026921D01*
X75228724Y-93012348D01*
X75186794Y-92988974D01*
X75160117Y-93003953D01*
X75159788Y-93053685D01*
X75165017Y-93077599D01*
X75161290Y-93107037D01*
X75129811Y-93108146D01*
X75119619Y-93104823D01*
X75080228Y-93064315D01*
X75049400Y-92989662D01*
X75030793Y-92892500D01*
X75029231Y-92830662D01*
X75096125Y-92830662D01*
X75099105Y-92848806D01*
X75120477Y-92868628D01*
X75126255Y-92867972D01*
X75144830Y-92845712D01*
X75143901Y-92838880D01*
X75120477Y-92807746D01*
X75107931Y-92805455D01*
X75096125Y-92830662D01*
X75029231Y-92830662D01*
X75028064Y-92784461D01*
X75028683Y-92774793D01*
X75041369Y-92691880D01*
X75065407Y-92654433D01*
X75101833Y-92662630D01*
X75151680Y-92716648D01*
X75215986Y-92816664D01*
X75232185Y-92845712D01*
X75261002Y-92897387D01*
G37*
G36*
X75599121Y-92556947D02*
G01*
X75600631Y-92559409D01*
X75622975Y-92609629D01*
X75650122Y-92686806D01*
X75676494Y-92772839D01*
X75696508Y-92849627D01*
X75704587Y-92899069D01*
X75701739Y-92919871D01*
X75677332Y-92940092D01*
X75636731Y-92926017D01*
X75590639Y-92879486D01*
X75545638Y-92835775D01*
X75502394Y-92829055D01*
X75475907Y-92862707D01*
X75475730Y-92932336D01*
X75480465Y-92962038D01*
X75478149Y-93003394D01*
X75454933Y-93014745D01*
X75434234Y-93010691D01*
X75391209Y-92981651D01*
X75376015Y-92956738D01*
X75347784Y-92888700D01*
X75320373Y-92803209D01*
X75299582Y-92719184D01*
X75291211Y-92655541D01*
X75297277Y-92620631D01*
X75323513Y-92602096D01*
X75361205Y-92620088D01*
X75400102Y-92672967D01*
X75424615Y-92709262D01*
X75465082Y-92731862D01*
X75497103Y-92711311D01*
X75510123Y-92649829D01*
X75515975Y-92605775D01*
X75538811Y-92559330D01*
X75569813Y-92539624D01*
X75599121Y-92556947D01*
G37*
G36*
X73554517Y-92911605D02*
G01*
X73538490Y-92986446D01*
X73530018Y-93012918D01*
X73514100Y-93062654D01*
X73478515Y-93107362D01*
X73430232Y-93107738D01*
X73364257Y-93066066D01*
X73338691Y-93043418D01*
X73323290Y-93012918D01*
X73396094Y-93012918D01*
X73397647Y-93026741D01*
X73427956Y-93039098D01*
X73448062Y-93035124D01*
X73459818Y-93012918D01*
X73456510Y-93005698D01*
X73427956Y-92986739D01*
X73421236Y-92987758D01*
X73396094Y-93012918D01*
X73323290Y-93012918D01*
X73320981Y-93008346D01*
X73335951Y-92962567D01*
X73355176Y-92916858D01*
X73361887Y-92892981D01*
X73440132Y-92892981D01*
X73440840Y-92898802D01*
X73464485Y-92917334D01*
X73470306Y-92916626D01*
X73488838Y-92892981D01*
X73488130Y-92887160D01*
X73464485Y-92868628D01*
X73458664Y-92869336D01*
X73440132Y-92892981D01*
X73361887Y-92892981D01*
X73372155Y-92856452D01*
X73374538Y-92846303D01*
X73407194Y-92809235D01*
X73461970Y-92801842D01*
X73522831Y-92827233D01*
X73540460Y-92841694D01*
X73555671Y-92868414D01*
X73555015Y-92892981D01*
X73554517Y-92911605D01*
G37*
G36*
X74287362Y-91701648D02*
G01*
X74264551Y-91775118D01*
X74200849Y-91832042D01*
X74163987Y-91850645D01*
X74121868Y-91863881D01*
X74072582Y-91865587D01*
X74002714Y-91855891D01*
X73898848Y-91834921D01*
X73805732Y-91813387D01*
X73700138Y-91780159D01*
X73632613Y-91742891D01*
X73596777Y-91697612D01*
X73588149Y-91650684D01*
X73664329Y-91650684D01*
X73703179Y-91674510D01*
X73784983Y-91678908D01*
X73869835Y-91681678D01*
X73996925Y-91722350D01*
X74040496Y-91743438D01*
X74113310Y-91768477D01*
X74160647Y-91763924D01*
X74191335Y-91730133D01*
X74202903Y-91691116D01*
X74187572Y-91632258D01*
X74138820Y-91580806D01*
X74066032Y-91540237D01*
X73978592Y-91514027D01*
X73885887Y-91505655D01*
X73797301Y-91518597D01*
X73722219Y-91556330D01*
X73721652Y-91556777D01*
X73669973Y-91610437D01*
X73664329Y-91650684D01*
X73588149Y-91650684D01*
X73586249Y-91640350D01*
X73587416Y-91615288D01*
X73608559Y-91551827D01*
X73664580Y-91491994D01*
X73679812Y-91479397D01*
X73721669Y-91450598D01*
X73765669Y-91436206D01*
X73827261Y-91432952D01*
X73921893Y-91437569D01*
X74006289Y-91445421D01*
X74101738Y-91465491D01*
X74166237Y-91497593D01*
X74213829Y-91539081D01*
X74270162Y-91620135D01*
X74285140Y-91691116D01*
X74287362Y-91701648D01*
G37*
G36*
X74039623Y-90190974D02*
G01*
X74009190Y-90228444D01*
X73951739Y-90282633D01*
X73875462Y-90345465D01*
X73836508Y-90375166D01*
X73760138Y-90429973D01*
X73700941Y-90467888D01*
X73669271Y-90482051D01*
X73651512Y-90479082D01*
X73593860Y-90459127D01*
X73512909Y-90424543D01*
X73418352Y-90380233D01*
X73319881Y-90331100D01*
X73227189Y-90282044D01*
X73149969Y-90237970D01*
X73097913Y-90203778D01*
X73082010Y-90185834D01*
X73221932Y-90185834D01*
X73228885Y-90193020D01*
X73270562Y-90218509D01*
X73341429Y-90255731D01*
X73431727Y-90299405D01*
X73483518Y-90323492D01*
X73567510Y-90362209D01*
X73628530Y-90389876D01*
X73656015Y-90401676D01*
X73659702Y-90401709D01*
X73692932Y-90384692D01*
X73745460Y-90347088D01*
X73805523Y-90298708D01*
X73861359Y-90249366D01*
X73901205Y-90208875D01*
X73913299Y-90187045D01*
X73910359Y-90183848D01*
X73875965Y-90159009D01*
X73812926Y-90119158D01*
X73732155Y-90071269D01*
X73561896Y-89973108D01*
X73391427Y-90071391D01*
X73367122Y-90085575D01*
X73292802Y-90131369D01*
X73241072Y-90167040D01*
X73221932Y-90185834D01*
X73082010Y-90185834D01*
X73080714Y-90184372D01*
X73088246Y-90174427D01*
X73130308Y-90140803D01*
X73199180Y-90094439D01*
X73283896Y-90041837D01*
X73373491Y-89989498D01*
X73456999Y-89943923D01*
X73523456Y-89911614D01*
X73561896Y-89899072D01*
X73577206Y-89902348D01*
X73630575Y-89925239D01*
X73706616Y-89964531D01*
X73794338Y-90013769D01*
X73882747Y-90066499D01*
X73960850Y-90116264D01*
X74017653Y-90156611D01*
X74042164Y-90181083D01*
X74040632Y-90187045D01*
X74039623Y-90190974D01*
G37*
G36*
X76580646Y-90166223D02*
G01*
X76557518Y-90196954D01*
X76513692Y-90255188D01*
X76481139Y-90282588D01*
X76439122Y-90303259D01*
X76382618Y-90309970D01*
X76294702Y-90306701D01*
X76229274Y-90301307D01*
X76161688Y-90287677D01*
X76110506Y-90260400D01*
X76056535Y-90211832D01*
X76007289Y-90153288D01*
X76082414Y-90153288D01*
X76160352Y-90195905D01*
X76215334Y-90222122D01*
X76284665Y-90237300D01*
X76324237Y-90216929D01*
X76328343Y-90196954D01*
X76303073Y-90167968D01*
X76248148Y-90148964D01*
X76175437Y-90145628D01*
X76082414Y-90153288D01*
X76007289Y-90153288D01*
X76000282Y-90144958D01*
X75957171Y-90050701D01*
X75958882Y-89986767D01*
X76043883Y-89986767D01*
X76060498Y-90027313D01*
X76112855Y-90043836D01*
X76135325Y-90044501D01*
X76239486Y-90061274D01*
X76333873Y-90095720D01*
X76399125Y-90141248D01*
X76402957Y-90145439D01*
X76449021Y-90183742D01*
X76481780Y-90177549D01*
X76509838Y-90125648D01*
X76513871Y-90113212D01*
X76511951Y-90037293D01*
X76470311Y-89968854D01*
X76396142Y-89920849D01*
X76360420Y-89910573D01*
X76279547Y-89899904D01*
X76193181Y-89899274D01*
X76119108Y-89908351D01*
X76075108Y-89926806D01*
X76067239Y-89935315D01*
X76043883Y-89986767D01*
X75958882Y-89986767D01*
X75959528Y-89962605D01*
X76007940Y-89884609D01*
X76021854Y-89871004D01*
X76057570Y-89842996D01*
X76098358Y-89828779D01*
X76158713Y-89825033D01*
X76253129Y-89828436D01*
X76364197Y-89838308D01*
X76443579Y-89857236D01*
X76501265Y-89888305D01*
X76512708Y-89897236D01*
X76579863Y-89978682D01*
X76602606Y-90071199D01*
X76592897Y-90113212D01*
X76580646Y-90166223D01*
G37*
G36*
X76085000Y-93080267D02*
G01*
X76084749Y-93127029D01*
X76080228Y-93135554D01*
X76047146Y-93151479D01*
X75979423Y-93146916D01*
X75937218Y-93142655D01*
X75846582Y-93145503D01*
X75731161Y-93162502D01*
X75585866Y-93194689D01*
X75405611Y-93243102D01*
X75185306Y-93308776D01*
X75031967Y-93354637D01*
X74748032Y-93430244D01*
X74502344Y-93481751D01*
X74292481Y-93509703D01*
X74179895Y-93513402D01*
X74004250Y-93502039D01*
X73841954Y-93473409D01*
X73838023Y-93472400D01*
X73735469Y-93436850D01*
X73606842Y-93379204D01*
X73464718Y-93305929D01*
X73321670Y-93223488D01*
X73190274Y-93138348D01*
X73034289Y-93026195D01*
X72920039Y-92934902D01*
X72858706Y-92874716D01*
X73031948Y-92874716D01*
X73057070Y-92904400D01*
X73116566Y-92952766D01*
X73201631Y-93013696D01*
X73303625Y-93081607D01*
X73413902Y-93150916D01*
X73523821Y-93216040D01*
X73624739Y-93271398D01*
X73708013Y-93311406D01*
X73744075Y-93326480D01*
X73833504Y-93359351D01*
X73915968Y-93379424D01*
X74010014Y-93390374D01*
X74134188Y-93395878D01*
X74192646Y-93396837D01*
X74376908Y-93389913D01*
X74561253Y-93365808D01*
X74759767Y-93322227D01*
X74986537Y-93256872D01*
X75013737Y-93248370D01*
X75253159Y-93176085D01*
X75460533Y-93118289D01*
X75632538Y-93075810D01*
X75765852Y-93049474D01*
X75857151Y-93040108D01*
X75895364Y-93039260D01*
X75950968Y-93035490D01*
X75972826Y-93029983D01*
X75972790Y-93028961D01*
X75962660Y-92990915D01*
X75937800Y-92921205D01*
X75902936Y-92831955D01*
X75862795Y-92735287D01*
X75822103Y-92643328D01*
X75810474Y-92618255D01*
X75771760Y-92541606D01*
X75738469Y-92495898D01*
X75700194Y-92469788D01*
X75646529Y-92451932D01*
X75594954Y-92440921D01*
X75429765Y-92435266D01*
X75234166Y-92466450D01*
X75009020Y-92534293D01*
X74755185Y-92638613D01*
X74624302Y-92695910D01*
X74461354Y-92756405D01*
X74312969Y-92795159D01*
X74164237Y-92815794D01*
X74000247Y-92821931D01*
X73941230Y-92821410D01*
X73753426Y-92810207D01*
X73576699Y-92781808D01*
X73393944Y-92732798D01*
X73188055Y-92659763D01*
X73181984Y-92657445D01*
X73157768Y-92651817D01*
X73158374Y-92669264D01*
X73182962Y-92719676D01*
X73198986Y-92753842D01*
X73208971Y-92808172D01*
X73179841Y-92836272D01*
X73107902Y-92844275D01*
X73103348Y-92844297D01*
X73044809Y-92852233D01*
X73031948Y-92874716D01*
X72858706Y-92874716D01*
X72847180Y-92863406D01*
X72814844Y-92810280D01*
X72822165Y-92774098D01*
X72868277Y-92753435D01*
X72952311Y-92746864D01*
X72996824Y-92746068D01*
X73052914Y-92741871D01*
X73074840Y-92735276D01*
X73074061Y-92731934D01*
X73057519Y-92698016D01*
X73026225Y-92643953D01*
X73009662Y-92615211D01*
X72980192Y-92540210D01*
X72988133Y-92494460D01*
X73033440Y-92478983D01*
X73071468Y-92483221D01*
X73112587Y-92500289D01*
X73142361Y-92519428D01*
X73214327Y-92552438D01*
X73311843Y-92589975D01*
X73422563Y-92627646D01*
X73534141Y-92661062D01*
X73634232Y-92685830D01*
X73745004Y-92704567D01*
X73938313Y-92720178D01*
X74129548Y-92717166D01*
X74297371Y-92695229D01*
X74356242Y-92679005D01*
X74456224Y-92644311D01*
X74572984Y-92598526D01*
X74691638Y-92547240D01*
X74827894Y-92488287D01*
X75071831Y-92401092D01*
X75289343Y-92350026D01*
X75483577Y-92334240D01*
X75513418Y-92334628D01*
X75637136Y-92341917D01*
X75726493Y-92363034D01*
X75793159Y-92404683D01*
X75848806Y-92473568D01*
X75905104Y-92576394D01*
X75943424Y-92658047D01*
X75993529Y-92778417D01*
X76036052Y-92895730D01*
X76067655Y-92999757D01*
X76074167Y-93029983D01*
X76085000Y-93080267D01*
G37*
G36*
X75994003Y-90376620D02*
G01*
X75971242Y-90437456D01*
X75901103Y-90500122D01*
X75846270Y-90551190D01*
X75835859Y-90560886D01*
X75787133Y-90644881D01*
X75776690Y-90673623D01*
X75758285Y-90712832D01*
X75732296Y-90749422D01*
X75693076Y-90788090D01*
X75681667Y-90797013D01*
X75634977Y-90833531D01*
X75600471Y-90857297D01*
X75552354Y-90890438D01*
X75439560Y-90963508D01*
X75290947Y-91057435D01*
X75241798Y-91088274D01*
X75160126Y-91138704D01*
X75115281Y-91166394D01*
X75019489Y-91222516D01*
X74946945Y-91260295D01*
X74890170Y-91283380D01*
X74841683Y-91295425D01*
X74806132Y-91298897D01*
X74794008Y-91300081D01*
X74784550Y-91300555D01*
X74696047Y-91314594D01*
X74652738Y-91344263D01*
X74646610Y-91352962D01*
X74603157Y-91391788D01*
X74540857Y-91431357D01*
X74528288Y-91437828D01*
X74435113Y-91469366D01*
X74359084Y-91466111D01*
X74308790Y-91428182D01*
X74299510Y-91391385D01*
X74305473Y-91374764D01*
X74389893Y-91374764D01*
X74389900Y-91392193D01*
X74396045Y-91403436D01*
X74421156Y-91396950D01*
X74478292Y-91372381D01*
X74541611Y-91337424D01*
X74578114Y-91298897D01*
X74574016Y-91266877D01*
X74554842Y-91263658D01*
X74508202Y-91279459D01*
X74453819Y-91309891D01*
X74408710Y-91344983D01*
X74389893Y-91374764D01*
X74305473Y-91374764D01*
X74321098Y-91331216D01*
X74377137Y-91268925D01*
X74461233Y-91213512D01*
X74465703Y-91211202D01*
X74542258Y-91154811D01*
X74568678Y-91107340D01*
X74662336Y-91107340D01*
X74665084Y-91167624D01*
X74704878Y-91211779D01*
X74733726Y-91224713D01*
X74815193Y-91232636D01*
X74907734Y-91198526D01*
X74908611Y-91198049D01*
X74947876Y-91170262D01*
X74957206Y-91138704D01*
X74934972Y-91093282D01*
X74879544Y-91023901D01*
X74863806Y-91006226D01*
X74822715Y-90974950D01*
X74780968Y-90979554D01*
X74721940Y-91019581D01*
X74695393Y-91044906D01*
X74662336Y-91107340D01*
X74568678Y-91107340D01*
X74584853Y-91078278D01*
X74588694Y-91067566D01*
X74606372Y-91033653D01*
X74636321Y-90997831D01*
X74684342Y-90955311D01*
X74744598Y-90910044D01*
X74901302Y-90910044D01*
X74903468Y-90916395D01*
X74925989Y-90953143D01*
X74965074Y-91007261D01*
X74982008Y-91028265D01*
X75025843Y-91072663D01*
X75056398Y-91089884D01*
X75060307Y-91089205D01*
X75100273Y-91072162D01*
X75166818Y-91036950D01*
X75247811Y-90989903D01*
X75255774Y-90985092D01*
X75337739Y-90933630D01*
X75381097Y-90894933D01*
X75388611Y-90857297D01*
X75363040Y-90809019D01*
X75307147Y-90738396D01*
X75247880Y-90665978D01*
X75074591Y-90781208D01*
X75042979Y-90802456D01*
X74970536Y-90853144D01*
X74920177Y-90891336D01*
X74901302Y-90910044D01*
X74744598Y-90910044D01*
X74756235Y-90901302D01*
X74857800Y-90831012D01*
X74994837Y-90739652D01*
X75079259Y-90684071D01*
X75174303Y-90622414D01*
X75342207Y-90622414D01*
X75357119Y-90662100D01*
X75401413Y-90732102D01*
X75441216Y-90780966D01*
X75486584Y-90816521D01*
X75520892Y-90823442D01*
X75534476Y-90797013D01*
X75527960Y-90773863D01*
X75497132Y-90722662D01*
X75452477Y-90666945D01*
X75406897Y-90622175D01*
X75373292Y-90603815D01*
X75355081Y-90605776D01*
X75342207Y-90622414D01*
X75174303Y-90622414D01*
X75230860Y-90585724D01*
X75283393Y-90552917D01*
X75475663Y-90552917D01*
X75494859Y-90588108D01*
X75542676Y-90647762D01*
X75628199Y-90750126D01*
X75678749Y-90685863D01*
X75720494Y-90613607D01*
X75722852Y-90551190D01*
X75682194Y-90507260D01*
X75666917Y-90499799D01*
X75579663Y-90483836D01*
X75500469Y-90513724D01*
X75481333Y-90530264D01*
X75475663Y-90552917D01*
X75283393Y-90552917D01*
X75350255Y-90511161D01*
X75442719Y-90457635D01*
X75471153Y-90443485D01*
X75790135Y-90443485D01*
X75793571Y-90456888D01*
X75829454Y-90443720D01*
X75878805Y-90409803D01*
X75883199Y-90406070D01*
X75911990Y-90374499D01*
X75908554Y-90361097D01*
X75872671Y-90374264D01*
X75823319Y-90408182D01*
X75818926Y-90411914D01*
X75790135Y-90443485D01*
X75471153Y-90443485D01*
X75513523Y-90422400D01*
X75567940Y-90402708D01*
X75611243Y-90395811D01*
X75648704Y-90398962D01*
X75665168Y-90401627D01*
X75721639Y-90393908D01*
X75776268Y-90349958D01*
X75781927Y-90344127D01*
X75850158Y-90298245D01*
X75917561Y-90290492D01*
X75971856Y-90322588D01*
X75993134Y-90374499D01*
X75994003Y-90376620D01*
G37*
G36*
X73240063Y-83387825D02*
G01*
X73227762Y-83498695D01*
X73218225Y-83527156D01*
X73193782Y-83600105D01*
X73142139Y-83679295D01*
X73076850Y-83723503D01*
X73074344Y-83724367D01*
X73037924Y-83761065D01*
X73015998Y-83840785D01*
X73005250Y-83894460D01*
X72957576Y-84032398D01*
X72887765Y-84163145D01*
X72806060Y-84265959D01*
X72716277Y-84337139D01*
X72580906Y-84401061D01*
X72414250Y-84438875D01*
X72210314Y-84452457D01*
X72064990Y-84449592D01*
X71901452Y-84430724D01*
X71754397Y-84391451D01*
X71606698Y-84328247D01*
X71490138Y-84270363D01*
X71451323Y-84362544D01*
X71412866Y-84459555D01*
X71390523Y-84535332D01*
X71388874Y-84583729D01*
X71406468Y-84612851D01*
X71432311Y-84626411D01*
X71506168Y-84651111D01*
X71618442Y-84681210D01*
X71763409Y-84715639D01*
X71935343Y-84753329D01*
X72128519Y-84793211D01*
X72337215Y-84834216D01*
X72555704Y-84875276D01*
X72778262Y-84915321D01*
X72999165Y-84953283D01*
X73212687Y-84988092D01*
X73413105Y-85018680D01*
X73594693Y-85043978D01*
X73751728Y-85062917D01*
X73878483Y-85074427D01*
X73989776Y-85083460D01*
X74140990Y-85104652D01*
X74254868Y-85137617D01*
X74338413Y-85187131D01*
X74398626Y-85257970D01*
X74403547Y-85268840D01*
X74442509Y-85354911D01*
X74477065Y-85482730D01*
X74499790Y-85615530D01*
X74505369Y-85756947D01*
X74507214Y-85803720D01*
X74483791Y-85972717D01*
X74430737Y-86115448D01*
X74349270Y-86224845D01*
X74281135Y-86279418D01*
X74200620Y-86316982D01*
X74099553Y-86336487D01*
X73964354Y-86342070D01*
X73908684Y-86340285D01*
X73797875Y-86328621D01*
X73663822Y-86305291D01*
X73502806Y-86269370D01*
X73311107Y-86219931D01*
X73085007Y-86156050D01*
X72820786Y-86076800D01*
X72514725Y-85981256D01*
X72364961Y-85933889D01*
X72171822Y-85873242D01*
X72017734Y-85825616D01*
X71898304Y-85789785D01*
X71809136Y-85764523D01*
X71745839Y-85748603D01*
X71704019Y-85740797D01*
X71679282Y-85739881D01*
X71667235Y-85744626D01*
X71663924Y-85764825D01*
X71668951Y-85821318D01*
X71682906Y-85898431D01*
X71691460Y-85937906D01*
X71741752Y-86176515D01*
X71781360Y-86381117D01*
X71811567Y-86563150D01*
X71833656Y-86734051D01*
X71848909Y-86905261D01*
X71858610Y-87088215D01*
X71864042Y-87294354D01*
X71866488Y-87535116D01*
X71869375Y-88082811D01*
X72039845Y-88126938D01*
X72061889Y-88132648D01*
X72642372Y-88285596D01*
X73196012Y-88436500D01*
X73721196Y-88584806D01*
X74216308Y-88729959D01*
X74679737Y-88871405D01*
X75109868Y-89008589D01*
X75505089Y-89140957D01*
X75863785Y-89267955D01*
X76184343Y-89389027D01*
X76465149Y-89503619D01*
X76704591Y-89611177D01*
X76901055Y-89711147D01*
X77052926Y-89802973D01*
X77158593Y-89886101D01*
X77263526Y-89986645D01*
X77263434Y-90002811D01*
X77262161Y-90226725D01*
X77262152Y-90228260D01*
X77261020Y-90287203D01*
X77254815Y-90398695D01*
X77244554Y-90493043D01*
X77231711Y-90554473D01*
X77226410Y-90567791D01*
X77201851Y-90608820D01*
X77160313Y-90657611D01*
X77098443Y-90716931D01*
X77012888Y-90789547D01*
X76900295Y-90878226D01*
X76757312Y-90985735D01*
X76580585Y-91114841D01*
X76366762Y-91268312D01*
X76357303Y-91275059D01*
X75979373Y-91542261D01*
X75637771Y-91778877D01*
X75331486Y-91985550D01*
X75059510Y-92162927D01*
X74820832Y-92311652D01*
X74614443Y-92432370D01*
X74439334Y-92525727D01*
X74294495Y-92592367D01*
X74232257Y-92616377D01*
X74161181Y-92639648D01*
X74117180Y-92648874D01*
X74110857Y-92648693D01*
X74047361Y-92636711D01*
X73942628Y-92606801D01*
X73799703Y-92559995D01*
X73621633Y-92497327D01*
X73411467Y-92419829D01*
X73172251Y-92328534D01*
X73086855Y-92295485D01*
X72793792Y-92182360D01*
X72537591Y-92084069D01*
X72311603Y-91998179D01*
X72109178Y-91922253D01*
X71923664Y-91853860D01*
X71748413Y-91790564D01*
X71576774Y-91729932D01*
X71402096Y-91669529D01*
X71217730Y-91606922D01*
X71017026Y-91539675D01*
X70979146Y-91527062D01*
X70669222Y-91425128D01*
X70362747Y-91326761D01*
X70055797Y-91230884D01*
X69744448Y-91136420D01*
X69424773Y-91042292D01*
X69092849Y-90947422D01*
X68744749Y-90850734D01*
X68376550Y-90751150D01*
X67984326Y-90647592D01*
X67564153Y-90538985D01*
X67112105Y-90424249D01*
X66624257Y-90302309D01*
X66096685Y-90172087D01*
X65525463Y-90032506D01*
X65519516Y-90031058D01*
X65198500Y-89949551D01*
X64924000Y-89872671D01*
X64694145Y-89799779D01*
X64507063Y-89730238D01*
X64360885Y-89663409D01*
X64253738Y-89598653D01*
X64155284Y-89527334D01*
X64163576Y-89448005D01*
X64308680Y-89448005D01*
X64321932Y-89478460D01*
X64357081Y-89508646D01*
X64389224Y-89530452D01*
X64445297Y-89560781D01*
X64519190Y-89593341D01*
X64613867Y-89629000D01*
X64732292Y-89668629D01*
X64877429Y-89713097D01*
X65052243Y-89763276D01*
X65259699Y-89820034D01*
X65502760Y-89884242D01*
X65784392Y-89956769D01*
X66107558Y-90038486D01*
X66475223Y-90130263D01*
X66847448Y-90223001D01*
X67371736Y-90354833D01*
X67856004Y-90478370D01*
X68304775Y-90594990D01*
X68722570Y-90706071D01*
X69113910Y-90812992D01*
X69483316Y-90917131D01*
X69835311Y-91019866D01*
X70174414Y-91122575D01*
X70505149Y-91226636D01*
X70832036Y-91333428D01*
X71159596Y-91444329D01*
X71492352Y-91560718D01*
X71834823Y-91683971D01*
X72191533Y-91815468D01*
X72567002Y-91956587D01*
X72965752Y-92108706D01*
X73126691Y-92170271D01*
X73303006Y-92237288D01*
X73468557Y-92299790D01*
X73614677Y-92354518D01*
X73732698Y-92398213D01*
X73813953Y-92427617D01*
X73857391Y-92442387D01*
X73961282Y-92473583D01*
X74051107Y-92495232D01*
X74111180Y-92503336D01*
X74152062Y-92497753D01*
X74248529Y-92465020D01*
X74379738Y-92404142D01*
X74543568Y-92316442D01*
X74737897Y-92203239D01*
X74960603Y-92065853D01*
X75209567Y-91905607D01*
X75482666Y-91723819D01*
X75777780Y-91521812D01*
X76092787Y-91300905D01*
X76425566Y-91062419D01*
X76509474Y-91001328D01*
X76646775Y-90899897D01*
X76772474Y-90805286D01*
X76879555Y-90722858D01*
X76961002Y-90657972D01*
X77009801Y-90615991D01*
X77056458Y-90569077D01*
X77094985Y-90516090D01*
X77116103Y-90454744D01*
X77129412Y-90364881D01*
X77135970Y-90290403D01*
X77137448Y-90226725D01*
X77132574Y-90196863D01*
X77116862Y-90202460D01*
X77072133Y-90235267D01*
X77006691Y-90290794D01*
X76928298Y-90362739D01*
X76831891Y-90450975D01*
X76653144Y-90602538D01*
X76450041Y-90762813D01*
X76227764Y-90928518D01*
X75991492Y-91096366D01*
X75746409Y-91263076D01*
X75497693Y-91425362D01*
X75250527Y-91579941D01*
X75010091Y-91723529D01*
X74781567Y-91852842D01*
X74570135Y-91964596D01*
X74380976Y-92055507D01*
X74219271Y-92122291D01*
X74090201Y-92161664D01*
X74045615Y-92170513D01*
X74000794Y-92173951D01*
X73953107Y-92167779D01*
X73892106Y-92149535D01*
X73807345Y-92116758D01*
X73688380Y-92066986D01*
X73510737Y-91992801D01*
X73248837Y-91886332D01*
X72967988Y-91774955D01*
X72677290Y-91662121D01*
X72385841Y-91551281D01*
X72102738Y-91445887D01*
X71837081Y-91349389D01*
X71597967Y-91265239D01*
X71394495Y-91196887D01*
X71327377Y-91176601D01*
X71217767Y-91145658D01*
X71077224Y-91107348D01*
X70914180Y-91063939D01*
X70737068Y-91017700D01*
X70554322Y-90970899D01*
X70528666Y-90964370D01*
X70348694Y-90917585D01*
X70133236Y-90860206D01*
X69891953Y-90794882D01*
X69634506Y-90724260D01*
X69370557Y-90650988D01*
X69109768Y-90577714D01*
X68861801Y-90507085D01*
X68794894Y-90487912D01*
X68551657Y-90418734D01*
X68304346Y-90349142D01*
X68061432Y-90281474D01*
X67831390Y-90218070D01*
X67663916Y-90172489D01*
X68196814Y-90172489D01*
X68200663Y-90174328D01*
X68244174Y-90189395D01*
X68328147Y-90215356D01*
X68447304Y-90250734D01*
X68596369Y-90294055D01*
X68770062Y-90343843D01*
X68963106Y-90398620D01*
X69170222Y-90456911D01*
X69386134Y-90517241D01*
X69605564Y-90578133D01*
X69823232Y-90638111D01*
X70033862Y-90695699D01*
X70232176Y-90749422D01*
X70412895Y-90797803D01*
X70570742Y-90839366D01*
X70700439Y-90872636D01*
X70926413Y-90930960D01*
X71154361Y-90993448D01*
X71378624Y-91059245D01*
X71605219Y-91130424D01*
X71840163Y-91209062D01*
X72089472Y-91297234D01*
X72359164Y-91397014D01*
X72655255Y-91510480D01*
X72983763Y-91639705D01*
X73350703Y-91786765D01*
X73364843Y-91792466D01*
X73530410Y-91858374D01*
X73682749Y-91917519D01*
X73815497Y-91967546D01*
X73922293Y-92006099D01*
X73996776Y-92030819D01*
X74032583Y-92039351D01*
X74054081Y-92035457D01*
X74118185Y-92014583D01*
X74206319Y-91979814D01*
X74306061Y-91935852D01*
X74465999Y-91859111D01*
X74758027Y-91707329D01*
X75061721Y-91536274D01*
X75369991Y-91350668D01*
X75675747Y-91155232D01*
X75971899Y-90954689D01*
X76251356Y-90753761D01*
X76507029Y-90557169D01*
X76731828Y-90369635D01*
X76918662Y-90195882D01*
X77002479Y-90110791D01*
X77053713Y-90048858D01*
X77069645Y-90002811D01*
X77049752Y-89963187D01*
X76993512Y-89920522D01*
X76900401Y-89865352D01*
X76861417Y-89843229D01*
X76636940Y-89727919D01*
X76364669Y-89605579D01*
X76044922Y-89476317D01*
X75678020Y-89340239D01*
X75264280Y-89197453D01*
X74804023Y-89048066D01*
X74297567Y-88892186D01*
X73745230Y-88729920D01*
X73147333Y-88561375D01*
X72504194Y-88386658D01*
X72501641Y-88385976D01*
X72334602Y-88341680D01*
X72183787Y-88302269D01*
X72055353Y-88269306D01*
X71955462Y-88244352D01*
X71890273Y-88228971D01*
X71865945Y-88224727D01*
X71863788Y-88230882D01*
X71857792Y-88272606D01*
X71852123Y-88339006D01*
X71845022Y-88446564D01*
X72164888Y-88578708D01*
X72484753Y-88710851D01*
X72688473Y-89070963D01*
X72711803Y-89112120D01*
X72782290Y-89234549D01*
X72835492Y-89322009D01*
X72875999Y-89380667D01*
X72908399Y-89416689D01*
X72937283Y-89436240D01*
X72967240Y-89445488D01*
X73014496Y-89460332D01*
X73093885Y-89495749D01*
X73177848Y-89541531D01*
X73313409Y-89623162D01*
X73339442Y-89606679D01*
X73768895Y-89606679D01*
X73782312Y-89642789D01*
X73818407Y-89642235D01*
X73870921Y-89607494D01*
X73933591Y-89541060D01*
X73973877Y-89488280D01*
X74005901Y-89439255D01*
X74013773Y-89415934D01*
X73991734Y-89419169D01*
X73944924Y-89446059D01*
X73886705Y-89488014D01*
X73829608Y-89535276D01*
X73786162Y-89578084D01*
X73768895Y-89606679D01*
X73339442Y-89606679D01*
X73391880Y-89573478D01*
X73445395Y-89544562D01*
X73498342Y-89536361D01*
X73569666Y-89550303D01*
X73589529Y-89555512D01*
X73638499Y-89564274D01*
X73677512Y-89556819D01*
X73721840Y-89527565D01*
X73786752Y-89470927D01*
X73836681Y-89428702D01*
X73935830Y-89361715D01*
X74017799Y-89327531D01*
X74078067Y-89324052D01*
X74112113Y-89349181D01*
X74115413Y-89400822D01*
X74109062Y-89415934D01*
X74083448Y-89476877D01*
X74011694Y-89575249D01*
X74008163Y-89579385D01*
X73956564Y-89646475D01*
X73953241Y-89656131D01*
X73941415Y-89690495D01*
X73963337Y-89720923D01*
X74022951Y-89747242D01*
X74060989Y-89758322D01*
X74099667Y-89752706D01*
X74133462Y-89712627D01*
X74155054Y-89684489D01*
X74218673Y-89623157D01*
X74295362Y-89566217D01*
X74369907Y-89524275D01*
X74427094Y-89507938D01*
X74463632Y-89501709D01*
X74509224Y-89474340D01*
X74520413Y-89462692D01*
X74568334Y-89422052D01*
X74631223Y-89375520D01*
X74725338Y-89310298D01*
X75087289Y-89461745D01*
X75225929Y-89518064D01*
X75267929Y-89533492D01*
X75372740Y-89571993D01*
X75482328Y-89604091D01*
X75557750Y-89615359D01*
X75624400Y-89620556D01*
X75670255Y-89639921D01*
X75702418Y-89681689D01*
X75720491Y-89717852D01*
X75722565Y-89744836D01*
X75723662Y-89759105D01*
X75696847Y-89809542D01*
X75669986Y-89840659D01*
X75608315Y-89869199D01*
X75543991Y-89859699D01*
X75489629Y-89815774D01*
X75468213Y-89765423D01*
X75550705Y-89765423D01*
X75558982Y-89780852D01*
X75586551Y-89800172D01*
X75610976Y-89785594D01*
X75626666Y-89744836D01*
X75619700Y-89702744D01*
X75606179Y-89691252D01*
X75576231Y-89697841D01*
X75552492Y-89727332D01*
X75550705Y-89765423D01*
X75468213Y-89765423D01*
X75457843Y-89741041D01*
X75447157Y-89719702D01*
X75392454Y-89677311D01*
X75290947Y-89629050D01*
X75132654Y-89564013D01*
X75038196Y-89637916D01*
X75012946Y-89659603D01*
X74949816Y-89729611D01*
X74914319Y-89787510D01*
X74907512Y-89798613D01*
X74898968Y-89817510D01*
X74853967Y-89897852D01*
X74800713Y-89974584D01*
X74779968Y-90002049D01*
X74752309Y-90052085D01*
X74760926Y-90074278D01*
X74773393Y-90081419D01*
X74778791Y-90108837D01*
X74761697Y-90166140D01*
X74760764Y-90168707D01*
X74757457Y-90177805D01*
X74741049Y-90227917D01*
X74737344Y-90249093D01*
X74750596Y-90253485D01*
X74811856Y-90281357D01*
X74886784Y-90322469D01*
X74961037Y-90368140D01*
X75020270Y-90409687D01*
X75050138Y-90438426D01*
X75050593Y-90439286D01*
X75055961Y-90477839D01*
X75058390Y-90495284D01*
X75026872Y-90538026D01*
X74965290Y-90554820D01*
X74950850Y-90554069D01*
X74875568Y-90541304D01*
X74777534Y-90516455D01*
X74674303Y-90484350D01*
X74583433Y-90449817D01*
X74512993Y-90428255D01*
X74462056Y-90433899D01*
X74457827Y-90436834D01*
X74450241Y-90457558D01*
X74473277Y-90491062D01*
X74531634Y-90544837D01*
X74591963Y-90601909D01*
X74623735Y-90650583D01*
X74624454Y-90657506D01*
X74628658Y-90697962D01*
X74621670Y-90729395D01*
X74594652Y-90761185D01*
X74543974Y-90765296D01*
X74464274Y-90741571D01*
X74350188Y-90689854D01*
X74262994Y-90649857D01*
X74174476Y-90619444D01*
X74121140Y-90616268D01*
X74097484Y-90627406D01*
X74095003Y-90646350D01*
X74118387Y-90682159D01*
X74171312Y-90744211D01*
X74202259Y-90781739D01*
X74250650Y-90861565D01*
X74251388Y-90866232D01*
X74259642Y-90918429D01*
X74232930Y-90949975D01*
X74174207Y-90953847D01*
X74087167Y-90927687D01*
X73975503Y-90869141D01*
X73901814Y-90826960D01*
X73835881Y-90801010D01*
X73761920Y-90788629D01*
X73659629Y-90784367D01*
X73631062Y-90783971D01*
X73544487Y-90785270D01*
X73487723Y-90793947D01*
X73445763Y-90813760D01*
X73403603Y-90848466D01*
X73326510Y-90914265D01*
X73213399Y-90991053D01*
X73114684Y-91033320D01*
X73034975Y-91039339D01*
X72978880Y-91007386D01*
X72966758Y-90967844D01*
X72972804Y-90947011D01*
X73050487Y-90947011D01*
X73050771Y-90950758D01*
X73070072Y-90969107D01*
X73073448Y-90968741D01*
X73113451Y-90951201D01*
X73175181Y-90914188D01*
X73244544Y-90867176D01*
X73307443Y-90819643D01*
X73349783Y-90781065D01*
X73374873Y-90750830D01*
X73377266Y-90730959D01*
X73363121Y-90725823D01*
X73930139Y-90725823D01*
X73934607Y-90730959D01*
X73961259Y-90761595D01*
X74032828Y-90809787D01*
X74066774Y-90829295D01*
X74131658Y-90862238D01*
X74158012Y-90866232D01*
X74146468Y-90841049D01*
X74097659Y-90786461D01*
X74069689Y-90759875D01*
X74013155Y-90717813D01*
X73971117Y-90701226D01*
X73941024Y-90705205D01*
X73930139Y-90725823D01*
X73363121Y-90725823D01*
X73343770Y-90718797D01*
X73310077Y-90720076D01*
X73252469Y-90750083D01*
X73172327Y-90815371D01*
X73111545Y-90872984D01*
X73067357Y-90920661D01*
X73050487Y-90947011D01*
X72972804Y-90947011D01*
X72985383Y-90903666D01*
X73035326Y-90830174D01*
X73111519Y-90756938D01*
X73135478Y-90737176D01*
X73179251Y-90696596D01*
X73196603Y-90673168D01*
X73196498Y-90672281D01*
X73173588Y-90653649D01*
X73122766Y-90631545D01*
X73108186Y-90626787D01*
X73068789Y-90620492D01*
X73026819Y-90629605D01*
X72969818Y-90658279D01*
X72885326Y-90710664D01*
X72765602Y-90782991D01*
X72661544Y-90833667D01*
X72585456Y-90853723D01*
X72533409Y-90844655D01*
X72506745Y-90814425D01*
X72513172Y-90773759D01*
X72613810Y-90773759D01*
X72620601Y-90772445D01*
X72661799Y-90753006D01*
X72724346Y-90716713D01*
X72795518Y-90671781D01*
X72862595Y-90626423D01*
X72912857Y-90588853D01*
X72933580Y-90567286D01*
X72933809Y-90551312D01*
X72912874Y-90533973D01*
X72866868Y-90546574D01*
X72802846Y-90586271D01*
X72727863Y-90650219D01*
X72717611Y-90660124D01*
X72660198Y-90717567D01*
X72623056Y-90758198D01*
X72613810Y-90773759D01*
X72513172Y-90773759D01*
X72514737Y-90763854D01*
X72563716Y-90693872D01*
X72654616Y-90602614D01*
X72666806Y-90591409D01*
X72727169Y-90533718D01*
X72767485Y-90491411D01*
X72779576Y-90472975D01*
X72771605Y-90466815D01*
X72718627Y-90428576D01*
X72675897Y-90410743D01*
X72630053Y-90413842D01*
X72567738Y-90438398D01*
X72475590Y-90484939D01*
X72451118Y-90497293D01*
X72358166Y-90539132D01*
X72277079Y-90568427D01*
X72223122Y-90579462D01*
X72166157Y-90593610D01*
X72074985Y-90639306D01*
X71957531Y-90714328D01*
X71908670Y-90747856D01*
X71805676Y-90815529D01*
X71726849Y-90858013D01*
X71661055Y-90877567D01*
X71597157Y-90876449D01*
X71524021Y-90856919D01*
X71430512Y-90821235D01*
X71419370Y-90816842D01*
X71316721Y-90779895D01*
X71184857Y-90736750D01*
X71039574Y-90692418D01*
X70896674Y-90651910D01*
X70806728Y-90626722D01*
X70659002Y-90582681D01*
X70499555Y-90532609D01*
X70335678Y-90479034D01*
X70174657Y-90424484D01*
X70023784Y-90371488D01*
X69890346Y-90322573D01*
X69781633Y-90280267D01*
X69704933Y-90247100D01*
X69667536Y-90225598D01*
X69654846Y-90211417D01*
X69647876Y-90189426D01*
X69660876Y-90162500D01*
X69698857Y-90124926D01*
X69766826Y-90070995D01*
X69869792Y-89994994D01*
X69958184Y-89928020D01*
X70015974Y-89876184D01*
X70045746Y-89835256D01*
X70051052Y-89812348D01*
X70176853Y-89812348D01*
X70177670Y-89822808D01*
X70198032Y-89848154D01*
X70233677Y-89832642D01*
X70240877Y-89824333D01*
X70246923Y-89790653D01*
X70213383Y-89775819D01*
X70196347Y-89780062D01*
X70176853Y-89812348D01*
X70051052Y-89812348D01*
X70054408Y-89797858D01*
X70066857Y-89741131D01*
X70112813Y-89685843D01*
X70179874Y-89657812D01*
X70254455Y-89661847D01*
X70322970Y-89702760D01*
X70353147Y-89743328D01*
X70363574Y-89790653D01*
X70368778Y-89814269D01*
X70346479Y-89879678D01*
X70291766Y-89927652D01*
X70210152Y-89946289D01*
X70200923Y-89946483D01*
X70139144Y-89958961D01*
X70068063Y-89995106D01*
X69975625Y-90060805D01*
X69826802Y-90175322D01*
X69907007Y-90208049D01*
X69910000Y-90209269D01*
X69996767Y-90241201D01*
X70063990Y-90252842D01*
X70126082Y-90241683D01*
X70197457Y-90205214D01*
X70292529Y-90140926D01*
X70300257Y-90135448D01*
X70385366Y-90072252D01*
X70436876Y-90025585D01*
X70462284Y-89987308D01*
X70469087Y-89949283D01*
X70471686Y-89932083D01*
X70590851Y-89932083D01*
X70595863Y-89951034D01*
X70629410Y-89970641D01*
X70647730Y-89966564D01*
X70658329Y-89941722D01*
X70634256Y-89909667D01*
X70605047Y-89905414D01*
X70590851Y-89932083D01*
X70471686Y-89932083D01*
X70478316Y-89888197D01*
X70518701Y-89822414D01*
X70580719Y-89787828D01*
X70652848Y-89789693D01*
X70723566Y-89833261D01*
X70729821Y-89839713D01*
X70769467Y-89891874D01*
X70785674Y-89934112D01*
X70783090Y-89941722D01*
X70771378Y-89976222D01*
X70726865Y-90030383D01*
X70668524Y-90074304D01*
X70613316Y-90092406D01*
X70606336Y-90093134D01*
X70555437Y-90112457D01*
X70482291Y-90152722D01*
X70400255Y-90206760D01*
X70240002Y-90321114D01*
X70311927Y-90349866D01*
X70361309Y-90369042D01*
X70420686Y-90386546D01*
X70473193Y-90388571D01*
X70531144Y-90372984D01*
X70606847Y-90337652D01*
X70712616Y-90280442D01*
X70749890Y-90259714D01*
X70845629Y-90203372D01*
X70906535Y-90160395D01*
X70939715Y-90125202D01*
X70952276Y-90092211D01*
X70952943Y-90087749D01*
X70956925Y-90078200D01*
X71077908Y-90078200D01*
X71082919Y-90097151D01*
X71116467Y-90116758D01*
X71134787Y-90112681D01*
X71145386Y-90087839D01*
X71121313Y-90055784D01*
X71092104Y-90051531D01*
X71077908Y-90078200D01*
X70956925Y-90078200D01*
X70984106Y-90013027D01*
X71041068Y-89963347D01*
X71110830Y-89942712D01*
X71180391Y-89955125D01*
X71236751Y-90004592D01*
X71249911Y-90027992D01*
X71261461Y-90087839D01*
X71264831Y-90105300D01*
X71239132Y-90172735D01*
X71178978Y-90220431D01*
X71090538Y-90238523D01*
X71048717Y-90248217D01*
X70980215Y-90274902D01*
X70897755Y-90312627D01*
X70813116Y-90355425D01*
X70738076Y-90397332D01*
X70684415Y-90432380D01*
X70663910Y-90454605D01*
X70664123Y-90455305D01*
X70690264Y-90468574D01*
X70753801Y-90490616D01*
X70845767Y-90518532D01*
X70957193Y-90549422D01*
X71064146Y-90579238D01*
X71204214Y-90621630D01*
X71333570Y-90664100D01*
X71433913Y-90700833D01*
X71458962Y-90710786D01*
X71543390Y-90743131D01*
X71607237Y-90765763D01*
X71638267Y-90774285D01*
X71658737Y-90766978D01*
X71713150Y-90736289D01*
X71788590Y-90688169D01*
X71874850Y-90629740D01*
X71961727Y-90568122D01*
X72039017Y-90510435D01*
X72050344Y-90501248D01*
X72180504Y-90501248D01*
X72201249Y-90508396D01*
X72251614Y-90497916D01*
X72324567Y-90471215D01*
X72413078Y-90429701D01*
X72493803Y-90383154D01*
X72539489Y-90345248D01*
X72544628Y-90320462D01*
X72507006Y-90311581D01*
X72501720Y-90312110D01*
X72455383Y-90328022D01*
X72386458Y-90360115D01*
X72310432Y-90400295D01*
X72242787Y-90440471D01*
X72199008Y-90472550D01*
X72196412Y-90475064D01*
X72180504Y-90501248D01*
X72050344Y-90501248D01*
X72096513Y-90463802D01*
X72124011Y-90435341D01*
X72148203Y-90408795D01*
X72206227Y-90365756D01*
X72281365Y-90321535D01*
X72343405Y-90287634D01*
X72388015Y-90255752D01*
X72404178Y-90226502D01*
X72400733Y-90190158D01*
X72397231Y-90176320D01*
X72583432Y-90176320D01*
X72652578Y-90231683D01*
X72715914Y-90274348D01*
X72797687Y-90320462D01*
X72817198Y-90331465D01*
X72942437Y-90395441D01*
X73080466Y-90460985D01*
X73220121Y-90522807D01*
X73290355Y-90551312D01*
X73350238Y-90575616D01*
X73459654Y-90614124D01*
X73499493Y-90626440D01*
X73583546Y-90652054D01*
X73642896Y-90669604D01*
X73666653Y-90675844D01*
X73694623Y-90666048D01*
X73758826Y-90639220D01*
X73845393Y-90600944D01*
X73942598Y-90556513D01*
X73952297Y-90551942D01*
X74281632Y-90551942D01*
X74313874Y-90584405D01*
X74390575Y-90628516D01*
X74468038Y-90663981D01*
X74512581Y-90674309D01*
X74518780Y-90657506D01*
X74485461Y-90613755D01*
X74430951Y-90561446D01*
X74363292Y-90520763D01*
X74306562Y-90521219D01*
X74291758Y-90528456D01*
X74281632Y-90551942D01*
X73952297Y-90551942D01*
X74038713Y-90511217D01*
X74122012Y-90470350D01*
X74201332Y-90428377D01*
X74306298Y-90368352D01*
X74353409Y-90339506D01*
X74594056Y-90339506D01*
X74606524Y-90365076D01*
X74665144Y-90395875D01*
X74770956Y-90432684D01*
X74793003Y-90439458D01*
X74887609Y-90467008D01*
X74943717Y-90479475D01*
X74967594Y-90477839D01*
X74965509Y-90463078D01*
X74940879Y-90441730D01*
X74882004Y-90408673D01*
X74805571Y-90373707D01*
X74726675Y-90343112D01*
X74660411Y-90323165D01*
X74621874Y-90320146D01*
X74594056Y-90339506D01*
X74353409Y-90339506D01*
X74408064Y-90306041D01*
X74496703Y-90247774D01*
X74562286Y-90199885D01*
X74594887Y-90168707D01*
X74582050Y-90157457D01*
X74531605Y-90129344D01*
X74449906Y-90088239D01*
X74344248Y-90037443D01*
X74221924Y-89980258D01*
X74199366Y-89969934D01*
X74584715Y-89969934D01*
X74588694Y-89980552D01*
X74620308Y-90003442D01*
X74634176Y-90004126D01*
X74680879Y-89977805D01*
X74742073Y-89916429D01*
X74764156Y-89890148D01*
X74812876Y-89824608D01*
X74827105Y-89787510D01*
X74808274Y-89775819D01*
X74797282Y-89779538D01*
X74756059Y-89806820D01*
X74700953Y-89850994D01*
X74645202Y-89900568D01*
X74602043Y-89944046D01*
X74584715Y-89969934D01*
X74199366Y-89969934D01*
X74090229Y-89919985D01*
X74009602Y-89883787D01*
X74338567Y-89883787D01*
X74393574Y-89913245D01*
X74452201Y-89923964D01*
X74510872Y-89901589D01*
X74584772Y-89843646D01*
X74631789Y-89805013D01*
X74717701Y-89744320D01*
X74793609Y-89701141D01*
X74795686Y-89700181D01*
X74877699Y-89656791D01*
X74950696Y-89608875D01*
X75003033Y-89564939D01*
X75023066Y-89533492D01*
X75005418Y-89517535D01*
X74953116Y-89490559D01*
X74878282Y-89459731D01*
X74733499Y-89405585D01*
X74622578Y-89485242D01*
X74589712Y-89510116D01*
X74530449Y-89569656D01*
X74521281Y-89595023D01*
X74511657Y-89621654D01*
X74507833Y-89642833D01*
X74474827Y-89704534D01*
X74415134Y-89774931D01*
X74375954Y-89817201D01*
X74343226Y-89861654D01*
X74338567Y-89883787D01*
X74009602Y-89883787D01*
X73956457Y-89859927D01*
X73827902Y-89803384D01*
X73827643Y-89803273D01*
X74170717Y-89803273D01*
X74182974Y-89824605D01*
X74221616Y-89819537D01*
X74278205Y-89786770D01*
X74344052Y-89729978D01*
X74374491Y-89698270D01*
X74424328Y-89635110D01*
X74437863Y-89595023D01*
X74413701Y-89580996D01*
X74393131Y-89590063D01*
X74346062Y-89624659D01*
X74287911Y-89674598D01*
X74231053Y-89728560D01*
X74187864Y-89775226D01*
X74170717Y-89803273D01*
X73827643Y-89803273D01*
X73711857Y-89753659D01*
X73615617Y-89714054D01*
X73546476Y-89687869D01*
X73511727Y-89678407D01*
X73506911Y-89679480D01*
X73465686Y-89697379D01*
X73390828Y-89734625D01*
X73303724Y-89780078D01*
X73289098Y-89787710D01*
X73177313Y-89847726D01*
X73167255Y-89853126D01*
X73032058Y-89927364D01*
X72804471Y-90053659D01*
X72583432Y-90176320D01*
X72397231Y-90176320D01*
X72390338Y-90149086D01*
X72383447Y-90127414D01*
X72380884Y-90125671D01*
X72350116Y-90104223D01*
X72292126Y-90063621D01*
X72216403Y-90010507D01*
X72169523Y-89976771D01*
X72099743Y-89919801D01*
X72062826Y-89875450D01*
X72058721Y-89860682D01*
X72173403Y-89860682D01*
X72177297Y-89877449D01*
X72213097Y-89908859D01*
X72285470Y-89960548D01*
X72302022Y-89971978D01*
X72386123Y-90029551D01*
X72439734Y-90064304D01*
X72471007Y-90080624D01*
X72488096Y-90082897D01*
X72499152Y-90075508D01*
X72512419Y-90053659D01*
X72502737Y-90025512D01*
X72461427Y-89987343D01*
X72382991Y-89932378D01*
X72327543Y-89898530D01*
X72249980Y-89862534D01*
X72196353Y-89852983D01*
X72173403Y-89860682D01*
X72058721Y-89860682D01*
X72052021Y-89836574D01*
X72054163Y-89812135D01*
X72076576Y-89780462D01*
X72134298Y-89762591D01*
X72149337Y-89760228D01*
X72215228Y-89761828D01*
X72289240Y-89785445D01*
X72380488Y-89834870D01*
X72498084Y-89913892D01*
X72521986Y-89930344D01*
X72606290Y-89976027D01*
X72662465Y-89982303D01*
X72676738Y-89977194D01*
X72705789Y-89953495D01*
X72692308Y-89920069D01*
X72635142Y-89872271D01*
X72609242Y-89852102D01*
X72561734Y-89804720D01*
X72510884Y-89738677D01*
X72498083Y-89718733D01*
X72599950Y-89718733D01*
X72624530Y-89747718D01*
X72682238Y-89801170D01*
X72730628Y-89843326D01*
X72779264Y-89881639D01*
X72804003Y-89895660D01*
X72812187Y-89894343D01*
X72859436Y-89875219D01*
X72880017Y-89847726D01*
X72864437Y-89821609D01*
X72817141Y-89783280D01*
X72753172Y-89744771D01*
X72687957Y-89715219D01*
X72636924Y-89703759D01*
X72636032Y-89703774D01*
X72604962Y-89706617D01*
X72599950Y-89718733D01*
X72498083Y-89718733D01*
X72452419Y-89647587D01*
X72382066Y-89525062D01*
X72295549Y-89364713D01*
X72161609Y-89111695D01*
X71993661Y-89041442D01*
X71979046Y-89035372D01*
X71899926Y-89004134D01*
X71842250Y-88984064D01*
X71817639Y-88979265D01*
X71816441Y-88981670D01*
X71808000Y-89017779D01*
X71795555Y-89086979D01*
X71781340Y-89177100D01*
X71777875Y-89199774D01*
X71753360Y-89319508D01*
X71718343Y-89401751D01*
X71663730Y-89456207D01*
X71580422Y-89492578D01*
X71459323Y-89520567D01*
X71239974Y-89549597D01*
X71017908Y-89549844D01*
X70822038Y-89517145D01*
X70657604Y-89451948D01*
X70612669Y-89425851D01*
X70562182Y-89388278D01*
X70528023Y-89344150D01*
X70507724Y-89285067D01*
X70498814Y-89202634D01*
X70498823Y-89088453D01*
X70505280Y-88934125D01*
X70522671Y-88586246D01*
X70404556Y-88571083D01*
X70275090Y-88553790D01*
X70136142Y-88532216D01*
X70023162Y-88509361D01*
X69923281Y-88482078D01*
X69823631Y-88447224D01*
X69711342Y-88401652D01*
X69710925Y-88401478D01*
X69688101Y-88402452D01*
X69663575Y-88429163D01*
X69632922Y-88488480D01*
X69591712Y-88587272D01*
X69541609Y-88712128D01*
X69484231Y-88846855D01*
X69434903Y-88945567D01*
X69388554Y-89013854D01*
X69340112Y-89057308D01*
X69333052Y-89060382D01*
X69284508Y-89081518D01*
X69216669Y-89092075D01*
X69131525Y-89094569D01*
X68947035Y-89095198D01*
X68699250Y-89323529D01*
X68606955Y-89408578D01*
X68602700Y-89412500D01*
X68496293Y-89511387D01*
X68403061Y-89599507D01*
X68328710Y-89671349D01*
X68278945Y-89721404D01*
X68259473Y-89744162D01*
X68259750Y-89749498D01*
X68285073Y-89776218D01*
X68337761Y-89807227D01*
X68353923Y-89815405D01*
X68403488Y-89848009D01*
X68423450Y-89874294D01*
X68423226Y-89876113D01*
X68407351Y-89903262D01*
X68404131Y-89908768D01*
X68360308Y-89963918D01*
X68300314Y-90030696D01*
X68290057Y-90041656D01*
X68236007Y-90104031D01*
X68202635Y-90150780D01*
X68196814Y-90172489D01*
X67663916Y-90172489D01*
X67622692Y-90161269D01*
X67443811Y-90113409D01*
X67303220Y-90076830D01*
X67133411Y-90032520D01*
X67126087Y-90030532D01*
X67711357Y-90030532D01*
X67785905Y-90060951D01*
X67789608Y-90062435D01*
X67868481Y-90087417D01*
X67953216Y-90105899D01*
X68001701Y-90111267D01*
X68042920Y-90103506D01*
X68082544Y-90073034D01*
X68136142Y-90011845D01*
X68226304Y-89903262D01*
X68076045Y-89848475D01*
X67925786Y-89793688D01*
X67818572Y-89912110D01*
X67711357Y-90030532D01*
X67126087Y-90030532D01*
X66911165Y-89972191D01*
X66697751Y-89912405D01*
X67236866Y-89912405D01*
X67252961Y-89920405D01*
X67305746Y-89938443D01*
X67379847Y-89959716D01*
X67433074Y-89973323D01*
X67500099Y-89988630D01*
X67537513Y-89994705D01*
X67550031Y-89988735D01*
X67591812Y-89953882D01*
X67652059Y-89894810D01*
X67722349Y-89819502D01*
X67879892Y-89644010D01*
X67982870Y-89674863D01*
X68085848Y-89705716D01*
X68292106Y-89518461D01*
X68367712Y-89448780D01*
X68433602Y-89385838D01*
X68476883Y-89341841D01*
X68490687Y-89323529D01*
X68483199Y-89322397D01*
X68440351Y-89327616D01*
X68374084Y-89341126D01*
X68304233Y-89351922D01*
X68170407Y-89356664D01*
X68014557Y-89348552D01*
X67851370Y-89328529D01*
X67695532Y-89297540D01*
X67515553Y-89253351D01*
X67397458Y-89386732D01*
X67279363Y-89520114D01*
X67352173Y-89550625D01*
X67355533Y-89552068D01*
X67404697Y-89582924D01*
X67424984Y-89614414D01*
X67412366Y-89646365D01*
X67397736Y-89669758D01*
X67376155Y-89704264D01*
X67324620Y-89773744D01*
X67276211Y-89838366D01*
X67244372Y-89888586D01*
X67236866Y-89912405D01*
X66697751Y-89912405D01*
X66678164Y-89906918D01*
X66453446Y-89842044D01*
X66299987Y-89796075D01*
X66760018Y-89796075D01*
X66889922Y-89834653D01*
X66943235Y-89849767D01*
X67011031Y-89866659D01*
X67049889Y-89873230D01*
X67051994Y-89872962D01*
X67083033Y-89851864D01*
X67128783Y-89806985D01*
X67176829Y-89752334D01*
X67214759Y-89701921D01*
X67230161Y-89669758D01*
X67219310Y-89660968D01*
X67173103Y-89641304D01*
X67102938Y-89618160D01*
X66975714Y-89580379D01*
X66867866Y-89688227D01*
X66760018Y-89796075D01*
X66299987Y-89796075D01*
X66256048Y-89782913D01*
X66231118Y-89775273D01*
X66054077Y-89721836D01*
X65872500Y-89668274D01*
X65859249Y-89664452D01*
X66345669Y-89664452D01*
X66416534Y-89692916D01*
X66430871Y-89698639D01*
X66517993Y-89729239D01*
X66583286Y-89737335D01*
X66639945Y-89719152D01*
X66701164Y-89670913D01*
X66780137Y-89588841D01*
X66926757Y-89429506D01*
X67023665Y-89456802D01*
X67120573Y-89484099D01*
X67239511Y-89360469D01*
X67244981Y-89354740D01*
X67299094Y-89292187D01*
X67332059Y-89243027D01*
X67336922Y-89217470D01*
X67333368Y-89215134D01*
X67293000Y-89197950D01*
X67217626Y-89170578D01*
X67116483Y-89136274D01*
X66998809Y-89098294D01*
X66682222Y-88998488D01*
X66554370Y-89124528D01*
X66545300Y-89133505D01*
X66485114Y-89195012D01*
X66442618Y-89241792D01*
X66426518Y-89264327D01*
X66426620Y-89265095D01*
X66449280Y-89282874D01*
X66499576Y-89305661D01*
X66502289Y-89306710D01*
X66552064Y-89337054D01*
X66572635Y-89371069D01*
X66572627Y-89371524D01*
X66560599Y-89399262D01*
X66556656Y-89408356D01*
X66515952Y-89467609D01*
X66459152Y-89536676D01*
X66345669Y-89664452D01*
X65859249Y-89664452D01*
X65699138Y-89618270D01*
X65546738Y-89575509D01*
X65428052Y-89543674D01*
X65387987Y-89533328D01*
X65916044Y-89533328D01*
X65919976Y-89538170D01*
X65956333Y-89554849D01*
X66018608Y-89574296D01*
X66042964Y-89580948D01*
X66114072Y-89601644D01*
X66161860Y-89617382D01*
X66183491Y-89618292D01*
X66229646Y-89589736D01*
X66293153Y-89521002D01*
X66333110Y-89469863D01*
X66365940Y-89421725D01*
X66374665Y-89399262D01*
X66361260Y-89391291D01*
X66313075Y-89368114D01*
X66244058Y-89337548D01*
X66123479Y-89285862D01*
X66020229Y-89402988D01*
X65970644Y-89460733D01*
X65931423Y-89509613D01*
X65916044Y-89533328D01*
X65387987Y-89533328D01*
X65374127Y-89529749D01*
X65167984Y-89475721D01*
X64999846Y-89430006D01*
X64862062Y-89390336D01*
X64746985Y-89354449D01*
X64646965Y-89320077D01*
X64554353Y-89284957D01*
X64530626Y-89275647D01*
X64520570Y-89271895D01*
X64933635Y-89271895D01*
X64944081Y-89276595D01*
X64993123Y-89292747D01*
X65062759Y-89312097D01*
X65093588Y-89320089D01*
X65164246Y-89338696D01*
X65209870Y-89351118D01*
X65220118Y-89351446D01*
X65260876Y-89332938D01*
X65312236Y-89293832D01*
X65364323Y-89244144D01*
X65407261Y-89193889D01*
X65431175Y-89153080D01*
X65426192Y-89131733D01*
X65416361Y-89128194D01*
X65362663Y-89109256D01*
X65292687Y-89084895D01*
X65193852Y-89050686D01*
X65053976Y-89155324D01*
X65044567Y-89162423D01*
X64981569Y-89213720D01*
X64941843Y-89252874D01*
X64933635Y-89271895D01*
X64520570Y-89271895D01*
X64449852Y-89245508D01*
X64391532Y-89226180D01*
X64366973Y-89221493D01*
X64362361Y-89231411D01*
X64347436Y-89277255D01*
X64327994Y-89346040D01*
X64314257Y-89400128D01*
X64308680Y-89448005D01*
X64163576Y-89448005D01*
X64170096Y-89385626D01*
X64186585Y-89273933D01*
X64224840Y-89149242D01*
X64243834Y-89118875D01*
X64515181Y-89118875D01*
X64523881Y-89126433D01*
X64568555Y-89149234D01*
X64635233Y-89174946D01*
X64743412Y-89211807D01*
X64950039Y-89067638D01*
X65012806Y-89024893D01*
X65094633Y-88972557D01*
X65157021Y-88936744D01*
X65189961Y-88923470D01*
X65200402Y-88924797D01*
X65252719Y-88937763D01*
X65333179Y-88961593D01*
X65429153Y-88992636D01*
X65446897Y-88998663D01*
X65554863Y-89039850D01*
X65619139Y-89074673D01*
X65643479Y-89105100D01*
X65637917Y-89133291D01*
X65625543Y-89153080D01*
X65601043Y-89192263D01*
X65535359Y-89266725D01*
X65533175Y-89268946D01*
X65477010Y-89329032D01*
X65439807Y-89374485D01*
X65429520Y-89395619D01*
X65452462Y-89405238D01*
X65510636Y-89423256D01*
X65589860Y-89444886D01*
X65662278Y-89462930D01*
X65727372Y-89477644D01*
X65760330Y-89483110D01*
X65769139Y-89478307D01*
X65805658Y-89444713D01*
X65860875Y-89386104D01*
X65926703Y-89310854D01*
X65992148Y-89236174D01*
X66048654Y-89180477D01*
X66089516Y-89154223D01*
X66121525Y-89151871D01*
X66187803Y-89169042D01*
X66247601Y-89180198D01*
X66293211Y-89175594D01*
X66336834Y-89150605D01*
X66390673Y-89100606D01*
X66466932Y-89020974D01*
X66633936Y-88845843D01*
X67023372Y-88967415D01*
X67139838Y-89003394D01*
X67411782Y-89083398D01*
X67646173Y-89145061D01*
X67848293Y-89188801D01*
X68023425Y-89215034D01*
X68064294Y-89217470D01*
X68176852Y-89224179D01*
X68313855Y-89216652D01*
X68439718Y-89192871D01*
X68559724Y-89153252D01*
X68679154Y-89098214D01*
X68752213Y-89060382D01*
X68656490Y-89032819D01*
X68622365Y-89024112D01*
X68545837Y-89018917D01*
X68461668Y-89040051D01*
X68442050Y-89046168D01*
X68322799Y-89063635D01*
X68166990Y-89062216D01*
X67980985Y-89043131D01*
X67771149Y-89007600D01*
X67543845Y-88956843D01*
X67305437Y-88892081D01*
X67062289Y-88814533D01*
X66820764Y-88725421D01*
X66780764Y-88709724D01*
X66703696Y-88681884D01*
X66654386Y-88670804D01*
X66620595Y-88674697D01*
X66590081Y-88691779D01*
X66523851Y-88722805D01*
X66442044Y-88717912D01*
X66355328Y-88665600D01*
X66327749Y-88640418D01*
X66290217Y-88583729D01*
X66280401Y-88509472D01*
X66281472Y-88485510D01*
X66414000Y-88485510D01*
X66417711Y-88546001D01*
X66437965Y-88568328D01*
X66487400Y-88582530D01*
X66524369Y-88574862D01*
X66557089Y-88546001D01*
X66564160Y-88503947D01*
X66541741Y-88455538D01*
X66487400Y-88436413D01*
X66447932Y-88445305D01*
X66414000Y-88485510D01*
X66281472Y-88485510D01*
X66281992Y-88473872D01*
X66302203Y-88410239D01*
X66355328Y-88353343D01*
X66367503Y-88343700D01*
X66433078Y-88305695D01*
X66491142Y-88290296D01*
X66499039Y-88290731D01*
X66561187Y-88314609D01*
X66624829Y-88364422D01*
X66674415Y-88425437D01*
X66694399Y-88482919D01*
X66697523Y-88503702D01*
X66697684Y-88503947D01*
X66712430Y-88526447D01*
X66744958Y-88550082D01*
X66800870Y-88577365D01*
X66885931Y-88611052D01*
X67005906Y-88653899D01*
X67166559Y-88708661D01*
X67207734Y-88722323D01*
X67428094Y-88788743D01*
X67646819Y-88844313D01*
X67853200Y-88886779D01*
X68036530Y-88913886D01*
X68186099Y-88923379D01*
X68362568Y-88923288D01*
X68288471Y-88878102D01*
X68273353Y-88868441D01*
X68200378Y-88809616D01*
X68140067Y-88742786D01*
X68101669Y-88679681D01*
X68094434Y-88632032D01*
X68096654Y-88615693D01*
X68084484Y-88600939D01*
X68048070Y-88590686D01*
X67979267Y-88582881D01*
X67869931Y-88575472D01*
X67771096Y-88567317D01*
X67530904Y-88529338D01*
X67305892Y-88468853D01*
X67111661Y-88389687D01*
X67070326Y-88369971D01*
X66972956Y-88336152D01*
X66896086Y-88332530D01*
X66854389Y-88335301D01*
X66801806Y-88319052D01*
X66743881Y-88270467D01*
X66726142Y-88251548D01*
X66678372Y-88170294D01*
X66678489Y-88154754D01*
X66818928Y-88154754D01*
X66830515Y-88185375D01*
X66877045Y-88192885D01*
X66896501Y-88192257D01*
X66930487Y-88178670D01*
X66933533Y-88138091D01*
X66920595Y-88103194D01*
X66877045Y-88083297D01*
X66844750Y-88092276D01*
X66820557Y-88138091D01*
X66818928Y-88154754D01*
X66678489Y-88154754D01*
X66678980Y-88089527D01*
X66727810Y-88006682D01*
X66743837Y-87989175D01*
X66801001Y-87950664D01*
X66877016Y-87942119D01*
X66896374Y-87943291D01*
X66987970Y-87972253D01*
X67047556Y-88037374D01*
X67072622Y-88136164D01*
X67072811Y-88138091D01*
X67076668Y-88177523D01*
X67091987Y-88218309D01*
X67129105Y-88249308D01*
X67199815Y-88284251D01*
X67306562Y-88326754D01*
X67499068Y-88383644D01*
X67710133Y-88426620D01*
X67921804Y-88451523D01*
X68145299Y-88467233D01*
X68230375Y-88177240D01*
X68315450Y-87887247D01*
X68220751Y-87842004D01*
X68141529Y-87797319D01*
X68013511Y-87705284D01*
X67876450Y-87588606D01*
X67740254Y-87457028D01*
X67614835Y-87320295D01*
X67510101Y-87188151D01*
X67435963Y-87070340D01*
X67433959Y-87066537D01*
X67401272Y-87019132D01*
X67373047Y-86999596D01*
X67370771Y-86999756D01*
X67328734Y-87017992D01*
X67254426Y-87064184D01*
X67152229Y-87135058D01*
X67026526Y-87227335D01*
X66881697Y-87337740D01*
X66722125Y-87462996D01*
X66552190Y-87599827D01*
X66376276Y-87744956D01*
X66171127Y-87914868D01*
X65962175Y-88083747D01*
X65768250Y-88234830D01*
X65578364Y-88376279D01*
X65381529Y-88516257D01*
X65166758Y-88662925D01*
X64923062Y-88824444D01*
X64887440Y-88847898D01*
X64766023Y-88929404D01*
X64662250Y-89001469D01*
X64581961Y-89059879D01*
X64530991Y-89100419D01*
X64515181Y-89118875D01*
X64243834Y-89118875D01*
X64285930Y-89051571D01*
X64375597Y-88969287D01*
X64381521Y-88964912D01*
X64437253Y-88924304D01*
X64525298Y-88860677D01*
X64639408Y-88778526D01*
X64773337Y-88682342D01*
X64920836Y-88576619D01*
X65075657Y-88465849D01*
X65235790Y-88350338D01*
X65403431Y-88227420D01*
X65564896Y-88107178D01*
X65711762Y-87995939D01*
X65835607Y-87900027D01*
X65928006Y-87825768D01*
X66009334Y-87758550D01*
X66235789Y-87575415D01*
X66441000Y-87416806D01*
X66635111Y-87275502D01*
X66828267Y-87144283D01*
X67030611Y-87015929D01*
X67252288Y-86883220D01*
X67256196Y-86880738D01*
X67269196Y-86859601D01*
X67259202Y-86821422D01*
X67223678Y-86754818D01*
X67194924Y-86702895D01*
X67117171Y-86519617D01*
X67073788Y-86325387D01*
X67061066Y-86105398D01*
X67061302Y-86081675D01*
X67063414Y-86040730D01*
X67181098Y-86040730D01*
X67183702Y-86129763D01*
X67191531Y-86226041D01*
X67204044Y-86317592D01*
X67220701Y-86392444D01*
X67254656Y-86494126D01*
X67315742Y-86631208D01*
X67398376Y-86770615D01*
X67510425Y-86926856D01*
X67526154Y-86947296D01*
X67671923Y-87123443D01*
X67826415Y-87289217D01*
X67978998Y-87433797D01*
X68119039Y-87546360D01*
X68194605Y-87601122D01*
X68263901Y-87649382D01*
X68314295Y-87674207D01*
X68351835Y-87671921D01*
X68382567Y-87638846D01*
X68412539Y-87571306D01*
X68447799Y-87465622D01*
X68494394Y-87318117D01*
X68524439Y-87223481D01*
X68561772Y-87103562D01*
X68591508Y-87005251D01*
X68611168Y-86936788D01*
X68618272Y-86906411D01*
X68610775Y-86896216D01*
X68568105Y-86875601D01*
X68500258Y-86856559D01*
X68399932Y-86831547D01*
X68162030Y-86742153D01*
X67925073Y-86608962D01*
X67892266Y-86586747D01*
X67782942Y-86504507D01*
X67662791Y-86404558D01*
X67541878Y-86296141D01*
X67430269Y-86188494D01*
X67338032Y-86090858D01*
X67275232Y-86012472D01*
X67261155Y-85992560D01*
X67223538Y-85946655D01*
X67199720Y-85928238D01*
X67193730Y-85932283D01*
X67184261Y-85970912D01*
X67181098Y-86040730D01*
X67063414Y-86040730D01*
X67069629Y-85920226D01*
X67089070Y-85799566D01*
X67119077Y-85722025D01*
X67159100Y-85689931D01*
X67160092Y-85689780D01*
X67196031Y-85707193D01*
X67251471Y-85761941D01*
X67321700Y-85849401D01*
X67329898Y-85860364D01*
X67499329Y-86064075D01*
X67687148Y-86251966D01*
X67884478Y-86416593D01*
X68082440Y-86550512D01*
X68272155Y-86646279D01*
X68298563Y-86656615D01*
X68396965Y-86689649D01*
X68495886Y-86715987D01*
X68583723Y-86733224D01*
X68648873Y-86738956D01*
X68679734Y-86730777D01*
X68688679Y-86709959D01*
X68711061Y-86650697D01*
X68742440Y-86563976D01*
X68779048Y-86460072D01*
X68801530Y-86396003D01*
X68889446Y-86154567D01*
X68978829Y-85922347D01*
X69067017Y-85705555D01*
X69151348Y-85510405D01*
X69229158Y-85343110D01*
X69297787Y-85209883D01*
X69354570Y-85116938D01*
X69359829Y-85109282D01*
X69385647Y-85061410D01*
X69388468Y-85034157D01*
X69384442Y-85032178D01*
X69343129Y-85020444D01*
X69263645Y-85001359D01*
X69153205Y-84976556D01*
X69019023Y-84947669D01*
X68868313Y-84916334D01*
X68496686Y-84837170D01*
X68121477Y-84749996D01*
X67778336Y-84662341D01*
X67470554Y-84575144D01*
X67201423Y-84489339D01*
X66974232Y-84405863D01*
X66792275Y-84325654D01*
X66713725Y-84286070D01*
X66690818Y-84272631D01*
X67003158Y-84272631D01*
X67035861Y-84289550D01*
X67108981Y-84317411D01*
X67214474Y-84353381D01*
X67344832Y-84395161D01*
X67492549Y-84440450D01*
X67650118Y-84486949D01*
X67810031Y-84532359D01*
X67964782Y-84574381D01*
X68106863Y-84610714D01*
X68177305Y-84627514D01*
X68294362Y-84654316D01*
X68435585Y-84685808D01*
X68593803Y-84720471D01*
X68761843Y-84756784D01*
X68932533Y-84793227D01*
X69098699Y-84828280D01*
X69253170Y-84860421D01*
X69388773Y-84888132D01*
X69498335Y-84909891D01*
X69574685Y-84924178D01*
X69610650Y-84929473D01*
X69613936Y-84936575D01*
X69616738Y-84973755D01*
X69615420Y-84983439D01*
X69590833Y-85032468D01*
X69544980Y-85086653D01*
X69517890Y-85118125D01*
X69462647Y-85201713D01*
X69396410Y-85319453D01*
X69322760Y-85464197D01*
X69245277Y-85628794D01*
X69167540Y-85806097D01*
X69093131Y-85988954D01*
X69050137Y-86102200D01*
X68982808Y-86287907D01*
X68906258Y-86506571D01*
X68823099Y-86750342D01*
X68770990Y-86906411D01*
X68735945Y-87011372D01*
X68647411Y-87281813D01*
X68560111Y-87553817D01*
X68476657Y-87819536D01*
X68399665Y-88071121D01*
X68227220Y-88643412D01*
X68309327Y-88719376D01*
X68351629Y-88753631D01*
X68484122Y-88826519D01*
X68660520Y-88887538D01*
X68878254Y-88935711D01*
X68895224Y-88938651D01*
X69033555Y-88960238D01*
X69133756Y-88969741D01*
X69204089Y-88966908D01*
X69252815Y-88951487D01*
X69288196Y-88923226D01*
X69294050Y-88915603D01*
X69323343Y-88864004D01*
X69364124Y-88779676D01*
X69411804Y-88672425D01*
X69461798Y-88552059D01*
X69479419Y-88508683D01*
X69526532Y-88397873D01*
X69568048Y-88307352D01*
X69600000Y-88245510D01*
X69618423Y-88220735D01*
X69643036Y-88223256D01*
X69700938Y-88243175D01*
X69774471Y-88276757D01*
X69838080Y-88306996D01*
X69999861Y-88366014D01*
X70179299Y-88405225D01*
X70391090Y-88428238D01*
X70424399Y-88430634D01*
X70523548Y-88439964D01*
X70586414Y-88451477D01*
X70622827Y-88467618D01*
X70642616Y-88490835D01*
X70650838Y-88520663D01*
X70655252Y-88595273D01*
X70652073Y-88712176D01*
X70641290Y-88874278D01*
X70638612Y-88909573D01*
X70630846Y-89031849D01*
X70626505Y-89135837D01*
X70625909Y-89211466D01*
X70629379Y-89248660D01*
X70637926Y-89261671D01*
X70681983Y-89298727D01*
X70746661Y-89336266D01*
X70776154Y-89348959D01*
X70902816Y-89382124D01*
X71057141Y-89398097D01*
X71224933Y-89396025D01*
X71391996Y-89375054D01*
X71405473Y-89372427D01*
X71492885Y-89351698D01*
X71559017Y-89329879D01*
X71590450Y-89311282D01*
X71591092Y-89310191D01*
X71605005Y-89262164D01*
X71618748Y-89171196D01*
X71632019Y-89042797D01*
X71644518Y-88882478D01*
X71647996Y-88825633D01*
X71820352Y-88825633D01*
X72039686Y-88917707D01*
X72259020Y-89009780D01*
X72412420Y-89305078D01*
X72470103Y-89414999D01*
X72517595Y-89500583D01*
X72553751Y-89556294D01*
X72584024Y-89589307D01*
X72613869Y-89606795D01*
X72648740Y-89615933D01*
X72694041Y-89629854D01*
X72774727Y-89667086D01*
X72856992Y-89715830D01*
X72900713Y-89745197D01*
X72955588Y-89780752D01*
X72985506Y-89795754D01*
X73000508Y-89794476D01*
X73010639Y-89781188D01*
X73011079Y-89780078D01*
X72998749Y-89751517D01*
X72960634Y-89699499D01*
X72904273Y-89634425D01*
X72880279Y-89606421D01*
X72843988Y-89558079D01*
X72951284Y-89558079D01*
X72991137Y-89607445D01*
X73024338Y-89641155D01*
X73086824Y-89693108D01*
X73135461Y-89710957D01*
X73179480Y-89699199D01*
X73198422Y-89685748D01*
X73206359Y-89656131D01*
X73170948Y-89621484D01*
X73090100Y-89578995D01*
X73072905Y-89571298D01*
X72991963Y-89540065D01*
X72951491Y-89535639D01*
X72951284Y-89558079D01*
X72843988Y-89558079D01*
X72817652Y-89522998D01*
X72742669Y-89413282D01*
X72662725Y-89288294D01*
X72585215Y-89159051D01*
X72384257Y-88811456D01*
X72126307Y-88709169D01*
X72032307Y-88672305D01*
X71943489Y-88638374D01*
X71880513Y-88615359D01*
X71853054Y-88606883D01*
X71848103Y-88611860D01*
X71837288Y-88650975D01*
X71829051Y-88716258D01*
X71820352Y-88825633D01*
X71647996Y-88825633D01*
X71655942Y-88695747D01*
X71665989Y-88488116D01*
X71674359Y-88265095D01*
X71680749Y-88032192D01*
X71684858Y-87794919D01*
X71686385Y-87558786D01*
X71686381Y-87526998D01*
X71683806Y-87248722D01*
X71675713Y-87005333D01*
X71660776Y-86784477D01*
X71637669Y-86573805D01*
X71605065Y-86360964D01*
X71561639Y-86133601D01*
X71506063Y-85879366D01*
X71496822Y-85831402D01*
X71490276Y-85721046D01*
X71506997Y-85635129D01*
X71545667Y-85583493D01*
X71557191Y-85577014D01*
X71587261Y-85566902D01*
X71627087Y-85563329D01*
X71680712Y-85567299D01*
X71752181Y-85579817D01*
X71845536Y-85601888D01*
X71964821Y-85634515D01*
X72114079Y-85678704D01*
X72297353Y-85735459D01*
X72518687Y-85805785D01*
X72782125Y-85890686D01*
X72823773Y-85904109D01*
X73183321Y-86014397D01*
X73519016Y-86106375D01*
X73847805Y-86184716D01*
X73850774Y-86185368D01*
X73875627Y-86188590D01*
X73889966Y-86178911D01*
X73895548Y-86147411D01*
X73894127Y-86085171D01*
X73887460Y-85983270D01*
X73886090Y-85957332D01*
X74024884Y-85957332D01*
X74029090Y-86065969D01*
X74039949Y-86141159D01*
X74050111Y-86173305D01*
X74068221Y-86191778D01*
X74103601Y-86184708D01*
X74169046Y-86153298D01*
X74223127Y-86118050D01*
X74291735Y-86033092D01*
X74331512Y-85913922D01*
X74344045Y-85756947D01*
X74342154Y-85687963D01*
X74326356Y-85544233D01*
X74296547Y-85424478D01*
X74255139Y-85336784D01*
X74204543Y-85289236D01*
X74165169Y-85275971D01*
X74135431Y-85282740D01*
X74111482Y-85316841D01*
X74088542Y-85385146D01*
X74061835Y-85494528D01*
X74047201Y-85578040D01*
X74034438Y-85698637D01*
X74026833Y-85829977D01*
X74024884Y-85957332D01*
X73886090Y-85957332D01*
X73883643Y-85911029D01*
X73887901Y-85739050D01*
X73914528Y-85562779D01*
X73920914Y-85531235D01*
X73941243Y-85430176D01*
X73958121Y-85345375D01*
X73968409Y-85292566D01*
X73972299Y-85268840D01*
X73968766Y-85245828D01*
X73945582Y-85233353D01*
X73893070Y-85227446D01*
X73801549Y-85224138D01*
X73782733Y-85223103D01*
X73699350Y-85214239D01*
X73577516Y-85197567D01*
X73424142Y-85174297D01*
X73246142Y-85145641D01*
X73050428Y-85112807D01*
X72843911Y-85077006D01*
X72633503Y-85039447D01*
X72426118Y-85001342D01*
X72228667Y-84963899D01*
X72048062Y-84928328D01*
X71891216Y-84895841D01*
X71765041Y-84867646D01*
X71689044Y-84848605D01*
X71565793Y-84813766D01*
X71455916Y-84778281D01*
X71376563Y-84747457D01*
X71311138Y-84715859D01*
X71269049Y-84686283D01*
X71251740Y-84651895D01*
X71248378Y-84600255D01*
X71255329Y-84542151D01*
X71277634Y-84451878D01*
X71309970Y-84357782D01*
X71371563Y-84203825D01*
X71230823Y-84069226D01*
X71167085Y-84004004D01*
X71084988Y-83904509D01*
X71024433Y-83811190D01*
X70990624Y-83732486D01*
X70988767Y-83676833D01*
X71009687Y-83647920D01*
X71049594Y-83646969D01*
X71098167Y-83685649D01*
X71149634Y-83760941D01*
X71242462Y-83895535D01*
X71388240Y-84037960D01*
X71564239Y-84156901D01*
X71761647Y-84247559D01*
X71971651Y-84305138D01*
X72185440Y-84324841D01*
X72279220Y-84321690D01*
X72471294Y-84292620D01*
X72625852Y-84232883D01*
X72743382Y-84142153D01*
X72824370Y-84020103D01*
X72869305Y-83866404D01*
X72884235Y-83772847D01*
X72764072Y-83769302D01*
X72729714Y-83766996D01*
X72640031Y-83751482D01*
X72569332Y-83727193D01*
X72526791Y-83700446D01*
X72438204Y-83617624D01*
X72362782Y-83513881D01*
X72315108Y-83407554D01*
X72293751Y-83338371D01*
X72270333Y-83296306D01*
X72233369Y-83275039D01*
X72169285Y-83260920D01*
X72140412Y-83255875D01*
X72096173Y-83255211D01*
X72072780Y-83279448D01*
X72053883Y-83339758D01*
X72023232Y-83408939D01*
X72008127Y-83443033D01*
X71922764Y-83528703D01*
X71802952Y-83581222D01*
X71650199Y-83599616D01*
X71618247Y-83598943D01*
X71471550Y-83574648D01*
X71333610Y-83520064D01*
X71212416Y-83441336D01*
X71115957Y-83344613D01*
X71052223Y-83236043D01*
X71029202Y-83121773D01*
X71029095Y-83116821D01*
X71020668Y-83087502D01*
X70992398Y-83061978D01*
X70935320Y-83034418D01*
X70840468Y-82998988D01*
X70814200Y-82989797D01*
X70725953Y-82960494D01*
X70657296Y-82940052D01*
X70621292Y-82932436D01*
X70614130Y-82934429D01*
X70596665Y-82971659D01*
X70590851Y-83056056D01*
X70590044Y-83117449D01*
X70583120Y-83159336D01*
X70563318Y-83173541D01*
X70523881Y-83171732D01*
X70497604Y-83167560D01*
X70469708Y-83151943D01*
X70456248Y-83114130D01*
X70449713Y-83040869D01*
X70448554Y-82980147D01*
X70457247Y-82929557D01*
X71225016Y-82929557D01*
X71239982Y-82983192D01*
X71285054Y-83073232D01*
X71360503Y-83200403D01*
X71400203Y-83263860D01*
X71458288Y-83353345D01*
X71498504Y-83407925D01*
X71525220Y-83432272D01*
X71542804Y-83431053D01*
X71555626Y-83408939D01*
X71553144Y-83387568D01*
X71529858Y-83331266D01*
X71489368Y-83253554D01*
X71438120Y-83165019D01*
X71382561Y-83076247D01*
X71364732Y-83050075D01*
X71445316Y-83050075D01*
X71454339Y-83096173D01*
X71493674Y-83160742D01*
X71497203Y-83165161D01*
X71537616Y-83207504D01*
X71566732Y-83224908D01*
X71579282Y-83220711D01*
X71588237Y-83188873D01*
X71577071Y-83146683D01*
X72372310Y-83146683D01*
X72380521Y-83187131D01*
X72381370Y-83188873D01*
X72414091Y-83256042D01*
X72474709Y-83358848D01*
X72489566Y-83382466D01*
X72542692Y-83458703D01*
X72589109Y-83513819D01*
X72620154Y-83537192D01*
X72641416Y-83538649D01*
X72660842Y-83527156D01*
X72660791Y-83525880D01*
X72646847Y-83487631D01*
X72613172Y-83424426D01*
X72567022Y-83347506D01*
X72515656Y-83268113D01*
X72496247Y-83240323D01*
X72620479Y-83240323D01*
X72629545Y-83288189D01*
X72660226Y-83345808D01*
X72701275Y-83397030D01*
X72735847Y-83418325D01*
X72765399Y-83404467D01*
X72766969Y-83376554D01*
X72747145Y-83325754D01*
X72713565Y-83270036D01*
X72674912Y-83226480D01*
X72661870Y-83217110D01*
X72631698Y-83213024D01*
X72620479Y-83240323D01*
X72496247Y-83240323D01*
X72466329Y-83197487D01*
X72426299Y-83146868D01*
X72402823Y-83127497D01*
X72387772Y-83129269D01*
X72372310Y-83146683D01*
X71577071Y-83146683D01*
X71574902Y-83138487D01*
X71541986Y-83084879D01*
X71499067Y-83043340D01*
X71461820Y-83029960D01*
X71445316Y-83050075D01*
X71364732Y-83050075D01*
X71329134Y-82997821D01*
X71284288Y-82940329D01*
X71254466Y-82914356D01*
X71239890Y-82911602D01*
X71225016Y-82929557D01*
X70457247Y-82929557D01*
X70460651Y-82909748D01*
X70494098Y-82852134D01*
X70500227Y-82844548D01*
X70538798Y-82808602D01*
X70585028Y-82791816D01*
X70648135Y-82794333D01*
X70737337Y-82816298D01*
X70861850Y-82857852D01*
X71063320Y-82929146D01*
X71142207Y-82859882D01*
X71251230Y-82793728D01*
X71385832Y-82758080D01*
X71533477Y-82752280D01*
X71682817Y-82774617D01*
X71822505Y-82823379D01*
X71941193Y-82896858D01*
X72027535Y-82993341D01*
X72045751Y-83021630D01*
X72080485Y-83059698D01*
X72125567Y-83075596D01*
X72200124Y-83078791D01*
X72242158Y-83077274D01*
X72298020Y-83068694D01*
X72319902Y-83055064D01*
X72320120Y-83052555D01*
X72344940Y-83022695D01*
X72399440Y-82991379D01*
X72467195Y-82966342D01*
X72531780Y-82955315D01*
X72586351Y-82949921D01*
X72647182Y-82935116D01*
X72660760Y-82928132D01*
X72667921Y-82911663D01*
X72652648Y-82882843D01*
X72610559Y-82834702D01*
X72537273Y-82760270D01*
X72422417Y-82655037D01*
X72282411Y-82555669D01*
X72127942Y-82480433D01*
X71942001Y-82419594D01*
X71825528Y-82394567D01*
X71615723Y-82374496D01*
X71391164Y-82378343D01*
X71168515Y-82405497D01*
X70964437Y-82455350D01*
X70760339Y-82536890D01*
X70553300Y-82662624D01*
X70381140Y-82821323D01*
X70243427Y-83013611D01*
X70139727Y-83240111D01*
X70069609Y-83501446D01*
X70032639Y-83798239D01*
X70021504Y-83936179D01*
X70005163Y-84054501D01*
X69982792Y-84139335D01*
X69952172Y-84198762D01*
X69911083Y-84240864D01*
X69901236Y-84248980D01*
X69888962Y-84259495D01*
X69876105Y-84267638D01*
X69859447Y-84272361D01*
X69835772Y-84272615D01*
X69801863Y-84267351D01*
X69754502Y-84255522D01*
X69690472Y-84236079D01*
X69606556Y-84207972D01*
X69499537Y-84170153D01*
X69366198Y-84121574D01*
X69203321Y-84061186D01*
X69007690Y-83987940D01*
X68776087Y-83900788D01*
X68505295Y-83798681D01*
X68192098Y-83680571D01*
X68088017Y-83641398D01*
X67846042Y-83550945D01*
X67645546Y-83477060D01*
X67483768Y-83418776D01*
X67357945Y-83375126D01*
X67265317Y-83345145D01*
X67203122Y-83327865D01*
X67168600Y-83322319D01*
X67161699Y-83322711D01*
X67142642Y-83339614D01*
X67148693Y-83389290D01*
X67154472Y-83418997D01*
X67163252Y-83509685D01*
X67167075Y-83624320D01*
X67166231Y-83742083D01*
X67166186Y-83748399D01*
X67160834Y-83867420D01*
X67151265Y-83966882D01*
X67137728Y-84032282D01*
X67136225Y-84036408D01*
X67095965Y-84116953D01*
X67044665Y-84187618D01*
X67034256Y-84199465D01*
X67004861Y-84244840D01*
X67003158Y-84272631D01*
X66690818Y-84272631D01*
X66653973Y-84251015D01*
X66619991Y-84219099D01*
X66601980Y-84180642D01*
X66590141Y-84125963D01*
X66583085Y-84068861D01*
X66578513Y-83954874D01*
X66580706Y-83822979D01*
X66581085Y-83816816D01*
X66709119Y-83816816D01*
X66712368Y-83987715D01*
X66725420Y-84150315D01*
X66808428Y-84150315D01*
X66832944Y-84148778D01*
X66919911Y-84115315D01*
X66986612Y-84044024D01*
X67024877Y-83942739D01*
X67028047Y-83921009D01*
X67032877Y-83842731D01*
X67033337Y-83742083D01*
X67030050Y-83630910D01*
X67023642Y-83521058D01*
X67014737Y-83424372D01*
X67003959Y-83352697D01*
X66991933Y-83317879D01*
X66982728Y-83311421D01*
X66937221Y-83312072D01*
X66880061Y-83342104D01*
X66823744Y-83393268D01*
X66780768Y-83457309D01*
X66758622Y-83513011D01*
X66725212Y-83653346D01*
X66709119Y-83816816D01*
X66581085Y-83816816D01*
X66588887Y-83689795D01*
X66602276Y-83571940D01*
X66620097Y-83486035D01*
X66639114Y-83436108D01*
X66708821Y-83325707D01*
X66803684Y-83235325D01*
X66912457Y-83174270D01*
X67023893Y-83151849D01*
X67024820Y-83151856D01*
X67082135Y-83161055D01*
X67179856Y-83186644D01*
X67313264Y-83227044D01*
X67477639Y-83280673D01*
X67668259Y-83345952D01*
X67880405Y-83421300D01*
X68109356Y-83505138D01*
X68350391Y-83595886D01*
X68554699Y-83673860D01*
X68824257Y-83776700D01*
X69053721Y-83863994D01*
X69246360Y-83936766D01*
X69405443Y-83996038D01*
X69534237Y-84042831D01*
X69636012Y-84078169D01*
X69714034Y-84103074D01*
X69771574Y-84118568D01*
X69811898Y-84125675D01*
X69838276Y-84125415D01*
X69853976Y-84118812D01*
X69862266Y-84106889D01*
X69866414Y-84090667D01*
X69869689Y-84071169D01*
X69875463Y-84029376D01*
X69884408Y-83949138D01*
X69895056Y-83843443D01*
X69906161Y-83724141D01*
X69929754Y-83535876D01*
X69994847Y-83257802D01*
X70093614Y-83013903D01*
X70226771Y-82802887D01*
X70395035Y-82623463D01*
X70599121Y-82474339D01*
X70627242Y-82457801D01*
X70853705Y-82352945D01*
X71101690Y-82281691D01*
X71361932Y-82244239D01*
X71625166Y-82240791D01*
X71882127Y-82271549D01*
X72123552Y-82336714D01*
X72340174Y-82436487D01*
X72404561Y-82479371D01*
X72500091Y-82555285D01*
X72600429Y-82645208D01*
X72694469Y-82738554D01*
X72771106Y-82824736D01*
X72819235Y-82893167D01*
X72862392Y-82950341D01*
X72946116Y-83004303D01*
X72987450Y-83022087D01*
X73088213Y-83088278D01*
X73171296Y-83173473D01*
X73221639Y-83263503D01*
X73226667Y-83280260D01*
X73238659Y-83376554D01*
X73240063Y-83387825D01*
G37*
D14*
%TO.C,R6*%
X59245276Y-76227500D02*
X59754724Y-76227500D01*
X59245276Y-77272500D02*
X59754724Y-77272500D01*
%TO.C,R11*%
X59245276Y-86727500D02*
X59754724Y-86727500D01*
X59245276Y-87772500D02*
X59754724Y-87772500D01*
%TO.C,R9*%
X59245276Y-74477500D02*
X59754724Y-74477500D01*
X59245276Y-75522500D02*
X59754724Y-75522500D01*
%TO.C,Q4*%
X47400000Y-87750000D02*
X53820000Y-87750000D01*
X47400000Y-94650000D02*
X53820000Y-94650000D01*
X53820000Y-87750000D02*
X53820000Y-88020000D01*
X53820000Y-94650000D02*
X53820000Y-94380000D01*
X55550000Y-88060000D02*
X55210000Y-87590000D01*
X55890000Y-87590000D01*
X55550000Y-88060000D01*
G36*
X55550000Y-88060000D02*
G01*
X55210000Y-87590000D01*
X55890000Y-87590000D01*
X55550000Y-88060000D01*
G37*
%TO.C,R5*%
X58495276Y-70227500D02*
X59004724Y-70227500D01*
X58495276Y-71272500D02*
X59004724Y-71272500D01*
%TO.C,Q3*%
X47400000Y-80620000D02*
X53820000Y-80620000D01*
X47400000Y-87520000D02*
X53820000Y-87520000D01*
X53820000Y-80620000D02*
X53820000Y-80890000D01*
X53820000Y-87520000D02*
X53820000Y-87250000D01*
X55550000Y-80930000D02*
X55210000Y-80460000D01*
X55890000Y-80460000D01*
X55550000Y-80930000D01*
G36*
X55550000Y-80930000D02*
G01*
X55210000Y-80460000D01*
X55890000Y-80460000D01*
X55550000Y-80930000D01*
G37*
%TO.C,R12*%
X59245276Y-92977500D02*
X59754724Y-92977500D01*
X59245276Y-94022500D02*
X59754724Y-94022500D01*
%TO.C,C2*%
X56103733Y-41240000D02*
X56396267Y-41240000D01*
X56103733Y-42260000D02*
X56396267Y-42260000D01*
%TO.C,R10*%
X59245276Y-80727500D02*
X59754724Y-80727500D01*
X59245276Y-81772500D02*
X59754724Y-81772500D01*
%TO.C,Q1*%
X47400000Y-66520000D02*
X53820000Y-66520000D01*
X47400000Y-73420000D02*
X53820000Y-73420000D01*
X53820000Y-66520000D02*
X53820000Y-66790000D01*
X53820000Y-73420000D02*
X53820000Y-73150000D01*
X55550000Y-66830000D02*
X55210000Y-66360000D01*
X55890000Y-66360000D01*
X55550000Y-66830000D01*
G36*
X55550000Y-66830000D02*
G01*
X55210000Y-66360000D01*
X55890000Y-66360000D01*
X55550000Y-66830000D01*
G37*
%TO.C,Q2*%
X47400000Y-73570000D02*
X53820000Y-73570000D01*
X47400000Y-80470000D02*
X53820000Y-80470000D01*
X53820000Y-73570000D02*
X53820000Y-73840000D01*
X53820000Y-80470000D02*
X53820000Y-80200000D01*
X55550000Y-73880000D02*
X55210000Y-73410000D01*
X55890000Y-73410000D01*
X55550000Y-73880000D01*
G36*
X55550000Y-73880000D02*
G01*
X55210000Y-73410000D01*
X55890000Y-73410000D01*
X55550000Y-73880000D01*
G37*
%TO.C,R7*%
X59245276Y-82477500D02*
X59754724Y-82477500D01*
X59245276Y-83522500D02*
X59754724Y-83522500D01*
%TO.C,R8*%
X59245276Y-88477500D02*
X59754724Y-88477500D01*
X59245276Y-89522500D02*
X59754724Y-89522500D01*
%TO.C,C1*%
X70103733Y-78990000D02*
X70396267Y-78990000D01*
X70103733Y-80010000D02*
X70396267Y-80010000D01*
%TD*%
M02*
